<?xml version="1.0" standalone="no"?>
<!DOCTYPE svg PUBLIC "-//W3C//DTD SVG 20010904//EN"
 "http://www.w3.org/TR/2001/REC-SVG-20010904/DTD/svg10.dtd">
<svg version="1.0" xmlns="http://www.w3.org/2000/svg"
 width="907.000000pt" height="510.000000pt" viewBox="0 0 907.000000 510.000000"
 preserveAspectRatio="xMidYMid meet">
<metadata>
Created by potrace 1.15, written by Peter Selinger 2001-2017
</metadata>
<g transform="translate(0.000000,510.000000) scale(0.100000,-0.100000)"
fill="#000000" stroke="none">
<path d="M9062 5035 c-1 -12 -11 -38 -22 -60 -11 -22 -20 -45 -20 -52 0 -6 -7
-16 -15 -21 -9 -4 -19 -26 -22 -47 -4 -22 -12 -45 -18 -52 -7 -7 -11 -34 -10
-65 2 -44 -2 -57 -22 -80 -27 -29 -24 -49 6 -41 28 7 101 81 101 103 0 6 7 24
15 41 12 23 15 58 12 162 -1 72 -4 123 -5 112z"/>
<path d="M4005 4559 c-12 -18 4 -57 43 -103 60 -72 128 -168 147 -206 9 -19
36 -60 60 -90 23 -30 54 -77 69 -105 15 -27 35 -63 46 -80 11 -16 28 -47 40
-67 11 -20 24 -39 30 -43 5 -3 10 -14 10 -24 0 -10 11 -23 25 -29 14 -6 25
-18 25 -26 0 -8 9 -18 20 -21 22 -7 26 -20 9 -31 -17 -10 -1 -222 18 -253 16
-24 15 -26 -26 -61 -37 -32 -44 -46 -62 -115 -10 -43 -23 -83 -28 -89 -18 -22
-31 -123 -26 -200 6 -87 9 -96 33 -97 13 0 12 -2 -4 -9 -20 -8 -22 -15 -19
-88 1 -43 6 -85 11 -93 28 -43 42 -118 39 -207 -2 -84 -1 -94 18 -107 20 -14
17 -30 -6 -30 -7 0 -16 -10 -22 -22 -5 -13 -13 -23 -18 -23 -4 0 -1 -10 7 -22
8 -13 20 -42 27 -65 7 -27 18 -43 28 -43 9 -1 3 -7 -14 -14 -29 -12 -29 -13
-6 -19 12 -3 20 -10 17 -16 -4 -5 3 -12 14 -16 17 -5 18 -9 7 -26 -10 -16 -8
-27 15 -67 l27 -47 68 -6 68 -5 -60 -2 c-78 -3 -91 -15 -60 -56 13 -17 25 -42
27 -56 2 -21 8 -25 33 -23 l30 2 -26 -10 c-19 -7 -26 -17 -26 -35 0 -13 4 -27
8 -30 5 -3 59 11 119 31 87 29 113 34 127 25 17 -11 17 -11 0 -6 -20 6 -148
-32 -254 -76 -65 -28 -77 -38 -87 -79 0 -3 -9 -13 -18 -23 -10 -10 -18 -21
-18 -26 0 -5 -18 -30 -40 -55 -22 -25 -40 -51 -40 -57 0 -6 -6 -19 -14 -27 -8
-9 -28 -41 -43 -71 -16 -30 -35 -64 -41 -75 -16 -27 -62 -154 -62 -171 0 -7
-26 -57 -57 -111 -31 -54 -65 -116 -76 -138 -11 -22 -51 -86 -88 -143 -38 -58
-69 -109 -69 -115 0 -20 -54 -80 -98 -108 -53 -33 -50 -35 75 -44 88 -5 95 -4
146 23 123 66 252 65 420 -3 128 -52 174 -59 302 -49 61 5 155 8 211 8 146 -1
192 -24 350 -183 159 -159 170 -159 289 -2 71 95 141 159 210 194 59 29 134
38 279 31 140 -6 201 0 511 46 99 15 449 81 665 125 126 26 224 28 400 11 91
-9 181 -21 201 -26 20 -6 79 -17 130 -25 122 -19 285 -52 326 -67 29 -10 37
-8 101 29 38 22 100 52 138 68 63 25 81 28 206 29 95 1 142 6 150 14 8 8 14
47 16 92 4 76 2 82 -32 143 -19 36 -48 72 -63 82 -16 10 -46 35 -68 56 -176
167 -212 209 -268 312 -15 29 -50 86 -78 127 -55 82 -123 134 -202 156 -23 6
-80 21 -127 33 -47 13 -101 31 -120 41 -19 10 -51 24 -70 31 -43 16 -50 23
-89 86 -18 29 -31 64 -31 83 0 18 -5 51 -11 74 -14 55 -57 213 -70 256 -13 45
-48 192 -59 250 -4 25 -20 92 -35 150 -17 68 -24 118 -21 142 4 20 2 40 -4 43
-6 3 -10 25 -9 48 1 23 1 75 1 115 0 39 1 93 1 120 0 26 0 79 0 117 -1 39 -1
102 -2 140 0 39 -3 122 -6 186 -7 131 -1 155 80 294 39 67 50 90 93 200 24 62
56 211 49 229 -3 8 -26 28 -52 46 -40 28 -49 30 -78 21 -18 -6 -68 -13 -112
-17 -58 -5 -99 -16 -151 -40 -80 -36 -134 -45 -158 -25 -36 30 -218 14 -237
-20 -5 -10 -15 -16 -22 -14 -6 3 -29 -1 -49 -8 -25 -9 -59 -11 -110 -6 -134
14 -248 -14 -264 -63 -6 -19 -24 -25 -24 -7 0 5 -8 9 -17 7 -10 -1 -24 1 -31
5 -7 5 -14 2 -18 -8 -5 -12 -9 -13 -20 -4 -11 9 -16 6 -23 -12 -9 -21 -10 -22
-11 -4 -1 40 -15 50 -49 35 -17 -7 -38 -9 -48 -5 -30 13 -57 5 -82 -23 -16
-18 -26 -23 -29 -14 -13 41 -68 48 -132 19 -32 -15 -80 -62 -80 -77 0 -10 -3
-10 -14 -1 -8 7 -12 20 -9 30 3 10 0 22 -6 25 -7 5 -11 -2 -11 -18 0 -14 5
-28 10 -31 19 -11 0 -24 -28 -19 -37 7 -46 18 -27 34 8 7 15 19 15 26 0 8 5
14 10 14 6 0 10 5 10 10 0 6 -9 10 -19 10 -13 0 -23 -11 -31 -35 -12 -35 -50
-85 -65 -85 -4 0 -5 11 -1 24 5 21 3 23 -29 20 -19 -1 -35 1 -35 6 0 12 29 40
41 40 6 0 9 12 7 28 -3 23 -7 27 -37 27 -28 0 -35 -4 -38 -24 -2 -14 -12 -33
-23 -43 -18 -17 -20 -17 -30 0 -9 16 -11 16 -20 0 -13 -21 -30 -24 -30 -5 0 6
-17 32 -38 55 -36 42 -39 44 -97 44 -62 0 -104 9 -165 36 -20 9 -69 16 -115
17 -64 1 -99 9 -175 37 -96 36 -217 61 -226 46 -3 -4 -15 -8 -27 -8 -12 0 -31
-7 -41 -15 -11 -8 -39 -15 -62 -15 -39 0 -211 53 -309 94 -91 39 -184 67 -255
77 -41 6 -87 17 -102 25 -32 17 -64 18 -73 3z"/>
<path d="M8038 3914 c-11 -10 -10 -52 1 -58 8 -5 34 -87 36 -112 0 -6 6 -19
14 -28 12 -14 11 -19 -3 -35 -16 -17 -17 -52 -7 -187 2 -19 36 -22 77 -8 21 8
47 14 57 14 9 0 25 4 35 9 9 5 29 14 43 21 20 9 31 28 48 80 20 64 21 71 6 99
-8 17 -15 37 -15 46 0 8 -4 15 -10 15 -5 0 -12 11 -16 24 -7 31 -39 59 -84 76
-19 7 -49 18 -66 26 -39 17 -107 28 -116 18z"/>
</g>
</svg>
