<?xml version="1.0" standalone="no"?>
<!DOCTYPE svg PUBLIC "-//W3C//DTD SVG 20010904//EN"
 "http://www.w3.org/TR/2001/REC-SVG-20010904/DTD/svg10.dtd">
<svg version="1.0" xmlns="http://www.w3.org/2000/svg"
 width="2048.000000pt" height="1282.000000pt" viewBox="0 0 2048.000000 1282.000000"
 preserveAspectRatio="xMidYMid meet">
<metadata>
Created by potrace 1.15, written by Peter Selinger 2001-2017
</metadata>
<g transform="translate(0.000000,1282.000000) scale(0.100000,-0.100000)"
fill="#000000" stroke="none">
<path d="M3936 12795 c-4 -15 -17 -30 -31 -35 -14 -5 -25 -15 -25 -21 0 -16
-75 -89 -92 -89 -20 -1 -42 -22 -56 -53 -9 -20 -17 -27 -28 -23 -12 5 -15 2
-10 -10 8 -21 -11 -44 -35 -44 -11 0 -19 -6 -19 -14 0 -18 -22 -26 -49 -19
-26 7 -51 -13 -51 -38 0 -23 -18 -25 -26 -4 -5 11 -11 12 -24 5 -10 -6 -30
-10 -44 -10 -13 0 -32 -8 -42 -17 -11 -12 -34 -18 -73 -18 -31 -1 -69 -7 -84
-13 -15 -7 -31 -11 -35 -10 -4 1 -24 -4 -45 -11 -29 -10 -41 -10 -52 -1 -15
13 -75 5 -75 -10 0 -15 -39 -21 -61 -10 -16 9 -23 9 -29 0 -11 -18 -117 -15
-225 7 -85 17 -314 -4 -345 -32 -9 -8 -25 -12 -36 -9 -12 3 -27 -2 -38 -15
-11 -12 -32 -21 -48 -21 -15 0 -28 -5 -28 -10 0 -12 -42 -30 -83 -35 -16 -2
-35 -9 -44 -16 -16 -14 -28 -17 -87 -24 -21 -3 -44 -12 -51 -21 -8 -11 -20
-15 -34 -11 -13 3 -43 -3 -69 -15 -26 -11 -63 -21 -82 -22 -19 -1 -40 -4 -45
-7 -6 -4 -26 -7 -45 -7 -19 -1 -66 -6 -105 -12 -38 -6 -88 -14 -110 -17 -22
-3 -44 -9 -50 -13 -5 -4 -28 -11 -50 -15 -22 -4 -46 -12 -54 -18 -7 -6 -21
-16 -30 -22 -65 -39 -90 -58 -95 -70 -3 -8 -12 -15 -19 -15 -8 0 -20 -7 -27
-16 -8 -8 -28 -21 -45 -28 -17 -8 -48 -30 -67 -50 -19 -20 -38 -36 -41 -36 -4
0 -37 -20 -74 -45 -37 -25 -75 -45 -85 -45 -9 0 -22 -8 -27 -18 -5 -9 -31 -23
-58 -31 -26 -8 -55 -19 -63 -26 -8 -6 -42 -20 -75 -30 -33 -11 -70 -26 -82
-33 -13 -8 -23 -11 -23 -6 0 4 -5 3 -12 -4 -7 -7 -23 -12 -36 -12 -13 0 -37
-9 -52 -20 -16 -11 -43 -23 -62 -26 -18 -4 -38 -10 -43 -15 -19 -14 -135 -23
-135 -10 0 7 -4 9 -10 6 -5 -3 -10 -15 -10 -25 0 -23 -39 -38 -51 -19 -7 11
-12 9 -24 -8 -8 -12 -28 -23 -43 -25 l-27 -3 -3 -4528 c-2 -4066 0 -4530 13
-4551 14 -21 14 -25 1 -39 -14 -14 -16 -107 -16 -779 l0 -764 38 -22 37 -22
-37 0 -38 0 0 -300 0 -299 25 9 c14 5 32 7 40 4 8 -4 22 -1 30 6 22 18 30 5
16 -26 -6 -15 -9 -41 -5 -60 l6 -34 152 0 151 1 -24 19 c-32 27 -22 43 37 59
69 17 94 9 90 -32 -3 -28 -8 -33 -38 -38 -19 -4 146 -7 368 -8 344 -1 402 1
402 13 0 22 17 28 33 11 8 -8 35 -17 59 -21 42 -6 42 -6 20 10 -27 20 -28 33
-4 39 9 3 4 5 -13 6 -16 1 -37 6 -45 11 -13 9 -13 11 0 20 8 6 27 8 41 6 14
-3 31 0 37 6 6 6 24 12 39 14 37 3 74 12 81 19 10 9 -25 60 -44 63 -14 3 -15
-1 -10 -23 6 -22 4 -26 -11 -23 -10 1 -24 -1 -31 -5 -6 -5 -17 -5 -22 -2 -16
10 -12 53 6 63 14 8 13 13 -6 47 -17 31 -20 43 -11 57 16 26 14 35 -11 41 -15
4 -28 -1 -44 -18 -28 -30 -38 -17 -25 31 11 40 1 78 -23 87 -10 4 -17 -3 -21
-23 -5 -23 -12 -29 -28 -27 -17 2 -22 -3 -23 -23 0 -14 -4 -33 -8 -43 -6 -12
-3 -24 9 -37 16 -18 16 -20 2 -26 -11 -4 -26 5 -43 25 -32 38 -57 40 -73 4 -8
-18 -15 -23 -22 -16 -7 7 -6 17 3 32 12 20 10 24 -10 41 -13 11 -30 16 -38 13
-12 -4 -14 0 -8 23 8 32 8 36 -3 84 -6 25 -21 43 -51 63 -30 20 -42 35 -42 53
0 13 5 24 10 24 6 0 10 7 10 14 0 8 11 27 24 41 14 15 22 33 19 41 -6 17 24
54 44 54 7 0 13 4 13 9 0 5 10 11 22 13 35 5 34 35 -1 55 -27 16 -29 21 -25
63 3 25 6 65 7 90 1 30 11 58 30 85 18 26 27 53 27 77 0 21 -2 38 -4 38 -13 0
-76 -32 -76 -38 0 -5 -14 -7 -30 -4 -31 4 -31 5 -28 60 3 48 7 58 27 68 30 15
40 31 34 55 -9 31 -83 17 -83 -16 0 -7 -12 -28 -27 -45 -23 -28 -25 -35 -14
-52 11 -17 10 -22 -1 -29 -7 -5 -16 -9 -19 -9 -4 0 -10 -8 -13 -17 -8 -20 10
-33 45 -33 45 0 64 -33 61 -102 -3 -50 0 -64 18 -83 18 -19 20 -27 11 -44 -8
-14 -9 -27 -2 -39 7 -13 7 -22 -1 -30 -15 -15 -49 4 -42 23 4 8 -1 31 -11 51
-13 28 -14 38 -4 50 6 8 13 30 14 50 2 31 -2 37 -35 54 -21 11 -40 26 -43 35
-8 19 -33 20 -40 1 -3 -7 2 -24 10 -36 13 -19 14 -26 4 -43 -10 -16 -10 -21 1
-28 7 -5 16 -9 21 -9 12 0 8 -30 -9 -56 -17 -25 -45 -129 -38 -137 2 -2 17 -2
32 1 24 3 28 8 25 26 -3 15 1 25 12 30 57 22 46 -73 -21 -173 -17 -25 -20 -39
-14 -57 5 -12 6 -38 3 -58 -4 -29 -11 -36 -35 -41 -38 -9 -44 -25 -23 -65 14
-26 16 -51 11 -129 -3 -53 -5 -97 -6 -99 0 -2 -15 0 -33 4 -17 4 -40 7 -49 6
-28 -1 -33 20 -8 40 16 13 18 18 7 18 -9 0 -33 18 -54 40 -31 35 -41 40 -65
35 -15 -4 -28 -3 -28 2 -5 82 -5 176 1 185 14 23 -10 48 -46 48 -18 0 -37 4
-40 10 -6 9 24 73 55 116 8 12 30 25 48 29 29 6 34 4 39 -15 4 -14 12 -20 27
-18 28 4 33 43 10 86 -15 28 -16 38 -6 66 12 34 16 123 6 149 -3 9 -13 13 -26
9 -15 -3 -19 -1 -16 9 3 8 13 13 22 12 11 0 22 10 28 28 10 30 22 37 33 19 10
-17 42 7 49 36 10 38 -25 74 -54 56 -17 -10 -20 -9 -26 13 -13 52 17 234 48
283 16 26 23 30 34 21 17 -14 47 10 91 75 15 22 31 43 35 46 17 13 27 61 18
85 -13 34 4 78 28 73 14 -3 17 -13 15 -60 -4 -72 10 -86 67 -69 21 6 46 18 54
26 8 8 26 15 40 15 14 0 26 4 26 8 0 5 16 16 35 25 19 9 35 20 35 25 0 4 26 7
58 7 44 0 57 3 57 15 0 8 -11 17 -25 18 -13 2 -33 10 -44 18 -28 19 -36 18
-36 -8 0 -20 -1 -21 -16 -6 -12 11 -14 25 -9 47 5 25 12 31 32 31 14 0 41 -9
59 -21 19 -11 42 -19 51 -17 14 2 9 9 -20 26 -45 28 -41 43 9 32 39 -9 84 -45
84 -67 0 -8 13 -22 30 -31 47 -27 38 -42 -13 -23 -14 6 -28 7 -31 3 -7 -7 68
-32 98 -32 13 0 16 5 11 18 -4 9 -9 31 -12 47 -15 96 -87 355 -124 447 -10 26
-19 55 -19 64 0 10 -6 25 -14 33 -17 20 -31 81 -18 81 12 0 72 -147 72 -176 0
-11 18 -62 40 -113 22 -52 45 -119 49 -150 5 -31 21 -87 35 -124 14 -37 26
-79 26 -92 0 -28 49 -87 57 -67 9 22 28 13 48 -25 16 -30 31 -41 73 -56 l54
-19 23 22 c29 27 49 17 41 -20 -4 -24 -1 -29 21 -33 14 -2 35 0 47 7 48 25
125 94 155 139 21 32 46 54 74 67 54 24 200 70 225 70 11 0 27 12 37 26 15 23
22 25 72 22 48 -3 56 0 59 15 1 11 5 22 9 25 4 4 61 7 128 7 l122 0 60 -37
c62 -38 162 -71 250 -83 28 -3 89 -24 136 -46 47 -21 93 -39 102 -39 29 0 48
-12 62 -41 8 -15 15 -30 15 -34 0 -12 -48 -4 -85 15 -21 11 -41 18 -43 16 -8
-9 10 -26 27 -26 10 0 26 -9 36 -20 10 -11 24 -20 30 -20 7 0 18 -7 25 -15 19
-23 31 -18 24 9 -3 14 -3 29 0 35 7 10 85 -12 183 -53 146 -61 186 -75 193
-71 4 2 13 33 20 67 17 90 20 99 30 93 8 -5 5 -102 -5 -154 -6 -34 7 -47 100
-91 98 -47 155 -103 155 -153 0 -28 5 -35 33 -45 17 -6 60 -30 94 -52 58 -39
95 -53 281 -116 78 -26 157 -30 229 -14 24 6 68 11 98 11 31 1 58 6 61 10 3 5
29 9 57 9 35 0 67 8 98 24 26 12 56 26 68 29 11 3 28 18 38 35 50 87 172 115
362 82 30 -6 87 -10 125 -10 48 0 89 -7 126 -21 38 -15 75 -21 120 -20 38 1
85 -5 110 -14 44 -15 122 -62 128 -77 2 -5 32 -24 67 -44 l64 -35 52 15 c66
20 79 20 79 1 0 -8 -6 -15 -14 -15 -8 0 -17 -8 -20 -18 -9 -28 -207 -202 -230
-202 -18 0 -52 -41 -60 -72 -10 -44 -34 -61 -77 -54 -50 8 -85 -7 -104 -44
-25 -48 -55 -57 -113 -32 -61 26 -94 20 -90 -17 2 -21 -1 -26 -20 -26 -12 0
-27 -7 -32 -15 -14 -22 -62 -1 -79 35 -17 36 -28 45 -61 45 -15 0 -31 5 -37
11 -9 9 -19 6 -41 -10 -35 -25 -41 -25 -110 -7 -48 12 -53 12 -50 -3 3 -17 40
-37 123 -69 28 -10 50 -25 50 -33 0 -17 -65 -15 -166 6 -39 8 -95 12 -135 9
-77 -6 -112 7 -129 44 -5 12 -15 22 -22 22 -7 0 -13 6 -13 14 0 16 -27 29 -41
20 -5 -3 -4 -14 2 -26 11 -20 10 -20 -67 -13 -91 8 -121 20 -104 40 15 18 -70
59 -108 52 -15 -3 -42 1 -61 9 -18 8 -41 14 -51 14 -10 0 -31 7 -46 15 -16 8
-45 18 -64 21 -31 6 -103 47 -151 86 -9 8 -18 22 -20 33 -4 16 -15 21 -61 25
-45 4 -64 11 -84 32 -36 35 -27 58 24 58 46 0 88 34 62 50 -8 6 -18 10 -22 10
-4 0 -23 14 -43 31 l-35 31 -40 -20 c-37 -18 -44 -19 -70 -5 -17 8 -39 12 -49
8 -19 -6 -19 -6 1 -40 17 -29 17 -35 5 -35 -9 0 -29 12 -47 26 -17 15 -43 28
-58 29 -15 1 -34 6 -44 9 -20 9 -31 46 -15 51 49 14 49 11 17 71 -17 34 -26
62 -21 68 4 6 10 21 13 33 5 18 -4 26 -61 56 -36 19 -79 37 -95 41 -25 6 -28
5 -21 -11 4 -10 11 -34 15 -54 3 -19 10 -41 14 -47 7 -12 -9 -17 -45 -14 -12
1 -15 -5 -11 -24 4 -22 2 -25 -19 -22 -14 2 -25 11 -27 23 -8 40 -42 104 -59
109 -36 10 -189 26 -228 23 -36 -2 -40 -5 -43 -30 -4 -29 21 -67 43 -67 6 0
21 9 33 20 21 20 52 18 52 -3 0 -6 16 -27 34 -47 28 -28 38 -50 49 -105 17
-79 11 -95 -35 -95 -18 0 -38 -9 -52 -25 l-23 -25 -21 23 c-48 50 -83 84 -121
116 -23 18 -55 57 -71 87 -17 29 -48 67 -67 83 -41 33 -111 50 -146 34 -15 -7
-31 -6 -53 3 -26 11 -34 11 -50 -1 -11 -8 -26 -15 -35 -15 -21 0 -127 -58
-136 -75 -5 -7 -21 -15 -38 -17 l-30 -4 27 -13 c18 -9 29 -25 35 -50 11 -47
43 -56 43 -12 0 20 5 31 14 31 7 0 25 9 39 20 44 35 117 4 117 -50 0 -29 -27
-60 -52 -60 -25 0 -28 -24 -7 -51 l19 -24 6 23 c5 18 13 22 50 22 33 0 46 -4
51 -17 3 -10 13 -27 22 -37 12 -14 13 -20 4 -23 -7 -3 -13 -8 -13 -13 0 -18
79 -90 99 -90 16 0 79 -35 99 -54 1 -2 -3 -16 -10 -30 -8 -19 -17 -26 -30 -23
-14 4 -18 -1 -18 -20 0 -30 -16 -61 -44 -85 -22 -19 -78 -17 -104 4 -17 15
-29 1 -16 -20 6 -10 32 -21 60 -25 63 -11 79 -20 79 -42 0 -12 -10 -21 -29
-26 -26 -7 -45 -24 -46 -39 0 -3 13 -11 29 -17 36 -13 54 -70 27 -85 -9 -5
-16 -16 -16 -23 0 -18 -26 -20 -37 -3 -4 7 -8 24 -9 38 -4 92 -2 86 -21 67
-10 -10 -18 -25 -18 -35 0 -14 -10 -17 -53 -19 -48 -1 -54 1 -76 30 -14 18
-28 45 -31 60 -10 38 -49 35 -53 -4 -6 -48 -92 -47 -107 1 -3 11 -3 25 0 30 4
6 1 18 -6 26 -7 8 -16 38 -20 66 -10 59 -13 64 -56 73 -29 6 -32 4 -35 -21 -3
-26 -8 -29 -73 -41 -38 -8 -82 -16 -97 -19 -20 -5 -30 -1 -40 15 -7 12 -18 21
-24 21 -6 0 -24 10 -39 21 -23 19 -26 27 -20 57 6 30 2 38 -24 63 -17 15 -31
37 -31 48 0 17 6 21 33 21 21 0 41 8 52 20 22 25 34 25 42 3 3 -10 14 -30 24
-44 18 -26 18 -27 -1 -44 -25 -23 -25 -37 -1 -66 19 -23 20 -23 40 -5 13 12
29 17 47 13 40 -7 84 13 84 40 0 14 6 23 15 23 8 0 15 -6 15 -14 0 -11 60 -56
73 -56 2 0 3 11 2 25 0 25 2 25 85 29 75 4 88 2 107 -16 18 -17 34 -21 80 -19
78 2 85 5 108 47 25 47 11 56 -77 51 -64 -4 -87 3 -52 17 10 4 14 15 12 33 -3
24 -9 28 -68 40 -98 20 -104 20 -108 -2 -3 -12 6 -27 23 -41 31 -24 27 -51 -5
-34 -10 5 -27 10 -38 10 -41 0 -97 65 -85 98 7 18 27 15 57 -9 22 -17 28 -18
39 -7 22 21 28 63 13 83 -13 18 -14 18 -41 -3 -27 -22 -65 -30 -65 -14 0 4
-13 16 -30 25 -29 18 -30 18 -30 -2 0 -13 -7 -21 -16 -21 -11 0 -15 6 -11 20
3 14 -4 30 -24 49 -34 34 -37 51 -9 51 13 0 20 7 20 19 0 22 36 32 70 19 14
-5 28 -4 37 4 12 10 8 15 -23 29 -37 18 -74 12 -74 -12 0 -5 -21 -19 -47 -30
-27 -11 -52 -27 -56 -35 -4 -8 -18 -14 -29 -14 -12 0 -34 -12 -49 -26 -19 -18
-41 -27 -82 -31 -60 -6 -62 -11 -26 -63 23 -33 15 -90 -12 -90 -11 0 -19 -7
-19 -16 0 -13 -6 -15 -32 -9 -18 4 -46 9 -63 10 -16 0 -38 5 -48 9 -36 16 -41
-9 -13 -60 14 -25 26 -59 26 -74 0 -16 8 -42 18 -59 14 -25 15 -34 5 -50 -24
-38 9 -69 37 -36 7 8 23 15 36 15 14 0 24 6 24 14 0 7 6 19 14 25 10 9 19 7
36 -7 30 -24 21 -55 -12 -47 -21 5 -23 3 -23 -37 0 -41 2 -43 33 -46 28 -3 33
-7 30 -25 -3 -22 -24 -27 -72 -16 -13 3 -22 -3 -25 -16 -12 -40 -35 -65 -63
-65 -17 0 -31 -8 -38 -20 -6 -11 -20 -20 -30 -20 -25 0 -25 5 0 30 11 11 20
29 20 40 0 16 -7 20 -35 20 -28 0 -35 4 -35 20 0 11 -4 20 -10 20 -16 0 -12
-37 5 -44 18 -7 20 -46 3 -46 -18 1 -43 22 -51 43 -8 21 -23 22 -31 2 -4 -12
-10 -14 -25 -5 -28 14 -28 14 -41 -25 -12 -36 -30 -48 -30 -20 0 9 -7 30 -16
46 -13 26 -18 28 -31 18 -13 -11 -18 -10 -29 6 -8 10 -14 22 -14 27 0 4 -13 8
-30 8 -28 0 -29 -1 -19 -27 13 -36 5 -53 -26 -53 -29 0 -33 -20 -7 -43 14 -13
21 -14 30 -5 9 9 12 9 12 -3 0 -16 -69 -83 -77 -75 -4 4 -10 27 -12 47 -2 15
-34 18 -45 5 -6 -8 -20 -16 -31 -18 -26 -4 -31 -31 -9 -52 13 -13 15 -27 9
-62 -5 -36 -3 -50 11 -65 9 -10 20 -19 24 -19 15 0 60 53 60 70 0 19 35 46 66
52 23 4 31 -26 14 -57 -6 -12 -10 -37 -8 -56 3 -31 6 -34 43 -40 22 -3 50 -10
62 -17 12 -7 32 -12 45 -12 23 0 48 -16 48 -31 0 -11 -59 -39 -81 -39 -10 0
-21 5 -24 10 -12 19 -25 10 -25 -16 0 -29 -14 -29 167 -6 78 10 96 24 54 43
-38 17 -40 35 -4 42 37 7 63 -8 63 -36 0 -17 11 -29 45 -45 25 -12 45 -25 45
-30 0 -9 -79 -32 -110 -32 -11 0 -20 -4 -20 -8 0 -5 -10 -14 -22 -20 -19 -9
-11 -11 45 -11 37 -1 67 3 67 7 0 11 51 35 58 27 3 -3 1 -5 -4 -5 -4 0 0 -6
11 -14 15 -10 61 -14 171 -15 l152 -1 -12 35 c-7 19 -15 37 -18 41 -10 10
-128 21 -128 12 0 -4 -6 -8 -14 -8 -7 0 -19 -7 -26 -15 -19 -23 -34 -18 -53
15 -19 32 -17 35 28 42 15 3 19 10 17 31 -3 26 -1 27 25 22 15 -4 33 -8 39
-10 7 -2 29 5 49 16 l37 20 45 -38 c25 -21 60 -48 79 -61 39 -25 37 -22 24
-58 -14 -36 -1 -44 76 -44 45 0 65 4 75 17 11 13 11 17 2 20 -7 3 -13 19 -13
37 0 18 -5 37 -10 42 -7 7 3 11 34 11 49 0 53 -5 50 -57 -1 -26 -5 -34 -18
-32 -10 2 -16 -4 -16 -18 0 -15 6 -20 29 -20 24 0 28 3 24 20 -4 16 0 20 21
20 19 0 26 -5 26 -20 0 -16 7 -20 30 -20 20 0 30 5 30 15 0 8 5 15 10 15 6 0
10 -7 10 -15 0 -12 18 -15 104 -15 90 0 104 2 102 16 -2 25 24 29 31 5 3 -12
9 -21 14 -21 12 0 11 37 -1 45 -13 8 -10 93 4 128 8 20 22 30 49 38 29 8 37
15 37 32 0 13 14 38 31 55 l31 32 -31 35 c-17 20 -31 40 -31 45 0 5 -15 10
-32 12 -27 2 -32 7 -30 23 2 11 4 36 5 55 2 33 4 35 32 32 33 -4 69 -38 61
-59 -4 -9 3 -13 19 -13 39 0 75 -18 75 -38 0 -10 12 -25 27 -33 14 -8 34 -31
43 -52 l17 -38 7 40 c8 50 0 70 -30 77 -28 7 -28 10 -9 44 20 35 18 57 -5 63
-24 6 -28 48 -6 66 17 14 0 72 -31 102 -19 19 -21 19 -37 4 -10 -10 -24 -14
-36 -10 -24 7 -26 -7 -5 -25 8 -7 15 -19 15 -26 0 -20 -27 -17 -42 5 -7 10
-28 26 -47 36 -32 16 -36 16 -63 0 -23 -13 -32 -14 -43 -5 -20 16 -19 29 3 36
9 4 33 13 52 22 19 9 53 15 75 15 22 -1 62 -1 90 -1 27 -1 65 -7 85 -15 19 -8
55 -23 80 -33 25 -10 80 -38 123 -62 43 -23 95 -48 116 -56 56 -19 111 -64
111 -91 0 -14 22 -46 55 -81 30 -32 59 -72 66 -89 6 -16 20 -51 30 -78 11 -26
21 -65 23 -87 2 -22 9 -47 16 -55 9 -10 9 -19 2 -28 -7 -9 -4 -20 13 -39 23
-27 24 -27 154 -27 71 -1 132 3 135 7 2 4 33 6 68 4 35 -2 619 -6 1298 -7
1224 -4 1235 -3 1180 15 -30 11 -56 20 -57 20 -1 0 0 6 3 13 6 18 -93 97 -122
97 -24 0 -74 -45 -74 -67 0 -21 -18 -24 -55 -9 -28 12 -35 20 -35 43 0 15 -7
37 -15 47 -27 36 -18 53 40 80 30 14 55 29 55 34 0 5 26 26 58 48 31 21 77 56
102 77 25 22 56 45 70 52 14 7 40 34 59 60 18 25 43 56 55 69 124 132 154 160
194 180 26 14 52 33 59 44 19 32 50 33 86 3 45 -38 178 -136 203 -149 11 -6
26 -7 34 -2 8 5 29 2 52 -7 24 -10 50 -13 71 -8 90 19 125 17 204 -11 43 -15
92 -36 108 -46 33 -19 105 -24 121 -8 23 23 108 23 198 0 83 -21 88 -21 107
-4 10 9 19 28 19 41 0 12 6 23 13 23 9 0 8 3 -2 9 -23 15 8 146 33 138 17 -6
19 -42 1 -57 -15 -13 -21 -70 -7 -70 4 0 21 6 36 13 25 11 27 16 23 55 -3 23
-1 45 4 48 16 10 9 39 -12 52 -18 12 -21 11 -26 -8 -3 -11 -11 -19 -17 -17
-15 5 -8 108 10 128 8 8 14 24 14 34 0 10 9 37 19 59 10 23 21 52 24 66 18 81
30 116 52 142 14 16 25 37 25 46 0 17 18 67 57 162 10 25 30 63 44 85 14 22
29 56 33 76 4 25 24 55 62 95 l55 58 32 -14 c21 -9 70 -14 142 -15 95 0 120 4
185 27 123 44 140 52 145 69 5 14 16 17 53 15 27 -1 53 -6 60 -10 7 -4 12 -2
12 3 0 6 7 11 15 11 8 0 15 -7 15 -15 0 -8 -4 -15 -10 -15 -13 0 -13 -37 -1
-45 6 -3 9 -23 8 -45 -1 -28 -6 -40 -20 -44 -16 -4 -16 -7 -5 -26 11 -19 10
-24 -9 -40 -27 -21 -29 -30 -8 -30 8 0 15 5 15 10 0 17 18 11 46 -15 26 -24
26 -25 10 -50 -10 -15 -27 -30 -38 -34 l-22 -8 23 -6 c13 -3 44 4 74 18 29 12
60 25 71 29 16 5 16 9 5 23 -13 15 -10 16 29 10 26 -5 42 -3 42 3 0 5 -6 10
-14 10 -10 0 -14 10 -14 30 1 30 18 44 18 14 0 -11 6 -14 23 -8 12 3 28 11 35
16 14 12 16 48 2 48 -5 0 -10 7 -10 15 0 8 -9 15 -20 15 -11 0 -20 7 -20 15 0
9 -11 20 -25 25 -17 7 -25 17 -25 34 0 14 -8 29 -17 35 -16 9 -16 12 -3 25 8
8 30 17 49 18 30 3 36 -1 41 -22 l7 -25 11 28 c6 15 16 27 22 27 17 0 23 -29
10 -46 -10 -11 -10 -18 -2 -26 18 -18 23 -5 27 75 4 84 0 88 -78 79 -28 -3
-37 -9 -37 -23 0 -10 -6 -19 -14 -19 -8 0 -16 -7 -20 -15 -7 -20 -33 -19 -44
0 -7 13 -16 14 -52 6 -27 -6 -49 -6 -55 -1 -7 6 -15 6 -21 0 -6 -6 -14 -2 -22
10 -11 18 -9 24 12 45 28 28 57 32 78 12 7 -7 28 -20 46 -29 28 -15 34 -15 47
-2 14 14 21 54 10 54 -3 0 -14 -5 -25 -12 -10 -7 -22 -9 -26 -5 -11 11 7 25
37 29 15 2 33 8 40 14 8 6 29 16 47 24 25 10 31 17 27 31 -5 15 -1 19 20 19
25 0 25 -1 10 -24 -15 -22 -14 -24 9 -40 39 -25 56 -21 56 16 0 17 7 39 16 49
22 24 11 48 -26 62 -35 13 -37 40 -4 45 24 3 36 40 27 85 -4 20 0 34 13 46 11
10 39 44 64 75 93 118 161 196 171 196 5 0 13 10 18 23 13 34 97 75 157 78 40
2 58 -2 79 -19 15 -12 34 -22 41 -22 7 0 19 -6 26 -12 13 -12 54 -36 142 -81
21 -11 41 -29 44 -39 3 -11 20 -22 46 -28 42 -11 164 -58 224 -88 45 -22 296
-296 302 -331 3 -14 16 -44 30 -66 14 -22 32 -53 41 -70 16 -33 42 -40 47 -12
2 10 -3 17 -11 17 -9 0 -14 11 -15 30 -1 33 13 38 44 15 10 -8 33 -15 50 -15
36 0 52 -31 28 -54 -8 -8 -14 -19 -14 -24 0 -11 -44 -42 -60 -42 -16 0 -12 27
6 34 17 7 10 26 -11 26 -7 0 -19 -16 -25 -35 -6 -19 -18 -35 -25 -35 -8 0 -19
-9 -25 -19 -5 -11 -30 -30 -55 -42 -25 -12 -45 -26 -45 -30 0 -4 -7 -15 -16
-24 -9 -9 -14 -19 -10 -22 3 -4 13 2 20 13 8 10 17 16 20 13 10 -9 -24 -69
-39 -69 -22 0 -39 -41 -36 -83 1 -21 -3 -45 -9 -53 -15 -18 -3 -18 30 1 28 15
53 3 43 -21 -3 -8 0 -14 5 -14 16 0 26 41 13 50 -13 7 30 60 49 60 15 0 12
-26 -4 -39 -7 -6 -11 -22 -8 -36 2 -15 0 -25 -7 -25 -6 0 -16 -11 -21 -24 -6
-18 -14 -23 -29 -19 -16 4 -19 0 -18 -29 2 -27 -2 -34 -20 -36 -33 -5 -28 -19
12 -37 33 -16 36 -16 64 4 39 28 78 28 86 0 5 -15 2 -25 -8 -31 -9 -5 -14 -15
-10 -24 4 -12 1 -15 -13 -12 -11 2 -18 11 -16 21 4 24 -25 22 -38 -3 -9 -17
-14 -18 -32 -9 -17 9 -23 9 -26 0 -2 -6 -9 -11 -16 -11 -6 0 -19 -9 -29 -20
-9 -11 -24 -20 -33 -20 -12 0 -14 -3 -6 -12 14 -17 9 -101 -6 -106 -21 -7 -13
-38 13 -50 14 -6 25 -18 25 -27 0 -8 7 -15 15 -15 18 0 34 -28 28 -49 -6 -23
61 -48 83 -31 8 7 27 10 43 7 21 -4 34 -1 46 13 10 11 26 20 37 20 23 0 23 5
-9 59 -2 2 -11 -3 -21 -12 -25 -23 -48 -4 -55 46 -5 30 -2 40 14 50 10 6 19
19 19 29 0 9 7 24 16 33 15 15 18 12 41 -36 13 -29 21 -59 18 -67 -6 -16 15
-72 27 -72 12 0 10 78 -2 85 -16 10 -11 41 10 60 10 9 19 29 19 44 -1 43 13
116 24 123 6 3 33 -10 61 -29 75 -52 86 -64 86 -89 0 -25 15 -40 25 -24 8 13
42 13 50 -1 4 -6 4 -30 0 -55 -5 -39 -9 -44 -31 -44 -23 0 -25 -3 -19 -30 6
-26 4 -30 -15 -30 -17 0 -21 4 -17 20 7 26 -9 26 -23 0 -6 -12 -21 -20 -36
-20 -17 0 -27 -8 -34 -25 -5 -14 -16 -25 -24 -25 -7 0 -18 -6 -24 -12 -14 -18
-26 -88 -15 -88 5 0 31 20 56 45 26 25 52 45 57 45 6 0 10 -13 10 -30 0 -20 8
-34 23 -45 13 -8 28 -25 33 -38 12 -28 9 -121 -5 -156 -15 -36 -30 -142 -33
-228 -3 -71 -4 -73 -48 -118 -51 -52 -45 -66 21 -58 61 9 87 -14 87 -76 0 -40
-6 -56 -29 -83 -27 -32 -29 -32 -35 -11 -9 34 -44 36 -87 6 -32 -22 -40 -24
-48 -12 -5 8 -9 18 -9 22 0 4 -14 -2 -30 -15 -22 -16 -26 -24 -18 -30 7 -4 21
-5 31 -2 22 7 24 -31 1 -40 -27 -10 -40 -7 -65 17 -62 56 -105 70 -129 41 -8
-8 -29 -22 -48 -30 -30 -12 -36 -12 -46 0 -9 13 -14 12 -35 -5 -21 -17 -22
-21 -9 -37 8 -9 18 -25 21 -34 6 -16 24 -18 187 -18 l180 0 25 50 c29 57 50
71 69 45 12 -16 15 -16 44 -1 17 9 42 16 56 16 35 0 40 14 26 81 -12 57 -12
61 9 80 21 20 26 40 22 92 -2 18 8 44 24 68 l27 38 18 -22 c16 -19 17 -24 4
-38 -20 -22 -17 -31 6 -17 26 17 36 4 21 -29 -10 -22 -9 -29 4 -42 14 -14 17
-14 25 -1 7 10 10 11 10 3 0 -21 24 -14 42 12 13 17 16 30 9 47 -4 13 -6 28
-4 35 2 6 -1 14 -6 18 -6 3 -11 17 -11 30 0 13 -4 27 -10 30 -5 3 -10 19 -10
36 0 22 5 29 19 29 13 0 21 8 23 22 2 14 11 24 23 26 20 4 45 28 45 44 0 5
-12 7 -27 6 -24 -3 -28 1 -31 27 -2 17 -9 36 -15 43 -8 11 -6 18 10 30 13 11
23 34 28 66 6 45 5 48 -12 42 -10 -4 -31 -10 -46 -13 -17 -3 -33 -16 -39 -29
-6 -13 -19 -26 -30 -29 -22 -8 -23 -21 -2 -33 13 -7 14 -13 5 -30 -6 -11 -12
-51 -13 -89 -1 -57 -5 -72 -26 -93 l-24 -25 -19 24 c-13 16 -17 31 -12 49 4
17 2 23 -6 18 -13 -9 -15 13 -2 33 6 10 3 27 -12 51 l-21 37 24 33 c13 18 26
49 29 69 5 30 11 37 34 39 30 4 33 13 15 41 -10 16 -6 25 21 60 33 42 64 53
74 26 5 -12 10 -12 34 0 44 23 62 19 79 -20 8 -19 14 -38 13 -42 -4 -26 3 -53
14 -53 19 -1 67 -47 67 -65 0 -9 -7 -18 -15 -21 -8 -4 -15 -10 -15 -15 0 -5 7
-9 15 -9 22 0 18 -18 -6 -31 -15 -8 -18 -14 -10 -22 16 -16 14 -54 -4 -61 -8
-3 -15 -14 -15 -24 0 -10 -5 -23 -11 -29 -8 -8 -8 -13 0 -17 6 -4 11 -18 11
-31 0 -33 14 -38 41 -16 21 17 22 22 11 41 -15 25 -8 73 14 91 8 6 14 20 14
30 0 24 35 34 71 19 16 -7 29 -15 29 -18 0 -3 -12 -19 -27 -34 -26 -27 -26
-28 -7 -43 10 -8 25 -15 32 -15 6 0 12 -5 12 -11 0 -6 -9 -9 -20 -6 -15 4 -19
0 -17 -16 1 -14 -6 -25 -20 -32 -17 -7 -23 -19 -25 -50 l-3 -40 -40 3 c-61 4
-103 -6 -101 -25 2 -24 -25 -28 -31 -4 -6 25 -19 27 -27 4 -4 -10 -1 -22 8
-28 8 -6 18 -23 21 -38 4 -14 13 -31 21 -38 22 -18 17 -43 -16 -74 -16 -16
-30 -38 -30 -49 -1 -45 -90 -106 -154 -106 -28 0 -40 -24 -26 -50 15 -28 12
-40 -12 -50 -15 -5 80 -9 258 -9 269 -1 282 0 299 19 10 11 26 20 35 20 10 0
20 9 23 20 3 12 14 20 25 20 18 0 19 -3 9 -30 -16 -41 0 -56 39 -36 59 29 80
35 129 33 45 -2 50 -4 48 -24 -3 -22 1 -23 56 -23 51 0 59 3 69 24 6 13 8 33
5 45 -6 23 -13 21 109 26 59 2 71 5 104 34 l36 32 23 -21 22 -21 34 23 c19 13
44 33 56 45 13 13 29 20 41 17 13 -4 24 3 35 20 11 16 23 23 32 20 9 -4 30 7
50 25 48 41 69 41 60 0 -6 -24 -4 -30 6 -27 8 3 16 13 18 24 7 40 21 45 93 38
50 -5 76 -3 95 7 21 12 29 11 55 -4 26 -15 31 -15 44 -2 19 18 32 18 64 0 21
-11 22 -15 9 -20 -9 -3 -33 -7 -53 -8 -42 -2 -45 -15 -11 -45 14 -12 25 -28
25 -35 0 -9 10 -12 30 -9 24 3 37 -2 60 -24 16 -16 30 -37 30 -46 0 -10 8 -25
18 -35 10 -10 26 -30 35 -45 17 -27 59 -39 71 -19 7 11 56 2 56 -10 0 -5 58
-9 130 -8 131 0 161 9 126 35 -26 19 -16 47 22 56 34 9 39 17 21 35 -13 13
-108 6 -123 -8 -6 -5 -1 -18 13 -33 13 -14 20 -29 16 -35 -10 -18 -78 -13
-126 10 -97 44 -113 55 -128 86 -9 18 -19 33 -24 33 -19 0 -87 52 -87 65 0 9
11 32 23 53 26 40 27 108 2 127 -10 8 -11 22 -5 55 8 38 6 50 -11 72 -10 15
-19 32 -19 37 0 26 -35 80 -53 83 -33 5 -33 28 1 28 36 0 44 8 31 32 -6 11 -8
27 -5 35 6 14 9 14 26 -2 20 -18 21 -18 51 10 25 25 33 28 49 17 12 -7 21 -8
25 -2 3 6 18 10 33 10 35 0 60 45 38 69 -7 9 -11 22 -9 29 3 6 -2 12 -10 12
-9 0 -19 -9 -22 -20 -4 -11 -15 -20 -26 -20 -20 0 -20 0 0 26 16 21 18 30 10
46 -11 21 1 38 29 38 19 0 14 18 -9 30 -11 7 -25 24 -31 40 -11 33 -49 46 -98
35 -22 -5 -34 -16 -45 -41 -14 -33 -16 -34 -54 -28 -31 5 -48 2 -75 -16 -20
-12 -36 -26 -36 -31 0 -5 -14 -9 -31 -9 -25 0 -33 6 -42 30 -7 18 -19 30 -29
30 -13 0 -18 8 -18 29 0 16 6 31 13 34 9 3 9 7 1 18 -28 34 -64 110 -61 130 3
32 -19 35 -27 3 -5 -17 -1 -35 9 -50 19 -29 19 -44 0 -44 -20 0 -19 -27 1 -38
13 -7 14 -15 5 -48 -9 -33 -8 -45 10 -82 12 -24 19 -46 15 -49 -3 -3 -23 -7
-43 -8 -30 -2 -39 -7 -41 -23 -4 -27 -28 -46 -47 -38 -12 4 -14 10 -5 25 14
27 13 30 -11 24 -12 -4 -32 3 -49 16 -16 11 -36 21 -44 21 -22 0 -30 19 -15
36 9 11 8 18 -6 34 -29 32 -40 24 -39 -30 0 -33 6 -56 18 -69 18 -20 17 -22
-13 -67 -17 -26 -31 -53 -31 -61 0 -7 -4 -13 -10 -13 -5 0 -10 -9 -10 -20 0
-24 -24 -36 -69 -35 -33 0 -36 3 -58 60 -18 43 -23 73 -20 108 3 38 1 45 -9
36 -7 -6 -14 -25 -16 -42 -2 -24 -8 -33 -25 -35 -18 -3 -23 2 -24 20 l0 23
-12 -23 c-9 -20 -7 -26 19 -47 16 -13 36 -24 44 -25 11 0 9 -5 -6 -21 -25 -24
-94 -34 -94 -13 0 8 5 14 11 14 5 0 7 4 4 10 -3 5 -1 19 5 29 9 17 6 22 -17
34 -47 24 -83 29 -83 13 0 -20 -25 -37 -43 -30 -15 5 -15 8 1 32 18 28 6 26
-30 -6 -37 -31 -8 -78 40 -65 12 3 22 1 22 -3 0 -5 -18 -45 -40 -88 -44 -88
-47 -98 -25 -116 8 -7 15 -21 15 -32 0 -19 5 -20 59 -16 57 4 58 3 69 -25 12
-31 33 -29 25 2 -7 26 15 36 36 17 16 -15 19 -15 31 -1 24 29 70 12 70 -26 0
-10 6 -19 12 -21 8 -3 1 -16 -19 -36 -33 -33 -43 -39 -43 -22 0 5 -10 24 -23
43 l-23 34 -38 -39 c-29 -29 -46 -38 -70 -38 -17 1 -40 0 -51 -2 -16 -2 -21 3
-23 30 -4 39 -23 42 -51 6 -15 -19 -18 -31 -11 -43 11 -21 -1 -78 -25 -114
-12 -20 -26 -27 -48 -27 -30 0 -30 0 -12 -20 18 -20 18 -21 -1 -35 -10 -8 -26
-15 -35 -15 -9 0 -24 -11 -33 -25 -20 -30 -32 -32 -39 -6 -6 23 -74 35 -81 14
-3 -8 -18 -12 -38 -9 -29 3 -33 7 -30 29 2 14 -2 28 -7 32 -6 3 -11 -1 -11 -9
0 -9 -7 -16 -15 -16 -9 0 -15 9 -15 25 0 18 5 25 18 25 11 0 27 9 37 20 18 19
17 20 -3 20 -12 0 -22 5 -22 10 0 6 6 10 14 10 8 0 18 10 22 23 10 34 35 57
61 57 16 0 23 6 23 20 0 11 5 29 12 40 10 15 9 22 -5 38 -20 22 -21 42 -5 77
16 35 31 32 23 -5 -4 -17 -4 -30 0 -30 10 0 38 31 52 58 11 21 11 29 -3 50
-12 19 -14 30 -6 47 11 25 5 65 -9 65 -5 0 -9 -3 -10 -7 0 -5 -1 -20 -3 -34
-3 -51 -86 -122 -86 -74 0 8 -6 15 -14 15 -10 0 -13 -12 -12 -42 2 -33 -3 -50
-23 -75 -14 -18 -31 -33 -38 -33 -6 0 -14 -18 -18 -39 -11 -68 -84 -94 -93
-34 -2 15 13 35 53 69 54 47 101 110 96 128 -1 5 6 25 16 45 9 20 17 40 18 44
0 5 9 15 20 23 13 10 18 24 17 48 -2 24 3 38 14 44 13 7 16 18 11 47 -4 25 -1
48 9 67 14 27 14 32 -1 48 -16 17 -15 19 6 30 19 10 25 9 38 -6 9 -11 26 -28
39 -38 21 -18 23 -18 42 -1 11 10 20 24 20 32 0 16 3 15 -37 4 -18 -5 -35 -6
-38 -1 -7 11 47 120 60 120 6 0 18 9 28 20 28 33 40 25 33 -20 -9 -55 6 -50
33 12 19 44 21 54 8 63 -7 5 -17 32 -20 58 -6 40 -3 53 14 77 26 34 22 51 -8
39 -15 -6 -23 -17 -23 -33 0 -26 -14 -41 -29 -31 -13 7 37 95 54 95 7 0 18 7
25 15 7 9 21 13 30 10 19 -6 45 19 36 34 -3 5 -15 7 -25 4 -27 -7 -81 35 -81
64 0 12 16 39 35 59 19 20 33 40 30 44 -3 5 -1 11 4 14 5 3 7 15 4 25 -3 10 0
22 6 25 6 4 11 12 11 17 0 5 -11 2 -25 -7 -13 -8 -28 -13 -33 -10 -18 11 -21
75 -5 107 15 29 18 31 67 27 51 -3 51 -3 48 25 -2 16 4 40 13 53 14 22 14 25
-1 31 -9 3 -20 0 -24 -8 -7 -11 -13 -10 -29 5 -25 22 -27 36 -6 36 8 0 15 4
15 9 0 13 -71 71 -87 71 -7 0 -10 6 -7 14 3 8 0 17 -6 21 -18 11 -20 2 -11
-33 8 -27 7 -34 -10 -42 -24 -14 -24 -29 1 -38 19 -7 18 -8 -7 -40 -21 -28
-30 -32 -52 -27 -35 9 -51 24 -51 47 0 26 -27 34 -49 14 -10 -9 -26 -16 -37
-16 -23 0 -62 -25 -88 -58 -27 -34 -40 -15 -26 38 13 47 5 65 -15 36 -10 -13
-21 -17 -39 -12 -14 3 -27 2 -31 -4 -3 -5 -18 -7 -33 -4 -21 4 -29 1 -37 -18
-5 -12 -18 -24 -28 -26 -15 -3 -18 0 -12 18 6 20 5 21 -14 10 -17 -9 -22 -8
-27 5 -4 9 0 23 8 33 21 25 52 126 45 146 -4 9 -17 16 -30 16 -23 0 -24 2 -17
42 5 23 6 56 3 73 -5 30 -4 32 43 41 46 8 49 11 47 39 -3 37 20 63 64 71 41 8
63 -7 43 -31 -10 -12 -10 -15 3 -15 9 0 18 4 22 9 3 6 17 4 33 -5 15 -7 40
-14 55 -14 24 0 27 3 22 20 -3 11 -2 20 3 20 13 0 35 47 27 59 -4 8 -20 1 -46
-20 -28 -22 -44 -28 -51 -21 -13 13 58 84 103 102 22 9 39 30 61 74 42 84 51
92 148 138 85 41 85 41 155 31 39 -6 101 -8 138 -6 44 4 73 1 80 -6 17 -17 27
-13 27 9 0 11 8 23 18 27 9 3 35 13 57 23 48 21 83 30 151 36 35 3 80 19 140
49 48 25 99 45 112 45 13 0 38 12 55 26 22 18 39 25 59 22 15 -3 28 -1 28 4 0
30 147 -24 271 -101 25 -16 63 -31 85 -34 69 -9 148 -33 199 -61 28 -14 55
-26 61 -26 6 0 17 -6 24 -14 6 -8 18 -12 26 -9 9 3 29 -10 52 -34 59 -62 157
-82 437 -89 155 -4 178 -3 189 4 6 3 54 6 108 7 79 0 100 3 110 17 9 12 32 17
82 20 38 2 68 0 67 -4 0 -5 -1 -11 -1 -15 0 -5 -25 -8 -55 -9 -35 0 -60 -6
-72 -16 -10 -9 -29 -18 -43 -20 -19 -2 -26 -10 -28 -30 -2 -16 -8 -28 -14 -28
-6 0 -8 9 -5 20 6 23 -16 45 -37 37 -8 -3 -16 -16 -18 -29 -3 -24 -38 -39 -38
-16 0 10 -10 13 -35 10 -19 -2 -35 -8 -35 -13 0 -5 -9 -9 -20 -9 -10 0 -24 -9
-30 -19 -15 -29 -12 -61 5 -61 19 0 19 -24 0 -40 -23 -19 -73 5 -77 38 -4 35
-28 42 -28 8 0 -30 -15 -33 -43 -9 -20 18 -20 17 -13 -27 4 -24 11 -47 16 -50
12 -7 32 -109 24 -121 -3 -5 -13 -5 -24 1 -10 5 -26 10 -34 10 -23 0 -20 -37
4 -50 11 -6 20 -20 20 -30 0 -11 5 -20 10 -20 6 0 10 11 10 25 0 18 11 32 40
50 23 15 46 22 53 18 7 -4 4 5 -6 20 -9 14 -17 29 -17 33 0 4 22 4 49 0 43 -6
49 -4 54 14 8 30 47 27 47 -3 0 -15 9 -29 25 -37 20 -11 25 -21 25 -52 0 -44
25 -63 45 -34 7 9 29 22 49 27 43 12 68 2 42 -17 -27 -20 -17 -58 17 -62 23
-3 30 2 42 32 9 22 22 36 33 36 10 0 32 13 50 30 18 16 37 30 42 30 14 0 5 51
-11 61 -8 5 -26 9 -41 9 -16 0 -28 5 -28 10 0 6 -6 10 -14 10 -7 0 -19 6 -25
13 -14 18 7 75 31 83 21 6 127 -15 146 -29 9 -7 12 -3 12 13 0 19 4 21 26 16
17 -5 33 0 51 14 14 11 31 20 38 20 6 0 26 7 44 16 39 20 71 13 110 -24 95
-88 86 -84 189 -83 24 0 53 -4 64 -10 25 -14 56 -3 40 13 -16 16 -15 28 3 28
8 0 15 -5 15 -11 0 -6 9 -22 20 -36 11 -14 20 -37 20 -51 0 -14 6 -30 14 -36
21 -16 31 -80 14 -97 -7 -8 -13 -27 -13 -44 -1 -16 -4 -45 -8 -62 -5 -24 -3
-33 6 -33 22 0 34 -20 29 -46 -7 -36 -41 -32 -48 6 -4 17 -12 30 -18 30 -15
-1 -56 -36 -56 -48 0 -6 -17 -20 -37 -32 -26 -15 -42 -19 -57 -13 -33 14 -66
4 -66 -18 0 -11 7 -22 16 -26 11 -4 14 -13 9 -31 -5 -20 -3 -23 10 -18 9 3 19
6 21 6 2 0 4 7 4 15 0 19 7 19 27 -1 10 -9 29 -14 49 -12 19 1 39 -3 46 -10 6
-6 20 -12 31 -12 10 0 15 -5 12 -11 -4 -5 -25 -9 -48 -7 l-41 3 -9 -43 c-10
-49 -27 -61 -63 -42 -13 8 -27 11 -30 8 -3 -4 -17 0 -31 7 -32 17 -43 12 -43
-19 0 -12 -4 -26 -10 -32 -5 -5 -11 -25 -12 -44 -3 -30 0 -35 20 -38 18 -3 22
2 23 25 1 15 1 36 0 45 -2 20 51 38 57 20 2 -7 26 -12 60 -12 32 0 75 -5 97
-10 34 -8 43 -6 61 11 25 24 30 24 78 -1 30 -17 41 -19 53 -9 20 17 32 -3 28
-50 -2 -21 3 -43 11 -52 10 -11 11 -24 4 -48 -5 -20 -5 -42 0 -57 7 -19 6 -24
-5 -24 -8 0 -15 3 -15 8 0 7 -47 32 -62 32 -4 0 -5 -7 -2 -15 4 -10 0 -15 -10
-15 -11 0 -16 7 -14 18 2 11 -5 18 -20 20 -13 2 -28 14 -34 28 -18 40 -90 45
-96 6 -2 -14 -12 -22 -30 -24 -20 -2 -28 -9 -30 -28 -5 -35 -18 -45 -56 -42
-24 2 -35 -1 -40 -13 -5 -13 -13 -16 -34 -11 -26 6 -26 6 -8 -9 11 -8 28 -15
37 -15 10 0 19 -6 21 -12 4 -10 11 -10 34 1 42 20 190 23 205 5 13 -16 55 -19
64 -4 3 6 22 10 40 10 24 0 38 6 45 20 8 14 21 20 45 20 39 0 40 2 21 38 -17
35 -36 94 -36 115 0 42 104 39 133 -4 9 -12 20 -17 30 -13 9 3 22 2 29 -2 23
-15 118 -12 118 3 0 7 -10 13 -22 13 -14 0 -19 3 -12 10 5 5 20 7 32 3 17 -4
21 -10 17 -24 -4 -11 -2 -19 4 -19 6 0 11 -11 11 -24 0 -13 7 -26 15 -30 8 -3
15 -12 15 -21 0 -23 14 -18 26 9 7 15 8 28 2 34 -18 18 3 43 36 40 28 -3 31
-1 28 24 -3 26 -1 27 30 21 34 -6 58 -20 58 -33 0 -7 -47 -23 -73 -24 -15 -1
-37 -39 -37 -63 0 -15 9 -27 25 -35 31 -14 34 -48 4 -48 -12 0 -23 8 -26 19
-4 17 -13 18 -86 14 -77 -4 -105 2 -144 30 -9 7 -9 13 0 28 10 17 9 23 -7 35
-23 16 -52 18 -61 4 -4 -6 -13 -5 -25 2 -11 7 -23 9 -27 4 -12 -11 35 -46 63
-46 12 0 26 -5 29 -10 9 -15 -44 -32 -77 -25 -46 10 -33 -14 19 -36 27 -12 57
-18 71 -14 12 3 27 3 32 0 15 -9 -1 -35 -22 -35 -15 0 -18 -4 -12 -22 4 -13
10 -25 14 -28 5 -3 0 -15 -10 -28 -18 -22 -21 -22 -54 -8 -23 10 -37 23 -42
40 -3 14 -11 26 -16 26 -10 0 -9 -10 9 -77 9 -39 -5 -68 -39 -84 -31 -13 -33
-16 -30 -59 2 -25 6 -47 8 -49 8 -8 33 21 28 34 -8 19 56 32 70 14 6 -8 21
-13 33 -11 14 2 26 -4 33 -18 13 -24 6 -28 -55 -32 -33 -3 -40 -7 -45 -28 -8
-35 -60 -41 -75 -9 -5 13 -27 31 -47 42 -62 31 -60 87 3 87 38 0 39 27 2 41
-23 9 -30 7 -38 -7 -5 -9 -21 -30 -34 -46 -18 -22 -21 -32 -12 -41 6 -6 11
-18 11 -26 0 -12 -3 -12 -12 -3 -7 7 -32 12 -56 12 -36 0 -49 -5 -73 -31 -29
-31 -31 -32 -99 -25 -67 6 -72 8 -126 60 -53 50 -56 55 -48 87 4 19 8 47 8 64
1 22 8 33 29 43 15 7 27 17 27 22 0 5 -12 3 -26 -5 -36 -18 -67 -5 -78 34 -7
23 -15 31 -31 31 -13 0 -28 7 -35 15 -16 19 -29 19 -66 1 -16 -8 -48 -18 -71
-22 -36 -5 -43 -4 -43 10 0 9 -11 21 -25 26 -14 5 -30 21 -36 34 -15 32 -31
38 -69 25 -30 -11 -39 -32 -20 -44 13 -8 13 -112 0 -120 -5 -3 -10 -1 -10 4 0
15 -22 14 -57 -4 -24 -12 -29 -20 -25 -40 3 -19 0 -25 -12 -25 -13 0 -15 -4
-7 -18 10 -19 4 -69 -10 -78 -5 -3 -12 2 -15 10 -3 9 -17 16 -30 16 -17 0 -24
6 -24 20 0 11 5 20 10 20 6 0 8 10 4 24 -7 31 3 66 20 66 26 0 38 26 25 53
-10 22 -17 25 -60 24 -54 -1 -63 -11 -24 -29 29 -13 33 -43 10 -75 -8 -12 -12
-28 -9 -37 8 -20 -8 -20 -44 -2 -39 20 -82 18 -82 -4 0 -10 -7 -23 -15 -30
-35 -29 5 -95 51 -84 12 3 25 1 29 -6 9 -15 -13 -40 -35 -40 -10 0 -23 -7 -31
-16 -8 -10 -22 -14 -39 -10 -15 3 -32 0 -37 -5 -6 -6 -14 -5 -22 5 -12 14 -17
13 -45 -9 -36 -28 -56 -32 -56 -12 0 16 -53 57 -74 57 -9 0 -16 11 -18 28 -3
24 -7 27 -48 30 -74 5 -84 5 -107 -3 -18 -6 -23 -3 -23 10 0 13 -6 15 -30 10
-33 -7 -38 3 -18 34 9 15 8 22 -6 36 -14 14 -14 20 -4 32 10 13 8 19 -15 39
-27 23 -47 31 -47 18 0 -3 9 -13 21 -23 20 -16 20 -17 2 -49 -18 -32 -49 -42
-69 -22 -10 10 -42 6 -146 -21 -39 -10 -48 -17 -48 -34 0 -22 -23 -48 -50 -57
-8 -3 2 -9 23 -13 29 -6 42 -3 57 10 12 11 26 14 39 10 12 -4 21 -2 21 4 0 16
16 13 35 -6 16 -16 16 -18 -5 -35 -25 -20 -21 -48 8 -48 28 0 127 -38 123 -47
-3 -4 -23 -14 -45 -21 -23 -8 -50 -23 -62 -33 -27 -25 -36 -24 -73 7 -28 23
-35 25 -61 14 -15 -6 -38 -9 -50 -5 -14 4 -28 1 -39 -9 -15 -14 -26 -15 -61
-7 -24 5 -46 14 -49 19 -3 5 -15 6 -26 2 -19 -7 -19 -7 3 -14 12 -4 22 -14 22
-22 0 -8 6 -14 13 -14 14 0 67 -47 67 -60 0 -16 58 15 80 43 25 32 67 36 92
10 26 -28 43 -40 67 -48 19 -6 21 -4 16 18 -6 22 -3 26 24 32 17 4 33 11 36
16 4 5 15 9 26 9 25 0 25 -30 -1 -37 -25 -7 -26 -23 -2 -23 10 0 23 -5 30 -12
9 -9 15 -9 23 -1 9 9 20 8 43 -5 17 -9 40 -17 51 -19 11 -1 32 -5 47 -8 18 -5
32 -2 46 12 48 43 54 46 70 36 23 -14 52 -70 46 -87 -4 -10 3 -17 19 -21 40
-11 71 -2 83 24 15 30 32 41 66 41 22 0 27 -5 30 -27 3 -30 32 -43 52 -23 8 8
6 15 -8 25 -11 9 -16 20 -12 30 5 14 14 15 49 10 64 -10 77 -15 77 -30 0 -8
-9 -17 -20 -20 -23 -7 -27 -25 -7 -25 21 0 51 -37 37 -45 -7 -4 -2 -15 14 -32
l25 -25 34 26 c30 23 36 24 47 11 7 -8 21 -15 33 -15 17 0 19 -5 14 -34 -4
-26 -2 -34 8 -30 19 7 24 50 9 66 -9 9 -11 26 -7 51 5 36 6 37 50 37 49 0 58
-6 91 -63 26 -45 27 -51 8 -44 -10 4 -21 -8 -34 -34 -20 -39 -20 -40 -1 -52
11 -7 19 -23 19 -39 0 -32 2 -33 30 -16 21 13 36 6 25 -11 -11 -18 -54 -12
-76 10 -20 20 -38 20 -103 2 -12 -3 -17 -1 -14 8 3 8 18 16 34 19 16 3 30 12
32 21 3 14 -4 16 -45 12 -26 -3 -54 -10 -62 -16 -10 -9 -17 -6 -27 8 -14 19
-15 19 -29 -2 -13 -19 -23 -21 -85 -19 -53 3 -70 0 -70 -10 0 -7 7 -17 16 -22
14 -8 14 -10 0 -21 -9 -8 -25 -11 -36 -8 -10 3 -25 -1 -31 -9 -7 -8 -26 -13
-43 -12 -37 2 -56 -7 -56 -27 0 -8 -9 -19 -20 -25 -24 -13 -28 -60 -4 -60 8 0
13 -4 10 -9 -3 -5 3 -20 14 -34 11 -14 17 -32 14 -41 -4 -10 -1 -16 9 -16 26
0 87 -41 87 -58 0 -10 3 -34 6 -54 5 -25 3 -38 -5 -38 -6 0 -11 9 -11 20 0 12
-7 20 -17 20 -9 0 -24 7 -32 15 -9 8 -35 17 -58 21 -36 5 -42 4 -48 -15 -8
-26 -45 -29 -45 -3 0 10 5 23 10 28 7 7 -2 22 -29 47 -33 31 -41 34 -51 22 -7
-8 -16 -15 -21 -15 -15 0 -10 29 7 38 13 7 14 13 5 31 -14 24 -55 28 -77 7
-17 -18 -18 -68 -1 -85 10 -10 8 -16 -10 -31 -30 -24 -29 -26 12 -26 49 0 60
-14 41 -52 -8 -16 -23 -32 -32 -36 -33 -13 5 -36 58 -36 27 0 58 -5 69 -11 15
-8 24 -7 36 3 9 7 18 12 20 11 1 -2 8 -3 13 -3 19 0 10 18 -12 25 -22 6 -22 7
6 15 15 5 36 16 46 25 17 15 21 15 50 0 27 -14 30 -18 18 -32 -10 -13 -10 -17
0 -20 6 -3 12 -11 12 -19 0 -17 -31 -19 -47 -3 -17 17 -46 2 -66 -33 -14 -25
-15 -33 -5 -39 21 -14 202 -11 216 3 9 9 15 9 24 0 8 -8 46 -12 106 -12 l94 0
-5 30 c-7 33 7 48 28 30 8 -6 23 -9 34 -5 15 5 21 0 26 -25 l7 -30 208 0 208
0 -11 29 c-12 32 -27 32 -27 0 0 -10 -6 -19 -14 -19 -17 0 -40 26 -32 38 9 15
-61 75 -79 68 -9 -3 -25 -1 -37 5 -15 8 -24 7 -37 -5 -25 -23 -55 -20 -82 8
-19 18 -25 37 -27 80 -4 64 -4 64 83 69 l60 3 0 37 c0 29 6 43 25 57 l25 19
-27 10 c-14 5 -29 15 -34 22 -5 9 -2 10 9 6 29 -11 48 3 41 29 -4 15 0 34 11
50 14 22 15 31 5 52 -10 22 -9 28 6 39 10 7 28 13 41 13 18 0 23 6 23 25 0 32
23 43 99 48 l63 4 19 -44 c10 -25 17 -54 13 -67 -6 -27 43 -68 73 -60 19 5 41
-11 41 -31 0 -5 10 -13 22 -17 16 -6 23 -3 30 17 11 30 24 31 50 5 11 -11 28
-20 39 -20 10 0 30 -11 45 -25 28 -26 56 -33 56 -14 0 6 15 8 43 4 33 -5 46
-3 56 9 10 12 18 13 32 5 16 -8 18 -17 13 -45 -5 -29 -3 -38 15 -50 14 -10 21
-26 21 -46 0 -24 3 -29 17 -24 27 11 34 -16 11 -41 -30 -33 -58 -30 -58 5 0
15 -7 36 -16 47 -13 17 -16 18 -24 5 -6 -8 -8 -25 -5 -36 3 -12 -1 -26 -8 -32
-16 -13 -57 3 -57 22 0 19 -53 30 -79 16 -16 -8 -35 -7 -78 6 l-57 16 -44 -47
c-50 -52 -47 -67 16 -79 28 -5 35 -3 39 14 6 24 47 52 66 44 8 -3 20 -23 27
-45 8 -22 17 -42 22 -45 5 -3 55 -7 111 -7 90 -2 102 -4 105 -20 2 -10 -4 -28
-15 -39 -18 -20 -17 -20 22 -16 37 3 40 1 43 -24 3 -27 6 -28 55 -28 38 0 48
3 37 10 -13 9 -11 13 9 31 14 12 33 18 44 15 14 -3 33 9 66 44 32 34 59 52 89
60 31 8 42 16 40 27 -4 20 -68 31 -68 12 0 -16 -48 -59 -66 -59 -9 0 -24 -5
-35 -11 -24 -13 -115 -1 -101 13 6 6 18 6 33 -2 19 -11 24 -10 36 6 7 10 13
25 13 34 0 9 5 21 12 28 15 15 4 15 -46 1 -62 -17 -68 3 -15 50 44 39 76 45
104 20 16 -15 25 -10 25 15 0 25 16 36 54 36 28 0 46 -18 46 -46 0 -28 16 -39
35 -24 8 6 26 13 40 15 37 4 48 17 36 46 -6 17 -5 35 4 56 11 26 11 34 -1 51
-8 11 -18 38 -22 59 -6 29 -13 39 -31 41 -15 3 -21 8 -17 19 3 8 6 17 6 19 0
9 59 3 65 -6 10 -15 37 -12 80 10 51 26 83 25 112 -2 19 -18 28 -20 41 -12 9
6 17 20 17 30 0 17 8 19 60 19 43 0 59 4 58 13 -2 6 -4 18 -5 25 -2 6 6 12 17
12 15 0 20 -6 18 -27 -1 -16 5 -28 15 -32 9 -3 23 -9 30 -12 20 -10 14 44 -8
66 -11 11 -24 20 -30 20 -21 0 -9 38 23 68 37 36 82 42 121 17 20 -13 25 -13
35 -1 6 8 20 12 29 9 10 -2 38 3 62 11 63 22 72 20 108 -17 40 -41 40 -47 2
-47 -16 0 -30 5 -30 10 0 6 -11 10 -25 10 -15 0 -25 -6 -25 -14 0 -8 -7 -21
-15 -30 -11 -10 -12 -17 -4 -22 6 -3 15 -1 19 6 11 18 30 3 23 -17 -5 -13 -2
-15 11 -10 10 4 33 7 52 7 28 0 34 4 34 21 0 12 8 23 20 26 23 6 25 14 9 30
-15 15 -3 33 21 33 31 0 31 28 0 59 -37 37 -38 57 -3 66 37 9 49 -10 64 -98 7
-40 18 -79 26 -89 12 -13 12 -20 2 -36 -10 -16 -9 -24 10 -50 12 -17 31 -32
44 -34 16 -2 23 -11 25 -32 4 -28 3 -29 -37 -23 -40 5 -62 -5 -40 -18 6 -4 14
-16 18 -28 5 -12 24 -26 47 -33 27 -8 32 -12 17 -13 -13 -1 -23 -7 -23 -14 0
-26 26 -45 71 -50 41 -6 48 -4 52 13 6 24 55 28 63 5 9 -21 24 -19 59 10 l30
24 -31 1 c-17 0 -52 11 -78 25 -26 14 -56 25 -66 25 -10 0 -21 4 -25 10 -4 6
-15 6 -31 0 -35 -14 -36 -13 -32 12 3 20 10 23 51 26 43 3 46 5 37 23 -24 44
36 56 69 13 11 -14 25 -23 31 -19 14 9 13 38 -2 54 -11 10 -9 15 5 26 10 7 27
11 37 8 40 -11 16 25 -36 53 -11 7 -33 10 -48 7 -15 -3 -39 0 -53 8 -23 13
-24 17 -18 69 8 64 16 76 55 85 15 3 36 15 45 25 16 18 16 20 -2 44 -21 29
-37 38 -58 30 -25 -10 -17 -34 10 -34 16 0 25 -6 25 -15 0 -11 -12 -15 -45
-15 -43 0 -45 -1 -45 -30 0 -29 -13 -40 -25 -20 -3 6 -15 10 -26 10 -27 0 -24
28 6 42 30 14 31 18 4 47 -15 15 -19 30 -15 47 4 14 2 24 -4 24 -6 0 -18 16
-26 36 -11 25 -20 34 -30 30 -9 -3 -20 -6 -25 -6 -5 0 -4 -9 3 -20 11 -17 10
-22 -2 -30 -8 -6 -24 -8 -35 -4 -58 17 -73 16 -80 -6 -6 -19 -12 -21 -41 -17
-37 6 -40 -3 -14 -56 10 -21 11 -30 2 -39 -7 -7 -12 -25 -12 -40 0 -15 -6 -29
-12 -29 -13 -2 -35 -3 -90 -7 -17 -1 -28 -8 -28 -17 0 -8 -5 -15 -11 -15 -20
0 -49 21 -49 35 0 9 -9 14 -22 13 -28 -2 -78 29 -78 48 0 24 30 28 45 8 14
-18 15 -18 21 4 4 15 14 22 30 22 13 0 28 8 33 19 16 30 39 32 83 10 32 -16
42 -18 49 -8 10 17 2 29 -21 29 -26 0 -36 21 -17 35 22 16 21 28 -4 51 -17 15
-23 16 -40 5 -16 -9 -24 -9 -35 0 -10 8 -18 8 -26 1 -18 -14 -77 33 -61 49 8
8 21 8 49 0 51 -14 57 -14 50 4 -3 9 4 25 15 36 20 20 20 21 2 34 -10 8 -42
15 -70 15 -37 0 -53 4 -53 13 0 8 -11 24 -25 37 -15 14 -25 35 -25 52 0 27 -2
28 -45 28 -35 0 -45 -4 -45 -16 0 -11 -5 -14 -16 -10 -9 3 -20 6 -24 6 -5 0
-18 9 -29 21 -18 19 -21 20 -49 5 -34 -18 -68 -21 -76 -7 -3 5 8 14 24 21 33
14 38 27 15 36 -23 9 -18 27 7 21 14 -4 26 0 34 11 18 23 17 37 -1 22 -12 -10
-16 -9 -21 4 -4 11 -13 14 -31 10 -19 -5 -24 -3 -21 7 3 8 16 14 29 14 19 0
24 6 24 28 0 54 61 64 96 16 16 -23 24 -28 30 -17 13 21 11 51 -4 45 -37 -14
-65 52 -33 76 15 11 17 20 12 43 -7 28 -8 28 -22 10 -8 -11 -14 -28 -14 -39 0
-17 -5 -18 -36 -13 -31 6 -36 4 -41 -13 -6 -24 -13 -25 -47 -10 -35 17 -40 38
-11 51 34 15 40 38 10 38 -22 0 -75 38 -75 54 0 3 11 6 25 6 14 0 25 4 25 9 0
5 3 16 6 25 4 12 0 16 -15 16 -12 0 -24 -6 -27 -14 -3 -8 -23 -22 -45 -30 -70
-28 -103 14 -66 83 16 29 16 38 6 65 -7 17 -22 42 -33 54 -18 20 -27 23 -63
18 -26 -3 -43 -2 -43 4 0 6 -15 10 -34 10 -32 0 -55 14 -43 26 7 8 81 7 105
-1 26 -8 32 19 7 29 -19 7 -20 26 0 26 8 0 20 10 26 22 l12 22 17 -22 c10 -12
25 -22 34 -22 20 0 48 43 41 62 -10 25 18 39 53 27 22 -7 36 -7 51 1 29 15 27
40 -4 40 -16 0 -25 6 -25 15 0 9 -9 15 -24 15 -13 0 -29 7 -36 15 -12 14 -50
21 -50 10 0 -3 5 -14 12 -25 10 -15 9 -24 -2 -45 -12 -23 -12 -28 0 -35 11 -7
12 -12 3 -21 -8 -8 -14 -6 -22 9 -6 11 -20 23 -30 27 -10 3 -22 17 -25 31 -8
30 2 53 15 33 4 -7 11 -10 15 -6 4 4 -1 13 -11 21 -18 13 -17 14 14 30 18 10
31 19 29 20 -17 15 -166 86 -179 86 -24 0 -40 -30 -28 -53 7 -11 6 -17 -1 -17
-6 0 -13 6 -16 14 -9 23 -35 28 -50 9 -13 -17 -15 -17 -29 1 -11 14 -12 23 -4
32 8 10 4 16 -17 26 -16 7 -33 18 -37 25 -10 16 -109 17 -124 2 -7 -7 -20 -8
-30 -5 -17 7 -17 8 2 22 20 15 20 15 -4 35 -28 23 -64 25 -82 3 -7 -8 -21 -13
-32 -10 -10 2 -29 1 -41 -4 -28 -10 -45 -1 -43 24 2 15 -9 22 -48 32 -27 8
-60 14 -72 14 -17 0 -27 10 -38 36 -14 33 -13 38 4 63 11 15 31 33 45 41 28
14 32 25 15 36 -7 4 -1 15 16 29 24 18 29 31 33 81 2 32 9 65 14 71 15 19 30
4 24 -23 -4 -15 -2 -24 5 -24 14 0 48 -41 49 -57 0 -28 20 -10 30 27 9 33 8
43 -5 56 -8 8 -15 22 -15 29 0 24 41 84 61 90 26 9 62 -4 56 -19 -3 -8 5 -13
24 -13 25 0 29 4 29 28 0 16 -7 32 -17 38 -13 7 -15 13 -7 21 8 8 16 7 29 -6
16 -16 17 -16 13 11 -3 29 -3 30 60 41 24 5 32 11 28 21 -3 8 -6 22 -6 30 0
12 -7 14 -34 9 -24 -5 -35 -3 -38 6 -7 21 -38 -10 -38 -38 0 -23 -9 -29 -40
-24 -21 3 -22 4 -24 40 -3 48 18 57 148 63 98 5 13 77 -91 77 -32 0 -57 20
-35 28 7 2 12 8 12 14 0 6 -7 7 -16 4 -25 -10 -44 13 -44 51 0 43 18 50 84 34
28 -7 85 -12 126 -11 159 3 354 -90 611 -290 24 -19 50 -41 58 -48 20 -19 42
-11 61 22 25 46 43 53 84 31 20 -11 50 -34 66 -52 17 -18 45 -37 63 -42 67
-21 106 -37 143 -63 22 -15 57 -30 79 -34 57 -10 83 -25 142 -83 29 -28 56
-51 61 -51 5 0 30 -19 55 -43 26 -24 73 -55 105 -70 121 -59 126 -62 147 -105
12 -24 37 -52 55 -64 19 -11 45 -32 59 -47 15 -14 36 -33 48 -41 32 -21 35
-64 6 -68 -22 -3 -27 -17 -26 -59 1 -7 -5 -13 -13 -13 -8 0 -14 -2 -14 -4 0
-11 56 -66 67 -66 17 0 16 10 -1 29 -10 11 -12 22 -6 30 7 12 14 8 34 -16 15
-17 51 -48 82 -68 31 -21 64 -51 74 -69 10 -17 27 -42 38 -56 12 -14 32 -39
46 -55 13 -17 44 -40 68 -52 24 -12 55 -34 68 -49 36 -38 90 -62 130 -59 19 2
43 3 53 4 9 1 17 7 17 15 0 29 90 35 160 10 25 -9 68 -27 96 -41 28 -13 85
-32 125 -42 83 -20 137 -42 177 -69 15 -10 47 -27 72 -37 25 -10 52 -24 60
-31 9 -7 36 -17 61 -23 24 -6 111 -42 192 -81 81 -38 149 -70 152 -70 38 0
162 -89 147 -105 -4 -3 7 -17 23 -31 20 -17 26 -27 18 -30 -19 -8 -16 -24 10
-44 15 -13 26 -15 34 -8 15 12 89 -55 78 -71 -9 -15 -38 -14 -53 1 -10 10 -14
8 -18 -10 -4 -12 -13 -22 -20 -22 -16 0 -19 16 -4 25 18 11 10 25 -14 25 -21
0 -24 -5 -23 -27 2 -33 -26 -43 -52 -19 -10 9 -25 14 -34 10 -16 -6 -71 27
-94 56 -6 8 -18 24 -27 35 -14 18 -16 19 -31 4 -25 -24 -22 -75 5 -104 26 -27
46 -32 53 -12 3 9 9 7 24 -5 14 -13 22 -15 31 -6 8 8 15 8 27 -2 22 -19 165
-7 177 14 6 11 17 14 34 10 20 -5 26 -2 31 15 3 11 9 21 14 21 22 0 6 33 -21
43 -16 6 -30 16 -30 22 0 20 -18 38 -41 39 -12 0 -24 7 -27 15 -8 23 58 5 88
-24 14 -14 29 -25 33 -25 4 0 6 2203 5 4895 l-3 4895 -30 25 c-32 26 -64 32
-81 15 -8 -8 -20 -7 -40 0 -23 9 -31 8 -40 -4 -17 -24 -24 -19 -24 18 0 28 -5
36 -29 46 -16 6 -32 18 -35 26 -3 8 -13 14 -22 14 -23 0 -94 32 -94 42 0 4 -7
8 -16 8 -11 0 -14 -6 -9 -20 8 -24 -20 -29 -29 -5 -3 9 -11 15 -18 14 -44 -5
-53 17 -11 27 27 7 27 7 -12 21 -22 7 -45 20 -52 29 -14 19 -118 30 -128 14
-8 -14 -42 -3 -68 21 -12 11 -34 18 -60 17 -26 0 -43 5 -49 15 -6 12 -17 15
-38 10 -23 -4 -30 -2 -30 11 0 17 -15 22 -24 7 -3 -4 -28 -11 -56 -15 -42 -6
-55 -3 -76 13 -15 12 -32 17 -42 13 -16 -6 -16 -7 1 -10 9 -2 17 -7 17 -12 0
-4 -50 -7 -110 -6 -86 1 -113 4 -120 16 -7 11 -12 12 -21 3 -6 -6 -18 -9 -25
-6 -8 3 -22 2 -31 -3 -38 -16 -209 -25 -236 -11 -13 6 -30 3 -54 -8 -24 -12
-45 -15 -67 -10 -17 4 -67 9 -111 10 -44 1 -82 3 -85 5 -3 1 -43 4 -90 5 -47
2 -106 8 -132 14 -26 6 -54 8 -63 5 -8 -4 -22 -1 -30 6 -16 13 -68 28 -130 36
-22 3 -45 10 -52 16 -7 6 -22 8 -33 5 -11 -3 -22 -2 -25 3 -2 4 -24 10 -47 14
-23 4 -48 12 -55 17 -6 6 -22 12 -35 14 -13 1 -43 8 -68 15 -68 18 -153 30
-171 24 -9 -2 -19 2 -22 9 -4 12 -48 14 -244 12 -148 -1 -244 2 -255 9 -11 7
-21 6 -31 -3 -13 -10 -17 -9 -25 5 -8 15 -13 16 -26 5 -8 -7 -19 -10 -24 -7
-6 3 -15 -1 -22 -9 -9 -10 -27 -15 -54 -14 -23 2 -56 -4 -74 -12 l-32 -14 5
-75 c3 -41 7 -86 10 -100 3 -14 1 -31 -4 -39 -7 -11 -11 -4 -16 25 -4 21 -16
65 -26 97 -16 52 -17 62 -4 87 8 15 11 30 8 34 -4 3 3 16 14 29 21 22 40 117
26 130 -4 4 -7 28 -8 54 0 27 -6 48 -13 51 -7 2 -12 12 -12 21 0 10 -9 26 -21
37 -11 10 -18 26 -16 36 3 11 -8 32 -29 55 -19 20 -34 47 -34 58 0 27 40 72
75 85 14 5 24 13 23 17 -2 5 7 18 20 31 29 29 26 66 -5 70 -13 2 -23 10 -23
18 0 8 -9 23 -20 34 -16 16 -18 28 -13 67 4 38 2 52 -11 62 -9 8 -16 29 -16
50 0 36 -22 129 -35 151 -10 15 -28 -2 -70 -65 -44 -66 -144 -169 -199 -203
-23 -15 -62 -44 -87 -64 -52 -43 -70 -46 -107 -19 -91 63 -263 118 -442 140
-127 15 -416 7 -458 -14 -22 -12 -44 -15 -70 -10 -24 4 -55 0 -83 -9 -24 -9
-59 -16 -77 -16 -44 0 -147 -35 -203 -70 -26 -16 -71 -39 -100 -51 -30 -13
-81 -42 -114 -66 -32 -24 -68 -43 -80 -43 -40 1 -106 40 -152 91 -89 99 -168
170 -243 219 -99 67 -130 66 -177 -5 -30 -45 -66 -172 -67 -235 -1 -105 46
-262 95 -318 27 -31 30 -40 25 -76 -4 -23 -9 -82 -12 -133 -5 -80 -3 -102 20
-173 27 -85 29 -91 132 -255 78 -126 114 -191 114 -204 0 -6 -11 -11 -25 -11
-36 0 -175 -75 -252 -137 -37 -29 -73 -53 -80 -53 -19 0 -106 -65 -173 -129
-30 -29 -65 -60 -78 -68 -13 -9 -32 -34 -44 -57 -11 -22 -38 -63 -59 -91 -20
-27 -50 -75 -65 -105 -15 -30 -39 -69 -54 -87 -15 -17 -36 -49 -45 -71 -17
-37 -22 -41 -64 -45 -25 -2 -172 -2 -326 0 -206 4 -289 9 -313 19 -39 16 -111
12 -197 -11 -85 -23 -182 -29 -243 -16 -45 9 -64 8 -130 -10 -127 -34 -175
-47 -212 -58 -42 -13 -100 -14 -100 -2 0 11 25 21 53 21 12 0 83 19 157 43
122 40 141 43 195 36 113 -14 189 -10 251 12 82 30 161 34 258 14 63 -13 95
-15 143 -8 34 5 90 6 125 2 35 -4 132 -4 216 0 l153 7 25 29 c13 17 36 51 49
78 25 47 98 156 155 232 16 22 33 47 37 55 3 8 10 17 13 20 27 19 118 101 144
129 17 18 51 45 76 59 25 14 66 42 92 62 95 72 125 91 196 125 42 20 72 40 72
49 0 13 -33 70 -58 101 -4 6 -17 26 -28 45 -10 19 -34 53 -51 74 -18 22 -33
47 -33 56 0 10 -11 29 -25 44 -36 39 -43 55 -61 148 -9 45 -21 89 -27 95 -6 9
-4 24 6 45 8 18 18 59 22 90 9 75 -9 108 -60 108 -39 0 -48 17 -12 22 14 2 23
11 25 26 3 20 0 22 -25 16 -15 -3 -45 -19 -65 -35 -25 -20 -39 -25 -44 -17 -4
6 3 19 16 30 12 10 21 21 18 23 -3 3 -16 -4 -31 -15 -14 -11 -32 -20 -40 -20
-10 0 -13 -7 -10 -20 3 -11 0 -20 -6 -20 -6 0 -11 8 -11 18 -1 16 -2 16 -13 0
-12 -15 -14 -15 -25 0 -10 16 -12 16 -25 0 -8 -10 -18 -18 -24 -18 -13 0 -63
-54 -63 -68 0 -15 -37 -35 -50 -27 -17 11 -50 -5 -50 -24 0 -10 -11 -26 -23
-36 -17 -13 -24 -28 -25 -57 -1 -22 -4 -44 -8 -49 -9 -16 -24 -10 -24 10 0 22
-16 36 -48 44 -20 5 -23 2 -20 -21 3 -23 0 -27 -20 -25 -21 3 -22 0 -16 -35 7
-37 7 -37 -14 -19 -23 21 -46 14 -39 -12 3 -13 -3 -15 -40 -12 -24 1 -43 -1
-43 -7 0 -5 -10 -12 -22 -15 -12 -4 -19 -10 -15 -14 4 -4 -3 -12 -15 -19 -19
-10 -26 -10 -42 4 -17 16 -18 16 -15 -8 4 -23 1 -25 -36 -25 -36 0 -40 2 -37
23 2 13 -2 22 -10 22 -20 -1 -48 -26 -48 -44 0 -23 -21 -20 -27 4 -8 29 -33
24 -64 -12 -16 -18 -28 -27 -29 -20 0 6 5 12 11 12 6 0 9 12 7 28 -2 21 -8 26
-23 24 -11 -2 -30 -4 -42 -4 -13 0 -23 -6 -23 -12 0 -20 -44 -38 -86 -34 -27
2 -39 8 -39 18 0 8 -10 16 -22 18 -13 2 -23 -1 -23 -7 0 -17 -28 -13 -38 5 -6
11 -11 13 -16 5 -9 -14 -66 -15 -66 -1 0 6 -8 10 -17 11 -11 0 -13 3 -5 6 6 2
10 9 6 14 -7 12 -81 12 -89 -1 -11 -17 -47 -11 -52 9 -6 23 -51 37 -67 21 -8
-8 -7 -13 3 -19 10 -6 10 -10 1 -16 -6 -4 -17 -2 -23 4 -6 6 -24 11 -39 11
-18 0 -28 5 -28 15 0 8 -9 15 -20 15 -15 0 -20 -7 -20 -25 0 -25 -10 -32 -24
-17 -4 4 -11 7 -14 7 -4 0 -26 13 -49 28 -36 25 -44 27 -62 15 -12 -7 -21 -23
-21 -35 0 -13 -6 -23 -13 -23 -9 0 -14 12 -14 30 0 50 -17 57 -59 25 -20 -15
-39 -23 -43 -18 -3 5 -14 12 -23 16 -14 5 -17 1 -15 -15 3 -28 -19 -34 -26 -7
-5 17 -11 20 -31 15 -14 -3 -28 -1 -31 5 -4 6 -14 8 -22 4 -9 -3 -24 1 -33 10
-9 8 -49 19 -89 24 -39 5 -84 17 -99 27 -15 10 -33 17 -40 16 -8 -2 -20 2 -27
8 -8 7 -23 9 -34 5 -12 -4 -30 0 -43 9 -12 9 -36 16 -54 16 -17 0 -34 3 -38 8
-4 4 -28 8 -52 8 -24 1 -50 6 -56 12 -7 6 -48 15 -91 21 -43 6 -88 18 -100 26
-12 8 -43 15 -69 15 -32 0 -50 5 -56 15 -4 9 -26 18 -48 21 -21 3 -49 10 -61
16 -12 6 -29 8 -38 4 -9 -3 -28 0 -43 8 -15 7 -54 16 -87 20 -36 4 -63 12 -68
21 -4 8 -19 15 -32 15 -13 0 -50 7 -82 15 -31 8 -65 12 -76 9 -10 -3 -25 0
-34 7 -28 24 -210 26 -255 3 -18 -9 -34 -12 -41 -6 -18 13 -178 8 -205 -7 -12
-6 -27 -9 -33 -5 -18 10 -83 11 -97 1 -8 -7 -20 -6 -35 1 -38 18 -75 23 -79
10 -3 -8 -16 -6 -45 9 -34 18 -42 19 -47 7 -8 -21 -40 -17 -69 10 -28 26 -64
35 -85 23 -7 -5 -24 0 -40 11 -15 11 -45 25 -67 33 -22 7 -53 22 -69 33 -16
10 -43 19 -61 18 -19 -1 -40 6 -52 17 -11 11 -34 26 -51 35 -18 9 -32 20 -32
25 0 5 -19 11 -42 14 -23 3 -47 12 -53 20 -6 9 -22 15 -35 15 -40 1 -144 12
-158 17 -8 3 -19 2 -25 -2 -7 -4 -52 -8 -102 -10 -49 -1 -112 -4 -140 -7 -27
-3 -79 -8 -115 -11 -36 -3 -77 -10 -91 -14 -14 -5 -38 -7 -52 -4 -15 3 -35 2
-44 -3 -10 -4 -49 -9 -88 -11 -129 -4 -240 -12 -291 -18 -33 -5 -54 -3 -58 3
-4 7 -15 8 -29 3 -28 -10 -64 -7 -100 8 -38 15 -57 14 -63 -4 -4 -10 -11 -12
-18 -7 -18 14 -93 35 -102 29 -5 -3 -34 -1 -64 4 -30 5 -86 12 -125 14 -38 3
-79 9 -90 14 -43 20 -90 31 -129 31 -23 0 -51 7 -63 15 -12 9 -35 15 -50 14
-15 -1 -63 10 -106 25 -43 14 -88 26 -100 26 -13 0 -40 9 -62 20 -22 11 -47
20 -58 20 -10 0 -36 9 -59 21 -23 12 -50 18 -63 15 -12 -3 -30 1 -41 9 -10 8
-26 15 -35 15 -9 0 -30 7 -45 15 -16 8 -36 15 -45 15 -8 0 -19 4 -25 8 -5 5
-29 14 -54 22 -71 20 -164 53 -175 60 -11 8 -40 14 -165 35 -47 7 -105 18
-129 23 -25 6 -50 8 -57 5 -7 -3 -23 2 -35 11 -15 10 -27 12 -34 6 -8 -7 -29
-5 -61 5 -27 8 -57 12 -67 9 -10 -3 -27 2 -37 11 -13 12 -29 16 -47 12 -15 -3
-35 -1 -45 4 -9 5 -30 10 -45 10 -42 2 -137 20 -148 29 -5 4 -28 10 -50 13
-22 3 -53 11 -70 18 -16 7 -35 11 -42 10 -6 -1 -17 6 -25 16 -7 10 -28 19 -47
20 -19 1 -39 9 -43 18 -5 8 -17 15 -27 15 -9 0 -27 11 -39 25 l-22 25 -339 0
-339 0 -6 -25z m7874 -2670 c18 -21 14 -23 -55 -26 -33 -1 -71 -6 -85 -10 -44
-13 -426 -94 -505 -107 -16 -2 -88 -20 -160 -39 -71 -20 -146 -39 -165 -42
-33 -7 -57 -14 -155 -47 -22 -7 -58 -16 -80 -20 -22 -4 -44 -10 -50 -14 -5 -4
-50 -20 -100 -35 -49 -15 -99 -31 -110 -36 -23 -10 -329 -103 -425 -129 -67
-18 -106 -34 -200 -81 -64 -32 -152 -59 -191 -59 -34 0 -208 -82 -234 -110
-18 -20 -45 -27 -45 -12 1 14 76 69 120 86 25 10 50 21 55 26 13 10 108 36
160 44 22 3 87 29 145 58 114 57 132 64 170 71 24 5 36 8 120 37 19 6 53 16
75 22 22 5 48 14 59 19 10 6 39 13 64 15 26 3 49 8 52 12 11 16 232 93 380
132 19 5 73 21 120 34 47 14 128 35 180 46 52 12 104 25 115 30 35 13 118 33
175 41 108 15 145 22 156 30 6 5 24 8 40 8 27 -1 150 29 184 44 8 4 49 11 90
16 41 5 78 9 81 10 4 0 12 -6 19 -14z m-10919 -7012 c0 -5 2 -71 4 -148 2 -77
9 -167 14 -200 11 -60 20 -235 28 -540 4 -119 2 -157 -7 -149 -12 12 -18 67
-25 264 -7 188 -14 292 -25 385 -5 44 -12 123 -15 175 -7 125 -13 155 -36 176
-23 20 -26 42 -3 24 12 -11 18 -10 32 3 17 18 32 22 33 10z m11015 -917 c1 -1
4 -15 7 -33 6 -32 6 -32 -34 -30 -42 1 -68 -18 -49 -37 6 -6 10 -23 10 -39 0
-25 -3 -28 -28 -26 -38 4 -55 -8 -48 -37 5 -19 2 -24 -13 -24 -11 0 -21 5 -23
10 -2 7 -14 7 -36 -1 -18 -6 -36 -9 -39 -6 -10 11 120 157 140 157 25 1 64 48
59 73 -2 5 48 -1 54 -7z m-72 -425 c3 -5 -1 -29 -8 -55 -15 -51 -15 -51 48
-35 29 7 48 19 56 35 13 23 46 41 57 31 2 -3 0 -14 -5 -24 -19 -38 -22 -81 -5
-87 19 -8 43 11 43 34 0 25 25 43 50 35 15 -5 29 0 45 15 20 19 26 20 44 8 27
-17 29 -48 2 -41 -18 5 -63 -24 -121 -77 -9 -8 -25 -21 -36 -28 -18 -12 -18
-13 4 -8 26 5 29 -5 4 -20 -14 -9 -24 -6 -51 17 -22 18 -32 33 -28 43 4 10 1
16 -7 16 -7 0 -28 3 -45 6 -24 5 -31 3 -31 -10 0 -8 11 -23 24 -32 30 -19 24
-46 -9 -38 -17 4 -24 0 -28 -15 -8 -30 -27 -26 -28 7 l-1 27 -7 -30 c-4 -16
-3 -33 3 -36 11 -9 0 -39 -14 -39 -6 0 -16 14 -21 30 -13 35 -20 37 -44 10
-11 -12 -18 -36 -18 -69 -1 -40 -5 -52 -19 -57 -11 -3 -25 -1 -32 5 -10 8 -13
4 -13 -22 0 -17 7 -38 16 -44 14 -11 14 -14 1 -23 -22 -15 -30 -12 -30 10 0
13 -7 20 -20 20 -17 0 -20 7 -20 45 0 40 3 45 26 51 22 6 25 11 22 43 -3 31
-8 38 -35 46 -46 15 -51 24 -23 45 30 24 40 25 40 5 0 -20 19 -19 27 0 3 9 17
22 32 30 54 29 54 29 40 73 -14 48 -7 62 50 92 40 21 57 24 65 11z m546 -27
c0 -3 -5 -15 -11 -26 -19 -35 5 -46 41 -19 17 12 39 21 48 19 9 -2 22 3 28 11
11 14 15 14 39 1 23 -12 28 -12 36 0 8 13 10 13 19 0 20 -30 23 -61 7 -78 -14
-13 -20 -14 -41 -2 -21 10 -28 11 -41 0 -8 -7 -15 -18 -15 -24 -1 -26 -59 -48
-98 -37 -1 1 13 17 33 36 19 20 35 38 35 40 0 8 -37 5 -90 -7 -39 -9 -54 -18
-61 -35 -10 -27 -17 -28 -54 -9 -15 8 -22 17 -16 20 7 5 6 15 -5 31 -9 13 -13
29 -9 35 9 14 42 13 48 -2 3 -10 9 -8 24 5 11 9 27 17 35 17 9 0 18 7 22 15 5
14 26 22 26 9z m4298 -536 c7 -7 12 -29 12 -50 0 -37 -3 -40 -47 -59 -42 -18
-53 -19 -86 -8 -49 16 -53 24 -31 66 16 29 23 34 45 29 15 -3 37 3 55 14 36
23 37 23 52 8z m-1524 -62 c18 -19 41 -51 51 -70 11 -20 25 -36 31 -36 6 0 27
13 45 30 38 34 49 37 49 15 0 -9 7 -18 15 -21 18 -7 20 -34 2 -34 -7 0 -18 5
-24 11 -8 8 -19 6 -42 -5 -35 -19 -41 -31 -11 -21 22 7 27 -9 10 -35 -12 -20
-42 -2 -50 29 -5 22 -6 22 -28 -8 -21 -29 -25 -30 -70 -24 -72 9 -80 39 -12
45 23 2 35 8 35 18 0 9 -7 14 -19 12 -16 -3 -18 1 -13 30 2 18 -1 48 -9 66
-17 42 -2 41 40 -2z m-2891 -76 c-5 -19 12 -29 19 -12 2 5 22 12 44 15 33 6
43 4 48 -9 8 -21 -11 -44 -36 -44 -11 0 -31 -9 -45 -20 -14 -11 -34 -20 -44
-20 -11 0 -19 -6 -19 -14 0 -7 -7 -19 -16 -26 -8 -7 -14 -23 -12 -34 1 -12 -1
-27 -5 -33 -15 -24 -27 -13 -27 25 0 20 -2 56 -6 80 -5 37 -4 42 14 42 10 0
34 16 53 35 19 19 35 35 36 35 0 0 -1 -9 -4 -20z m1185 -351 c1 -54 23 -99 47
-99 9 0 15 10 15 25 0 18 5 25 19 25 27 0 34 28 11 40 -24 13 -26 33 -3 51 10
9 14 9 10 2 -5 -7 0 -16 12 -22 11 -6 20 -24 23 -46 4 -31 1 -35 -19 -35 -30
0 -29 -5 4 -36 20 -19 24 -27 15 -36 -7 -7 -12 -19 -12 -27 0 -8 -7 -22 -16
-32 -9 -10 -17 -36 -18 -58 -1 -26 -10 -49 -24 -64 -23 -25 -29 -47 -12 -47 6
0 10 -5 10 -11 0 -17 -52 -1 -73 22 -10 11 -15 24 -12 29 3 6 0 10 -8 10 -7 0
-19 11 -25 25 -11 23 -42 26 -42 4 0 -9 -17 -10 -121 -9 -31 0 -68 -6 -85 -15
-16 -8 -38 -15 -49 -15 -21 0 -105 81 -105 101 0 7 -8 17 -17 24 -15 11 -15
18 -5 51 6 22 14 52 17 67 4 18 15 31 32 38 34 13 51 6 55 -23 4 -30 38 -38
38 -8 0 11 7 23 15 26 9 4 20 15 25 25 9 15 6 18 -17 16 -32 -2 -38 20 -10 37
15 9 21 7 32 -8 14 -18 16 -18 33 -3 24 22 135 23 185 2 33 -13 35 -13 40 5 3
11 12 20 19 20 11 0 15 -14 16 -51z m1796 -190 c33 0 63 -2 66 -4 14 -9 -3
-65 -21 -70 -12 -4 -23 -22 -30 -51 -13 -49 -35 -62 -26 -15 6 28 4 30 -34 38
-44 9 -56 26 -21 31 24 4 21 22 -4 22 -17 0 -53 38 -54 57 0 8 9 9 33 2 17 -5
59 -10 91 -10z m-12354 -74 c12 -8 13 -35 1 -35 -5 0 -7 -9 -4 -20 3 -12 8
-18 11 -15 9 9 33 -17 47 -52 15 -35 25 -39 53 -22 14 9 26 8 51 -5 18 -10 31
-22 29 -28 -6 -18 -49 -20 -75 -3 -20 13 -23 13 -23 1 0 -8 5 -18 10 -21 6 -3
10 -11 10 -17 0 -6 -10 -3 -24 5 -22 15 -25 15 -30 0 -4 -10 2 -24 14 -36 19
-17 20 -20 6 -36 -20 -22 -20 -30 1 -53 18 -20 4 -25 -15 -6 -9 9 -15 9 -24 0
-7 -7 -20 -12 -29 -12 -10 0 -23 -13 -31 -30 -14 -33 -36 -33 -74 1 -12 12
-28 17 -37 13 -14 -5 -17 0 -17 25 0 26 -4 31 -25 31 -20 0 -25 5 -25 25 0 14
11 37 24 50 14 14 20 27 15 30 -16 10 -10 25 10 25 12 0 23 11 30 31 13 37 32
34 46 -8 6 -18 18 -40 28 -50 9 -11 20 -34 23 -51 11 -53 29 -40 24 16 -2 27
26 62 48 62 12 0 11 5 -6 23 -11 12 -24 34 -27 50 -8 32 -30 36 -38 7 -3 -14
-14 -20 -31 -20 -14 0 -26 4 -26 9 0 5 -10 11 -21 14 -18 5 -20 10 -14 29 4
13 7 37 7 55 l-1 32 50 -4 c27 -2 54 -7 59 -10z m-2504 -38 c3 -9 19 -24 36
-33 25 -13 29 -19 23 -42 -4 -15 -8 -29 -10 -31 -10 -9 -125 -3 -161 9 -46 15
-85 7 -66 -12 7 -7 12 -16 12 -20 0 -13 -17 -9 -35 8 -11 11 -19 13 -28 6 -8
-7 -20 -6 -36 2 -22 12 -23 14 -6 23 17 10 17 11 -3 22 -11 6 -29 8 -39 5 -15
-5 -14 -4 3 9 16 12 29 14 62 6 34 -7 47 -6 73 10 17 11 37 17 44 15 19 -8 85
35 79 51 -5 12 -1 12 20 2 14 -7 29 -20 32 -30z"/>
<path d="M17160 2857 c0 -16 26 -30 41 -22 5 4 23 -10 40 -29 17 -20 37 -36
44 -36 7 0 18 -7 25 -15 12 -14 15 -14 30 0 33 30 70 16 103 -37 10 -16 24
-28 32 -28 16 0 20 16 6 24 -4 3 -11 19 -14 36 -4 18 -13 30 -22 30 -9 0 -18
7 -22 15 -8 22 -74 48 -87 35 -15 -15 -45 -12 -75 9 -37 27 -101 38 -101 18z"/>
<path d="M16735 2720 c-37 -6 -64 -53 -46 -82 17 -27 14 -39 -16 -70 -22 -23
-24 -30 -14 -41 11 -9 14 -9 18 1 8 22 61 44 82 33 20 -11 41 3 41 26 0 7 11
19 25 25 19 9 22 14 14 25 -6 7 -18 13 -25 13 -8 0 -14 5 -14 10 0 6 7 10 15
10 8 0 15 6 15 13 -1 19 -62 43 -95 37z"/>
<path d="M14540 2545 c0 -16 -6 -25 -15 -25 -8 0 -15 -9 -15 -20 0 -21 24 -27
49 -11 17 11 51 -3 51 -20 0 -6 -9 -24 -21 -40 -16 -22 -28 -29 -55 -29 -27 0
-34 -4 -34 -20 0 -13 -10 -24 -25 -30 -14 -5 -28 -17 -31 -25 -4 -10 -20 -15
-50 -15 -32 0 -50 -6 -65 -21 l-22 -22 27 -14 c14 -7 33 -29 40 -48 17 -41 52
-47 81 -15 10 11 26 20 36 20 28 0 91 60 86 82 -3 10 -1 21 4 24 5 3 9 16 9
29 0 14 11 32 28 45 15 11 34 33 43 48 9 16 27 29 45 32 20 4 30 12 32 28 2
15 -2 22 -12 22 -9 0 -16 9 -16 20 0 18 -5 20 -42 14 -24 -3 -53 -7 -64 -10
-12 -2 -27 3 -34 11 -18 22 -30 18 -30 -10z"/>
<path d="M17260 2520 c0 -5 5 -12 10 -15 17 -11 11 -35 -9 -35 -10 0 -26 -11
-35 -25 -16 -25 -16 -25 14 -25 24 0 30 -4 30 -20 0 -17 6 -20 28 -18 23 3 27
0 27 -24 -1 -21 5 -27 28 -32 22 -5 28 -11 25 -27 -4 -28 -38 -50 -46 -30 -10
30 -44 53 -67 47 -20 -5 -24 -2 -27 20 -2 21 -9 28 -31 30 -24 2 -26 0 -21
-22 7 -26 -7 -30 -53 -18 -27 7 -21 21 15 35 l27 11 -37 19 c-21 11 -38 27
-38 36 0 14 -2 14 -14 -3 -8 -10 -12 -29 -9 -42 6 -25 -14 -55 -32 -48 -8 3
-11 -2 -8 -15 4 -14 0 -19 -16 -19 -29 0 -26 -18 5 -30 34 -13 34 -13 34 15 0
16 6 25 16 25 27 0 54 -20 54 -40 0 -24 18 -36 33 -21 19 19 29 12 23 -14 -4
-15 -2 -25 4 -25 9 0 40 -58 40 -75 0 -3 -9 -5 -21 -5 -16 0 -19 -5 -15 -20 6
-21 10 -36 20 -83 5 -22 11 -26 29 -22 18 5 24 0 33 -24 7 -18 27 -37 50 -50
29 -15 34 -20 19 -21 -12 0 -26 5 -31 10 -8 8 -15 6 -24 -5 -10 -13 -9 -15 8
-15 11 0 25 -7 32 -15 9 -11 16 -13 24 -5 13 13 53 13 61 0 12 -19 -16 -40
-52 -40 -35 0 -35 0 -19 -22 9 -13 19 -30 23 -38 16 -35 48 -59 71 -54 12 4
22 11 22 16 0 5 -8 7 -17 4 -10 -3 -26 1 -37 9 -16 12 -17 17 -5 43 10 24 19
29 51 30 28 1 38 -2 38 -13 0 -8 5 -15 11 -15 6 0 8 -8 5 -18 -9 -26 39 -50
117 -58 45 -5 67 -11 67 -20 0 -7 -4 -15 -9 -19 -6 -3 -6 -17 -1 -34 10 -36 2
-81 -15 -81 -8 0 -17 -9 -20 -20 -9 -27 -19 -25 -33 5 -9 20 -17 24 -36 19
-36 -9 -99 14 -92 33 3 8 6 26 6 39 0 25 29 35 31 12 1 -7 2 -20 3 -28 1 -21
47 -24 71 -6 17 13 18 15 3 16 -9 0 -20 -5 -23 -10 -9 -14 -24 -3 -35 25 -6
16 -22 27 -46 34 -40 11 -58 6 -34 -9 13 -8 13 -10 0 -10 -14 0 -50 -33 -50
-45 0 -3 11 -3 24 1 18 4 25 1 29 -17 10 -39 -14 -51 -52 -27 -15 9 -23 9 -36
-2 -24 -20 -15 -54 15 -58 14 -2 30 -10 37 -19 9 -12 18 -13 40 -5 22 7 27 14
25 36 -2 19 2 26 14 26 13 0 15 -6 10 -32 -16 -78 -15 -82 34 -90 27 -5 48 -4
54 2 17 17 34 11 29 -10 -5 -17 0 -20 33 -22 22 -1 53 -3 69 -4 40 -2 89 -32
110 -66 12 -22 20 -26 33 -19 46 24 120 -48 93 -91 -11 -17 -9 -23 16 -46 15
-15 42 -32 58 -38 36 -13 57 -52 59 -110 1 -30 7 -48 21 -58 25 -19 49 -20 42
-3 -3 8 -1 20 4 28 7 12 13 11 39 -4 17 -11 30 -14 30 -7 0 6 -16 20 -35 31
-19 12 -35 22 -35 22 0 1 21 2 48 2 69 0 133 -54 83 -70 -10 -3 -26 -2 -36 1
-13 5 -16 2 -13 -12 2 -12 13 -20 31 -22 18 -2 32 -12 39 -28 16 -34 28 -30
28 10 0 18 7 39 16 47 9 7 25 31 35 53 29 59 71 89 127 91 26 1 57 7 70 14 13
7 41 11 62 10 22 -2 42 -1 45 3 11 11 -41 35 -73 33 -22 -2 -32 2 -32 11 0 8
-4 14 -10 14 -15 0 -12 53 4 75 14 19 15 19 38 -6 14 -15 34 -26 49 -25 17 1
25 -5 27 -20 2 -12 12 -30 23 -40 10 -9 19 -23 19 -31 0 -15 57 -43 87 -43 10
0 29 -9 43 -20 30 -24 50 -25 50 -5 0 9 -7 15 -15 13 -9 -2 -21 8 -28 22 -8
16 -20 24 -32 22 -23 -4 -87 29 -81 43 6 18 -13 55 -29 55 -9 0 -14 4 -11 9 5
8 -21 21 -49 25 -27 4 -65 40 -65 62 0 13 -4 24 -10 24 -16 0 -12 21 8 43 16
19 16 20 -9 14 -31 -8 -89 10 -90 26 0 7 -2 22 -3 35 -4 34 12 37 35 8 12 -15
31 -26 45 -26 28 0 32 18 7 27 -10 3 -30 18 -44 32 -68 67 -97 82 -106 54 -2
-6 8 -14 23 -17 25 -7 26 -8 11 -23 -14 -14 -20 -15 -41 -4 -13 7 -33 10 -44
7 -14 -5 -28 1 -46 19 -31 31 -33 55 -7 62 12 3 17 11 14 19 -3 8 0 14 7 14 7
0 19 8 25 17 13 17 14 17 33 0 29 -27 35 -6 6 22 -13 13 -24 30 -24 38 0 11
-7 14 -25 9 -18 -5 -25 -2 -25 9 0 8 5 15 10 15 17 0 11 28 -7 32 -31 6 -73
-4 -73 -18 0 -20 -21 -28 -31 -13 -14 23 -10 41 11 46 12 3 20 14 20 26 0 16
-3 18 -12 9 -7 -7 -20 -12 -30 -12 -10 0 -18 -4 -18 -8 0 -4 -18 -8 -40 -9
-43 -2 -66 20 -54 51 3 9 1 16 -5 16 -24 0 -69 -30 -74 -50 -3 -13 -13 -20
-29 -20 -29 0 -63 52 -60 91 2 21 -3 28 -24 33 -14 4 -32 2 -39 -4 -9 -7 -24
-4 -56 14 -31 18 -47 22 -56 15 -8 -8 -21 -5 -43 7 -29 18 -41 44 -20 44 20 0
9 20 -15 26 -13 3 -29 12 -36 20 -14 17 2 19 19 2 9 -9 14 -6 21 13 5 13 6 28
3 34 -3 5 7 0 22 -13 16 -12 33 -19 38 -16 16 10 4 39 -16 39 -30 0 -44 31
-23 52 13 13 20 15 29 5 18 -18 38 -14 38 7 0 28 -26 44 -59 38 -28 -6 -29 -4
-34 36 -3 29 0 46 10 54 21 17 12 47 -15 51 -27 4 -24 25 4 30 35 7 37 20 5
36 -24 13 -35 14 -49 5 -26 -16 -72 14 -72 47 0 35 -35 42 -150 29 -30 -3 -63
-6 -72 -6 -12 0 -18 -8 -18 -25 0 -16 -6 -24 -17 -24 -33 0 -46 16 -39 47 6
25 4 29 -19 31 -14 1 -25 -2 -25 -8z m588 -608 c18 -16 32 -34 32 -40 0 -17
17 -15 24 3 3 8 10 15 16 15 5 0 10 -7 10 -15 0 -8 -5 -15 -11 -15 -15 0 -1
-41 22 -65 13 -13 22 -16 29 -9 8 8 28 8 63 2 29 -6 70 -7 93 -4 47 6 86 -2
81 -17 -5 -16 38 -57 62 -57 24 0 27 -12 6 -30 -11 -9 -20 -8 -44 6 -25 15
-34 16 -56 6 -23 -11 -26 -16 -20 -45 12 -61 15 -66 47 -69 17 -2 34 -9 36
-17 4 -11 -3 -12 -33 -7 -34 7 -36 6 -30 -13 7 -24 -7 -28 -25 -6 -10 12 -10
15 1 16 8 1 -3 5 -24 10 -21 5 -45 16 -53 24 -9 8 -22 15 -30 15 -8 0 -14 5
-14 10 0 6 6 10 14 10 13 0 31 28 23 36 -2 2 -18 7 -36 10 -33 7 -33 7 -26
-26 l7 -33 -38 31 c-37 30 -39 31 -46 12 -4 -11 -12 -20 -18 -20 -5 0 -10 -6
-10 -13 0 -6 19 -18 43 -25 23 -7 59 -24 80 -38 21 -14 42 -22 47 -19 5 3 11
1 15 -5 3 -5 17 -10 31 -10 16 0 28 -8 36 -25 21 -46 79 -40 98 11 8 20 16 24
54 24 30 0 51 -6 67 -21 l24 -20 -26 5 c-15 3 -34 0 -45 -9 -10 -8 -27 -15
-36 -15 -22 0 -33 -19 -19 -33 20 -20 12 -37 -18 -37 -17 0 -33 5 -36 10 -3 6
3 10 14 10 26 0 27 16 2 30 -16 8 -21 6 -26 -11 -8 -24 -40 -22 -40 4 0 20
-46 47 -81 47 -14 0 -27 7 -31 15 -5 14 -8 14 -24 -1 -17 -16 -19 -16 -25 0
-4 11 -10 13 -18 7 -15 -13 -87 -5 -97 10 -4 7 -5 18 -2 26 3 7 -2 13 -11 13
-9 0 -16 7 -16 16 0 8 -5 12 -10 9 -7 -4 -5 -14 5 -28 19 -27 19 -47 0 -47
-21 0 -52 50 -36 59 8 5 6 12 -8 25 -19 17 -20 17 -31 -3 -15 -29 -40 -27 -40
4 0 21 4 25 28 24 29 -2 48 5 99 36 33 20 41 39 23 50 -5 3 -10 14 -10 23 0
23 -40 40 -73 31 -23 -6 -26 -4 -25 16 1 13 7 21 14 18 7 -2 15 0 19 6 3 6 15
11 27 11 16 0 19 5 14 23 -3 12 -6 28 -6 35 0 6 -5 12 -10 12 -14 0 -70 42
-70 52 0 19 49 6 78 -20z"/>
<path d="M14348 2463 c-9 -2 -20 -13 -23 -24 -5 -14 -16 -19 -45 -19 -33 0
-38 -3 -43 -27 -5 -28 11 -53 35 -53 8 0 19 -5 24 -10 7 -7 22 -6 47 5 20 8
46 15 57 15 27 0 26 24 -2 43 -22 14 -22 15 -5 34 32 37 14 52 -45 36z"/>
<path d="M14037 2363 c-4 -3 -2 -12 4 -19 7 -9 1 -20 -22 -42 -28 -26 -36 -28
-82 -24 -55 5 -70 16 -63 45 3 12 -2 17 -16 17 -16 0 -19 -5 -14 -22 3 -13 6
-31 6 -41 0 -16 5 -18 40 -12 27 5 40 3 40 -4 0 -6 11 -16 25 -21 31 -12 43
-39 24 -51 -10 -6 -21 -1 -37 17 -21 24 -24 25 -41 10 -22 -20 -51 -21 -51 -2
0 23 -13 26 -61 17 -29 -6 -35 -9 -18 -10 37 -1 57 -27 41 -52 -18 -28 -15
-37 15 -41 39 -4 45 -38 6 -35 -23 2 -28 -3 -33 -28 -5 -26 -10 -30 -38 -29
-52 3 -84 29 -80 67 2 26 9 34 36 42 21 6 32 15 30 25 -4 18 -44 26 -62 11 -8
-6 -20 -9 -29 -5 -19 7 -137 -110 -137 -136 0 -17 21 -11 40 12 16 20 20 21
43 9 14 -7 40 -14 58 -15 29 -1 34 -6 40 -34 3 -17 12 -39 19 -47 17 -20 6
-30 -33 -30 -28 0 -32 -4 -29 -24 2 -20 -2 -23 -22 -19 -18 4 -27 -1 -35 -19
-15 -33 -15 -33 16 -33 21 0 24 -3 15 -12 -20 -20 -14 -32 37 -86 51 -53 68
-98 47 -120 -18 -18 -66 4 -66 30 0 11 -5 16 -10 13 -6 -4 -8 -15 -5 -26 4
-13 2 -19 -9 -19 -9 0 -16 6 -17 13 -3 61 -27 117 -50 117 -16 0 -69 -33 -69
-43 0 -5 -10 -17 -22 -28 -20 -16 -21 -18 -5 -19 10 0 15 -5 12 -11 -4 -6 -13
-8 -21 -5 -24 9 -64 -12 -64 -34 0 -24 13 -26 30 -5 17 20 69 19 77 -1 3 -10
0 -22 -8 -28 -8 -6 -13 -18 -11 -27 1 -9 -9 -30 -23 -47 -14 -16 -25 -35 -25
-41 0 -18 35 -13 62 8 13 11 37 23 51 26 15 4 27 13 27 20 0 8 7 21 16 30 15
14 17 13 33 -12 44 -75 57 -93 68 -93 6 0 23 -12 37 -28 14 -15 39 -42 55 -59
35 -38 107 -68 115 -48 6 18 -3 25 -33 25 -30 1 -48 13 -78 56 -16 23 -19 34
-10 43 15 15 0 26 -17 12 -8 -7 -24 -10 -36 -6 -20 6 -27 29 -11 39 4 3 11 18
14 34 4 19 18 34 44 49 l38 22 23 -40 c15 -25 20 -47 16 -63 -6 -24 -5 -24 30
-14 19 6 33 15 30 20 -3 5 -12 7 -19 4 -20 -7 -10 53 12 70 17 13 17 15 1 25
-10 5 -18 17 -18 24 0 8 -5 15 -11 15 -6 0 -9 9 -6 20 4 15 -1 22 -21 27 -30
7 -72 42 -72 60 0 20 38 40 69 35 22 -3 32 -12 40 -34 9 -25 13 -28 25 -18 20
16 56 3 56 -21 0 -12 12 -24 33 -32 17 -8 38 -26 46 -41 13 -23 13 -32 -2 -74
-22 -61 -21 -79 3 -87 24 -8 26 -23 3 -32 -14 -5 -13 -8 6 -15 37 -13 19 -33
-28 -30 -23 1 -41 -2 -41 -8 0 -5 -9 -10 -21 -10 -18 0 -20 -5 -17 -43 3 -27
12 -51 26 -65 12 -12 22 -29 22 -37 0 -26 20 -16 41 19 21 36 49 40 49 7 0 -9
12 -24 26 -34 25 -19 25 -18 50 8 28 31 29 33 8 56 -22 24 -11 49 21 49 23 0
25 2 14 21 -9 17 -7 25 9 42 11 12 22 31 24 42 3 17 11 20 45 17 23 -1 44 2
48 8 9 15 45 12 45 -4 0 -8 -5 -18 -11 -22 -8 -4 -2 -12 15 -21 33 -17 56 -4
56 32 0 13 6 26 13 29 9 3 7 9 -5 19 -11 9 -18 28 -18 50 0 48 -9 67 -31 67
-35 0 -54 75 -25 99 8 7 12 21 9 31 -4 16 2 23 26 31 18 7 31 18 31 28 0 27
21 41 62 41 28 0 38 4 38 16 0 13 -11 15 -67 12 -62 -3 -68 -1 -71 17 -3 23
14 53 24 42 4 -3 1 -14 -6 -22 -10 -12 -10 -19 -2 -27 15 -15 42 7 42 34 0 11
8 22 19 25 21 5 35 29 26 44 -10 15 -99 -3 -113 -23 -10 -13 -23 -18 -45 -16
-39 4 -50 35 -15 40 14 2 30 17 43 39 17 31 22 34 33 23 7 -8 17 -14 22 -14
17 0 38 30 33 49 -4 15 1 20 18 23 13 2 25 10 27 19 2 13 -9 18 -48 23 -59 8
-80 -3 -80 -40 0 -21 -4 -23 -25 -18 -18 4 -27 1 -31 -10 -9 -23 -29 -20 -48
9 -9 14 -23 25 -31 25 -17 0 -35 -30 -35 -59 0 -12 -4 -21 -10 -21 -5 0 -10 9
-10 19 0 19 -23 35 -34 24 -3 -4 -6 -17 -6 -30 0 -14 -5 -34 -11 -45 -11 -20
-12 -20 -33 7 -25 31 -51 27 -41 -6 9 -28 -11 -24 -55 11 -21 17 -45 30 -54
30 -34 0 -8 55 29 62 17 3 19 10 17 45 -3 36 0 44 22 58 18 12 36 15 56 11 22
-4 32 -1 36 9 9 21 46 19 72 -5 29 -28 39 -26 82 19 l38 39 -40 26 c-22 14
-50 26 -63 26 -13 0 -28 7 -33 16 -9 17 -22 16 -79 -1 -19 -6 -23 -4 -23 14 0
21 -10 27 -23 14z"/>
<path d="M12270 2318 c0 -5 11 -13 25 -18 30 -12 31 -21 5 -45 -18 -16 -23
-17 -45 -5 -29 16 -43 7 -25 -15 11 -13 9 -20 -10 -40 -13 -14 -29 -25 -35
-25 -7 0 -17 -12 -24 -26 -12 -26 -11 -27 21 -20 17 3 42 15 53 26 12 11 30
20 40 20 10 0 32 15 48 33 16 17 25 25 19 17 -5 -8 -10 -28 -10 -43 0 -16 -9
-42 -21 -57 -21 -30 -26 -51 -14 -63 8 -8 63 42 63 57 0 5 10 20 21 32 12 13
27 33 33 45 13 26 39 39 30 15 -4 -10 -1 -16 9 -16 13 0 15 11 14 55 -1 30 -3
55 -3 55 -1 0 -17 -6 -35 -14 -40 -16 -78 -6 -86 23 -4 14 -13 19 -39 18 -19
-1 -34 -5 -34 -9z"/>
<path d="M10334 2275 c-4 -8 -11 -15 -18 -15 -13 0 -46 -35 -46 -50 0 -6 -4
-10 -10 -10 -13 0 -13 13 2 28 16 16 -18 28 -36 13 -11 -9 -19 -9 -34 0 -27
17 -74 -14 -66 -45 4 -17 -1 -25 -21 -34 -20 -9 -25 -17 -20 -32 5 -15 -2 -29
-26 -51 l-33 -31 22 -18 c27 -22 28 -32 2 -48 -11 -7 -20 -22 -20 -35 0 -47
-116 -59 -150 -15 -16 19 -16 19 -34 -1 -21 -24 -28 -19 79 -56 40 -14 63 -28
70 -43 13 -29 18 -28 54 13 26 30 34 34 50 25 32 -16 39 -12 46 29 7 45 43 85
64 72 8 -5 11 -16 8 -25 -8 -20 10 -31 28 -16 8 7 15 7 19 1 4 -5 1 -13 -4
-16 -6 -4 -16 -18 -21 -32 -6 -16 -15 -23 -24 -19 -24 9 -74 -26 -77 -54 -2
-19 -10 -26 -33 -30 -24 -4 -30 -10 -30 -30 0 -14 -6 -34 -12 -45 -10 -16 -14
-17 -22 -6 -6 10 -13 11 -30 2 -11 -7 -21 -16 -21 -21 0 -6 -6 -10 -14 -10
-21 0 -29 -33 -15 -63 10 -23 8 -32 -20 -73 -35 -53 -39 -78 -16 -101 25 -25
14 -48 -22 -49 -18 -1 -39 -7 -48 -14 -8 -7 -26 -10 -40 -8 -21 4 -25 1 -25
-17 0 -13 8 -25 18 -29 9 -3 23 -9 30 -12 6 -3 12 1 12 9 0 19 32 27 55 15 13
-8 15 -18 10 -45 -6 -31 -4 -35 11 -29 10 4 25 -1 37 -11 19 -18 20 -17 13 30
-5 31 -3 53 4 62 8 10 7 21 -4 44 -20 37 -21 71 -2 71 8 0 17 7 20 16 4 10 14
14 26 11 17 -4 20 0 20 26 l1 32 20 -25 c12 -14 26 -25 33 -25 15 0 20 -43 7
-59 -8 -9 -2 -21 26 -45 19 -17 37 -30 40 -28 2 2 -3 10 -12 17 -20 17 -19 33
5 55 18 16 23 17 45 5 14 -7 28 -11 31 -7 4 3 18 -3 32 -13 13 -11 31 -20 38
-20 8 0 14 -6 14 -13 0 -7 13 -20 29 -30 47 -27 51 0 6 37 -35 29 -37 35 -31
68 3 19 18 45 31 58 19 18 25 32 23 58 -3 30 0 35 32 46 48 16 70 10 70 -20 0
-18 -5 -24 -22 -24 -21 -1 -21 -2 -5 -11 22 -13 22 -55 0 -67 -13 -8 -15 -15
-6 -38 15 -41 15 -86 1 -95 -18 -11 -6 -19 20 -12 19 5 22 12 22 54 0 46 2 50
39 73 52 33 56 42 26 62 -27 18 -34 44 -10 44 7 0 18 -7 23 -17 12 -21 42 -10
42 16 0 11 5 23 10 26 6 3 10 0 10 -8 0 -8 6 -20 14 -26 11 -9 22 -1 57 41 24
29 51 58 59 65 13 11 13 12 -2 13 -9 0 -18 -6 -21 -12 -4 -10 -7 -10 -18 0 -7
6 -24 12 -39 12 -14 0 -36 9 -50 20 -22 17 -24 22 -13 49 6 18 7 33 2 37 -5 3
-12 -2 -15 -11 -5 -12 -14 -15 -30 -11 -13 4 -24 2 -24 -3 0 -5 10 -11 21 -14
17 -5 20 -11 17 -32 -5 -25 4 -37 31 -42 8 -1 21 -9 30 -17 14 -15 14 -18 -1
-33 -16 -15 -19 -15 -44 2 -14 9 -31 30 -37 46 -11 29 -40 39 -52 19 -12 -19
-35 -10 -35 14 0 22 -3 23 -35 16 -48 -11 -95 7 -93 35 1 12 -8 35 -20 52 -12
17 -22 43 -22 57 0 39 23 106 36 106 6 0 17 6 23 14 10 12 6 15 -19 21 -34 8
-40 32 -26 110 3 15 0 36 -7 46 -10 16 -9 21 2 28 7 5 21 27 32 50 15 35 16
41 3 41 -8 0 -17 -7 -20 -15z"/>
<path d="M14823 2128 c-8 -19 -19 -22 -79 -25 -38 -2 -77 -5 -86 -6 -26 -4
-34 -17 -12 -17 11 0 30 -8 43 -17 l24 -16 -22 -9 c-29 -10 -22 -32 12 -36 25
-3 32 -12 28 -36 -1 -4 3 -14 9 -21 7 -8 4 -17 -9 -29 -21 -19 -18 -43 7 -61
7 -6 14 -26 15 -45 2 -30 -1 -35 -21 -36 -29 -2 -39 -12 -19 -20 19 -7 87 24
94 43 3 8 21 13 45 13 36 0 39 2 32 23 -10 31 -20 35 -67 26 -23 -4 -47 -8
-53 -9 -17 0 -27 31 -14 44 5 5 10 18 10 27 0 10 11 19 29 22 15 3 43 18 61
33 29 25 31 29 14 35 -30 12 -44 10 -44 -6 0 -17 -11 -20 -25 -6 -6 5 -21 11
-35 13 -14 1 -26 10 -28 19 -4 20 74 44 115 36 15 -3 47 -10 70 -15 38 -8 42
-7 52 16 16 34 -2 52 -49 52 -21 0 -40 4 -42 9 -1 4 -12 11 -24 15 -15 5 -23
1 -31 -16z"/>
<path d="M2262 1767 c-6 -7 -20 -34 -32 -61 -30 -70 -74 -121 -120 -140 -40
-16 -58 -43 -21 -31 26 8 48 -29 30 -51 -14 -17 7 -77 25 -71 14 5 80 101 112
165 9 18 25 37 35 43 25 13 24 46 -1 59 -24 13 -26 45 -4 54 31 12 43 6 54
-29 12 -35 40 -49 40 -19 0 40 -58 99 -77 80 -4 -3 -12 -1 -18 4 -9 7 -16 6
-23 -3z"/>
<path d="M9203 1670 c-29 -22 -49 -29 -63 -25 -11 3 -20 3 -20 -2 0 -4 -16
-25 -35 -47 -19 -21 -35 -43 -35 -48 0 -5 -10 -6 -22 -2 l-21 6 21 -35 c12
-22 18 -44 15 -58 -4 -15 0 -26 12 -35 19 -14 12 -18 -27 -15 -9 1 -19 -3 -23
-9 -5 -8 -11 -6 -19 6 -8 10 -18 14 -25 10 -9 -6 -8 -11 5 -20 23 -17 3 -29
-29 -17 -23 9 -24 13 -17 52 7 35 5 46 -8 55 -15 11 -18 7 -25 -38 -6 -42 -4
-53 9 -63 19 -14 13 -30 -18 -46 -19 -10 -20 -9 -16 20 5 34 -8 41 -28 14 -7
-10 -16 -15 -19 -11 -4 4 0 15 9 24 10 9 15 23 12 31 -3 8 -6 17 -6 19 0 2
-16 4 -35 4 -29 0 -36 -5 -52 -37 -12 -27 -14 -38 -5 -41 19 -6 14 -19 -9 -25
-33 -9 -17 -32 22 -32 27 0 35 -4 37 -22 2 -12 -6 -31 -17 -42 -12 -12 -17
-27 -14 -40 7 -29 31 -26 45 4 12 27 31 35 22 10 -4 -8 -1 -15 4 -15 14 0 52
54 52 73 0 8 9 26 20 40 11 14 20 30 20 36 0 13 17 15 24 2 3 -5 7 -32 9 -60
l4 -51 -46 -22 c-59 -29 -57 -26 -43 -40 9 -9 16 -8 29 4 10 8 35 23 55 33 33
15 37 21 35 48 -1 23 3 32 16 35 16 3 18 -3 16 -47 -2 -41 1 -54 17 -66 28
-21 39 -12 37 30 -2 32 -1 35 12 25 8 -7 15 -20 15 -30 0 -10 7 -23 15 -30 12
-10 16 -9 21 6 3 11 10 27 15 36 5 10 9 27 9 38 0 11 4 20 9 20 15 0 24 41 12
53 -18 18 -12 30 12 23 18 -4 30 1 46 20 12 14 19 29 16 34 -3 5 3 15 13 22
13 9 19 25 18 50 -1 40 -12 46 -48 27 -29 -16 -35 -2 -9 22 16 15 19 24 12 33
-7 9 -7 16 0 23 5 5 9 33 7 62 l-3 52 -42 -31z"/>
<path d="M10860 1591 c-5 -11 -10 -26 -10 -35 0 -22 -19 -30 -36 -15 -13 10
-17 10 -24 -1 -4 -7 -6 -19 -4 -25 3 -7 -7 -20 -22 -30 l-27 -18 34 -28 c28
-23 31 -31 19 -38 -8 -5 -18 -7 -23 -4 -5 3 -4 -4 2 -15 18 -33 13 -49 -19
-62 -34 -14 -37 -22 -15 -40 17 -14 65 -1 75 21 4 8 13 25 20 39 8 14 14 50
14 80 1 43 8 68 34 112 17 32 32 62 32 68 0 18 -39 11 -50 -9z"/>
<path d="M18920 1590 c0 -11 5 -20 12 -20 9 0 9 -3 0 -12 -19 -19 -14 -28 17
-28 19 0 35 -8 45 -22 l16 -22 19 20 c27 29 78 21 99 -16 9 -15 40 -45 70 -66
30 -22 61 -44 70 -51 14 -10 15 -15 5 -32 -11 -18 -10 -22 10 -34 12 -8 42
-20 67 -26 25 -7 55 -17 68 -22 39 -15 61 -11 55 10 -4 14 3 20 28 25 18 3 35
2 38 -2 3 -5 14 -11 24 -15 21 -8 23 -27 2 -27 -8 0 -15 -8 -15 -17 0 -10 -9
-29 -19 -43 -19 -23 -20 -24 -39 -7 -23 21 -42 22 -42 2 0 -8 -4 -15 -10 -15
-16 0 -12 -30 5 -36 8 -4 12 -10 9 -15 -3 -5 2 -9 12 -9 13 0 14 3 4 15 -6 8
-9 19 -5 25 11 18 35 11 45 -15 5 -14 17 -25 27 -25 10 0 29 -9 43 -20 14 -11
30 -20 37 -20 13 0 38 -38 30 -46 -2 -3 -10 2 -17 11 -7 8 -28 15 -48 15 -22
0 -40 7 -48 17 -7 10 -16 14 -21 10 -4 -5 1 -15 11 -23 82 -59 101 -101 42
-90 l-34 7 11 -31 c12 -32 26 -37 57 -18 23 15 27 12 32 -27 3 -32 5 -31 -62
-20 -48 8 -83 -17 -40 -28 15 -4 20 -14 20 -37 0 -29 2 -32 24 -26 18 4 29 1
40 -15 8 -12 12 -27 9 -34 -5 -15 26 -35 55 -35 11 0 22 9 25 20 5 19 9 17 49
-19 29 -28 51 -40 68 -39 32 2 49 -8 60 -36 l9 -21 6 22 c4 13 12 20 21 16 8
-3 18 5 25 21 15 31 28 23 58 -35 22 -42 11 -53 -19 -16 -14 17 -21 19 -30 10
-9 -8 -6 -15 13 -28 15 -10 24 -22 20 -31 -3 -8 1 -14 11 -14 9 0 26 -6 37
-12 17 -10 23 -10 26 0 7 20 21 14 66 -27 23 -21 54 -41 68 -44 25 -6 34 -19
49 -77 4 -15 12 -23 21 -21 45 12 62 12 89 1 34 -14 42 -50 11 -50 -23 0 -35
-38 -19 -58 18 -21 -12 -35 -33 -16 -36 32 -63 -5 -29 -41 11 -12 20 -27 20
-33 0 -7 5 -12 10 -12 6 0 10 7 10 16 0 23 28 47 50 41 10 -3 21 0 22 5 2 6
17 -1 32 -16 43 -39 56 -34 56 20 0 47 -24 90 -35 62 -3 -8 -4 -25 -3 -38 2
-17 -2 -25 -12 -25 -11 0 -16 12 -17 42 -1 23 -6 51 -12 61 -13 25 -5 33 24
22 19 -7 25 -5 30 10 4 11 10 20 14 20 16 0 9 45 -9 57 -26 18 -25 39 0 46 11
3 20 10 20 17 0 6 -5 8 -11 4 -13 -7 -31 15 -22 29 2 4 11 3 19 -4 13 -11 15
2 12 95 -1 78 -6 110 -15 113 -7 3 -13 13 -13 22 0 22 -43 46 -76 43 -19 -1
-24 3 -24 21 0 13 -12 30 -30 42 -33 22 -37 34 -17 54 10 10 6 17 -18 37 -17
13 -37 21 -45 18 -8 -3 -21 -8 -29 -12 -10 -4 -13 1 -9 20 4 23 -1 29 -44 49
-37 17 -48 28 -48 46 0 21 -2 22 -20 11 -11 -7 -20 -15 -20 -18 0 -4 24 -30
53 -60 l52 -53 -47 6 -47 6 10 -28 c6 -16 19 -37 29 -46 18 -16 22 -16 54 -1
41 20 60 20 75 3 15 -19 4 -27 -38 -27 l-35 0 35 -34 c68 -69 68 -69 44 -99
-27 -35 -33 -34 -43 5 -9 36 -42 52 -42 21 0 -10 -4 -24 -8 -31 -10 -15 -42
-5 -42 13 0 7 -18 25 -40 40 -44 30 -46 35 -27 54 10 10 9 14 -5 22 -10 6 -18
16 -18 23 0 8 -6 19 -14 25 -16 14 -28 1 -30 -30 -1 -26 -15 -20 -48 17 -38
43 -21 58 55 49 34 -4 57 -3 61 3 9 15 -34 42 -66 42 -16 0 -28 5 -28 10 0 6
-5 10 -11 10 -7 0 -18 8 -25 17 -7 10 -16 14 -21 10 -4 -5 0 -13 10 -18 20
-12 23 -49 3 -49 -7 0 -16 9 -19 20 -4 16 -11 19 -29 15 -16 -4 -35 3 -65 25
-24 18 -43 36 -43 41 0 5 -7 9 -15 9 -8 0 -15 5 -15 10 0 6 5 10 10 10 18 0
10 36 -13 58 -19 18 -30 21 -73 16 -51 -6 -94 6 -94 28 0 7 14 8 40 4 32 -5
40 -3 40 9 0 8 9 15 20 15 11 0 20 -4 20 -10 0 -5 8 -10 19 -10 10 0 24 -7 31
-15 12 -15 50 -21 50 -9 0 14 -103 105 -140 124 -20 10 -40 28 -43 39 -3 14
-12 19 -31 17 -14 -1 -29 -6 -33 -9 -14 -14 -19 -6 -19 28 l1 34 40 -6 c22 -3
51 -16 66 -29 25 -24 59 -32 59 -15 0 5 -4 21 -10 35 -8 23 -15 26 -55 26 -37
0 -51 5 -70 26 -28 30 -95 50 -107 31 -5 -7 -7 -22 -5 -34 3 -18 1 -20 -15
-10 -13 9 -17 19 -13 36 5 20 3 23 -14 18 -11 -2 -28 1 -38 8 -10 7 -35 16
-56 19 -34 5 -37 4 -37 -18 0 -23 -16 -36 -47 -36 -11 0 -14 7 -9 24 5 21 1
26 -30 36 -19 7 -40 20 -47 31 -14 22 -39 26 -31 4 4 -9 0 -15 -9 -15 -8 0
-20 7 -27 15 -18 22 -32 18 -28 -7 5 -35 -15 -31 -59 12 -48 46 -53 48 -53 20z
m1336 -935 c-15 -22 -15 -25 2 -37 26 -20 56 -78 45 -89 -6 -6 -15 -4 -23 6
-7 8 -16 15 -21 15 -12 0 21 -74 37 -83 17 -10 19 -37 3 -37 -21 0 -79 41 -79
56 0 21 -50 84 -66 84 -19 0 -6 27 15 33 12 3 21 18 25 41 6 33 9 36 43 36 35
0 35 0 19 -25z"/>
<path d="M13258 1505 c-9 -21 -18 -25 -56 -25 -39 0 -44 2 -39 20 6 22 -3 26
-20 9 -13 -13 -45 -32 -91 -53 -43 -20 -36 -41 13 -41 34 0 39 -3 47 -30 10
-40 2 -64 -34 -98 -23 -21 -29 -33 -24 -51 4 -15 0 -28 -9 -36 -25 -21 -17
-27 43 -33 37 -3 69 0 92 10 24 10 41 11 55 4 11 -5 28 -12 38 -15 11 -3 21
-15 24 -26 7 -25 9 -25 35 0 12 11 19 20 15 20 -4 0 -2 11 3 24 8 21 6 26 -11
31 -18 6 -20 12 -14 51 4 29 2 44 -4 44 -6 0 -11 9 -11 21 0 16 -4 19 -17 14
-33 -12 -36 -10 -46 24 -9 29 -8 35 12 50 16 13 24 31 27 64 5 52 -9 63 -28
22z"/>
<path d="M19896 1512 c-3 -5 1 -18 9 -28 20 -27 18 -44 -5 -44 -22 0 -23 -1
-14 -24 8 -20 43 -21 50 -1 7 19 24 20 24 2 0 -7 16 -32 35 -54 19 -23 35 -46
35 -52 0 -14 38 -34 50 -26 15 9 12 25 -4 25 -8 0 -17 7 -20 16 -5 14 -1 16
23 11 26 -5 41 5 41 28 0 1 -18 5 -41 9 -53 8 -102 55 -94 88 5 20 0 26 -32
38 -21 8 -41 16 -45 18 -3 2 -9 -1 -12 -6z"/>
<path d="M1850 1466 c-5 -13 -12 -39 -15 -58 -6 -32 -4 -36 24 -48 17 -7 39
-26 48 -41 30 -50 51 -48 123 10 24 20 24 21 4 21 -12 0 -38 -7 -57 -15 -20
-8 -39 -15 -42 -15 -7 0 -55 78 -55 90 0 5 9 10 20 10 11 0 20 -4 20 -10 0
-20 39 -9 69 19 35 33 34 36 -26 46 -29 4 -43 3 -43 -4 0 -6 -4 -11 -10 -11
-5 0 -10 7 -10 15 0 25 -40 18 -50 -9z"/>
<path d="M1675 1461 c-8 -14 -31 -106 -39 -157 -4 -30 -2 -45 8 -53 11 -10 20
-5 41 24 15 19 38 38 51 41 16 4 26 16 30 33 3 14 9 37 13 51 4 14 4 36 1 50
-6 21 -8 23 -15 8 -9 -22 -43 -23 -66 -2 -11 10 -19 12 -24 5z"/>
<path d="M9694 1345 c-4 -24 -12 -35 -23 -35 -26 0 -32 -11 -16 -27 26 -25 19
-44 -12 -37 -16 4 -35 12 -43 18 -13 10 -13 9 -1 -7 12 -16 11 -21 -14 -47
-33 -35 -60 -40 -50 -11 5 16 2 18 -14 14 -11 -3 -22 -12 -25 -20 -3 -8 -16
-13 -28 -12 -13 2 -29 0 -35 -4 -20 -13 -15 -37 7 -37 12 0 24 -10 29 -24 5
-13 17 -26 25 -29 9 -4 16 -13 16 -21 0 -18 23 -27 41 -15 25 16 68 10 79 -11
8 -16 17 -19 38 -14 15 4 29 11 31 17 2 5 17 25 34 44 25 28 28 36 16 44 -8 5
-21 6 -30 3 -14 -4 -16 3 -14 41 2 25 9 53 15 60 7 8 10 21 7 30 -4 8 0 30 8
49 13 30 13 35 -4 50 -25 23 -29 21 -37 -19z"/>
<path d="M10573 1360 c-13 -5 -23 -13 -23 -18 0 -5 -14 -30 -31 -56 -29 -43
-30 -48 -16 -64 11 -12 13 -22 7 -32 -5 -8 -10 -10 -10 -4 0 6 -11 16 -25 22
-33 15 -36 15 -29 -1 2 -7 -4 -22 -16 -32 -15 -14 -17 -21 -9 -32 9 -10 8 -18
-5 -32 -16 -18 -15 -19 16 -24 34 -5 50 6 41 30 -7 18 15 43 38 43 22 0 26
-32 5 -49 -7 -6 -11 -22 -8 -37 4 -22 1 -25 -19 -23 -41 4 -59 -1 -59 -14 0
-7 -8 -24 -17 -37 -9 -13 -16 -38 -14 -55 3 -37 -19 -60 -49 -50 -12 4 -27 2
-33 -4 -15 -12 -42 2 -33 18 4 6 16 11 26 11 16 0 18 5 14 30 -4 17 -2 36 5
43 13 16 5 28 -14 21 -20 -8 -30 17 -13 30 8 6 18 21 22 33 4 12 20 26 36 32
33 11 39 26 15 35 -8 3 -15 13 -16 23 0 14 -2 13 -9 -4 -11 -26 -25 -30 -34
-8 -3 8 -13 15 -22 15 -8 0 -14 6 -11 13 2 6 11 11 19 9 10 -1 17 7 21 23 6
33 -43 87 -67 73 -9 -5 -13 -15 -9 -25 4 -9 -1 -22 -13 -31 -13 -10 -15 -16
-6 -19 6 -3 12 -19 12 -36 0 -17 7 -39 16 -48 16 -17 15 -19 -11 -29 -22 -8
-26 -15 -21 -35 3 -13 2 -26 -3 -29 -13 -8 -2 -42 20 -62 23 -20 24 -32 5 -53
-7 -9 -16 -31 -20 -50 -5 -31 -4 -33 17 -27 17 4 33 -5 65 -35 35 -32 47 -38
58 -28 8 6 14 17 14 24 0 15 22 25 55 25 18 0 30 13 54 60 18 34 29 65 26 70
-3 5 6 17 20 26 14 9 25 23 25 31 0 25 38 80 59 86 10 2 21 17 25 33 6 24 3
32 -18 49 -31 25 -33 35 -6 35 11 0 20 -4 20 -10 0 -5 14 -10 31 -10 31 0 31
-1 26 -35 -4 -25 -2 -35 8 -35 7 0 27 -16 44 -35 17 -19 34 -35 38 -35 5 0 13
21 19 47 11 47 9 73 -5 73 -10 0 -31 -46 -31 -67 0 -12 -3 -14 -11 -6 -6 6
-12 39 -14 74 -1 35 -3 66 -4 68 -1 3 -7 -4 -15 -14 -9 -13 -19 -16 -32 -10
-10 4 -27 7 -36 6 -13 -2 -18 5 -18 25 0 27 0 27 -21 8 -18 -17 -23 -17 -46
-4 -37 21 -40 39 -7 37 25 -2 28 1 29 36 1 20 1 37 1 36 -1 0 -11 -4 -23 -9z"/>
<path d="M9867 1208 c-27 -31 -28 -33 -10 -46 16 -13 16 -14 1 -9 -21 7 -34
-11 -19 -26 6 -6 11 -20 11 -30 0 -14 -5 -18 -20 -14 -20 5 -50 -15 -50 -35 0
-6 10 -8 24 -4 29 7 34 -4 35 -86 0 -48 -3 -60 -19 -68 -23 -12 -27 -40 -5
-40 8 0 19 8 24 19 6 10 22 22 36 25 24 6 25 9 19 55 -5 38 -3 49 10 54 9 4
16 18 16 32 0 19 5 25 23 25 17 0 26 9 36 35 14 40 7 58 -18 50 -24 -7 -39 12
-43 54 -4 45 -17 47 -51 9z"/>
<path d="M1994 1217 c-4 -12 -18 -17 -50 -17 -24 0 -44 -4 -44 -10 0 -5 -6
-10 -14 -10 -22 0 -26 -13 -10 -35 12 -17 17 -18 35 -7 26 17 39 7 39 -28 0
-20 6 -31 19 -35 28 -9 53 11 75 57 l19 40 -31 31 c-27 26 -32 28 -38 14z"/>
<path d="M5557 1156 c-22 -22 -22 -35 1 -42 41 -14 67 -31 117 -83 30 -29 65
-59 77 -65 12 -6 28 -23 35 -36 12 -23 10 -27 -15 -47 -23 -20 -25 -25 -14
-40 6 -10 16 -28 21 -39 21 -48 101 -84 114 -51 3 7 1 33 -3 58 -11 56 4 69
77 69 38 0 53 4 53 14 0 21 -20 33 -67 41 -38 6 -43 10 -49 40 -3 19 -14 37
-23 40 -16 5 -51 37 -96 88 -32 36 -80 56 -153 63 -47 5 -61 3 -75 -10z"/>
<path d="M10180 1146 c0 -28 -17 -35 -26 -11 -11 27 -41 17 -47 -15 -4 -16
-16 -38 -27 -47 -11 -10 -20 -23 -20 -29 0 -13 -45 -28 -71 -25 -9 1 -22 -5
-29 -14 -10 -13 -9 -15 6 -15 11 0 24 -10 29 -22 8 -17 18 -22 40 -21 34 3 55
-12 55 -38 0 -20 15 -26 25 -9 8 13 -26 70 -41 70 -19 0 -24 28 -7 34 9 4 30
4 48 0 28 -5 34 -2 40 16 4 12 4 24 1 27 -3 3 3 13 13 22 21 18 35 87 20 96
-5 4 -9 -5 -9 -19z"/>
<path d="M8911 1146 c-7 -9 -24 -13 -43 -11 -23 3 -31 0 -35 -15 -3 -11 -9
-20 -14 -20 -5 0 -9 -6 -9 -14 0 -8 -16 -24 -35 -36 -39 -24 -38 -33 5 -55 26
-14 28 -13 35 8 4 12 8 31 9 42 1 16 8 20 37 21 31 1 36 -2 32 -17 -4 -15 0
-19 20 -19 25 0 25 -1 11 -30 -14 -27 -13 -31 6 -50 11 -11 26 -18 32 -14 7 5
5 12 -7 21 -18 12 -18 14 7 40 14 16 28 43 30 61 5 33 -5 44 -16 17 -8 -23
-36 -18 -63 12 l-25 26 26 14 c14 7 26 18 26 23 0 15 -16 12 -29 -4z"/>
<path d="M19020 1085 c-7 -8 -19 -15 -26 -15 -8 0 -14 -7 -14 -15 0 -8 5 -15
10 -15 17 0 11 -21 -12 -39 -22 -18 -18 -41 8 -41 8 0 14 -4 14 -10 0 -17 29
-11 50 10 23 23 41 25 58 8 19 -19 27 0 9 20 -24 27 -21 49 9 56 19 5 34 -1
64 -24 27 -21 46 -29 59 -25 15 4 18 2 15 -12 -3 -13 9 -26 47 -48 78 -45 86
-50 102 -64 9 -7 20 -11 24 -8 4 3 9 -9 10 -25 2 -32 19 -58 35 -58 6 0 8 11
6 25 -3 14 -1 28 4 31 5 3 0 13 -11 21 -12 8 -21 21 -21 29 0 9 -11 14 -31 14
-35 0 -68 32 -69 66 0 24 -31 56 -52 53 -7 -1 -30 -1 -51 0 -31 1 -39 6 -48
28 -13 34 -29 45 -46 32 -12 -10 -73 -2 -114 15 -9 4 -21 0 -29 -9z"/>
<path d="M1138 1031 c-2 -85 -5 -100 -18 -116 -7 -9 -19 -14 -27 -11 -20 8
-16 -6 12 -44 14 -19 25 -40 25 -47 0 -7 5 -13 10 -13 6 0 10 8 10 17 0 9 8
25 17 35 12 13 17 39 18 91 1 39 7 85 14 100 6 16 11 30 11 32 0 2 -16 3 -35
2 -34 -1 -35 -2 -37 -46z"/>
<path d="M10671 1047 c-5 -12 -29 -45 -55 -72 -25 -28 -46 -56 -46 -63 0 -7
16 -20 35 -29 41 -19 44 -29 13 -38 -30 -9 -68 -45 -68 -63 0 -12 4 -11 22 4
21 19 21 19 15 -5 -6 -24 10 -71 25 -71 5 0 13 11 18 25 5 14 16 25 25 25 8 0
21 15 29 34 8 19 23 39 34 45 14 7 18 19 17 46 -1 20 -5 39 -9 42 -12 12 -6
43 9 43 12 0 14 7 9 28 -10 40 -16 46 -26 28 -10 -18 -38 -22 -38 -6 0 6 7 13
15 16 20 8 19 34 0 34 -9 0 -19 -10 -24 -23z"/>
<path d="M9412 1015 c-10 -12 -18 -13 -32 -5 -11 6 -20 7 -20 2 0 -5 -15 -13
-32 -19 -24 -6 -32 -14 -31 -28 2 -15 -9 -26 -45 -42 -26 -13 -60 -23 -74 -23
-15 0 -30 -5 -33 -10 -3 -6 -20 -17 -36 -26 -23 -11 -34 -12 -44 -4 -11 9 -14
4 -17 -26 -3 -33 -7 -39 -33 -46 -25 -6 -30 -13 -31 -38 -1 -36 0 -36 54 -10
22 11 45 20 50 20 16 0 30 -23 37 -62 6 -29 4 -38 -6 -38 -8 0 -20 -13 -27
-29 -8 -17 -25 -34 -42 -40 -25 -8 -30 -15 -30 -43 0 -19 -6 -40 -12 -46 -10
-10 -10 -15 1 -21 17 -11 7 -44 -12 -39 -6 3 -13 14 -15 26 -2 14 -11 22 -22
22 -16 0 -19 6 -17 38 1 27 6 39 17 38 10 -1 14 6 12 21 -4 25 13 39 22 18 7
-20 36 -19 36 0 0 8 5 15 10 15 6 0 10 3 10 8 0 4 -25 8 -55 10 -50 3 -56 1
-66 -22 -6 -13 -20 -26 -30 -29 -12 -3 -16 -11 -12 -26 3 -12 1 -21 -3 -22
-43 -3 -80 -11 -87 -18 -5 -5 -4 -26 2 -47 14 -49 0 -61 -59 -56 -47 5 -62 26
-34 47 18 13 18 14 2 20 -10 4 -18 14 -18 22 0 10 -6 13 -17 8 -45 -17 -73
-18 -73 -1 0 9 5 16 11 16 6 0 24 11 41 25 38 32 49 32 46 -2 -2 -22 2 -29 18
-31 11 -2 26 3 32 11 14 17 4 57 -14 57 -8 0 -14 5 -14 11 0 20 35 4 38 -19 4
-30 30 -28 42 3 5 14 16 25 24 25 7 0 19 7 26 15 10 12 10 15 -4 15 -9 0 -16
8 -16 20 0 23 10 26 28 8 9 -9 15 -9 24 0 8 8 5 14 -15 23 -27 12 -35 33 -18
43 5 3 11 -1 15 -9 3 -8 11 -15 19 -15 16 0 67 51 67 68 0 15 -26 16 -35 2 -5
-8 -11 -8 -20 0 -8 7 -21 7 -39 0 -20 -7 -26 -6 -26 4 0 17 45 27 59 13 7 -7
16 -5 29 6 14 13 21 14 30 5 13 -13 17 -11 26 18 6 20 4 21 -34 14 -22 -4 -44
-10 -47 -14 -9 -9 -35 45 -29 61 8 21 -21 15 -37 -8 -10 -13 -17 -17 -22 -9
-4 6 5 23 19 37 29 29 26 37 -16 47 -25 6 -28 3 -28 -17 0 -13 -11 -34 -25
-47 -41 -38 -30 -64 17 -39 16 8 22 8 29 -2 11 -19 2 -29 -27 -29 -13 0 -24
-6 -24 -13 0 -19 21 -37 42 -37 23 0 24 -19 1 -19 -31 -2 -67 -7 -90 -15 -13
-4 -28 -4 -35 1 -23 14 -99 12 -105 -3 -3 -8 -16 -14 -29 -14 -15 0 -24 -6
-24 -15 0 -20 -36 -55 -56 -55 -8 0 -12 -5 -9 -10 4 -7 12 -7 25 0 36 19 57
12 64 -22 5 -24 2 -36 -9 -44 -8 -6 -15 -16 -15 -21 0 -21 -41 -62 -55 -56
-18 6 -20 34 -4 50 6 6 9 17 6 25 -2 7 -15 -9 -28 -37 -28 -58 -53 -63 -68
-12 -5 18 -10 25 -10 16 -1 -9 -7 -22 -15 -28 -16 -14 -14 -73 4 -79 8 -3 10
2 6 15 -9 30 14 45 44 30 18 -9 25 -21 25 -41 0 -31 3 -29 -92 -55 -24 -7 -43
-17 -43 -23 0 -7 5 -6 15 2 8 7 25 10 39 6 34 -8 81 11 94 39 13 27 42 34 42
10 0 -24 30 -17 40 9 5 13 6 34 3 46 -5 20 -4 21 17 10 14 -7 19 -15 13 -21
-10 -10 -6 -59 4 -59 3 0 13 10 22 22 10 12 23 18 29 14 19 -11 14 -37 -8 -43
-11 -3 -20 -11 -20 -18 0 -7 -15 -20 -34 -29 -32 -15 -38 -15 -77 0 -39 16
-42 16 -51 1 -7 -13 -23 -17 -65 -17 -44 0 -61 -5 -85 -25 -34 -29 -68 -32
-103 -9 -23 15 -26 15 -51 -5 -15 -12 -35 -21 -45 -21 -10 0 -22 -7 -27 -16
-5 -9 -13 -17 -18 -17 -5 -1 -9 -7 -9 -14 0 -7 -6 -18 -12 -24 -10 -10 -13 -9
-17 2 -14 45 -14 65 0 80 14 15 13 18 -4 30 -10 8 -21 22 -25 32 -5 13 -11 16
-23 9 -24 -13 -31 -107 -9 -115 22 -9 19 -21 -14 -56 -15 -16 -31 -44 -34 -61
-6 -26 -11 -30 -37 -30 -17 0 -48 9 -70 20 -22 11 -48 20 -59 20 -12 0 -29 16
-46 46 -23 39 -25 50 -16 70 9 20 7 30 -12 59 -26 40 -66 63 -78 44 -9 -16 0
-110 13 -126 5 -7 5 -14 -2 -18 -18 -11 -11 -71 10 -90 11 -10 20 -30 20 -44
0 -14 3 -36 6 -48 6 -23 7 -23 209 -23 195 0 204 1 210 20 3 11 4 24 0 30 -8
13 33 52 47 44 7 -5 6 -11 -5 -19 -24 -17 -23 -75 1 -75 23 0 67 45 67 68 0
12 9 17 30 17 28 0 30 -3 33 -42 3 -43 4 -43 42 -43 33 0 37 3 33 20 -3 12 0
20 7 20 6 0 14 -9 17 -20 3 -11 13 -20 23 -20 16 0 17 3 7 25 -7 14 -17 25
-24 25 -6 0 -14 6 -16 13 -4 9 -8 8 -16 -3 -10 -13 -12 -13 -20 0 -6 9 -6 19
0 27 6 7 8 17 4 24 -5 8 -9 8 -14 0 -4 -7 -17 -7 -36 -2 -32 9 -35 23 -15 75
9 25 14 28 40 23 22 -5 32 -2 39 11 9 15 11 15 30 -2 24 -22 27 -36 9 -36 -33
-1 -40 -16 -27 -59 12 -40 24 -47 67 -42 20 3 37 -45 22 -64 -11 -13 -7 -15
28 -15 33 0 40 3 36 15 -4 10 0 15 15 15 12 0 21 -6 21 -16 0 -8 5 -12 10 -9
6 3 7 17 4 29 -5 23 -3 24 46 23 42 -1 50 -4 45 -16 -12 -31 -10 -36 20 -39
35 -4 57 20 49 53 -3 14 0 24 9 28 16 6 77 -30 77 -46 0 -6 11 0 25 13 20 19
25 20 30 8 5 -13 11 -14 36 -5 18 7 27 17 24 25 -3 7 0 23 6 34 9 17 8 23 -4
30 -9 4 -21 24 -27 43 -12 37 -17 40 -39 26 -9 -6 -22 -6 -34 1 -20 10 -20 33
1 124 12 56 17 61 61 69 29 5 38 10 35 23 -2 9 7 30 21 47 22 27 25 28 31 10
11 -30 26 -36 41 -17 11 15 12 15 13 -4 0 -16 11 -26 40 -38 46 -18 58 -53 14
-42 -20 5 -30 1 -46 -19 -11 -15 -26 -24 -34 -21 -22 9 -25 -10 -7 -43 21 -36
39 -40 48 -11 8 26 35 26 35 1 0 -11 5 -23 11 -27 8 -5 10 1 6 18 -5 20 -2 29
18 42 23 15 26 15 31 1 3 -8 3 -22 0 -31 -4 -9 -1 -23 5 -31 7 -7 10 -14 8
-16 -2 -1 -13 -7 -23 -13 -31 -17 -29 -31 4 -31 19 0 30 5 30 14 0 7 11 18 24
23 26 9 42 42 30 61 -5 8 -13 4 -24 -11 -10 -13 -22 -20 -29 -16 -13 8 -4 56
14 71 7 6 15 20 18 32 4 17 1 20 -12 16 -9 -3 -23 -12 -32 -20 -14 -12 -17
-12 -22 2 -9 22 10 65 28 65 9 0 36 17 61 37 36 31 44 43 39 61 -3 13 -3 38 0
55 6 30 9 32 55 34 43 2 48 0 43 -15 -4 -9 -13 -22 -20 -27 -17 -12 -35 -85
-22 -85 20 0 7 -31 -16 -40 -25 -9 -25 -11 -9 -35 9 -14 20 -25 25 -25 17 0 9
-29 -9 -34 -25 -8 -42 -42 -47 -95 -2 -25 -10 -48 -18 -52 -8 -5 -14 -22 -15
-39 0 -17 -6 -38 -12 -45 -7 -8 -10 -20 -7 -27 7 -20 -12 -48 -28 -42 -8 4
-15 12 -15 19 0 23 -20 28 -39 11 -10 -9 -25 -16 -34 -16 -17 0 -22 -17 -11
-44 5 -13 10 -12 41 5 19 11 38 17 41 14 4 -3 2 -9 -4 -13 -6 -4 -13 -15 -17
-24 -6 -16 2 -18 74 -18 l80 0 -34 30 c-26 23 -33 35 -30 55 l5 25 27 -19 c23
-17 28 -18 37 -5 7 12 15 13 39 5 18 -7 42 -8 60 -3 29 9 30 10 27 68 -4 81
15 114 87 152 19 10 31 10 60 0 20 -7 39 -17 43 -23 4 -5 15 -2 27 9 20 18 41
15 41 -7 0 -7 -10 -17 -22 -22 -14 -6 -24 -21 -26 -38 -2 -18 -13 -32 -33 -42
-16 -9 -29 -20 -29 -25 0 -6 -7 -10 -15 -10 -25 0 -57 -40 -51 -63 3 -11 0
-27 -6 -35 -7 -7 -12 -22 -13 -33 -2 -17 5 -19 74 -18 42 1 68 3 59 6 -26 6
-22 26 10 56 15 15 36 36 46 47 24 25 41 26 31 3 -7 -17 -12 -43 -14 -70 -1
-7 -10 -13 -21 -13 -11 0 -20 -7 -20 -15 0 -11 12 -15 45 -15 l45 0 0 54 c0
30 5 58 11 62 6 3 19 25 29 48 l18 42 66 2 c61 0 66 -1 72 -23 3 -13 3 -33 -1
-45 -4 -14 -1 -28 11 -41 17 -19 17 -20 -4 -26 -15 -3 -22 -13 -22 -28 0 -23
-32 -45 -38 -26 -2 6 -12 11 -22 11 -10 0 -22 5 -25 11 -7 10 -45 -21 -45 -36
0 -3 92 -5 205 -5 183 0 244 7 185 23 -11 3 -20 10 -20 16 0 10 7 12 50 15 19
1 26 36 8 36 -8 0 -22 6 -31 13 -28 19 -6 69 40 89 31 15 38 15 50 2 15 -14 9
-39 -8 -29 -7 5 -29 -33 -29 -51 0 -2 17 -4 38 -4 37 0 70 29 57 50 -7 11 39
25 53 16 15 -9 7 -41 -16 -66 -12 -13 -22 -30 -22 -38 0 -9 -7 -11 -19 -7 -21
6 -34 -15 -25 -40 7 -17 -11 -21 -21 -5 -4 6 -11 8 -16 5 -29 -19 7 -24 153
-24 145 0 164 2 190 20 15 11 33 17 39 13 9 -5 6 -11 -6 -21 -16 -11 -9 -13
58 -13 l77 0 -7 33 c-3 17 -12 39 -20 48 -10 12 -11 23 -4 43 6 14 9 26 8 27
-15 7 -86 3 -99 -5 -25 -15 -24 -56 2 -56 11 0 20 -6 20 -14 0 -20 -19 -31
-33 -17 -7 7 -20 5 -43 -10 -21 -12 -35 -16 -39 -9 -12 19 -62 11 -77 -12 -10
-15 -20 -19 -32 -15 -15 6 -17 14 -12 42 6 33 5 35 -19 35 -14 0 -25 4 -25 8
0 14 23 32 42 32 24 0 23 16 -2 23 -21 5 -27 31 -10 42 6 3 10 15 10 26 0 16
-4 19 -21 14 -16 -6 -20 -3 -17 11 4 24 58 39 58 16 0 -10 7 -26 15 -36 8 -11
15 -26 15 -33 0 -7 7 -21 16 -32 14 -16 20 -17 35 -8 23 14 25 27 4 27 -17 0
-20 21 -4 37 8 8 8 13 0 17 -6 4 -11 16 -11 27 0 10 -4 19 -9 19 -5 0 -8 -7
-7 -16 0 -9 -5 -19 -11 -21 -16 -6 -17 39 -2 54 7 7 7 13 1 17 -17 10 -2 54
17 49 10 -2 25 7 38 25 17 22 33 31 68 36 45 7 67 22 92 62 12 18 13 18 23 2
6 -10 17 -18 24 -18 7 0 21 -9 30 -19 10 -11 24 -17 32 -14 8 3 21 0 29 -7 12
-10 20 -8 41 13 24 25 25 27 10 49 -19 27 -20 38 -3 38 8 0 24 11 36 24 l23
25 -32 40 c-31 38 -32 42 -20 73 8 18 22 41 33 52 14 14 17 27 13 49 -6 29 -5
29 12 14 10 -10 24 -17 30 -17 7 0 18 -16 26 -35 17 -40 32 -45 41 -12 3 12
11 32 17 45 9 17 8 28 -2 47 -7 14 -10 28 -7 32 4 3 0 17 -9 31 -15 23 -15 26
6 46 16 15 24 17 27 9 7 -18 33 -16 33 2 0 8 -8 15 -17 15 -9 0 -26 9 -38 20
l-22 21 -43 -23 c-38 -21 -44 -21 -53 -7 -8 13 -15 14 -33 5 -13 -6 -24 -19
-24 -28 0 -9 -4 -20 -10 -23 -16 -10 -11 -25 8 -25 24 0 42 19 35 36 -3 8 0
14 6 14 6 0 11 -6 11 -14 0 -25 -12 -46 -26 -46 -7 0 -18 -19 -25 -42 -9 -37
-9 -44 7 -55 19 -14 17 -20 -29 -99 -24 -41 -69 -74 -102 -74 -18 0 -38 -7
-45 -15 -9 -10 -9 -15 -1 -15 14 0 14 -27 0 -35 -6 -4 -13 2 -16 14 -4 17 -9
19 -25 10 -32 -17 -51 -3 -44 31 4 24 2 30 -12 30 -22 0 -42 -19 -42 -40 0
-20 31 -50 51 -50 9 0 24 -6 35 -14 15 -12 16 -17 7 -27 -10 -10 -15 -9 -28 1
-13 11 -20 9 -44 -14 -18 -18 -31 -24 -35 -17 -13 20 -23 12 -36 -30 -15 -45
-27 -56 -42 -41 -8 8 -6 16 6 27 20 20 20 32 2 42 -8 4 -15 17 -17 28 -3 13
-16 22 -41 28 -20 5 -44 18 -54 28 -18 20 -17 22 5 65 l24 45 -21 28 c-14 19
-17 32 -10 39 6 6 6 12 -2 17 -6 4 -12 5 -13 4 -24 -47 -39 -65 -56 -67 -22
-4 -26 5 -40 93 -7 40 -9 43 -10 18 -1 -27 -5 -33 -24 -33 -13 0 -29 6 -36 13
-10 10 -18 6 -41 -20 -15 -17 -31 -29 -34 -26 -3 4 -17 0 -31 -7 -14 -7 -28
-11 -31 -8 -9 10 15 48 30 48 19 0 28 27 11 34 -7 2 -19 -2 -25 -10 -7 -8 -24
-14 -39 -14 -46 0 -68 -43 -36 -70 8 -7 20 -30 25 -51 9 -32 8 -43 -6 -64 -9
-14 -25 -25 -35 -25 -16 0 -18 -5 -13 -27 4 -16 11 -34 17 -41 5 -7 7 -15 4
-19 -4 -3 -9 2 -13 11 -3 9 -12 16 -18 16 -15 0 -19 -87 -5 -96 5 -3 9 -12 9
-20 0 -17 -47 -19 -53 -1 -3 9 -7 9 -19 -1 -16 -13 -15 -79 2 -112 11 -19 -16
-38 -46 -32 -27 5 -43 55 -24 77 15 18 6 45 -16 45 -10 0 -14 -5 -11 -14 9
-23 -50 -32 -73 -11 -14 12 -33 16 -77 14 -52 -3 -58 -1 -58 17 0 15 -6 19
-32 17 -24 -2 -33 2 -38 17 -9 28 -53 27 -64 -2 l-8 -22 -5 22 c-4 13 1 31 13
46 14 18 16 30 10 54 -7 23 -6 34 6 43 8 7 13 23 10 36 -3 17 0 23 12 23 10 0
23 6 29 12 7 7 36 14 65 15 36 1 56 7 67 20 21 25 80 46 80 28 0 -7 7 -16 16
-19 29 -11 37 -6 21 12 -10 10 -17 26 -17 34 0 11 -15 18 -55 23 -47 5 -59 3
-81 -14 -15 -12 -41 -21 -60 -21 -23 0 -37 -6 -44 -21 -12 -22 -47 -59 -55
-59 -3 0 -17 11 -32 24 -17 16 -32 22 -47 18 -19 -5 -20 -4 -7 12 13 15 12 19
-5 36 -34 34 -120 25 -126 -13 -4 -26 -26 -34 -34 -13 -7 19 31 62 61 67 11 2
22 15 25 29 4 16 14 26 29 28 22 4 22 4 4 24 -18 21 -18 21 9 14 32 -7 68 11
68 35 0 10 11 20 25 23 14 4 33 19 42 34 10 15 26 35 36 44 19 17 16 38 -6 38
-7 -1 -18 -7 -25 -15z m964 -563 c-2 -26 -13 -49 -34 -71 -26 -29 -29 -37 -19
-58 9 -19 8 -26 -4 -34 -36 -23 -66 4 -48 44 16 36 5 57 -30 57 -16 0 -33 5
-36 10 -4 6 -15 8 -26 5 -10 -4 -19 -3 -19 2 0 12 120 66 165 74 22 4 43 7 47
8 3 0 5 -16 4 -37z m-1689 -124 c15 -19 3 -84 -18 -104 -18 -16 -19 -16 -13
-1 9 24 -23 22 -36 -2 -14 -27 -13 -31 10 -31 16 0 20 -7 20 -30 0 -17 -5 -30
-13 -30 -7 0 -24 -11 -39 -25 -15 -14 -37 -25 -49 -25 -18 0 -20 4 -15 28 4
15 20 54 37 86 16 32 27 61 25 64 -8 8 54 82 69 82 7 0 17 -6 22 -12z"/>
<path d="M4903 953 c-9 -24 34 -58 54 -42 11 10 17 8 27 -7 8 -10 37 -30 65
-44 28 -14 54 -34 57 -45 10 -30 31 -47 72 -56 76 -18 198 -6 163 15 -6 4 -11
16 -11 26 0 10 -8 24 -17 30 -14 8 -9 9 22 4 22 -3 50 -12 62 -20 12 -8 29
-14 38 -14 8 0 20 -11 26 -24 11 -23 117 -80 129 -69 8 7 -67 69 -104 87 -18
9 -39 23 -47 32 -7 8 -40 29 -73 46 -34 17 -74 41 -90 55 -21 18 -36 22 -60
18 -89 -15 -182 -13 -240 6 -71 23 -65 23 -73 2z"/>
<path d="M18224 908 c-8 -12 -24 -86 -27 -123 0 -11 -10 -28 -22 -37 -20 -18
-20 -18 -1 -33 11 -8 32 -15 46 -15 15 0 36 -11 50 -25 13 -14 30 -25 37 -25
8 0 20 -15 28 -34 10 -23 23 -36 37 -38 18 -2 23 -9 23 -33 0 -24 -5 -31 -25
-33 -14 -2 -33 -12 -43 -23 -10 -10 -29 -19 -43 -19 -31 0 -50 -39 -28 -56 25
-20 16 -41 -21 -48 -35 -7 -35 -7 -35 -59 0 -43 -6 -61 -31 -95 -24 -33 -35
-41 -52 -37 -17 5 -25 -1 -35 -23 -17 -39 -10 -51 48 -91 28 -18 50 -40 50
-48 0 -11 29 -13 165 -11 91 1 165 5 165 10 0 4 -6 8 -12 8 -17 1 -58 35 -58
49 0 6 7 11 15 11 8 0 15 4 15 9 0 15 -96 24 -120 11 -15 -8 -25 -9 -32 -2
-17 17 -1 42 27 42 30 0 35 32 9 58 -15 14 -15 16 6 24 16 6 20 13 15 26 -4 9
-10 27 -12 39 -3 13 -10 23 -15 23 -14 0 -58 -43 -58 -57 0 -15 -17 -26 -30
-18 -10 6 5 49 27 75 7 9 35 24 62 34 50 18 51 18 78 -4 16 -13 29 -33 30 -48
6 -71 20 -101 41 -88 12 7 6 86 -7 99 -6 6 -11 24 -11 39 0 20 -12 40 -40 68
-22 22 -40 41 -40 43 0 25 27 70 47 78 17 6 23 14 19 25 -3 9 -6 22 -6 30 0
10 -8 12 -30 8 -30 -7 -39 3 -20 22 7 7 -1 22 -23 46 -40 44 -63 109 -47 137
14 27 13 29 -12 33 -16 2 -29 17 -43 46 -19 42 -46 55 -61 30z"/>
<path d="M11345 850 c-16 -18 -20 -19 -35 -5 -22 20 -33 19 -72 -5 -36 -22
-73 -26 -83 -9 -5 7 -12 6 -23 -4 -10 -8 -32 -22 -49 -31 -19 -9 -33 -24 -33
-34 0 -10 -16 -37 -36 -61 -42 -48 -74 -52 -84 -11 -6 24 -7 23 -13 -8 -7 -33
5 -72 22 -72 5 0 14 7 22 16 12 14 14 14 26 -2 18 -24 17 -30 -8 -55 l-21 -21
21 -38 c21 -37 19 -59 -4 -40 -14 11 -40 -20 -47 -55 -2 -14 -11 -20 -28 -20
-42 0 -35 -19 14 -37 25 -9 44 -12 41 -7 -11 16 15 49 39 49 13 0 39 -13 57
-30 19 -16 40 -30 47 -30 6 0 12 -7 12 -15 0 -9 -18 -20 -46 -28 -40 -11 -44
-15 -30 -26 14 -12 19 -11 36 4 14 13 28 16 52 11 26 -5 37 -1 61 21 15 16 36
28 45 29 9 1 25 2 34 3 9 0 18 11 20 24 2 12 13 26 26 32 12 6 22 19 22 30 0
12 5 26 10 31 8 8 6 15 -5 24 -13 11 -18 10 -30 -6 -8 -10 -15 -27 -15 -36 0
-15 -45 -48 -65 -48 -11 0 -4 28 10 40 8 7 15 21 15 31 0 10 9 23 21 29 11 7
18 14 14 18 -10 11 -79 10 -92 0 -18 -15 -16 -26 5 -24 12 1 18 -8 20 -32 3
-27 -1 -35 -18 -39 -12 -3 -26 -16 -31 -29 -8 -24 -42 -33 -53 -15 -9 15 18
61 37 61 9 0 17 5 17 10 0 6 0 13 0 18 1 4 -16 9 -37 12 -33 4 -38 8 -36 28 2
13 -1 21 -6 18 -5 -3 -14 1 -21 9 -9 11 -6 19 15 41 25 25 29 26 40 11 15 -21
34 -22 41 -2 4 8 13 15 20 15 17 0 34 40 34 77 0 31 68 96 121 115 9 4 19 23
22 44 8 46 5 50 -18 24z m-56 -49 c16 -10 6 -31 -14 -31 -8 0 -26 -16 -41 -36
-15 -19 -41 -42 -58 -51 -17 -8 -43 -26 -58 -40 l-26 -25 -13 23 c-19 36 -21
109 -3 116 8 3 21 0 29 -7 8 -6 20 -8 27 -4 7 4 22 9 35 10 12 1 35 14 50 28
29 27 49 32 72 17z"/>
<path d="M18890 834 c-9 -22 -15 -25 -48 -22 -37 3 -37 3 -34 -32 1 -19 4 -41
7 -47 6 -16 62 -17 67 -1 3 9 12 9 37 -1 29 -12 33 -12 46 5 20 27 18 39 -10
58 -14 9 -27 27 -31 41 -8 32 -22 32 -34 -1z"/>
<path d="M14553 819 c-7 -7 -40 -12 -75 -13 -49 -1 -63 -4 -63 -16 0 -17 65
-21 103 -6 15 6 26 6 34 -2 7 -7 20 -12 30 -12 10 0 18 -7 18 -16 0 -11 6 -14
20 -9 15 5 20 2 20 -11 0 -10 8 -26 17 -36 16 -18 17 -18 39 3 18 17 25 18 41
9 11 -7 25 -25 32 -41 7 -16 19 -29 26 -29 7 0 27 -12 44 -26 27 -22 32 -24
37 -9 4 9 1 27 -6 40 -11 20 -11 27 0 40 20 24 1 36 -70 44 -47 6 -66 13 -79
30 -17 22 -64 51 -84 51 -5 0 -16 -8 -24 -17 -8 -10 -12 -12 -8 -5 8 15 -11
42 -29 42 -7 0 -17 -5 -23 -11z"/>
<path d="M19500 735 c-8 -10 -3 -18 20 -35 24 -17 30 -28 26 -45 -5 -20 -1
-24 29 -29 30 -6 35 -11 35 -35 0 -15 7 -36 15 -47 8 -10 15 -27 15 -36 0 -26
20 -32 34 -12 12 16 17 17 57 4 24 -7 53 -22 65 -32 12 -11 28 -16 38 -12 9 3
23 1 31 -6 13 -11 15 -8 15 16 0 20 12 38 42 66 55 49 51 52 -65 58 -10 1 -21
8 -24 16 -3 8 -14 14 -26 14 -11 0 -29 7 -39 17 -17 15 -19 14 -28 -13 -6 -17
-23 -35 -41 -43 -35 -15 -34 -16 -43 28 -5 29 -4 32 9 21 28 -24 35 3 9 34
-14 15 -26 27 -27 25 -2 -2 -8 -17 -15 -33 -10 -23 -15 -26 -27 -16 -20 16
-19 30 3 46 13 9 14 16 6 24 -8 8 -14 9 -18 1 -10 -15 -26 -14 -26 2 0 20 -57
38 -70 22z"/>
<path d="M11299 714 c-9 -12 -9 -20 1 -39 11 -20 11 -27 -1 -41 -11 -14 -11
-18 6 -30 10 -8 25 -14 32 -14 21 0 15 -28 -8 -35 -11 -4 -19 -11 -17 -17 7
-19 23 -11 43 20 11 18 30 35 42 38 30 8 59 94 32 94 -6 0 -19 -10 -29 -22
-17 -21 -19 -21 -25 -5 -4 9 -1 24 6 33 11 13 9 14 -14 9 -16 -4 -27 -3 -27 3
0 17 -28 21 -41 6z"/>
<path d="M18960 705 c0 -12 -10 -15 -45 -13 -25 2 -45 5 -45 8 0 8 -47 7 -55
-1 -11 -12 28 -103 59 -136 19 -21 30 -42 28 -54 -3 -20 -3 -20 27 2 17 13 31
25 31 27 0 3 -14 18 -31 33 -35 31 -34 49 5 74 35 23 47 12 40 -39 -6 -38 -3
-45 17 -60 30 -20 69 -21 69 -1 0 9 11 20 25 25 25 10 33 34 15 45 -24 15 3
22 31 8 16 -8 48 -17 69 -20 36 -5 40 -3 50 21 5 15 10 39 10 53 0 22 -3 24
-22 19 -13 -4 -48 -10 -80 -13 -45 -4 -65 -1 -100 16 -52 25 -98 28 -98 6z"/>
<path d="M18623 516 c26 -24 47 -49 47 -55 0 -6 11 -16 25 -23 24 -11 62 -74
51 -86 -9 -8 63 -42 88 -42 39 0 50 16 53 75 3 55 3 57 -19 51 -13 -3 -28 -6
-34 -6 -7 0 -14 -9 -17 -20 -11 -43 -67 -32 -67 14 0 12 -19 37 -45 60 -25 22
-45 45 -45 52 0 15 -23 24 -58 24 -26 0 -25 -2 21 -44z"/>
<path d="M20069 472 c27 -22 22 -37 -14 -44 -17 -4 -29 0 -35 11 -14 25 -22 7
-10 -24 21 -56 -18 -78 -45 -25 -21 40 -35 38 -35 -5 0 -43 24 -58 80 -49 33
5 43 3 55 -12 13 -18 14 -18 24 8 7 19 15 26 26 22 9 -4 14 -13 11 -20 -3 -8
-2 -14 2 -15 30 -3 61 -9 85 -14 23 -6 27 -4 27 13 0 11 -7 25 -15 32 -8 7
-15 19 -15 27 0 20 -28 28 -46 13 -11 -10 -18 -10 -26 -2 -9 9 -9 12 0 12 7 0
12 7 12 15 0 8 -4 15 -10 15 -5 0 -10 6 -10 13 0 22 -15 34 -50 41 l-35 7 24
-19z"/>
<path d="M7072 444 c-32 -22 -61 -90 -65 -151 -4 -48 -2 -55 27 -81 39 -36
117 -63 157 -55 18 3 38 0 53 -10 36 -24 85 -6 86 31 0 6 -22 24 -49 39 -55
31 -86 71 -95 124 -6 32 -67 119 -85 119 -3 0 -17 -7 -29 -16z"/>
<path d="M19548 264 c-4 -23 -81 -30 -98 -9 -7 8 -16 12 -21 9 -13 -8 19 -51
41 -57 27 -7 27 -66 0 -100 -24 -30 -96 -67 -131 -67 -14 0 -30 -5 -37 -12 -8
-8 -15 -8 -26 1 -20 17 -109 25 -132 13 -13 -7 -36 -7 -69 -1 -32 6 -52 6 -59
-1 -5 -5 -22 -10 -37 -10 -15 0 -32 -7 -39 -15 -11 -13 30 -15 356 -15 l369 0
-37 22 c-20 12 -40 28 -43 37 -7 19 44 120 68 132 19 11 24 39 6 39 -6 0 -13
-9 -16 -20 -6 -24 -20 -25 -44 -4 -14 13 -16 21 -8 36 12 22 12 23 -18 32 -15
5 -22 2 -25 -10z"/>
<path d="M3335 240 c-3 -5 -1 -18 5 -29 13 -26 13 -31 -4 -25 -7 3 -16 -2 -20
-11 -6 -18 -44 -12 -58 9 -11 16 -28 -12 -28 -46 0 -26 -30 -55 -44 -41 -3 3
-6 2 -6 -4 0 -6 18 -13 40 -17 47 -7 60 -28 35 -56 -18 -20 -17 -20 86 -19 57
1 97 3 89 5 -22 6 -45 61 -32 77 13 15 4 63 -13 77 -10 8 -10 17 -2 41 10 24
9 32 -3 39 -19 13 -37 12 -45 0z"/>
<path d="M13320 196 c-6 -8 -26 -16 -43 -18 -31 -3 -32 -5 -38 -59 -7 -65 -14
-79 -38 -79 -18 0 -41 -18 -41 -32 0 -4 89 -8 197 -8 168 0 194 2 178 13 -10
8 -15 19 -11 26 4 6 0 14 -11 18 -10 3 -26 15 -35 27 -15 19 -18 19 -35 4 -13
-11 -24 -13 -40 -7 -18 7 -23 16 -23 47 0 25 -7 46 -20 60 -25 26 -24 26 -40
8z"/>
</g>
</svg>
