<?xml version="1.0" standalone="no"?>
<!DOCTYPE svg PUBLIC "-//W3C//DTD SVG 20010904//EN"
 "http://www.w3.org/TR/2001/REC-SVG-20010904/DTD/svg10.dtd">
<svg version="1.0" xmlns="http://www.w3.org/2000/svg"
 width="1920.000000pt" height="1200.000000pt" viewBox="0 0 1920.000000 1200.000000"
 preserveAspectRatio="xMidYMid meet">
<metadata>
Created by potrace 1.15, written by Peter Selinger 2001-2017
</metadata>
<g transform="translate(0.000000,1200.000000) scale(0.100000,-0.100000)"
fill="#000000" stroke="none">
<path d="M0 6000 l0 -6000 385 0 c336 0 385 2 385 15 0 20 59 20 66 0 4 -10
20 -15 51 -15 42 0 45 1 39 24 -3 13 2 39 13 62 11 23 19 59 19 90 -1 28 2 56
6 63 4 6 2 9 -6 6 -27 -11 -15 68 15 100 15 17 28 33 28 37 1 5 2 14 3 21 0 6
8 12 17 12 23 0 71 34 64 45 -8 13 52 70 73 70 10 0 24 -6 31 -12 11 -11 12
-8 6 12 -3 14 -3 20 2 14 4 -5 43 -10 86 -11 72 0 82 4 78 30 0 4 3 7 8 7 8 0
20 31 20 55 1 6 -7 10 -17 10 -9 0 -17 6 -16 13 4 45 1 44 73 41 75 -4 95 3
62 21 -12 6 -21 17 -21 25 0 7 -8 16 -17 18 -17 4 -17 5 0 6 9 0 17 5 17 10 0
11 -29 23 -40 16 -5 -3 -11 -1 -15 5 -9 15 -40 -4 -66 -42 -12 -18 -16 -27 -9
-20 8 6 18 12 22 12 4 0 8 -6 8 -12 0 -7 -14 -14 -30 -15 -21 -2 -30 2 -30 12
0 18 -36 20 -43 3 -4 -9 -8 -10 -14 -2 -10 13 -53 13 -53 -1 0 -5 -5 -3 -10 5
-8 13 -10 13 -10 -2 0 -10 -7 -15 -17 -13 -10 1 -12 0 -5 -2 19 -7 14 -37 -8
-51 -15 -9 -26 -10 -41 -1 -15 8 -24 8 -32 0 -15 -15 -27 -14 -27 4 0 8 5 15
10 15 6 0 10 7 10 15 0 8 -4 15 -10 15 -5 0 -10 -7 -10 -15 0 -9 -6 -12 -15
-9 -8 4 -12 10 -9 16 4 5 -6 8 -22 6 -16 -2 -28 -8 -27 -14 1 -6 -9 -11 -22
-11 -27 -1 -31 7 -14 24 9 9 5 14 -15 19 -31 7 -32 12 -9 31 13 10 15 16 6 19
-7 3 -13 12 -13 20 0 8 -7 14 -16 14 -11 0 -14 5 -9 17 4 10 12 51 18 90 8 56
15 73 27 73 20 0 55 24 56 39 1 6 2 16 3 21 0 6 7 10 15 10 8 0 16 5 18 10 2
6 20 12 40 14 21 2 45 9 53 16 17 14 57 16 113 6 41 -7 67 12 45 33 -8 7 -13
22 -10 32 3 10 1 19 -4 21 -4 2 -5 22 -2 45 3 24 9 40 14 37 5 -3 6 1 3 9 -3
8 0 18 5 22 6 3 9 10 6 15 -3 5 4 11 14 15 12 4 18 12 14 21 -3 7 -1 14 5 14
5 0 20 11 33 25 13 13 29 25 35 25 7 0 26 13 42 29 36 33 110 56 143 45 62
-20 92 4 87 70 -3 45 -1 51 16 48 11 -2 15 1 11 8 -4 6 -1 17 5 25 18 22 6 42
-27 43 -55 3 -103 19 -104 35 -4 53 -4 99 0 102 3 2 5 34 4 72 -2 37 -3 76 -3
87 -1 10 6 34 15 52 9 19 13 40 9 46 -15 23 -7 65 16 99 14 18 23 43 22 54 -3
21 30 72 55 88 7 4 13 14 13 20 0 7 17 18 38 24 20 6 63 20 95 32 l57 21 39
-22 c35 -20 42 -21 82 -9 46 14 83 28 110 42 10 4 33 3 54 -4 35 -10 38 -9 57
16 11 15 26 27 34 27 19 0 44 52 41 86 -2 26 -5 29 -39 29 -20 0 -40 -3 -44
-8 -12 -12 -81 -8 -91 5 -6 7 -13 26 -15 41 -5 23 -1 31 18 39 25 12 30 23 15
33 -5 3 -7 31 -5 62 4 43 12 66 32 91 15 19 31 42 37 53 5 10 15 19 22 19 7 0
21 8 31 18 31 31 80 62 97 62 9 0 19 9 22 20 6 24 7 24 36 8 56 -31 96 -61 91
-69 -6 -10 -9 -10 79 -14 42 -2 75 -9 85 -18 9 -8 23 -12 31 -9 7 2 16 -1 20
-7 27 -43 148 -172 159 -169 4 1 22 -1 40 -5 23 -5 31 -11 26 -19 -6 -9 -3 -9
9 1 14 11 20 9 47 -17 16 -17 30 -38 30 -46 0 -9 6 -16 13 -16 7 0 18 -9 25
-20 9 -15 19 -18 41 -14 25 5 31 2 43 -22 10 -22 21 -30 46 -32 17 -2 32 -7
32 -13 0 -5 5 -9 10 -9 6 0 10 7 10 15 0 9 9 15 21 15 19 0 20 -2 8 -17 -13
-15 -12 -15 8 -3 20 13 24 12 43 -13 12 -15 25 -25 30 -22 5 3 11 1 14 -4 4
-5 2 -12 -4 -16 -6 -4 -8 -11 -5 -16 4 -5 -12 -9 -36 -9 -43 0 -82 -19 -150
-72 -32 -24 -38 -36 -45 -85 -18 -119 2 -187 76 -261 l43 -43 -32 -33 c-37
-38 -60 -106 -54 -156 5 -42 38 -107 70 -136 13 -12 23 -25 23 -29 0 -4 8 -14
18 -21 16 -13 16 -15 -2 -29 -17 -13 -18 -15 -3 -15 9 0 17 -4 17 -10 0 -5
-13 -10 -30 -10 -16 0 -30 -5 -30 -11 0 -6 6 -9 14 -6 8 3 22 -1 33 -9 17 -14
17 -14 -1 -7 -16 5 -18 2 -14 -25 2 -18 1 -32 -4 -32 -4 0 -8 11 -8 25 0 14
-4 25 -10 25 -5 0 -10 -7 -10 -15 0 -30 -40 -95 -58 -95 -10 0 -28 -9 -40 -20
-12 -11 -39 -22 -64 -24 -34 -3 -44 -8 -46 -24 -2 -11 -12 -22 -23 -25 -19 -5
-27 -27 -9 -27 6 0 10 -11 10 -25 0 -28 -8 -32 -24 -11 -9 12 -18 12 -61 0
-27 -8 -57 -15 -65 -15 -34 -1 -42 -8 -28 -22 7 -8 20 -17 28 -20 13 -6 -17
-2 -52 6 -7 2 -10 2 -5 0 4 -3 7 -11 7 -19 0 -9 -4 -13 -9 -9 -6 3 -14 -2 -19
-11 -8 -14 -10 -14 -26 1 -21 21 -27 17 -19 -13 3 -12 13 -22 22 -23 14 0 14
-1 1 -7 -8 -4 -15 -14 -15 -22 0 -8 -6 -14 -12 -12 -7 1 -13 -2 -13 -8 0 -5 5
-10 10 -10 18 0 10 -19 -11 -25 -12 -4 -18 -13 -15 -20 11 -29 -58 -131 -73
-108 -3 6 -15 12 -26 14 -10 2 -28 21 -39 42 l-20 38 -30 -34 c-45 -48 -94
-74 -138 -71 -25 2 -38 -1 -38 -9 0 -7 -6 -19 -12 -25 -7 -7 -13 -18 -14 -25
0 -7 -2 -20 -2 -31 -2 -15 -5 -16 -16 -7 -10 8 -16 9 -21 1 -3 -5 -15 -10 -26
-10 -10 0 -19 -6 -20 -12 0 -7 -2 -34 -3 -60 -2 -59 -21 -82 -42 -54 -8 11
-14 28 -14 38 0 10 -4 18 -10 18 -5 0 -10 7 -10 15 0 8 -4 15 -10 15 -5 0 -10
-6 -10 -14 0 -8 -7 -16 -15 -20 -8 -3 -15 -12 -15 -19 0 -23 -37 -49 -58 -43
-11 4 -24 0 -32 -9 -7 -8 -16 -15 -21 -15 -14 0 -11 28 3 33 7 2 9 8 5 13 -4
5 -13 2 -18 -6 -8 -11 -12 -12 -16 -2 -6 16 -23 16 -23 0 -1 -22 -69 -59 -96
-52 -20 5 -22 9 -13 21 10 11 14 11 20 1 4 -7 11 -9 16 -5 11 12 -19 28 -47
25 -25 -3 -33 -23 -18 -45 13 -16 -10 -27 -27 -13 -8 7 -16 9 -16 4 -6 -31 -2
-51 11 -61 13 -11 13 -14 0 -22 -8 -6 -11 -13 -7 -17 3 -4 13 -1 22 6 9 7 15
8 15 2 0 -6 -6 -13 -12 -16 -10 -5 -10 -7 0 -12 16 -7 16 -22 0 -21 -31 1 -48
-4 -48 -13 0 -5 6 -10 13 -10 6 0 23 -9 36 -19 18 -14 21 -22 13 -37 -5 -10
-15 -30 -21 -44 -29 -67 -52 -94 -88 -107 -48 -16 -80 -17 -86 0 -4 9 -8 9
-15 -2 -6 -9 -29 -13 -65 -13 -43 0 -55 -3 -51 -13 3 -7 1 -23 -6 -34 -8 -16
-8 -21 2 -21 22 0 -9 -22 -35 -25 -18 -2 -27 3 -31 18 -4 17 -7 18 -20 8 -9
-7 -22 -11 -31 -8 -8 4 -17 2 -20 -3 -4 -6 -15 -10 -26 -10 -14 0 -19 -7 -19
-29 0 -16 6 -32 13 -34 9 -4 9 -6 0 -6 -7 -1 -13 -6 -13 -12 0 -6 9 -9 19 -6
16 4 21 -2 26 -24 l7 -29 79 0 c43 0 79 4 79 9 0 5 16 15 35 21 19 6 35 15 35
20 0 4 9 10 21 13 12 3 18 10 14 16 -3 6 -2 11 4 11 5 0 13 -4 16 -10 3 -5 1
-10 -4 -10 -6 0 -11 -5 -11 -11 0 -6 9 -8 22 -3 20 6 21 5 9 -10 -12 -14 -11
-16 3 -16 9 0 19 -7 22 -15 5 -13 909 -15 8046 -15 7407 0 8043 1 8074 16 32
15 36 15 52 1 15 -14 60 -16 334 -17 309 0 317 0 323 20 4 13 15 20 30 20 13
0 27 5 30 10 3 6 10 10 14 10 14 0 20 -37 8 -49 -8 -8 3 -11 39 -11 44 0 52 3
62 25 14 29 36 34 27 6 -4 -13 0 -21 12 -25 31 -9 153 -6 153 4 0 6 7 10 15
10 8 0 15 -4 15 -10 0 -15 253 -13 269 3 11 9 14 9 18 0 11 -32 23 -8 23 47 0
61 -11 75 -38 48 -9 -9 -12 -8 -12 7 0 10 3 15 7 12 12 -13 43 48 43 86 0 33
-3 37 -25 37 -26 0 -35 -23 -14 -36 8 -4 7 -9 -2 -15 -21 -13 -39 -11 -39 6 0
8 -7 15 -15 15 -24 0 -20 61 4 67 12 3 21 16 23 34 5 34 -6 46 -27 29 -8 -6
-19 -9 -25 -5 -6 4 -20 -1 -31 -11 -18 -16 -19 -16 -19 1 0 14 -6 16 -35 11
-19 -4 -35 -3 -35 2 0 14 -54 1 -63 -14 -11 -19 -37 -18 -37 1 0 8 -4 15 -10
15 -14 0 -13 33 2 48 17 17 28 15 28 -4 0 -11 8 -14 28 -12 31 3 38 33 7 33
-20 0 -55 34 -55 54 0 6 -11 16 -24 22 -14 7 -22 17 -20 23 3 8 -10 12 -39 12
-30 1 -53 8 -72 22 -30 24 -84 29 -103 10 -9 -9 -12 -3 -12 30 0 32 4 42 14
40 15 -3 16 -1 16 26 0 26 -39 30 -58 6 -16 -20 -19 -21 -31 -6 -11 13 -11 21
3 50 19 40 12 69 -15 61 -10 -3 -28 -1 -39 5 -18 10 -22 7 -31 -19 -6 -17 -19
-33 -30 -36 -10 -4 -19 -11 -19 -16 0 -5 -9 -9 -20 -9 -11 0 -20 4 -20 9 0 5
-5 22 -10 37 -10 26 -11 26 -25 8 -11 -13 -13 -14 -10 -3 5 12 0 15 -22 12
-24 -3 -31 2 -46 32 -9 20 -13 34 -7 30 5 -3 10 1 10 9 0 9 8 16 19 16 23 0
36 16 21 25 -20 13 -10 43 17 49 14 4 38 19 53 34 56 57 82 74 94 62 8 -8 6
-15 -6 -24 -25 -18 -22 -52 4 -70 28 -20 42 -20 34 -1 -4 11 1 15 19 15 31 0
40 -16 18 -29 -10 -6 -12 -11 -5 -11 6 0 12 -6 12 -14 0 -12 7 -12 36 -4 20 5
43 7 51 3 10 -3 22 3 30 15 16 23 63 27 63 6 0 -10 12 -13 52 -10 37 3 57 -1
69 -12 10 -9 35 -18 56 -21 47 -6 51 -10 28 -26 -16 -13 -16 -14 -1 -20 9 -4
16 -16 16 -27 0 -12 -4 -18 -10 -15 -5 3 -10 -3 -10 -15 0 -11 -7 -23 -16 -27
-9 -3 -27 -17 -40 -30 -19 -19 -22 -28 -14 -42 11 -21 51 -32 73 -20 9 5 22 1
36 -12 16 -15 25 -18 35 -10 10 8 13 3 14 -26 2 -47 9 -53 31 -24 14 18 25 23
44 19 15 -3 28 0 31 6 3 7 8 6 15 -4 9 -13 11 -13 11 2 0 12 6 16 25 12 16 -3
25 0 26 8 1 7 5 2 9 -12 5 -15 8 47 9 150 l0 175 -32 20 c-37 24 -42 49 -9 53
25 4 31 37 7 46 -23 9 -18 35 10 46 24 9 25 13 25 89 0 74 -10 106 -25 81 -5
-8 -11 -7 -21 1 -19 16 -18 26 6 32 16 4 20 14 20 46 0 23 -4 41 -10 41 -5 0
-10 7 -10 15 0 8 9 15 20 15 19 0 20 7 20 113 0 106 -1 113 -20 114 -11 1 -20
-2 -20 -8 0 -5 -9 -9 -20 -9 -23 0 -70 38 -70 57 0 16 -8 16 -49 2 -28 -10
-30 -13 -15 -24 12 -8 14 -14 6 -19 -17 -10 -15 -36 3 -36 8 0 15 -5 15 -11 0
-6 -9 -8 -20 -4 -14 5 -20 2 -20 -9 0 -22 -20 -20 -21 2 -1 9 -1 21 0 25 1 5
-9 5 -21 1 -20 -6 -21 -5 -9 9 11 14 11 18 -4 23 -21 9 -38 -15 -23 -33 7 -9
7 -13 -1 -13 -6 0 -15 9 -19 21 -8 20 -8 20 -20 -5 -9 -21 -19 -26 -47 -26
-24 0 -35 5 -35 15 0 10 -10 14 -37 12 -48 -3 -54 21 -16 59 18 18 21 26 10
21 -13 -5 -17 -1 -17 16 0 50 -43 104 -60 77 -5 -8 -9 -8 -12 2 -7 19 2 38 18
38 8 0 14 5 14 10 0 6 -4 10 -10 10 -6 0 -6 9 0 24 5 13 6 33 4 43 -3 12 2 28
13 38 16 17 17 18 1 12 -20 -7 -22 0 -8 23 16 25 33 -4 34 -55 0 -28 4 -44 10
-42 6 2 10 13 9 24 -1 12 13 34 33 54 31 30 41 34 84 33 27 0 55 -6 64 -13 12
-10 17 -9 26 9 6 12 17 19 23 17 7 -3 25 7 40 22 20 18 26 21 22 8 -16 -40 39
5 71 59 6 11 21 20 33 22 20 3 21 1 11 -17 -6 -12 -18 -21 -26 -21 -10 0 -14
-6 -11 -14 3 -8 -2 -16 -14 -19 -34 -9 -22 -30 14 -23 30 5 31 5 13 -9 -20
-15 -20 -15 0 -29 10 -8 16 -18 12 -22 -4 -4 -15 -1 -24 7 -16 13 -17 10 -12
-29 5 -37 3 -45 -17 -58 -27 -18 -75 -87 -75 -108 0 -17 39 -48 52 -40 4 3 8
0 8 -6 0 -6 5 -8 10 -5 6 3 10 15 10 27 0 16 3 18 14 9 10 -8 16 -9 21 -1 3 5
15 10 26 10 25 0 25 -30 -1 -37 -26 -7 -25 -15 7 -52 30 -34 43 -39 43 -15 0
9 -6 14 -13 11 -6 -2 -17 3 -23 12 -9 12 -7 22 12 47 23 29 24 38 23 170 -1
76 -3 131 -6 122 -2 -10 -8 -18 -13 -18 -4 0 -6 9 -3 20 3 11 9 20 14 20 5 0
9 185 9 423 0 232 -4 417 -8 411 -18 -28 -52 -26 -92 8 -48 40 -51 68 -9 87
37 16 79 2 79 -27 0 -10 7 -27 15 -38 13 -17 14 168 15 1539 0 1204 -3 1562
-12 1577 -10 15 -10 22 0 32 9 9 12 72 12 234 0 208 -1 222 -19 235 -22 16
-26 34 -16 67 11 33 29 27 22 -8 -4 -16 -2 -32 3 -35 6 -4 10 24 9 72 0 43 -3
71 -6 63 -3 -8 -14 -26 -24 -39 -18 -23 -19 -23 -19 -3 0 11 5 24 11 27 7 5 3
14 -10 26 -24 22 -26 30 -10 46 8 8 7 17 -3 32 -15 24 -31 23 -37 -5 -3 -16
-1 -17 13 -5 14 12 16 11 16 -8 0 -11 -4 -21 -10 -21 -5 0 -10 -9 -10 -21 0
-14 -5 -19 -17 -17 -10 2 -19 9 -19 16 -6 55 -7 56 -14 22 -8 -34 -8 -33 -7
10 2 36 5 44 18 42 9 -1 19 4 23 13 8 22 -30 20 -43 -2 -5 -10 -21 -18 -35
-18 -28 -1 -35 12 -11 21 22 9 18 24 -6 24 -12 0 -23 -8 -26 -20 -3 -11 -11
-20 -18 -20 -7 0 -15 -9 -18 -21 -7 -24 -26 -21 -41 7 -6 10 -15 22 -21 26 -5
4 -6 10 -2 14 3 4 14 1 22 -6 13 -11 20 -11 40 0 14 7 25 17 25 22 0 11 -7 10
-31 -2 -16 -9 -24 -6 -43 15 -27 29 -36 31 -36 10 0 -16 -25 -21 -34 -6 -11
18 6 42 25 36 11 -4 19 -2 19 2 0 5 9 18 19 30 33 35 51 80 51 128 0 42 -11
58 -25 35 -4 -6 -15 -8 -26 -5 -12 4 -19 2 -19 -6 0 -6 -13 -24 -28 -39 -16
-15 -33 -36 -37 -46 -8 -16 -10 -13 -13 16 -2 19 -9 38 -15 42 -7 4 -7 11 3
22 7 9 11 19 8 22 -7 7 -55 -13 -63 -26 -5 -7 -12 -1 -22 16 -13 25 -12 31 5
54 11 14 28 25 39 25 10 0 39 9 64 21 24 12 75 29 113 38 48 11 82 27 110 50
72 60 115 104 108 112 -4 4 -1 4 5 0 7 -4 24 1 38 11 20 15 24 26 25 71 0 40
-4 52 -15 52 -8 0 -15 -7 -15 -15 0 -8 -6 -15 -14 -15 -7 0 -19 -7 -26 -15
-15 -19 -30 -10 -30 17 0 21 42 68 61 68 6 0 17 16 25 35 17 42 18 53 2 37 -7
-7 -15 -12 -19 -12 -13 0 -19 33 -8 46 13 15 4 34 -17 34 -21 0 -17 28 6 35
27 8 43 -3 37 -26 -3 -11 -1 -19 4 -19 15 0 10 52 -7 71 -15 17 -15 20 0 43
14 23 16 109 16 913 0 499 -4 882 -9 874 -6 -9 -11 -10 -15 -2 -13 20 -46 12
-58 -14 -9 -19 -19 -25 -45 -25 -21 0 -36 6 -39 15 -4 8 -10 15 -15 15 -5 0
-9 -7 -9 -15 0 -8 -7 -15 -16 -15 -11 0 -14 5 -10 16 5 12 2 15 -10 10 -8 -3
-22 -6 -30 -6 -8 0 -14 -7 -14 -15 0 -19 -46 -31 -64 -16 -10 9 -15 8 -20 -4
-3 -9 -11 -13 -18 -9 -29 18 -198 -5 -198 -27 0 -6 -8 -9 -17 -7 -10 1 -30 -6
-46 -16 -23 -15 -42 -18 -120 -14 -113 5 -180 34 -185 82 -5 43 47 89 62 54 3
-10 9 -8 19 4 8 10 17 14 21 10 13 -12 36 30 30 55 -4 14 -2 23 6 23 6 0 14
-9 17 -20 4 -16 9 -18 19 -9 7 6 22 8 33 4 13 -4 23 0 29 12 8 14 13 15 25 4
12 -10 20 -10 37 1 17 11 22 11 30 -2 9 -13 11 -13 19 -1 5 8 17 15 28 17 41
5 63 17 61 32 -2 9 5 18 16 20 15 3 18 0 13 -17 -4 -18 -1 -21 24 -21 16 0 45
6 63 14 25 10 37 11 45 3 8 -8 11 -7 11 5 0 18 26 32 35 18 8 -12 57 3 69 22
8 13 6 22 -7 36 -14 15 -15 21 -5 24 26 10 37 -3 31 -33 l-5 -29 33 12 c19 6
36 14 39 18 3 3 13 9 23 13 10 4 17 17 17 31 0 14 5 28 11 32 7 4 9 0 5 -13
-4 -12 -1 -25 7 -31 14 -12 57 -5 57 10 0 5 -8 4 -19 -2 -13 -7 -22 -7 -26 0
-11 17 5 30 36 30 l29 0 0 244 0 244 -41 21 c-22 12 -38 17 -34 11 8 -13 -4
-52 -14 -45 -4 2 -14 -8 -22 -23 -8 -15 -18 -30 -24 -35 -6 -4 0 -16 16 -31
15 -13 32 -33 38 -45 9 -16 18 -20 34 -16 18 5 19 4 6 -4 -9 -6 -20 -22 -23
-36 -4 -14 -10 -25 -15 -25 -18 0 -33 31 -27 54 6 26 -12 40 -39 30 -8 -4 -15
-1 -15 5 0 6 5 11 10 11 6 0 10 7 10 15 0 28 -44 15 -97 -30 -26 -21 -80 -37
-88 -25 -2 3 -19 5 -37 2 -23 -2 -44 -16 -68 -43 -27 -30 -40 -38 -57 -33 -16
4 -23 14 -23 31 0 28 33 76 45 65 4 -4 4 3 1 15 -8 26 23 63 53 63 11 0 23 5
26 10 3 6 15 10 26 10 13 0 19 7 19 22 0 21 1 21 13 4 13 -18 16 -18 65 -2 44
15 52 22 52 42 0 13 5 24 10 24 6 0 10 8 10 18 -1 16 -1 16 -14 0 -8 -11 -22
-16 -35 -13 -13 2 -30 -3 -38 -11 -23 -23 -27 -9 -9 31 10 20 24 35 35 35 9 0
28 10 40 21 22 21 25 21 51 5 l28 -16 -6 42 c-3 27 -16 54 -35 75 -33 36 -49
42 -41 16 5 -17 5 -17 -9 -1 -8 10 -17 14 -21 10 -4 -4 -12 1 -18 11 -8 14
-13 16 -24 6 -8 -6 -14 -17 -14 -24 0 -15 -22 -25 -54 -25 -12 0 -27 -5 -34
-12 -20 -20 -40 7 -24 32 7 12 10 31 6 46 -5 20 -2 26 15 31 11 3 21 9 21 14
0 14 -24 11 -46 -6 -25 -19 -34 -19 -34 0 0 17 -9 19 -29 6 -7 -5 -11 -13 -8
-17 5 -9 -89 -11 -97 -3 -3 3 -6 25 -8 49 -1 31 -9 50 -23 62 -14 12 -17 20
-9 28 8 8 14 7 24 -5 16 -19 49 -20 56 0 4 8 11 15 18 15 6 0 17 9 24 20 7 11
19 20 27 20 11 0 14 8 10 29 -4 26 -3 28 20 23 36 -6 50 33 24 67 -11 13 -19
33 -19 45 0 16 2 18 9 7 5 -8 16 -11 26 -7 20 7 14 33 -6 28 -11 -3 -11 -1 -2
9 9 9 15 8 28 -5 19 -18 31 -20 40 -6 4 6 1 9 -7 8 -9 -2 -13 10 -13 40 0 23
-1 42 -3 42 -8 0 -32 -29 -32 -38 0 -13 -47 -43 -69 -45 -18 -1 -18 -31 0 -43
5 -3 9 -17 9 -31 0 -21 -3 -23 -14 -14 -8 7 -33 10 -62 7 -27 -3 -55 -5 -63
-5 -7 -1 -11 -7 -7 -16 4 -10 -1 -15 -14 -15 -13 0 -18 -5 -14 -15 5 -11 2
-13 -10 -9 -10 4 -26 -2 -39 -13 -12 -11 -37 -27 -56 -36 -33 -16 -33 -16 -77
19 -43 36 -58 74 -29 74 8 0 15 4 15 10 0 6 9 6 26 0 36 -14 38 -13 72 21 23
24 37 30 54 26 18 -5 27 0 41 25 14 24 22 29 40 23 60 -19 75 -17 99 10 24 28
42 75 28 75 -10 0 -10 49 1 56 5 3 6 10 3 16 -4 6 -1 8 7 6 8 -3 13 -11 12
-17 -5 -18 76 -14 84 4 8 22 3 24 -55 26 -30 1 -52 7 -52 13 0 6 -3 21 -6 34
-6 19 -3 22 26 22 29 0 32 2 26 23 -4 19 0 27 19 37 19 10 22 16 14 24 -8 8
-13 8 -16 -1 -3 -8 -23 -10 -62 -7 -51 3 -60 1 -81 -21 -13 -14 -34 -25 -47
-25 -20 0 -23 -4 -18 -20 4 -13 2 -20 -7 -20 -10 0 -10 -2 1 -9 12 -7 12 -13
3 -24 -15 -17 -6 -27 25 -27 16 0 23 -4 19 -12 -3 -7 -9 -20 -12 -29 -3 -10
-17 -15 -40 -15 -30 1 -34 4 -34 28 0 15 5 30 10 33 20 12 11 62 -14 79 -24
15 -25 15 -28 -12 -3 -24 -5 -21 -20 23 -9 28 -13 54 -8 60 16 20 -5 144 -26
152 -8 3 -21 0 -29 -7 -11 -9 -19 -9 -28 -2 -10 8 -13 6 -14 -10 -3 -37 -42
-51 -50 -18 -6 22 -25 28 -22 8 6 -50 -11 -49 -45 3 -19 28 -28 56 -29 89 -2
40 -5 47 -22 47 -11 -1 -31 3 -44 7 -16 6 -21 5 -17 -3 4 -6 0 -11 -9 -11 -12
0 -15 -5 -10 -17 3 -10 11 -40 17 -68 6 -27 15 -56 20 -62 7 -9 6 -15 -5 -19
-18 -7 -12 -70 9 -94 11 -13 10 -18 -6 -28 -12 -7 -20 -23 -20 -41 0 -19 -6
-30 -18 -33 -17 -5 -45 -84 -46 -133 -1 -16 -8 -20 -36 -22 -58 -3 -80 -13
-81 -39 -2 -36 -3 -42 -11 -50 -5 -4 -8 -16 -8 -26 0 -19 -9 -19 -72 -1 -18 4
-23 -9 -18 -51 3 -29 -57 -85 -90 -84 -16 1 -45 -8 -67 -19 -21 -10 -68 -27
-106 -37 -75 -20 -97 -13 -97 30 0 12 -4 26 -10 29 -17 10 -11 36 7 33 13 -2
18 5 20 31 5 52 69 111 122 111 11 0 26 7 33 16 7 8 20 23 30 31 20 20 14 38
-28 80 -20 20 -31 39 -28 50 4 16 -3 18 -63 21 -37 2 -69 5 -71 7 -2 2 4 15
14 30 10 15 19 51 21 85 3 57 2 58 -28 69 -31 11 -79 54 -79 71 0 5 -9 12 -20
15 -13 4 -20 15 -20 30 0 13 -4 25 -10 27 -17 6 1 48 22 48 10 0 16 -4 13 -10
-3 -5 0 -10 9 -10 12 0 14 25 12 164 -1 120 -5 168 -15 180 -9 10 -10 16 -2
16 6 0 11 9 11 20 0 14 -7 20 -24 20 -25 0 -25 8 -11 -132 4 -35 1 -66 -5 -79
-10 -18 -17 -20 -63 -14 -36 5 -57 14 -69 28 -23 29 -15 76 17 104 17 15 25
32 25 56 l0 34 -87 2 -88 2 24 -25 c36 -38 30 -67 -23 -122 -25 -27 -49 -58
-52 -68 -9 -28 -29 -46 -64 -56 -22 -6 -30 -5 -30 4 0 8 -6 19 -14 25 -12 10
-13 6 -9 -26 4 -28 1 -43 -11 -52 -9 -7 -16 -18 -16 -24 0 -5 -7 -15 -15 -21
-12 -9 -13 -18 -3 -51 6 -22 12 -41 12 -41 1 -1 11 -5 24 -8 18 -6 22 -3 22
13 0 12 6 21 16 21 24 0 42 23 49 63 4 20 11 34 16 31 15 -9 41 24 38 49 -6
54 30 88 78 73 27 -9 56 -79 48 -115 -8 -37 -19 -46 -72 -60 l-43 -12 0 -64
c0 -72 11 -87 44 -56 26 25 51 28 42 5 -3 -8 -2 -13 2 -10 5 3 16 -10 25 -29
9 -19 21 -35 27 -35 6 0 15 -10 19 -22 7 -19 4 -27 -18 -45 -20 -16 -26 -31
-28 -65 -4 -88 -19 -138 -51 -170 -38 -36 -41 -72 -9 -106 15 -17 18 -26 10
-29 -7 -2 -15 -20 -19 -39 -5 -26 -11 -34 -28 -34 -32 0 -56 21 -58 53 -1 15
-7 27 -13 26 -21 -1 -46 -15 -45 -24 1 -5 -4 -11 -11 -14 -7 -2 -9 1 -5 8 9
15 5 14 -32 -5 -18 -8 -32 -19 -32 -24 0 -18 81 -71 110 -72 22 -1 29 -5 26
-15 -3 -8 4 -27 16 -43 24 -33 18 -52 -9 -28 -34 29 -46 33 -34 10 6 -11 11
-29 11 -38 0 -13 -13 -4 -47 29 -46 47 -63 51 -63 17 0 -10 -9 -22 -20 -25
-25 -8 -25 -17 0 -33 18 -11 30 -48 12 -40 -58 28 -82 45 -91 64 -10 23 -83
66 -133 78 -22 5 -27 2 -30 -16 -5 -27 16 -74 38 -86 17 -9 43 -74 44 -109 0
-29 -22 -21 -41 14 -17 32 -46 46 -131 59 -34 6 -36 9 -43 50 -6 43 6 84 25
84 6 0 10 9 10 20 0 19 -13 36 -58 72 -12 10 -22 28 -22 41 0 21 -36 67 -53
67 -12 0 -7 -63 8 -105 18 -50 19 -101 2 -112 -7 -4 -20 -20 -30 -35 -23 -36
-38 -36 -25 0 11 29 4 82 -11 82 -9 0 -10 -6 -13 -97 -2 -41 -8 -77 -15 -85
-10 -9 -13 -8 -13 9 0 11 -7 26 -15 33 -8 7 -12 16 -9 21 9 16 -34 10 -50 -7
-9 -8 -16 -31 -16 -50 0 -22 -6 -37 -15 -41 -27 -10 -29 5 -12 61 28 88 19 90
-44 6 -24 -32 -50 -59 -56 -60 -7 0 -13 -5 -13 -12 0 -7 -12 -23 -28 -36 -24
-21 -27 -22 -30 -7 -2 10 0 20 5 24 6 3 18 28 28 54 11 28 38 68 65 95 44 43
48 52 54 110 4 35 10 70 12 77 5 11 -2 13 -33 8 -21 -3 -40 -9 -43 -12 -3 -3
-25 -13 -49 -21 -24 -8 -47 -22 -51 -30 -23 -47 -40 -93 -37 -97 2 -2 18 4 34
13 39 23 69 13 51 -15 -12 -19 -89 -51 -123 -51 -8 0 -18 -7 -21 -15 -4 -8
-15 -15 -25 -15 -24 0 -25 20 -1 21 9 0 -5 6 -31 13 -27 7 -54 19 -60 25 -9
10 -6 10 13 3 21 -8 31 -5 55 14 17 13 35 24 41 24 5 0 23 14 40 31 l29 31
-30 -8 c-44 -11 -67 -10 -72 3 -2 6 5 14 17 18 23 7 81 67 91 93 8 21 -9 33
-30 22 -78 -41 -104 -48 -132 -38 -16 5 -29 16 -29 23 0 7 -11 16 -24 19 -19
5 -25 14 -28 46 -5 51 2 62 38 64 41 4 74 16 74 27 0 5 -3 9 -7 10 -113 11
-208 10 -239 -1 -33 -13 -44 -12 -44 2 0 19 -52 68 -72 68 -10 0 -18 4 -18 8
0 4 -21 14 -47 22 -57 16 -150 69 -179 102 -12 12 -24 35 -28 51 -6 27 1 32
44 28 8 -1 3 6 -12 16 -16 10 -28 24 -28 31 0 20 -63 10 -66 -11 -1 -9 5 -21
13 -26 13 -7 13 -9 -3 -15 -10 -4 -21 -2 -25 5 -10 17 -62 -17 -78 -52 -7 -16
-25 -36 -39 -43 -15 -8 -44 -28 -66 -45 -30 -24 -49 -31 -82 -31 -42 0 -56 11
-33 26 6 3 8 15 6 26 -7 24 2 50 14 42 5 -3 9 0 9 6 0 6 -11 8 -27 5 -16 -2
-48 2 -73 9 -66 21 -113 27 -129 17 -9 -6 2 -11 36 -16 67 -9 84 -21 59 -40
-11 -8 -27 -15 -36 -15 -8 0 -23 -8 -31 -18 -15 -17 -15 -20 2 -30 16 -10 21
-8 34 16 l15 27 -6 -27 c-5 -24 -3 -28 17 -28 l24 -1 -28 -24 c-15 -14 -37
-25 -48 -25 -11 0 -17 -5 -14 -10 4 -6 10 -8 15 -5 13 8 32 -22 35 -57 2 -18
4 -37 5 -43 6 -29 -3 -47 -35 -62 -33 -16 -34 -18 -28 -60 4 -29 2 -43 -6 -43
-6 0 -11 6 -11 13 0 6 -5 4 -11 -6 -10 -18 -12 -18 -26 3 l-15 22 -29 -28
c-22 -21 -27 -33 -22 -53 3 -14 9 -28 13 -31 3 -3 9 -12 12 -20 7 -18 96 -44
112 -32 6 5 28 8 49 8 35 -1 38 2 53 41 15 39 19 42 66 48 29 4 54 3 60 -3 15
-15 60 12 123 74 54 53 83 68 72 40 -3 -8 2 -16 14 -19 11 -3 19 -14 19 -26 0
-12 6 -21 14 -21 8 0 18 -5 21 -10 10 -16 -5 -50 -20 -50 -8 0 -31 -16 -51
-35 -19 -19 -43 -39 -51 -44 -9 -4 -13 -14 -9 -20 4 -6 12 -9 17 -6 12 8 12
-37 -1 -70 -15 -39 -61 -77 -87 -72 -13 2 -23 1 -23 -3 0 -14 -51 -18 -56 -5
-6 16 -99 14 -130 -3 -33 -18 -54 -72 -51 -135 2 -47 -2 -59 -20 -77 -13 -11
-23 -25 -23 -30 0 -18 -22 -10 -42 15 -24 30 -44 32 -51 5 -3 -14 3 -26 20
-40 21 -16 23 -23 14 -34 -10 -11 -10 -20 -1 -37 22 -41 -12 -119 -52 -119 -9
0 -19 -4 -23 -10 -6 -10 -34 -2 -52 16 -7 6 -10 14 -7 17 3 2 -4 21 -16 41
-15 29 -18 41 -10 56 11 21 35 26 45 10 3 -6 10 -10 15 -10 18 0 -1 26 -38 50
-20 14 -40 29 -44 35 -5 6 -14 4 -24 -7 -15 -15 -16 -22 -5 -59 12 -40 12 -43
-16 -69 -34 -33 -86 -46 -103 -25 -7 8 -18 15 -24 15 -6 0 -28 14 -49 31 -32
27 -37 36 -37 73 l0 43 45 -3 c25 -1 53 -5 63 -9 16 -5 19 -1 15 22 -3 16 -5
36 -6 46 -2 29 -34 33 -165 20 -46 -5 -86 -5 -88 -1 -7 12 -82 10 -89 -2 -3
-5 -22 -10 -42 -10 -34 0 -74 -10 -131 -31 -22 -9 -22 -10 -6 -35 15 -22 22
-25 52 -19 19 4 41 13 48 20 27 27 164 0 164 -32 0 -7 5 -13 10 -13 6 0 9 -12
8 -27 -1 -16 10 -58 25 -95 30 -73 32 -82 17 -73 -5 3 -14 -14 -21 -37 -9 -36
-9 -48 5 -71 9 -16 16 -38 16 -49 0 -17 -4 -19 -27 -13 -16 3 -43 9 -60 12
-18 3 -33 9 -33 13 0 4 -10 18 -21 31 -12 13 -28 34 -36 46 -24 36 -128 49
-158 19 -8 -8 -15 -26 -15 -40 0 -14 -3 -25 -7 -24 -5 1 -21 -2 -38 -7 -26 -7
-27 -9 -10 -15 15 -6 7 -10 -30 -15 -34 -6 -50 -4 -53 4 -4 12 -28 15 -35 4
-2 -5 -2 -2 -1 5 2 6 -5 12 -16 12 -13 0 -20 10 -25 33 -3 17 -11 45 -17 60
-9 24 -8 31 15 55 23 24 25 34 22 79 -3 29 0 55 5 58 6 3 10 14 10 23 1 20 39
66 64 75 9 4 14 12 10 18 -3 6 0 15 7 20 11 8 11 11 -4 20 -15 9 -18 21 -15
62 l3 52 -45 3 c-35 2 -42 0 -30 -9 12 -9 11 -10 -7 -6 -18 4 -27 -2 -40 -24
-10 -16 -22 -29 -28 -29 -5 0 -3 -5 5 -10 13 -8 12 -10 -3 -10 -10 0 -17 -6
-16 -12 1 -7 -2 -33 -7 -58 -4 -25 -7 -48 -6 -52 1 -4 -8 -10 -20 -13 -15 -5
-17 -9 -8 -15 9 -6 7 -10 -9 -15 -23 -7 -28 -21 -8 -28 6 -3 -5 -3 -25 0 -26
4 -46 0 -62 -11 -28 -18 -91 -22 -101 -5 -14 21 -36 -27 -26 -54 12 -30 23
-34 116 -42 82 -7 155 -24 155 -35 0 -5 2 -15 6 -23 6 -16 3 -17 -155 -21 -88
-2 -106 -6 -117 -21 -18 -24 -18 -35 -1 -35 23 0 44 -33 45 -67 0 -18 1 -37 1
-43 1 -5 21 -18 46 -29 25 -11 45 -24 45 -30 0 -6 17 -13 38 -17 50 -9 112
-34 112 -45 0 -5 6 -9 14 -9 22 0 94 -73 102 -103 8 -35 29 -44 53 -23 18 17
81 22 81 7 0 -5 11 -12 25 -15 42 -11 95 -72 95 -109 0 -20 -64 -57 -97 -57
l-27 0 34 -30 c25 -22 36 -27 42 -18 5 9 8 9 8 2 0 -7 9 -14 20 -17 27 -7 26
-25 -2 -29 -12 -2 -23 -9 -26 -17 -3 -9 0 -11 8 -6 9 5 11 4 6 -4 -4 -6 -1
-23 8 -36 9 -13 18 -50 20 -81 2 -31 9 -60 16 -64 6 -4 9 -20 6 -36 -2 -16 -5
-33 -5 -38 -1 -5 -7 -4 -14 2 -10 9 -18 6 -32 -11 -11 -12 -19 -25 -17 -29 1
-4 -3 -19 -8 -33 -8 -21 -7 -25 10 -25 11 0 20 6 20 14 0 7 9 16 21 19 12 3
18 10 14 16 -4 7 4 11 21 11 23 0 25 -2 14 -15 -7 -9 -10 -18 -7 -21 7 -7 -40
-74 -60 -87 -7 -4 -13 -16 -13 -26 0 -11 -7 -22 -16 -25 -27 -11 -78 -6 -98 9
-10 8 -23 12 -29 8 -12 -7 -27 16 -27 44 0 29 -13 36 -75 38 -41 1 -52 -2 -48
-12 3 -7 1 -13 -5 -13 -12 0 -24 29 -16 41 3 5 -6 4 -21 -3 -18 -8 -22 -14
-13 -19 10 -7 10 -11 0 -21 -6 -6 -12 -20 -12 -30 0 -10 -4 -18 -10 -18 -5 0
-10 -10 -11 -22 0 -16 -10 -3 -29 38 -45 96 -111 148 -227 178 -87 23 -125 13
-184 -46 -42 -42 -52 -48 -65 -37 -25 21 3 89 36 89 6 0 9 4 6 9 -3 4 24 6 60
4 64 -3 65 -3 59 19 -5 18 -4 20 4 8 9 -13 11 -13 11 2 0 9 -5 20 -11 24 -8 5
-7 9 4 15 8 5 19 23 22 40 4 18 15 33 26 36 10 3 21 13 24 22 3 11 18 17 52
18 96 5 137 4 159 -1 14 -4 29 0 38 10 18 17 21 44 6 44 -5 0 -10 6 -10 14 0
24 -60 36 -159 32 -82 -2 -97 0 -113 16 -11 11 -35 26 -53 34 -18 7 -35 19
-38 26 -4 10 -6 10 -6 1 -1 -15 -37 -17 -46 -3 -3 6 1 10 9 10 9 0 16 9 16 20
0 12 -7 20 -17 20 -15 0 -16 2 -3 10 13 9 13 11 0 20 -8 5 -11 10 -5 10 5 0 3
6 -3 12 -10 10 -15 10 -22 -2 -9 -13 -11 -13 -19 0 -7 10 -6 17 2 22 8 5 5 8
-8 8 -16 0 -17 2 -5 10 12 7 11 12 -5 30 -12 13 -15 24 -9 28 6 4 18 22 27 40
15 30 14 32 -3 32 -14 0 -18 5 -14 18 4 10 3 13 -3 6 -4 -6 -15 -12 -23 -12
-8 -1 -36 -4 -62 -6 -54 -5 -101 -25 -61 -26 16 0 21 -4 17 -15 -4 -8 -1 -22
6 -30 16 -19 10 -19 -25 -1 -36 19 -54 11 -52 -22 2 -23 -2 -27 -25 -26 -33 1
-47 -25 -18 -33 11 -3 20 -10 20 -15 0 -6 -8 -7 -17 -3 -31 13 -58 11 -58 -5
0 -8 -13 -28 -29 -44 -23 -22 -38 -28 -70 -28 -47 1 -67 -8 -40 -19 17 -7 17
-8 2 -8 -11 -1 -18 -9 -18 -19 0 -25 -11 -34 -25 -22 -9 8 -15 5 -20 -7 -6
-16 -8 -16 -18 -2 -7 9 -18 18 -26 21 -12 3 -10 9 9 28 l23 23 -28 -7 c-25 -6
-26 -6 -11 9 22 22 20 28 -5 14 -12 -6 -39 -9 -60 -7 -41 4 -47 0 -27 -20 9
-9 6 -12 -16 -12 -15 0 -25 4 -21 10 3 6 1 10 -5 10 -6 0 -19 8 -28 17 -16 16
-16 16 6 11 12 -3 22 -2 22 3 0 5 -5 9 -12 9 -23 0 3 14 30 16 15 1 37 2 50 3
21 1 33 31 12 31 -5 0 -10 -4 -10 -10 0 -5 -5 -10 -11 -10 -6 0 -8 9 -4 21 9
27 -10 40 -41 29 -16 -7 -26 -4 -38 9 -11 12 -26 17 -44 14 -21 -4 -24 -2 -12
6 31 23 -34 38 -69 17 -5 -4 -12 -2 -16 4 -3 5 -1 10 4 10 6 0 11 5 11 10 0 6
-10 8 -24 4 -32 -8 -48 20 -33 55 15 34 37 50 65 48 30 -2 28 -10 -10 -30
l-33 -17 33 6 c20 3 39 1 47 -6 11 -9 15 -9 15 -1 0 6 11 11 25 11 14 0 25 5
25 11 0 6 7 9 15 5 8 -3 15 -1 15 3 0 11 -29 23 -40 16 -5 -3 -11 -1 -15 5
-11 18 -27 11 -22 -10 3 -11 1 -20 -5 -20 -5 0 -12 9 -15 19 -6 22 -43 35 -57
21 -6 -6 -17 -10 -25 -9 -9 0 -11 3 -5 5 15 6 5 44 -11 44 -7 0 -15 6 -18 14
-4 9 -28 15 -76 18 -49 2 -75 9 -90 22 -27 25 -56 13 -83 -35 -16 -28 -31 -42
-57 -49 -48 -13 -51 -13 -51 6 0 13 -3 14 -15 4 -8 -7 -21 -10 -29 -7 -7 3
-30 2 -51 -3 -58 -13 -99 -2 -113 29 -6 14 -24 49 -41 76 l-29 50 29 59 c23
46 27 61 17 68 -7 4 -8 8 -3 8 6 0 2 5 -7 11 -9 5 -15 16 -12 24 6 14 -26 33
-64 39 -8 1 -17 7 -20 12 -10 14 -75 15 -83 2 -5 -7 -3 -18 3 -25 8 -10 6 -13
-5 -13 -8 0 -17 -6 -20 -12 -3 -10 -8 -9 -22 2 -16 14 -17 13 -11 -8 6 -16 4
-21 -7 -16 -7 2 -20 -2 -27 -11 -10 -12 -15 -13 -20 -4 -11 16 -33 0 -26 -18
5 -12 1 -14 -20 -9 -17 5 -23 3 -19 -4 6 -10 0 -14 -47 -24 -20 -5 -28 -13
-28 -27 0 -16 -3 -19 -13 -11 -10 8 -13 6 -14 -10 -2 -25 -14 -37 -20 -20 -8
22 -18 13 -19 -19 -1 -23 2 -29 14 -24 11 4 12 2 4 -8 -15 -18 -4 -56 25 -85
13 -13 21 -28 18 -33 -4 -5 7 -9 22 -9 16 0 34 -5 41 -12 7 -7 12 -8 12 -3 0
4 9 0 20 -10 11 -10 20 -26 20 -35 0 -11 11 -20 30 -23 17 -4 30 -11 30 -17 0
-6 -7 -6 -20 2 -10 7 -23 8 -27 4 -4 -5 -2 -11 4 -13 19 -7 16 -23 -4 -23 -25
-1 -102 -38 -80 -39 18 -1 25 -21 6 -21 -13 0 -39 -25 -39 -39 0 -6 -11 -13
-24 -17 -28 -7 -40 -48 -20 -68 7 -8 10 -16 7 -19 -7 -8 -33 18 -33 32 0 6 -4
11 -10 11 -15 0 -12 -16 5 -30 19 -16 10 -30 -21 -30 -15 0 -24 -6 -24 -16 0
-12 -6 -15 -23 -11 -12 4 -29 2 -37 -3 -8 -5 -12 -10 -7 -10 22 0 -35 -37 -59
-37 -16 0 -41 -3 -57 -6 -16 -3 -25 -2 -22 4 4 5 -10 9 -29 9 -20 0 -36 5 -36
11 0 8 -4 9 -13 0 -8 -6 -17 -8 -21 -4 -4 4 -11 1 -15 -6 -7 -11 -14 -11 -41
3 -40 20 -38 20 -36 0 0 -9 -5 -19 -13 -22 -8 -3 -11 0 -7 7 8 12 -4 14 -28 5
-9 -3 -16 -11 -16 -17 0 -6 -7 -19 -17 -29 -15 -17 -15 -18 2 -18 18 0 18 -1
-1 -17 -45 -42 -68 -46 -112 -24 -38 19 -40 22 -36 61 3 31 0 40 -12 40 -8 0
-17 6 -20 14 -4 11 -12 13 -31 5 -32 -12 -33 -12 -33 6 0 8 -4 16 -10 16 -30
4 -60 20 -60 31 0 6 7 7 16 4 17 -6 94 64 94 86 0 11 -2 11 -9 0 -6 -10 -15
-6 -39 15 -34 29 -42 49 -17 39 8 -3 15 -1 15 5 0 6 -8 9 -17 8 -26 -3 -73 12
-73 23 0 5 10 12 21 15 21 6 21 7 4 19 -10 7 -15 20 -12 29 4 9 1 15 -8 15 -8
0 -12 -6 -9 -14 4 -10 -1 -15 -13 -15 -10 1 -29 -3 -42 -7 -20 -6 -23 -4 -18
9 4 11 1 17 -7 17 -8 0 -16 4 -18 9 -2 6 -18 6 -38 2 -24 -5 -35 -12 -34 -25
2 -13 -1 -14 -11 -6 -10 8 -15 8 -21 -1 -4 -7 0 -17 10 -24 15 -12 15 -13 -4
-18 -11 -3 -20 -9 -19 -14 1 -4 -1 -16 -6 -26 -5 -11 -2 -24 8 -35 14 -16 13
-17 -21 -17 -30 0 -37 -4 -35 -18 1 -22 -48 -49 -54 -30 -3 7 -10 10 -18 7 -7
-3 -16 -1 -20 5 -3 6 -17 11 -31 11 -14 0 -24 6 -24 15 0 9 -6 12 -16 8 -10
-4 -17 1 -21 16 -4 17 -13 21 -48 21 -29 0 -45 -5 -49 -15 -3 -8 -17 -15 -31
-15 -14 0 -25 -5 -25 -10 0 -6 -11 -3 -25 6 -14 9 -25 14 -25 10 0 -3 -9 3
-20 14 -11 11 -24 20 -30 20 -5 0 -10 9 -10 19 0 11 -5 23 -11 26 -6 4 -8 14
-5 22 4 8 2 11 -5 7 -8 -4 -9 1 -4 15 4 12 2 21 -4 21 -21 0 -11 19 12 23 22
3 22 4 -4 14 -22 10 -25 16 -21 43 3 25 10 32 33 37 16 3 29 9 29 14 0 13 -6
11 -51 -12 -23 -11 -47 -18 -55 -15 -8 3 -14 2 -14 -2 0 -5 -18 -19 -41 -31
-37 -21 -39 -24 -22 -36 15 -12 10 -13 -42 -8 -55 6 -59 5 -46 -10 11 -15 10
-18 -15 -27 -16 -6 -38 -9 -50 -6 -12 3 -24 2 -26 -4 -2 -5 -29 -12 -61 -15
-33 -3 -71 -12 -85 -20 l-27 -15 25 1 c39 2 41 0 30 -20 -6 -13 -7 -22 0 -26
5 -3 7 -12 3 -20 -3 -10 2 -15 16 -16 38 -3 42 -4 52 -19 8 -11 12 -12 16 -3
3 9 14 11 31 6 25 -6 26 -5 13 11 -8 9 -20 15 -28 12 -7 -3 -13 -1 -13 5 0 14
73 -1 83 -17 4 -8 15 -14 24 -14 13 0 14 -2 2 -17 -11 -13 -11 -17 -1 -20 6
-3 12 -9 12 -14 0 -4 -7 -6 -15 -3 -8 4 -15 1 -15 -5 0 -16 -42 -61 -52 -55
-4 3 -8 1 -8 -5 0 -5 8 -12 17 -14 17 -4 17 -5 1 -6 -13 -1 -18 -10 -18 -31 0
-16 -4 -30 -10 -30 -5 0 -10 -9 -10 -20 0 -13 -10 -24 -26 -30 -14 -6 -32 -17
-41 -25 -8 -8 -19 -13 -24 -10 -5 4 -9 0 -9 -7 0 -8 -15 -28 -33 -46 -34 -33
-74 -41 -95 -20 -16 16 -15 51 1 67 10 10 9 11 -5 6 -13 -5 -15 -2 -11 15 4
15 0 26 -11 32 -16 9 -15 11 5 29 18 16 19 19 5 19 -13 0 -16 8 -13 43 1 23 6
48 10 55 5 7 5 21 2 32 -4 13 -2 20 6 20 10 0 10 3 1 12 -7 7 -12 24 -12 40 0
20 -4 26 -15 22 -8 -4 -15 -1 -15 6 0 14 -66 80 -102 103 -24 16 -67 21 -150
18 -36 -1 -56 -8 -92 -36 -27 -20 -58 -35 -74 -35 -21 0 -24 -2 -12 -11 11 -7
5 -8 -22 -3 -43 7 -95 7 -123 0 -11 -2 -22 -5 -25 -5 -3 -1 2 -6 10 -11 13 -9
13 -11 0 -20 -22 -14 -30 -12 -24 5 4 9 0 15 -10 15 -9 0 -16 -7 -16 -15 0
-15 -11 -19 -39 -15 -9 1 -12 -4 -8 -14 5 -12 0 -16 -23 -16 -17 0 -30 5 -30
10 0 6 5 10 10 10 6 0 10 5 10 10 0 6 -7 10 -15 10 -8 0 -15 9 -15 20 0 11 -5
20 -12 20 -9 0 -9 3 0 12 15 15 16 48 2 48 -5 0 -10 -4 -10 -9 0 -14 -53 -6
-58 9 -3 9 3 11 22 8 14 -3 26 -1 26 3 0 5 -13 9 -29 9 -28 0 -57 21 -44 33 3
4 -1 9 -10 12 -12 5 -14 19 -11 72 2 36 7 70 11 76 11 19 11 47 -1 47 -20 0
-33 34 -29 77 1 24 -1 42 -5 41 -14 -5 -48 28 -64 62 -15 34 -19 113 -5 126 4
4 2 13 -4 21 -8 9 -8 17 0 26 6 8 8 16 6 19 -3 3 -1 16 4 29 9 24 36 41 116
74 22 9 47 19 55 24 18 9 50 3 50 -10 0 -5 9 -9 20 -9 11 0 37 -7 58 -16 43
-18 102 -26 102 -13 0 5 7 9 15 9 9 0 22 14 29 30 7 17 15 27 19 24 4 -4 9 1
13 10 10 26 78 54 147 61 54 5 66 3 96 -17 19 -13 43 -28 53 -34 10 -6 16 -13
14 -15 -9 -9 79 3 88 12 6 6 3 9 -7 9 -19 0 -24 35 -6 45 6 4 8 13 5 21 -3 7
9 22 30 34 18 12 34 26 34 31 0 5 15 9 34 9 18 0 52 7 75 15 22 8 76 16 118
19 44 2 93 12 111 21 18 9 39 14 47 11 8 -3 17 0 21 6 4 7 9 7 13 -1 10 -16
180 -44 194 -33 22 17 111 31 152 23 47 -10 95 -31 95 -43 0 -4 10 -8 22 -8
21 0 96 -44 110 -65 3 -5 16 -21 27 -34 11 -13 18 -28 15 -32 -3 -5 0 -9 6 -9
6 0 10 -8 8 -17 -7 -41 184 7 195 49 3 10 12 18 21 18 8 0 31 16 50 35 20 19
40 35 46 35 5 0 10 9 10 19 0 11 6 21 12 24 10 3 10 9 0 26 -7 11 -8 21 -3 21
4 0 6 11 3 25 -2 14 -8 22 -13 19 -10 -6 -12 7 -3 30 3 9 10 13 15 10 5 -3 9
0 9 6 0 18 26 39 74 60 25 10 46 24 46 30 0 6 11 28 25 49 13 22 27 51 31 64
5 22 27 42 37 34 2 -1 18 10 36 26 18 15 38 28 44 29 78 10 154 -5 179 -36 9
-11 14 -25 11 -30 -3 -5 -2 -6 4 -3 5 4 20 -5 31 -18 18 -20 19 -25 6 -25 -8
0 -13 -4 -10 -8 3 -5 19 -7 36 -4 18 2 30 0 30 -7 0 -6 -10 -12 -22 -12 -17
-1 -19 -2 -5 -6 19 -5 22 -14 7 -29 -7 -7 -7 -21 1 -42 8 -24 8 -36 -1 -46 -9
-12 -8 -13 8 -10 10 3 24 -2 31 -10 11 -13 11 -16 -3 -16 -9 0 -16 -4 -16 -10
0 -5 13 -7 30 -3 23 4 30 2 30 -11 0 -9 8 -16 18 -16 10 0 37 -9 60 -20 22
-11 46 -20 52 -20 5 0 10 -5 10 -11 0 -5 16 -17 35 -25 19 -8 36 -19 36 -24 1
-6 2 -14 3 -19 0 -5 4 -13 9 -17 12 -13 8 -24 -8 -18 -8 4 -15 2 -15 -4 0 -6
5 -12 11 -14 8 -3 6 -10 -5 -21 -10 -9 -15 -21 -12 -26 3 -5 0 -11 -8 -14 -24
-9 -16 -53 13 -69 14 -9 32 -13 39 -11 7 3 19 -1 27 -7 11 -9 15 -9 15 -1 0 6
13 11 29 11 21 0 35 8 49 28 22 31 38 74 25 70 -4 -2 -8 -1 -9 2 0 3 -6 15
-12 27 -9 15 -9 24 -1 28 6 4 8 13 5 21 -3 8 -2 14 3 14 5 0 14 14 21 31 8 19
24 35 42 41 15 6 28 14 28 19 0 5 6 9 13 9 6 0 25 16 41 36 25 32 32 35 62 29
36 -6 94 16 94 37 0 17 72 107 90 112 8 3 48 8 89 11 53 5 72 4 67 -4 -5 -7 2
-11 18 -11 14 0 28 -5 31 -10 4 -6 11 -7 17 -4 11 7 88 -25 88 -38 0 -4 7 -8
16 -8 8 0 12 -5 9 -10 -3 -6 5 -14 18 -19 13 -5 33 -21 44 -35 11 -14 23 -22
27 -19 3 3 6 -1 6 -9 0 -18 77 -42 86 -26 3 5 12 7 20 4 8 -3 14 -1 14 4 0 8
76 47 125 65 l20 7 -20 8 c-19 7 -18 8 5 14 21 6 26 13 26 44 0 23 -7 44 -18
55 -10 9 -18 12 -18 6 0 -19 -30 11 -30 30 0 9 -7 25 -15 35 -8 10 -12 23 -9
27 3 5 0 18 -6 29 -9 16 -8 22 5 26 9 4 14 13 11 21 -6 14 40 93 55 93 4 0 11
-4 14 -10 3 -5 11 -10 17 -10 7 0 6 6 -2 15 -9 11 -10 18 -1 29 9 10 8 15 -4
20 -23 9 -18 61 9 90 13 15 27 26 32 26 5 0 25 14 44 30 19 16 42 31 50 31 8
1 20 3 25 4 6 2 17 3 26 4 21 1 66 44 62 58 -3 7 29 11 98 12 92 2 104 0 125
-20 13 -12 21 -27 17 -32 -4 -6 0 -8 10 -4 11 4 17 1 17 -7 0 -8 16 -16 40
-20 22 -3 40 -11 40 -16 0 -5 7 -7 15 -4 8 4 15 1 15 -5 0 -6 7 -11 15 -11 8
0 15 -6 15 -12 0 -10 2 -10 9 0 6 10 10 9 14 -8 3 -13 21 -27 46 -37 22 -9 43
-24 46 -34 5 -14 13 -17 30 -13 17 4 26 0 35 -15 6 -12 7 -21 3 -21 -5 0 -8
-21 -7 -47 1 -70 2 -73 22 -73 16 -1 16 -1 0 -14 -16 -12 -14 -14 19 -24 25
-8 39 -8 43 -1 8 12 55 -31 55 -51 0 -8 -4 -21 -8 -27 -5 -9 -3 -13 7 -13 17
0 22 -16 6 -22 -14 -5 4 -29 26 -32 17 -3 38 -51 28 -67 -2 -4 0 -10 6 -14 15
-9 12 -25 -5 -25 -19 0 -19 -5 1 -35 10 -15 21 -22 31 -18 10 4 14 2 10 -4 -5
-7 0 -9 13 -6 12 3 20 2 18 -3 -2 -5 4 -19 12 -30 12 -18 24 -21 65 -19 57 3
105 19 105 36 0 7 9 9 23 6 12 -4 29 -1 37 4 12 8 10 10 -8 6 -22 -5 -23 -4
-8 12 9 10 16 24 16 33 0 8 14 34 31 58 31 42 31 42 82 37 39 -4 57 -2 72 10
17 14 18 15 2 9 -15 -5 -17 -2 -12 13 4 13 -1 24 -16 34 -28 20 -52 67 -40 81
5 7 1 36 -11 74 l-20 63 21 23 c16 17 21 35 21 74 0 42 3 52 16 52 20 0 43 28
44 51 0 9 7 20 16 23 8 3 12 10 9 16 -3 5 1 10 9 10 9 0 16 8 16 19 0 10 9 21
20 24 12 3 20 14 20 27 0 22 -28 80 -44 91 -5 4 -5 13 0 20 5 8 9 16 10 19 4
22 25 60 34 60 5 0 10 11 10 24 0 22 3 24 39 19 45 -6 55 9 47 72 -4 33 -3 36
15 32 12 -3 19 0 19 9 0 8 9 14 20 14 11 0 20 4 20 9 0 6 8 10 18 9 17 0 73
17 105 34 11 5 44 8 75 7 49 -2 61 -6 85 -32 23 -24 31 -27 38 -16 5 8 9 17 9
22 0 4 11 13 25 19 14 6 25 17 25 25 0 11 -189 13 -1110 13 -980 0 -1110 -2
-1110 -15 0 -8 -5 -15 -11 -15 -6 0 -9 7 -5 15 5 13 -674 15 -6069 15 l-6075
0 0 -6000z m15568 5102 c16 -11 -12 -72 -34 -72 -9 0 -14 -11 -14 -30 0 -23
-10 -37 -52 -68 l-51 -40 -24 28 c-12 15 -23 32 -23 37 0 15 33 48 54 57 39
14 105 61 109 79 6 19 15 21 35 9z m1506 -763 c20 -41 49 -65 76 -61 20 3 31
-6 59 -46 13 -19 32 -37 43 -41 19 -7 19 -7 0 -31 -23 -28 -57 -22 -49 9 3 14
-2 21 -18 25 -12 3 -35 24 -50 46 -15 22 -33 40 -40 40 -6 0 -20 9 -30 20 -14
15 -26 19 -47 15 -41 -9 -50 1 -33 36 12 21 23 29 43 29 22 0 31 -8 46 -41z
m466 18 c0 -28 -34 -46 -78 -41 -49 4 -55 -7 -12 -23 33 -12 41 -43 12 -43
-32 0 -74 -54 -76 -98 -2 -44 -20 -72 -43 -72 -12 0 -13 7 -8 27 3 15 10 30
14 33 13 8 23 80 12 80 -6 0 -14 -7 -19 -16 -6 -10 -14 -14 -22 -9 -7 4 -8 10
-3 14 28 20 43 94 22 116 -18 19 -8 23 59 23 37 0 78 5 92 11 35 14 50 13 50
-2z m1488 -278 c-21 -13 53 -39 76 -27 13 7 21 6 27 -3 8 -11 12 -10 24 5 8
11 18 16 22 12 4 -4 1 -11 -6 -15 -7 -5 -10 -14 -7 -20 4 -6 -3 -15 -17 -20
-29 -11 -37 -29 -37 -82 0 -27 -6 -45 -20 -57 -28 -24 -63 -31 -75 -15 -6 8
-28 15 -50 17 -37 3 -40 6 -37 30 4 34 -23 36 -32 2 -3 -13 -13 -26 -21 -30
-11 -4 -15 2 -15 25 0 22 5 32 20 36 31 8 15 20 -37 28 -86 12 -94 16 -91 39
2 13 11 22 26 24 12 2 22 9 22 17 0 12 6 16 63 34 23 8 27 7 27 -10 0 -10 -5
-19 -11 -19 -6 0 -8 -9 -3 -22 10 -33 12 -34 34 -10 12 12 27 22 34 22 15 0
40 -27 49 -51 7 -21 75 -35 91 -18 8 8 8 13 -1 16 -7 3 -13 9 -13 14 0 4 7 6
16 2 26 -10 11 20 -16 34 -17 8 -28 9 -37 1 -9 -8 -15 -4 -23 16 -5 14 -16 26
-24 26 -26 0 -29 21 -7 51 11 15 21 36 21 46 1 10 10 -7 20 -36 15 -42 17 -57
8 -62z m-714 -39 c43 -16 28 -45 -28 -54 -5 0 -11 -7 -14 -14 -2 -7 2 -13 9
-11 8 1 23 1 33 0 19 -1 19 -1 1 -15 -18 -13 -18 -15 -2 -39 19 -29 9 -42 -24
-32 -15 5 -25 1 -36 -14 -18 -26 -33 -19 -33 17 -1 30 -21 62 -39 62 -6 0 -11
7 -11 15 0 9 -7 18 -15 21 -24 9 -17 24 10 24 15 0 25 6 25 14 0 16 41 29 64
20 9 -3 16 -1 16 5 0 14 11 14 44 1z m-2740 -44 c-4 -10 4 -13 30 -11 23 2 42
-3 57 -16 18 -16 19 -19 5 -19 -9 0 -25 -6 -36 -12 -17 -11 -22 -10 -30 2 -9
12 -16 9 -42 -20 -18 -19 -36 -35 -40 -35 -5 0 -13 -7 -19 -15 -8 -11 -12 -12
-16 -2 -2 6 -16 12 -29 12 -21 0 -24 5 -24 34 0 31 3 34 35 40 19 4 39 15 45
26 5 10 20 21 32 23 13 2 26 5 30 6 4 0 5 -5 2 -13z m-7958 -181 c3 -8 13 -15
20 -15 8 0 17 -7 20 -15 4 -8 15 -15 25 -15 10 0 19 -4 19 -8 0 -5 11 -15 25
-22 14 -7 25 -19 25 -27 0 -7 5 -13 11 -13 7 0 22 -12 35 -27 19 -22 21 -29 9
-31 -8 -2 -15 -13 -14 -25 0 -12 3 -16 6 -9 6 16 31 15 49 -3 9 -8 11 -15 5
-15 -6 0 -11 -4 -11 -10 0 -5 7 -10 16 -10 8 0 12 -5 9 -11 -4 -6 -13 -8 -21
-5 -14 5 -9 -18 9 -41 6 -8 4 -18 -7 -28 -20 -21 -21 -36 -1 -29 10 4 15 0 15
-15 0 -14 5 -19 15 -15 27 11 16 -11 -14 -29 -17 -10 -33 -26 -36 -37 -4 -11
-11 -20 -16 -20 -5 0 -9 -4 -9 -10 0 -5 6 -10 13 -10 7 0 18 -13 24 -30 9 -23
18 -30 37 -30 14 0 25 -3 24 -7 -1 -5 4 -21 10 -36 21 -51 17 -59 -23 -43 -20
9 -41 13 -48 11 -34 -11 -112 -13 -124 -4 -7 6 -19 9 -27 6 -12 -5 -13 -1 -5
20 5 14 7 28 4 31 -3 3 -5 0 -5 -7 0 -8 -6 -11 -16 -7 -18 7 -57 -17 -46 -29
4 -4 0 -6 -8 -3 -10 4 -15 -1 -15 -17 0 -13 4 -21 9 -17 5 3 7 -2 3 -11 -3 -9
-1 -18 6 -21 8 -3 9 -7 1 -13 -6 -4 -13 -16 -17 -26 -4 -9 -14 -20 -23 -24
-32 -12 -84 -71 -78 -87 7 -18 -21 -23 -32 -5 -4 8 -9 7 -15 -2 -7 -11 -9 -9
-9 7 0 24 -22 74 -32 74 -5 0 -8 9 -8 20 0 11 -5 20 -10 20 -6 0 -10 6 -9 13
4 20 -12 87 -22 93 -5 3 -9 10 -9 15 0 6 4 8 8 5 9 -5 42 28 42 43 0 10 50 9
67 -2 13 -8 43 1 43 14 0 5 -9 9 -21 9 -11 0 -17 5 -14 10 3 6 15 10 26 10 21
0 24 16 8 57 l-10 28 -19 -25 c-10 -14 -22 -21 -27 -16 -4 5 -2 11 5 13 19 7
14 23 -8 23 -12 0 -26 13 -37 33 -17 32 -19 37 -21 70 -1 9 -8 17 -15 17 -8 0
-14 14 -14 38 -1 20 -3 46 -6 57 -2 11 1 27 8 35 8 8 15 29 17 45 5 36 38 105
50 105 5 0 24 10 43 23 43 29 132 37 141 12z m10224 -82 c0 -8 -7 -16 -15 -19
-11 -4 -13 -18 -10 -50 4 -51 -6 -55 -39 -17 -31 35 -60 26 -51 -16 5 -24 2
-30 -15 -36 -12 -4 -27 -1 -35 5 -12 10 -18 10 -30 0 -13 -11 -18 -11 -28 -1
-9 10 -7 16 11 28 13 9 22 26 22 40 0 16 7 27 20 30 11 3 20 9 20 14 0 5 8 9
18 9 22 0 72 40 72 58 0 8 11 4 30 -10 17 -12 30 -28 30 -35z m-2210 17 c0
-11 -12 -26 -29 -35 -16 -8 -32 -24 -36 -35 -3 -11 -14 -20 -24 -20 -25 0 -42
-22 -27 -35 6 -5 17 -10 24 -11 28 -2 33 -4 28 -13 -3 -5 -14 -7 -24 -4 -14 3
-18 -3 -20 -29 -2 -17 -8 -36 -15 -40 -19 -12 -42 -4 -39 14 1 9 -6 18 -18 21
-22 6 -37 -8 -20 -18 23 -14 8 -23 -22 -14 -56 17 -62 17 -94 -2 -17 -10 -33
-16 -36 -14 -3 3 -11 -1 -18 -10 -13 -16 -40 -21 -40 -7 0 10 51 32 61 26 5
-3 6 2 3 11 -4 8 -11 15 -18 14 -35 -4 -44 3 -48 37 -3 26 0 38 13 45 19 10
35 -4 24 -21 -3 -5 1 -10 9 -10 9 0 13 -6 10 -14 -3 -8 -1 -17 5 -21 6 -3 11
0 11 8 0 8 10 17 23 21 12 3 30 19 40 36 19 31 63 60 93 60 20 0 105 40 119
56 15 17 48 33 57 28 5 -3 8 -14 8 -24z m1480 -10 c0 -5 -7 -13 -15 -18 -22
-11 -8 -42 18 -42 16 0 18 -3 9 -12 -9 -9 -7 -14 6 -24 13 -10 14 -15 5 -25
-10 -10 -14 -9 -19 4 -3 9 -12 17 -20 17 -18 0 -18 -5 2 -35 20 -30 15 -99 -7
-103 -9 -2 -23 11 -34 33 -11 19 -23 35 -27 35 -3 0 -14 7 -23 16 -12 12 -13
19 -4 30 15 18 5 30 -30 37 -21 5 -30 13 -34 34 -8 45 3 48 38 9 32 -36 45
-44 45 -27 0 6 9 26 21 45 15 25 28 36 45 36 13 0 24 -4 24 -10z m-5583 -46
c8 -13 21 -24 28 -24 7 0 16 -8 20 -17 6 -16 8 -16 18 -2 7 9 29 18 50 22 30
5 42 2 58 -14 11 -11 30 -19 42 -19 84 7 121 -22 138 -111 9 -45 16 -60 32
-65 49 -16 100 -96 80 -127 -4 -7 -8 -25 -8 -42 0 -18 -5 -29 -13 -27 -6 1
-12 -2 -12 -8 0 -5 5 -10 11 -10 6 0 8 -9 4 -20 -4 -11 -2 -20 4 -20 6 0 11
-13 11 -30 0 -16 3 -30 8 -30 4 0 8 -11 8 -25 2 -19 -3 -25 -18 -25 -13 0 -18
-5 -15 -13 4 -10 -2 -13 -21 -9 -20 4 -24 2 -19 -12 4 -10 1 -16 -8 -16 -8 0
-12 6 -9 14 4 9 -7 15 -34 19 -36 6 -40 11 -70 75 -36 76 -99 143 -151 161
-19 6 -60 11 -92 11 -53 0 -77 -6 -134 -32 -15 -6 -30 -4 -50 6 -17 9 -39 13
-50 9 -17 -5 -18 -4 -6 11 12 14 10 16 -20 17 -58 2 -104 -3 -114 -11 -5 -4
-29 -10 -53 -12 -32 -3 -43 0 -46 12 -14 53 -15 70 -5 70 7 0 9 9 5 24 -3 14
-1 26 5 28 18 6 -11 56 -35 61 -11 3 -3 5 19 4 54 0 85 11 85 32 0 18 80 61
114 61 9 0 19 7 22 15 4 8 14 15 24 15 10 0 20 7 24 15 3 8 12 15 21 15 8 0
15 5 15 10 0 6 7 10 15 10 8 0 15 4 15 8 0 14 42 29 68 24 13 -3 30 -15 39
-28z m3175 -121 c19 -17 25 -39 8 -28 -5 3 -19 1 -31 -6 l-21 -11 20 -20 c32
-33 91 2 62 37 -20 25 16 45 81 45 58 0 64 -4 60 -38 -2 -10 4 -12 18 -7 14 4
21 2 21 -8 0 -7 10 -23 23 -35 21 -20 25 -20 43 -8 16 13 17 18 7 35 -11 17
-10 21 7 26 32 10 60 -4 60 -30 0 -13 2 -29 5 -37 3 -7 0 -20 -5 -28 -9 -13
-12 -12 -25 4 -19 25 -32 12 -16 -17 12 -22 79 -67 116 -78 12 -3 19 -13 18
-25 -1 -14 13 -29 53 -53 30 -18 52 -37 48 -42 -4 -6 -11 -6 -20 2 -8 6 -17 9
-21 6 -3 -4 -12 -2 -20 4 -10 9 -13 8 -13 -5 0 -25 -45 -69 -66 -64 -11 2 -20
13 -22 26 -2 13 -10 26 -18 29 -8 3 -14 11 -14 19 0 8 -5 14 -11 14 -6 0 -8
-9 -4 -20 6 -19 -7 -26 -37 -21 -4 0 -13 -9 -19 -22 -7 -12 -15 -24 -20 -27
-4 -3 -8 -23 -10 -45 -3 -37 -13 -54 -31 -55 -5 0 -8 7 -8 17 0 14 -2 15 -17
1 -23 -19 -42 -13 -53 18 -10 24 -40 34 -40 12 0 -6 -13 1 -30 17 -37 35 -41
71 -7 60 12 -4 36 -9 52 -12 17 -3 35 -11 41 -19 10 -12 12 -11 17 6 7 28 -45
70 -88 70 -18 0 -40 6 -48 14 -11 12 -27 13 -73 7 -64 -9 -87 -2 -105 30 -7
15 -7 29 0 51 16 46 14 48 -25 42 -27 -4 -35 -2 -32 8 3 8 16 12 35 10 18 -2
35 3 43 12 7 9 18 16 26 16 9 0 11 10 7 33 -3 23 0 37 11 46 9 7 16 19 16 25
0 12 19 36 29 36 2 0 13 -7 23 -17z m-4663 -23 c6 0 14 -7 17 -15 3 -8 14 -17
24 -20 12 -4 17 -14 15 -34 -3 -41 -14 -53 -41 -47 -16 4 -24 2 -24 -6 0 -7
-9 -2 -19 11 -12 16 -20 20 -25 12 -6 -9 -11 -9 -21 -1 -8 7 -22 9 -32 6 -23
-7 -40 4 -45 29 -2 14 -11 20 -30 20 -14 0 -30 3 -34 8 -4 4 3 7 15 7 12 0 35
7 50 15 16 8 31 12 34 9 3 -3 22 4 43 16 34 18 40 18 50 5 6 -8 16 -15 23 -15z
m7259 5 c7 -14 19 -28 27 -31 8 -4 15 -18 15 -35 0 -18 7 -32 19 -39 12 -6 17
-17 14 -28 -4 -16 -12 -18 -59 -14 -43 4 -55 1 -60 -12 -4 -9 -15 -21 -26 -27
-18 -10 -19 -8 -13 19 5 25 2 33 -14 42 -21 11 -30 60 -11 60 6 0 10 9 10 19
0 23 16 36 25 21 11 -17 20 -11 32 20 14 37 26 38 41 5z m-7462 -178 c6 -12 9
-16 7 -9 -1 6 6 12 16 12 14 0 17 -6 13 -30 -3 -18 0 -30 7 -30 6 0 11 -11 11
-25 0 -16 6 -25 16 -25 11 0 14 -6 9 -20 -5 -15 -3 -18 8 -14 21 8 28 -30 10
-55 -8 -12 -10 -21 -4 -21 5 0 9 -9 8 -20 -1 -11 -5 -20 -9 -20 -4 0 -8 -5 -8
-11 0 -5 5 -7 10 -4 6 4 11 -14 12 -47 0 -29 2 -59 2 -67 1 -18 31 -29 79 -30
36 -1 50 -15 25 -24 -9 -3 -10 -8 -2 -16 7 -8 22 -9 50 -2 21 5 33 9 27 10 -7
1 -13 6 -13 11 0 6 22 10 49 10 39 0 59 -7 100 -34 28 -19 61 -38 72 -41 29
-10 107 -82 134 -125 66 -105 135 -336 105 -355 -8 -5 -8 -10 1 -21 8 -10 8
-14 0 -14 -6 0 -11 -8 -11 -17 0 -15 2 -16 10 -3 13 21 21 8 26 -45 3 -26 5
-50 5 -53 3 -20 -2 -25 -11 -12 -8 12 -10 11 -10 -5 0 -12 -5 -26 -11 -32 -9
-9 -9 -19 1 -42 7 -17 9 -39 5 -48 -12 -28 -17 -103 -8 -103 5 0 8 -19 7 -42
-4 -58 -8 -73 -23 -92 -23 -28 17 -20 43 9 13 14 26 25 29 25 3 0 8 -32 12
-71 7 -73 -2 -219 -13 -219 -4 0 -14 19 -23 43 -9 23 -24 60 -33 82 l-16 40 6
-55 c8 -60 6 -128 -3 -143 -3 -5 0 -13 7 -17 11 -7 11 -14 0 -42 -7 -18 -22
-42 -32 -54 -10 -11 -18 -23 -18 -27 0 -4 -14 -26 -30 -49 -21 -29 -28 -48
-24 -62 4 -12 7 -27 7 -33 0 -7 6 -13 12 -13 6 0 17 -11 25 -24 8 -16 18 -22
28 -18 12 4 14 1 9 -12 -5 -12 -3 -16 5 -13 16 5 37 -21 38 -45 0 -20 15 -24
25 -8 3 6 15 10 26 10 11 0 18 4 15 9 -3 4 -16 6 -29 4 -14 -3 -29 2 -36 11
-12 14 -10 16 13 16 23 0 25 2 16 24 -5 13 -6 27 -3 30 4 3 6 29 4 56 -1 33 2
50 10 50 6 0 42 -19 78 -42 71 -45 356 -219 406 -248 17 -9 73 -44 125 -77 52
-33 122 -74 155 -92 32 -18 71 -40 85 -50 14 -10 52 -32 85 -51 33 -18 76 -42
95 -53 73 -43 137 -78 181 -100 42 -21 55 -47 23 -47 -8 0 -13 -3 -11 -8 4
-13 -12 -12 -47 3 -20 8 -46 15 -60 15 -28 0 -43 15 -24 23 7 3 3 6 -9 6 -13
1 -23 6 -23 12 0 5 -5 7 -10 4 -6 -4 -8 -11 -5 -16 10 -15 -7 -10 -19 5 -6 8
-23 18 -38 21 -20 5 -27 3 -30 -10 -3 -15 -6 -14 -28 5 -14 12 -25 27 -25 33
0 7 -6 13 -12 13 -7 1 -20 2 -29 3 -13 1 -14 4 -4 16 12 15 6 35 -11 35 -5 0
-9 -8 -9 -18 0 -14 -8 -18 -35 -18 -19 0 -35 4 -35 8 0 4 7 8 15 8 18 0 20 27
3 33 -7 2 -30 -7 -50 -20 -21 -13 -38 -19 -38 -13 0 5 5 10 10 10 6 0 10 9 10
20 0 11 -7 20 -15 20 -8 0 -12 6 -9 13 3 8 -2 20 -11 27 -15 12 -16 11 -13 -5
2 -15 -5 -21 -37 -26 -21 -4 -41 -12 -43 -18 -2 -6 -8 -9 -12 -6 -5 3 -7 12
-4 20 4 8 10 12 15 9 6 -3 16 0 25 6 10 10 11 16 3 26 -6 7 -8 17 -5 23 7 11
-14 20 -32 13 -9 -3 -8 -8 4 -17 12 -8 14 -14 6 -19 -7 -4 -12 -2 -12 4 0 6
-5 8 -10 5 -6 -3 -7 -17 -4 -31 4 -15 2 -24 -6 -24 -8 0 -11 13 -8 39 4 48
-15 60 -77 50 -28 -4 -32 -7 -15 -8 22 -2 20 -4 -15 -17 -22 -8 -44 -13 -51
-10 -6 2 -17 0 -25 -5 -10 -6 -4 -9 19 -9 21 0 32 -5 32 -14 0 -8 6 -17 13
-19 11 -5 -64 -11 -90 -8 -9 1 -13 -12 -13 -38 0 -35 -4 -42 -24 -47 -18 -4
-35 1 -58 20 -22 16 -41 23 -55 20 -12 -3 -29 -2 -38 4 -15 8 -10 13 29 32 26
12 53 19 61 16 8 -3 15 -1 15 4 0 6 6 10 14 10 9 0 12 -7 9 -19 -6 -25 14 -37
24 -14 13 29 10 116 -4 120 -7 3 -13 -3 -13 -11 0 -9 -7 -19 -15 -22 -8 -4
-15 -10 -15 -15 0 -5 7 -9 15 -9 30 0 14 -15 -18 -17 -26 -1 -28 0 -12 7 17 7
15 9 -12 9 -17 1 -34 5 -38 11 -8 13 -35 1 -35 -16 0 -8 -5 -14 -11 -14 -12 0
-2 37 15 56 9 9 19 8 49 -3 45 -18 70 -6 47 22 -12 15 -14 15 -22 1 -11 -20
-28 -21 -28 -2 0 8 8 17 18 21 15 6 14 8 -8 17 l-25 11 25 8 c24 8 24 8 -5 6
-26 -2 -30 2 -33 26 -3 23 -6 26 -18 16 -15 -12 -19 -39 -6 -39 4 0 13 -9 19
-19 13 -20 2 -24 -23 -8 -7 4 -14 0 -17 -7 -3 -8 -1 -17 6 -19 8 -3 5 -10 -8
-21 -12 -9 -15 -15 -7 -16 7 0 11 -4 8 -9 -8 -12 -88 -1 -103 15 -18 17 -16
35 2 28 10 -4 15 0 15 15 0 12 5 21 11 21 6 0 9 -9 6 -20 -3 -13 0 -20 9 -20
19 0 30 30 16 39 -14 8 12 51 31 51 15 0 38 35 30 44 -4 3 -11 6 -17 6 -6 0
-4 -5 4 -10 13 -8 13 -10 -2 -10 -10 0 -22 -9 -28 -21 -7 -11 -14 -18 -17 -15
-4 3 -12 1 -19 -5 -9 -8 -16 -4 -25 12 l-12 23 -8 -22 c-12 -31 -31 -28 -23 3
5 19 2 25 -10 25 -9 0 -16 -6 -17 -12 -1 -7 -2 -27 -4 -45 -2 -20 3 -34 11
-37 8 -3 14 -13 14 -22 0 -14 -3 -14 -15 -4 -21 18 -29 6 -14 -19 11 -17 10
-27 -11 -71 -14 -27 -33 -53 -43 -56 -12 -4 -17 -13 -14 -24 3 -12 -4 -22 -20
-29 -20 -9 -24 -17 -20 -39 3 -17 -2 -39 -15 -60 -19 -30 -20 -44 -14 -124 3
-49 2 -87 -3 -84 -4 3 -6 -6 -3 -21 5 -26 5 -26 -19 -9 -13 9 -24 26 -25 39
-1 12 -4 31 -9 42 -5 16 -5 17 4 5 7 -10 11 -11 11 -3 0 7 -13 19 -30 28 -16
9 -30 19 -30 23 0 4 -5 36 -11 71 -7 45 -7 67 1 75 5 5 10 20 10 33 0 13 6 26
14 29 8 3 13 19 12 42 -1 20 2 44 6 53 5 11 2 21 -7 29 -8 7 -15 18 -15 25 0
7 -6 18 -14 25 -8 6 -13 17 -10 24 2 6 -9 22 -26 34 -16 13 -30 28 -30 36 0 7
-12 18 -27 25 -19 9 -23 15 -14 20 8 5 -2 10 -28 14 -22 3 -48 12 -56 21 -9 9
-20 16 -25 16 -4 0 -10 10 -13 21 -4 15 -11 20 -22 15 -12 -4 -8 4 9 25 14 17
26 36 26 42 0 7 18 32 40 56 24 26 40 54 41 70 1 16 3 19 6 9 3 -13 11 -9 40
23 23 25 33 45 29 55 -4 11 -2 15 8 11 17 -7 31 22 17 36 -7 7 -12 5 -17 -6
-3 -9 -12 -17 -20 -17 -8 0 -14 -7 -14 -15 0 -8 -7 -15 -15 -15 -8 0 -19 -9
-25 -20 -6 -10 -16 -17 -23 -14 -7 2 -17 -6 -22 -18 -6 -13 -15 -23 -22 -23
-6 0 -15 -3 -19 -7 -4 -5 -18 -8 -30 -8 -13 0 -35 -11 -50 -25 -15 -14 -35
-25 -45 -25 -10 0 -21 -5 -24 -11 -4 -6 -13 -8 -20 -5 -7 2 -16 2 -20 -2 -23
-23 -295 -18 -302 5 -2 6 -15 8 -28 5 -15 -2 -25 0 -25 7 0 8 -13 9 -40 5 -26
-4 -40 -3 -40 4 0 7 -13 9 -35 5 -26 -4 -35 -2 -35 9 0 10 -9 13 -32 10 -27
-3 -35 1 -43 20 -7 16 -17 22 -34 20 -27 -3 -54 15 -44 31 4 7 0 8 -12 4 -9
-4 -24 -2 -31 4 -7 6 -17 8 -22 5 -6 -3 -15 1 -22 8 -6 8 -25 18 -41 21 -17 4
-33 13 -36 21 -3 8 -11 14 -19 14 -8 0 -14 7 -14 15 0 8 -6 15 -14 15 -8 0
-16 7 -20 15 -3 8 -11 15 -18 15 -14 1 -58 34 -58 45 0 4 -8 19 -19 33 -10 15
-22 38 -26 51 -4 14 -18 36 -31 50 -13 14 -33 55 -45 91 -11 36 -28 73 -36 82
-20 22 -35 175 -30 302 5 120 42 233 105 319 25 34 57 71 71 82 14 11 36 29
49 40 23 20 23 21 3 21 -11 0 -18 -2 -15 -5 7 -7 -38 -51 -48 -45 -4 3 -11 -2
-14 -10 -8 -20 -20 -20 -28 0 -3 8 -2 13 3 9 5 -3 16 1 24 9 8 8 17 13 19 10
3 -2 11 3 19 13 12 15 12 16 -4 10 -10 -4 -16 -3 -12 2 3 5 -5 17 -17 26 -20
13 -21 17 -8 25 12 8 10 10 -9 10 -20 0 -21 2 -11 15 7 8 16 15 21 15 5 0 18
9 28 19 19 19 19 20 -16 36 -19 10 -38 26 -40 36 -6 22 -19 25 -27 7 -3 -7 -3
0 1 15 4 21 -1 37 -17 59 -12 16 -19 32 -16 35 4 5 87 -50 126 -84 27 -23 104
-78 137 -98 18 -10 30 -22 27 -27 -10 -15 6 -8 61 28 60 40 93 43 53 3 -45
-43 -87 -115 -114 -195 -25 -76 -25 -80 -15 -203 6 -70 14 -140 20 -156 5 -17
15 -50 22 -75 25 -84 100 -205 154 -247 28 -22 63 -55 79 -72 17 -17 39 -31
50 -31 12 0 35 -8 51 -18 17 -10 59 -28 95 -40 36 -13 78 -30 94 -39 56 -31
353 -14 466 27 41 15 87 34 133 54 17 8 48 21 67 29 19 8 44 22 55 31 20 16
20 16 -5 12 -54 -8 -110 -27 -110 -37 0 -6 -4 -8 -8 -5 -4 3 -26 1 -47 -4 -28
-6 -42 -5 -47 3 -5 7 -8 8 -8 2 0 -7 -15 -9 -35 -7 -19 2 -33 9 -32 15 1 6
-13 16 -32 23 -19 6 -40 20 -48 30 -18 24 -14 123 6 133 23 13 9 46 -22 49
-20 3 -27 9 -27 26 0 13 -20 43 -49 73 -28 29 -45 53 -39 55 24 8 -5 28 -40
28 -33 1 -39 5 -58 43 -11 23 -36 52 -55 64 -19 13 -39 27 -46 33 -7 5 -17 10
-23 10 -5 0 -10 7 -10 15 0 22 -66 31 -86 11 -24 -24 -39 -15 -42 27 -2 24 -8
37 -18 37 -8 0 -14 8 -15 18 0 15 -1 15 -8 -2 -7 -18 -8 -18 -14 -2 -4 10 -7
35 -7 56 0 21 -5 42 -10 45 -8 5 -8 11 0 20 18 21 2 40 -51 60 -54 21 -63 48
-18 53 30 4 92 52 66 52 -49 0 25 54 90 66 21 4 32 9 26 11 -7 3 -13 9 -13 15
0 7 16 9 43 5 40 -6 47 -3 76 27 20 21 46 36 69 40 92 15 107 19 114 29 13 20
-1 25 -49 16 -49 -9 -83 3 -44 16 17 5 20 12 15 28 -4 12 -10 24 -14 27 -4 3
-10 15 -14 28 -7 21 -1 26 29 23 6 0 11 11 12 26 0 15 6 29 12 31 6 2 8 9 4
15 -4 7 1 6 10 -2 10 -8 20 -11 24 -7 3 3 2 6 -4 6 -7 0 -7 15 -2 43 10 54 2
104 -19 109 -10 3 -20 6 -24 7 -4 2 -33 11 -65 21 -39 12 -62 25 -70 40 -11
22 -9 24 50 45 70 24 90 23 103 -8z m-2949 -254 c-4 -3 18 -19 49 -35 31 -16
63 -36 71 -44 8 -8 19 -14 25 -14 5 0 28 -13 51 -28 23 -16 94 -63 157 -105
63 -41 149 -106 190 -144 41 -38 95 -84 120 -103 25 -19 47 -37 50 -40 3 -3
21 -17 40 -31 58 -44 91 -79 85 -88 -10 -18 -68 -41 -87 -35 -21 6 -24 -6 -6
-24 9 -9 7 -12 -12 -13 -14 0 -19 -3 -12 -6 22 -9 -34 -32 -60 -25 l-23 6 25
7 25 7 -27 1 c-28 1 -40 21 -13 21 8 0 15 5 15 10 0 6 -16 10 -35 10 -19 0
-35 -4 -35 -9 0 -11 -31 -24 -38 -16 -3 3 3 14 13 25 22 25 14 38 -9 14 -21
-21 -34 -9 -18 16 6 11 8 22 3 25 -5 3 -11 0 -13 -6 -2 -6 -14 -8 -31 -4 -22
6 -27 13 -27 37 0 23 -4 28 -17 24 -27 -8 -51 10 -35 26 9 9 12 9 12 -5 0 -18
15 -23 24 -8 9 14 -21 45 -45 46 -12 0 -24 6 -26 13 -3 6 1 12 9 12 7 0 19 9
26 20 11 18 10 20 -8 20 -11 0 -20 -7 -20 -15 0 -8 -7 -15 -16 -15 -11 0 -14
6 -9 21 6 18 4 20 -14 14 -16 -5 -23 -1 -30 17 -5 13 -7 26 -5 30 2 3 -5 4
-16 1 -11 -3 -20 -1 -20 4 0 15 -63 48 -68 35 -4 -14 -32 -16 -32 -3 0 5 7 12
16 15 14 5 14 8 0 21 -8 8 -19 15 -25 15 -7 0 -9 10 -5 25 4 17 2 25 -7 25
-12 0 -12 2 -1 9 10 6 3 11 -24 15 -26 5 -33 10 -24 16 11 7 11 11 1 24 -8 9
-21 16 -30 16 -14 0 -14 2 -1 10 11 7 11 10 2 10 -7 0 -10 4 -7 10 3 6 -1 7
-9 4 -9 -3 -16 -1 -16 4 0 6 -11 23 -25 36 -20 20 -24 30 -16 44 8 16 5 22
-15 32 -18 10 -21 16 -12 22 16 10 24 10 15 1z m6763 -218 c18 -9 31 -11 35
-5 3 6 11 10 17 10 7 0 7 -4 0 -13 -16 -19 2 -40 26 -33 17 6 23 2 28 -18 5
-20 12 -26 35 -26 19 0 29 5 29 15 0 17 35 20 45 4 8 -12 -23 -49 -42 -49 -7
0 -13 -11 -13 -25 0 -16 -6 -25 -15 -25 -8 0 -15 7 -15 15 0 19 -7 19 -25 1
-15 -15 -2 -36 22 -36 18 0 73 -79 66 -96 -8 -20 -31 -17 -45 6 -7 11 -18 20
-25 20 -7 0 -13 4 -13 9 0 4 -14 26 -31 47 -27 35 -29 39 -12 45 13 6 14 8 3
9 -8 0 -22 15 -31 33 -14 28 -21 32 -57 32 -26 1 -42 -4 -42 -11 0 -7 -6 -15
-12 -17 -9 -4 -5 -12 10 -25 22 -17 23 -20 7 -35 -9 -9 -13 -21 -10 -27 3 -5
-2 -10 -13 -10 -15 0 -18 -5 -14 -25 5 -30 -10 -32 -59 -7 -36 18 -42 33 -43
112 -1 42 1 45 32 54 28 8 33 13 29 33 -3 14 0 22 6 20 6 -2 27 5 46 14 44 22
45 22 81 4z m-3035 -102 c32 -48 78 -108 130 -169 6 -7 87 -90 180 -185 94
-96 204 -212 245 -258 41 -46 96 -107 122 -135 53 -57 57 -66 28 -66 -11 0
-20 6 -20 14 0 8 -18 27 -40 44 -22 16 -37 32 -33 35 3 4 1 7 -5 7 -15 0 -62
44 -62 59 0 6 -5 11 -11 11 -5 0 -7 5 -4 10 3 6 -3 10 -14 10 -12 0 -21 7 -21
15 0 8 -7 15 -15 15 -8 0 -15 7 -15 16 0 11 -6 14 -21 9 -15 -5 -19 -4 -15 4
8 12 -20 45 -38 47 -6 1 -18 2 -26 3 -12 1 -11 5 4 16 11 8 15 15 8 15 -6 0
-23 11 -38 25 -15 14 -31 25 -35 25 -5 0 -15 12 -24 28 -8 15 -32 41 -54 57
-22 17 -45 42 -52 58 -6 15 -17 27 -23 27 -16 0 -56 45 -56 63 0 9 -10 23 -21
31 -12 8 -21 25 -21 40 0 15 -7 28 -17 31 -21 6 -54 62 -48 79 3 7 -3 19 -14
27 -16 11 -28 49 -15 49 2 0 20 -26 41 -57z m5209 -168 c8 -9 18 -16 21 -15 3
0 9 0 14 0 5 0 36 -26 68 -58 64 -63 93 -81 93 -57 0 8 5 15 11 15 6 0 9 9 6
20 -4 17 0 20 27 20 18 0 37 5 43 11 8 8 13 8 17 0 4 -6 2 -11 -4 -11 -6 0
-16 -13 -21 -30 -6 -16 -14 -30 -18 -30 -16 0 -71 -58 -71 -76 -1 -18 -1 -18
-16 1 -8 11 -20 20 -27 21 -33 3 -37 5 -37 18 0 8 6 17 13 19 7 3 4 6 -7 6
-15 1 -17 -4 -13 -27 7 -35 -6 -57 -28 -48 -13 5 -15 13 -10 33 5 23 4 25 -9
14 -18 -15 -57 5 -49 26 4 9 -4 13 -26 13 -18 0 -31 -5 -31 -12 0 -8 -7 -5
-15 6 -8 11 -14 31 -14 45 1 17 3 20 6 9 2 -10 9 -18 14 -18 11 0 2 39 -12 55
-13 14 -11 25 6 25 8 0 15 6 15 14 0 13 13 23 32 25 4 1 13 -6 22 -14z m-7405
-71 c14 -8 31 -14 36 -14 13 0 60 -36 99 -76 36 -37 67 -54 95 -54 11 0 26 -7
35 -15 8 -8 20 -15 27 -15 15 0 -4 -24 -41 -50 -27 -20 -28 -19 -53 3 -14 12
-53 45 -87 72 -35 28 -81 66 -104 86 -22 20 -51 44 -63 55 -13 10 -23 22 -23
26 0 10 45 0 79 -18z m4565 -105 c23 -18 26 -26 24 -82 -1 -39 4 -70 13 -85
13 -20 12 -24 -16 -48 -17 -14 -40 -30 -52 -35 -26 -10 -31 -29 -8 -29 8 0 15
-4 15 -10 0 -14 -7 -13 -37 7 -24 16 -26 16 -40 -3 -13 -17 -12 -19 13 -22 15
-2 33 -10 41 -18 8 -7 20 -17 28 -21 7 -5 14 -15 15 -23 8 -58 -18 -66 -70
-20 -37 31 -76 41 -67 16 4 -9 -1 -16 -10 -18 -15 -3 -15 -4 0 -20 22 -21 21
-28 0 -28 -10 0 -42 -9 -70 -20 -29 -11 -53 -15 -53 -10 0 6 9 10 20 10 11 0
20 5 20 11 0 7 -11 8 -30 4 -36 -8 -49 13 -32 49 11 25 0 46 -26 46 -7 0 -20
6 -28 14 -10 10 -30 13 -69 10 -31 -2 -55 0 -55 5 0 5 -10 13 -22 17 -19 6
-19 7 -4 16 20 11 11 29 -11 21 -13 -5 -15 -2 -11 15 4 13 2 22 -5 22 -8 0
-12 19 -12 50 0 33 4 50 13 50 19 0 14 20 -5 21 -17 1 -17 2 0 6 10 3 17 14
17 28 0 19 4 23 17 18 11 -4 14 -3 9 5 -5 8 0 12 14 12 12 0 29 4 38 9 18 9
82 -8 82 -21 0 -5 0 -14 0 -20 0 -9 3 -8 10 2 7 11 11 9 19 -13 6 -15 17 -27
26 -27 9 0 15 -9 15 -25 0 -16 6 -25 15 -25 8 0 15 5 15 10 0 6 15 10 34 10
44 0 82 31 109 89 34 74 64 87 111 50z m-5559 -39 c3 -11 17 -23 31 -26 13 -3
24 -13 24 -21 0 -11 6 -8 21 8 l21 24 -6 -24 c-6 -28 9 -51 32 -51 8 0 30 -11
48 -25 18 -14 35 -25 38 -25 2 0 19 -13 35 -28 17 -15 49 -39 71 -53 22 -13
40 -30 40 -37 0 -19 -67 -85 -79 -78 -5 4 -12 2 -16 -3 -3 -6 -12 -8 -20 -5
-9 4 -26 -11 -46 -40 -18 -25 -40 -45 -48 -45 -13 1 -12 2 2 6 11 3 17 14 17
31 0 18 3 23 8 14 6 -9 12 -5 21 14 11 25 11 26 -5 14 -14 -12 -18 -12 -29 3
-7 9 -23 17 -36 17 -22 0 -22 0 -3 -14 10 -8 15 -18 11 -22 -4 -4 -15 0 -24 9
-13 13 -14 19 -3 31 11 14 9 16 -10 16 -15 0 -20 5 -17 14 8 20 -3 27 -24 15
-23 -12 -24 -6 -5 14 13 12 12 16 -10 27 -13 8 -24 21 -24 31 0 10 -4 21 -10
24 -12 7 -14 36 -2 34 19 -3 33 2 28 10 -3 5 -16 7 -28 3 -16 -4 -19 -2 -13 8
5 8 1 18 -11 28 -18 13 -18 14 6 7 l25 -8 -25 21 c-21 18 -23 23 -10 32 13 8
13 10 -2 10 -21 0 -24 30 -6 48 17 17 26 15 33 -8z m9825 -66 c28 -72 4 -91
-96 -81 -43 4 -56 2 -61 -9 -3 -8 -12 -14 -20 -14 -8 0 -11 -4 -8 -10 10 -16
43 -11 48 8 3 13 6 11 17 -11 8 -16 19 -26 27 -23 8 4 18 -5 25 -22 9 -21 12
-23 15 -9 5 21 31 23 39 2 5 -11 10 -12 24 -2 30 18 34 2 9 -33 l-23 -31 -16
21 -16 22 -15 -21 c-13 -20 -17 -20 -58 -7 -25 7 -47 19 -49 26 -4 10 -6 9
-13 -1 -8 -11 -12 -10 -25 6 -13 18 -13 21 1 31 20 15 19 32 -2 36 -16 3 -16
4 0 20 9 9 17 25 17 35 0 25 19 43 47 43 34 0 72 21 66 36 -4 10 4 14 26 14
25 0 34 -6 41 -26z m-5237 -258 c9 -10 22 -27 28 -38 21 -40 183 -253 252
-333 38 -44 122 -136 186 -204 140 -149 146 -157 126 -164 -9 -4 -12 -1 -8 9
3 8 -1 14 -11 14 -9 0 -16 5 -16 11 0 11 -60 69 -72 69 -5 0 -8 6 -8 13 0 8
-11 19 -25 25 -14 6 -25 16 -25 20 0 15 -43 56 -75 72 -16 8 -32 24 -33 35 -2
11 -13 26 -23 33 -11 7 -17 18 -14 23 4 5 -1 9 -9 9 -9 0 -16 5 -16 10 0 6 -7
10 -16 10 -10 0 -14 6 -10 15 3 9 0 15 -9 15 -8 0 -17 11 -21 25 -3 14 -11 25
-16 25 -18 0 -57 52 -51 67 3 9 -2 16 -15 20 -18 4 -26 14 -35 43 -3 8 -31 42
-49 59 -10 8 -18 21 -18 28 0 7 -4 13 -10 13 -5 0 -10 7 -10 16 0 8 -4 13 -9
10 -10 -6 -46 64 -57 110 -7 29 -7 29 22 -7 16 -19 37 -43 47 -53z m3039 -11
c12 -14 27 -25 34 -25 6 0 14 -6 17 -14 8 -19 64 -25 87 -9 12 9 20 10 20 4 0
-6 -4 -11 -9 -11 -5 0 -12 -15 -15 -33 -6 -30 -44 -77 -63 -77 -15 0 -53 45
-53 62 0 11 -11 23 -25 28 -31 12 -43 39 -24 51 11 6 11 11 1 21 -6 6 -12 16
-12 20 0 16 21 8 42 -17z m-1319 -34 c9 -20 17 -54 17 -74 0 -20 5 -39 10 -42
14 -8 13 -36 -2 -67 -25 -52 -108 -12 -108 51 0 17 5 31 10 31 16 0 12 37 -5
44 -23 9 -18 38 13 67 36 36 44 35 65 -10z m103 -242 c1 -19 -4 -44 -12 -56
-8 -12 -14 -29 -14 -38 0 -8 -5 -24 -11 -34 -9 -13 -9 -26 -1 -50 9 -25 8 -31
-3 -31 -9 0 -12 -6 -9 -15 4 -9 0 -15 -10 -15 -9 0 -16 -4 -16 -10 0 -5 7 -10
15 -10 8 0 15 -4 15 -10 0 -5 -5 -10 -11 -10 -20 0 -38 -33 -39 -69 0 -20 -7
-39 -17 -46 -10 -7 -18 -21 -19 -32 -3 -55 -5 -63 -19 -63 -8 0 -15 9 -15 20
0 11 6 20 13 20 9 0 9 2 -1 9 -21 13 -1 123 54 309 46 155 56 174 89 167 6 -1
11 -17 11 -36z m-2866 19 c0 -7 15 -29 33 -48 17 -19 44 -51 58 -70 33 -44
300 -313 358 -360 23 -19 48 -40 54 -46 31 -28 266 -194 325 -229 9 -5 41 -26
72 -44 30 -19 61 -35 69 -35 15 -1 23 -44 9 -52 -4 -3 -8 2 -8 11 0 8 -8 18
-17 21 -37 12 -68 29 -77 43 -6 10 -10 11 -16 1 -5 -9 -16 -3 -37 19 -17 17
-38 31 -47 31 -9 0 -34 11 -56 25 -24 15 -46 22 -57 18 -10 -3 -15 -2 -10 2 9
10 -21 45 -38 45 -7 0 -18 7 -25 15 -7 9 -19 14 -26 11 -7 -3 -16 4 -19 15 -4
10 -13 19 -20 19 -8 0 -18 6 -22 13 -4 7 -23 19 -40 26 -22 9 -33 20 -33 33 0
15 -5 18 -20 13 -16 -5 -20 -2 -20 15 0 17 -4 20 -20 15 -14 -4 -20 -2 -20 9
0 9 -9 21 -20 28 -11 7 -20 18 -20 25 0 7 -12 13 -27 13 -20 0 -24 3 -16 11
16 16 5 39 -19 39 -13 0 -18 5 -15 14 6 16 -69 60 -85 49 -6 -3 -8 -1 -5 4 10
16 -13 74 -26 66 -7 -3 -9 -3 -5 2 5 5 -4 24 -18 43 -22 28 -24 36 -13 43 11
7 11 9 1 9 -7 0 -25 13 -41 29 -15 15 -34 31 -42 34 -10 4 -9 6 5 6 17 1 17 3
4 24 -21 33 -29 57 -18 57 6 0 10 -6 10 -12z m-4044 -117 c7 -3 33 -25 59 -49
27 -24 68 -57 92 -74 43 -31 53 -57 34 -87 -7 -11 -13 -10 -34 4 -15 9 -31 14
-36 10 -6 -3 -8 0 -5 8 3 9 -3 17 -16 20 -12 3 -19 10 -16 16 4 5 0 13 -7 18
-7 4 -28 27 -47 50 -18 24 -41 45 -50 48 -10 3 -20 17 -23 31 -4 21 -1 24 17
18 11 -4 26 -9 32 -13z m9349 -111 c-3 -5 -1 -10 4 -10 6 0 11 -7 11 -15 0
-22 17 -18 23 5 6 22 27 28 27 7 0 -7 -5 -18 -12 -25 -9 -9 -9 -12 -1 -12 7 0
15 5 18 10 14 23 30 8 30 -27 0 -37 1 -38 35 -35 19 1 41 0 50 -4 8 -3 26 -7
40 -8 29 -1 100 -52 100 -71 0 -17 -29 -47 -40 -40 -4 3 -11 -2 -14 -11 -6
-15 -8 -15 -24 0 -10 9 -26 16 -35 16 -9 0 -19 5 -22 10 -3 6 -16 10 -29 10
-28 0 -67 36 -60 55 4 8 1 15 -5 15 -6 0 -11 -8 -11 -19 0 -31 -42 -35 -65 -6
-16 19 -24 22 -33 13 -6 -6 -15 -8 -19 -4 -4 4 -1 11 7 17 13 8 13 11 -2 20
-21 12 -22 99 -1 99 7 0 13 5 13 10 0 6 5 10 11 10 5 0 7 -4 4 -10z m-2643
-372 c5 -16 14 -28 19 -28 5 0 9 -6 9 -13 0 -46 131 -159 298 -258 39 -24 72
-47 72 -51 0 -4 4 -8 10 -8 5 0 22 -10 36 -22 41 -36 209 -208 212 -218 2 -6
8 -10 14 -10 13 0 263 -249 256 -255 -3 -3 -24 13 -48 35 -23 22 -46 40 -51
40 -5 0 -9 4 -9 8 0 5 -11 15 -25 22 -14 7 -23 15 -21 18 3 2 -5 15 -17 28
-12 12 -28 30 -35 39 -7 8 -24 15 -37 15 -14 0 -26 7 -29 18 -4 9 -22 35 -41
57 -19 22 -35 44 -35 48 0 5 -9 6 -19 2 -15 -4 -20 0 -23 17 -2 17 -9 23 -26
22 -16 0 -19 3 -12 10 17 17 11 28 -10 21 -16 -5 -19 -3 -13 11 5 14 2 16 -15
12 -15 -4 -19 -2 -15 8 4 10 -5 14 -33 15 -33 1 -35 2 -14 8 15 4 20 10 13 14
-6 4 -22 3 -35 -2 -17 -6 -29 -5 -43 5 -10 8 -15 14 -11 14 4 0 4 5 0 11 -5 8
-8 8 -13 0 -5 -7 -25 6 -55 34 -27 25 -54 45 -60 45 -16 0 -74 57 -81 80 -3
11 -12 17 -20 14 -7 -3 -16 0 -21 7 -4 8 -3 10 4 5 19 -11 14 0 -23 58 -19 30
-35 59 -35 63 0 5 -8 20 -17 33 -10 14 -23 41 -30 60 -11 32 -11 33 4 15 8
-11 19 -32 25 -47z m3236 50 c18 -18 15 -43 -9 -64 -11 -10 -18 -26 -16 -35 3
-11 -2 -19 -14 -22 -12 -3 -19 2 -22 17 l-4 21 -8 -21 c-3 -12 -18 -28 -32
-35 -13 -7 -29 -21 -34 -31 -5 -10 -17 -18 -25 -18 -8 0 -34 -10 -57 -22 -31
-17 -42 -28 -39 -43 3 -20 3 -20 -13 -1 -10 14 -12 22 -4 27 7 4 8 16 4 29 -5
17 -13 21 -33 17 -26 -5 -61 18 -47 31 4 4 10 1 12 -5 5 -14 33 -18 33 -5 0
10 82 8 98 -2 8 -5 18 -4 25 3 6 6 19 11 28 11 21 0 69 62 69 89 0 12 5 21 10
21 6 0 10 9 10 19 0 29 45 42 68 19z m-519 -33 c13 -14 29 -25 36 -25 8 0 20
-7 28 -15 13 -12 17 -13 27 0 9 11 16 12 31 2 10 -6 19 -18 19 -26 0 -11 -3
-11 -14 -1 -20 16 -76 -25 -76 -55 0 -13 -7 -21 -17 -22 -10 -1 -27 -3 -37 -5
-10 -2 -21 3 -24 11 -3 8 0 11 6 7 6 -3 13 -2 17 4 3 5 -5 14 -18 19 -31 12
-44 31 -28 41 7 4 12 26 13 48 0 23 3 42 7 42 3 0 17 -12 30 -25z m-8624 -224
c19 -24 35 -47 35 -50 0 -3 17 -25 38 -49 38 -43 82 -72 111 -72 9 0 29 -7 45
-15 15 -8 32 -13 36 -10 5 3 12 1 15 -5 4 -6 14 -9 23 -6 10 2 31 7 47 11 29
6 29 6 10 -10 -19 -15 -19 -16 10 -10 17 3 53 7 80 10 31 3 56 12 66 22 8 10
30 26 48 36 l34 18 -17 -25 c-9 -14 -16 -32 -16 -39 0 -8 -9 -22 -19 -31 -10
-9 -17 -25 -15 -34 1 -9 6 -34 9 -54 5 -34 9 -38 35 -38 17 0 30 -3 30 -7 0
-5 12 -16 26 -26 22 -16 30 -17 55 -7 24 10 35 10 65 -5 26 -12 46 -15 77 -9
23 4 53 8 67 9 14 2 50 12 80 23 33 12 59 16 65 11 5 -5 10 -54 12 -110 2
-100 37 -339 54 -371 12 -23 11 -28 -6 -28 -9 0 -12 6 -9 15 7 17 -21 21 -31
5 -3 -5 -11 -8 -18 -6 -7 1 -9 1 -4 -1 4 -3 5 -8 2 -13 -3 -4 2 -13 10 -20 23
-19 18 -33 -10 -26 -18 5 -25 2 -25 -9 0 -8 8 -15 18 -16 10 0 12 -3 4 -6 -6
-2 -10 -9 -6 -14 3 -5 1 -9 -4 -9 -5 0 -21 -11 -37 -24 -21 -18 -27 -30 -23
-50 4 -20 0 -31 -16 -41 -12 -9 -15 -15 -7 -15 11 0 10 -5 -3 -19 -10 -11 -15
-24 -12 -30 4 -5 2 -12 -3 -16 -6 -3 -8 -13 -5 -23 5 -14 4 -15 -5 -2 -5 8
-13 12 -16 9 -8 -8 5 -39 16 -39 5 0 9 -4 9 -10 0 -5 -9 -10 -21 -10 -22 0
-22 1 -7 -97 1 -7 5 -13 10 -13 4 0 8 -4 8 -10 0 -14 -40 -12 -70 3 -103 55
-168 92 -185 107 -11 10 -36 25 -56 33 -33 13 -71 44 -189 152 -19 17 -69 69
-110 115 -41 46 -105 115 -142 154 -37 39 -68 76 -68 82 0 7 -6 14 -14 17 -13
5 -76 91 -76 105 0 11 -60 72 -71 72 -6 0 -25 -11 -43 -25 -29 -22 -136 -60
-136 -48 0 15 52 102 64 106 13 5 23 24 55 101 10 24 9 28 -3 23 -22 -9 -26 3
-12 32 8 14 17 49 21 76 4 28 9 58 12 68 3 12 0 18 -9 16 -7 -1 -22 -1 -33 0
-18 1 -17 4 8 24 28 22 34 53 13 68 -5 4 -10 20 -11 35 -2 16 -4 35 -6 43 -2
7 3 16 11 18 13 4 13 3 0 -6 -13 -9 -13 -11 3 -11 9 0 17 7 17 15 0 8 7 15 15
15 8 0 15 4 15 8 0 4 11 8 25 7 18 0 36 -13 60 -44z m1500 -113 c32 -17 82
-70 75 -78 -3 -2 -14 -3 -26 -2 -11 2 -28 -6 -38 -17 -17 -18 -31 -20 -135
-20 -64 0 -123 -2 -131 -5 -8 -3 -28 -8 -45 -10 -143 -19 -274 -53 -293 -76
-11 -13 -11 -13 -6 3 5 14 0 17 -27 17 -26 0 -30 -3 -19 -10 9 -6 10 -10 3
-10 -6 0 -15 5 -18 10 -3 6 -15 10 -25 10 -30 0 -70 22 -70 38 0 11 -9 13 -37
9 -21 -3 -30 -3 -20 -1 9 3 15 10 12 15 -4 5 2 9 11 9 10 0 15 3 12 6 -4 3 0
21 8 41 14 33 14 34 -6 28 -15 -5 -20 -2 -20 10 0 11 5 15 15 11 8 -3 15 0 15
7 0 8 23 13 67 15 38 2 72 8 78 13 7 8 104 10 300 7 237 -4 295 -8 320 -20z
m4040 -158 c38 -6 73 -14 78 -19 5 -5 -12 -13 -37 -20 -103 -26 -154 -52 -222
-114 -89 -81 -138 -157 -153 -239 -6 -34 -18 -84 -26 -109 -8 -26 -15 -62 -15
-81 0 -57 29 -149 59 -187 16 -20 40 -58 55 -86 31 -58 86 -129 122 -157 13
-11 24 -26 24 -34 0 -8 9 -14 20 -14 11 0 20 -4 20 -10 0 -5 15 -16 33 -24 44
-19 81 -55 96 -93 15 -36 8 -53 -20 -53 -10 0 -19 -4 -19 -10 0 -16 -28 -11
-38 6 -5 9 -15 14 -21 10 -6 -4 -9 -12 -5 -17 8 -13 -38 12 -48 26 -5 7 -8 7
-8 0 0 -5 -4 -4 -8 3 -7 10 -18 9 -55 -7 -26 -11 -47 -17 -47 -12 0 5 -10 6
-22 4 -14 -3 -32 4 -45 16 -12 12 -29 21 -38 21 -8 0 -15 7 -15 15 0 8 -4 15
-8 15 -5 0 -26 25 -47 55 -20 30 -40 55 -44 55 -3 0 -11 10 -17 23 -17 35 -49
92 -54 97 -11 11 -31 46 -41 73 -6 15 -15 27 -20 27 -6 0 -9 6 -7 13 1 6 -6
25 -17 40 -12 19 -20 51 -22 90 -1 34 -6 73 -9 87 -4 14 -7 54 -8 90 -3 137
104 399 192 467 76 59 87 62 232 62 74 1 166 -4 205 -9z m5290 -254 c42 -16
50 -24 53 -54 2 -22 7 -29 18 -25 8 3 14 -1 14 -10 0 -9 9 -19 20 -22 23 -7
26 -25 8 -43 -17 -17 -26 -15 -30 5 -2 13 -14 17 -47 18 -30 1 -49 7 -60 21
-9 10 -28 25 -42 33 -24 12 -55 58 -47 67 20 19 75 24 113 10z m-6584 -173
c23 -56 63 -262 54 -271 -2 -3 6 -19 18 -36 12 -17 20 -33 18 -35 -2 -1 12
-22 31 -45 53 -63 60 -80 43 -102 -25 -33 -10 -207 21 -245 11 -13 22 -41 25
-64 1 -5 7 -14 14 -20 6 -5 17 -30 24 -55 8 -25 16 -52 19 -60 8 -23 8 -69 0
-63 -16 9 -7 -26 9 -43 17 -17 17 -17 -7 -11 -24 6 -27 3 -43 -53 -10 -33 -23
-60 -29 -60 -5 0 -8 -7 -4 -15 6 -16 -2 -45 -13 -45 -4 0 -32 30 -62 68 -60
73 -128 199 -149 275 -7 26 -17 50 -21 53 -5 3 -9 18 -9 34 0 16 -4 31 -9 34
-4 3 -11 22 -15 43 -3 21 -10 63 -16 93 -10 56 -22 149 -24 185 -1 11 -5 25
-9 32 -4 7 -6 58 -5 113 3 95 2 103 -19 120 -28 22 -29 38 -5 56 15 12 15 15
2 24 -12 8 -10 10 11 10 16 0 29 7 33 18 16 44 39 73 52 68 8 -3 17 1 20 9 10
24 34 17 45 -12z m6802 -22 c-3 -12 5 -25 21 -39 21 -16 23 -21 11 -26 -8 -3
-15 -1 -15 4 0 6 -7 10 -16 10 -15 0 -15 -2 1 -26 9 -14 14 -28 11 -32 -10
-10 -50 -10 -68 -1 -11 6 -18 5 -21 -4 -4 -9 -8 -8 -16 3 -6 8 -11 12 -11 8 0
-4 -12 -3 -27 3 -21 8 -28 7 -35 -6 -15 -25 -24 -10 -20 32 5 48 31 63 99 55
26 -2 44 -1 40 4 -4 4 3 14 15 21 31 17 37 16 31 -6z m-8467 -77 c6 -24 1
-138 -12 -290 -3 -40 -1 -53 11 -58 20 -7 20 -46 0 -46 -10 0 -15 -10 -15 -30
0 -33 -24 -50 -42 -32 -14 14 -68 -12 -68 -33 0 -8 -6 -15 -14 -15 -18 0 -29
-27 -13 -34 7 -2 -2 -5 -20 -5 -19 -1 -36 -8 -42 -18 -10 -17 -10 -17 -11 0 0
21 -27 22 -69 1 -30 -15 -33 -15 -45 2 -13 17 -15 17 -40 -4 -15 -11 -34 -18
-42 -15 -9 3 -14 -1 -14 -13 0 -14 -3 -15 -12 -6 -10 10 -10 17 -1 31 9 15 9
23 -1 37 -8 10 -12 24 -9 31 3 7 -1 13 -8 13 -8 0 -3 9 11 20 22 17 23 19 7
25 -9 4 -24 2 -32 -5 -8 -7 -15 -8 -15 -4 0 13 49 84 58 84 4 0 23 14 42 30
19 16 40 30 46 30 7 0 15 7 18 16 3 8 11 12 17 8 7 -4 9 -3 6 3 -7 10 99 133
115 133 11 0 48 38 48 50 0 6 4 10 9 10 9 0 65 53 93 88 23 29 36 28 44 -4z
m-5185 -625 c16 -11 29 -27 29 -35 0 -8 9 -23 20 -34 26 -26 25 -40 -1 -40
-15 0 -19 -4 -15 -16 4 -11 2 -15 -8 -11 -13 5 -39 -14 -33 -24 1 -2 -4 3 -12
11 -10 11 -14 12 -18 3 -7 -19 -23 -16 -23 4 0 13 -3 14 -12 5 -9 -9 -16 -5
-30 18 -19 32 -24 70 -10 70 5 0 15 11 22 25 7 14 22 25 32 25 10 0 18 5 18
10 0 15 9 12 41 -11z m-291 -253 c0 -6 11 -32 24 -58 22 -47 23 -48 3 -48 -16
0 -18 -5 -13 -33 6 -31 3 -35 -34 -56 -39 -22 -40 -22 -65 -4 -26 19 -26 20
-10 133 8 56 15 70 36 70 10 0 19 4 19 9 0 13 40 1 40 -13z m2450 -380 c36
-13 89 -35 119 -50 54 -28 131 -99 131 -122 0 -7 8 -19 18 -26 20 -14 46 -59
88 -153 15 -33 43 -94 62 -135 29 -63 35 -87 35 -150 1 -43 -4 -85 -11 -97 -7
-12 -51 -44 -99 -70 -61 -34 -98 -62 -125 -96 -21 -27 -38 -52 -38 -57 0 -4
-13 -24 -29 -44 -32 -41 -41 -34 -41 34 0 22 -4 61 -9 87 -5 26 -15 77 -21
113 -14 78 -46 165 -74 202 -12 15 -34 46 -51 69 -44 60 -132 150 -190 191
-85 61 -171 95 -284 112 -57 9 -153 31 -215 49 -99 29 -106 32 -71 35 22 2 82
-3 134 -11 84 -12 105 -12 195 4 80 14 117 26 175 58 41 23 80 46 88 52 39 33
131 35 213 5z m-6115 -56 c14 -5 38 -21 53 -35 15 -14 30 -25 33 -25 9 0 44
-33 62 -60 24 -35 21 -65 -8 -84 -25 -16 -96 -22 -109 -8 -4 4 -11 7 -14 7 -4
1 -25 12 -47 26 -101 65 -136 77 -208 72 -46 -4 -67 -2 -67 6 0 6 5 11 11 11
5 0 7 5 4 10 -3 6 2 10 12 10 10 0 26 9 36 20 9 11 26 20 38 20 11 0 29 5 40
11 19 10 87 26 121 28 9 1 28 -3 43 -9z m3671 -23 c16 5 65 -117 64 -162 -1
-28 -45 -58 -76 -51 -21 6 -36 28 -16 25 28 -5 35 2 19 19 -10 10 -17 24 -17
30 0 7 -7 12 -15 12 -9 0 -12 6 -8 18 5 14 3 15 -8 5 -23 -23 -68 -16 -81 12
-9 21 -7 30 13 60 15 22 32 35 46 35 12 0 25 5 28 11 5 7 12 6 23 -4 10 -8 22
-13 28 -10z m6244 -131 c52 -69 80 -137 80 -196 0 -67 -14 -97 -65 -146 -95
-89 -169 -59 -215 86 -7 25 -17 50 -21 55 -4 6 -3 48 1 94 7 60 15 92 32 117
29 42 47 50 104 46 41 -4 48 -9 84 -56z m7510 -48 c33 -24 38 -45 15 -54 -8
-4 -15 -14 -15 -23 0 -26 -58 -141 -74 -147 -21 -8 -29 -39 -17 -63 8 -14 6
-26 -12 -51 -38 -56 -157 -79 -157 -31 0 17 -6 19 -40 15 -34 -4 -40 -2 -40
13 0 13 9 19 33 20 21 2 39 11 54 29 21 27 22 27 47 10 25 -16 27 -16 33 0 4
10 15 26 25 36 19 19 25 68 8 68 -15 0 -12 33 6 58 12 17 19 20 29 12 15 -13
20 -7 29 37 4 17 14 34 22 37 9 3 12 11 9 16 -7 12 0 40 10 40 3 0 19 -10 35
-22z m-2105 -288 c28 -14 52 -26 55 -28 10 -7 -27 -22 -55 -22 -44 0 -62 -14
-46 -34 8 -9 11 -16 8 -16 -3 0 -13 -3 -23 -7 -12 -4 -15 -3 -10 5 4 7 2 12
-4 12 -6 0 -8 5 -5 11 4 6 -2 5 -14 -2 -14 -10 -17 -15 -8 -21 8 -5 6 -8 -6
-8 -10 0 -29 -11 -42 -24 -13 -13 -26 -22 -29 -19 -3 3 -12 -2 -21 -10 -14
-15 -13 -16 14 -12 23 2 28 0 24 -11 -3 -8 -11 -14 -19 -14 -8 0 -14 -4 -14
-10 0 -5 -7 -10 -15 -10 -8 0 -15 -7 -15 -15 0 -8 -8 -15 -17 -15 -26 -1 -56
-27 -48 -40 5 -8 2 -10 -11 -6 -11 3 -26 1 -34 -4 -13 -9 -13 -10 0 -10 12 0
13 -2 1 -9 -7 -5 -22 -6 -32 -4 -10 3 -19 1 -19 -5 0 -6 -8 -13 -19 -17 -10
-3 -29 -14 -41 -25 -17 -15 -38 -20 -81 -20 -31 0 -65 -3 -75 -7 -12 -4 -15
-3 -10 5 6 9 -7 11 -51 7 l-58 -5 55 16 c30 9 73 24 95 34 22 9 62 25 88 35
42 15 180 111 257 178 14 12 36 29 50 38 36 23 99 90 106 113 3 10 9 15 13 10
3 -5 29 -21 56 -34z m1570 -46 c14 -9 22 -20 19 -25 -10 -17 20 -9 42 12 19
18 23 19 37 5 9 -9 22 -16 30 -16 23 0 77 -30 77 -43 0 -7 -21 -21 -46 -31
-43 -18 -48 -18 -80 -3 -25 12 -32 21 -27 34 5 15 3 16 -8 6 -7 -7 -28 -13
-46 -13 -32 0 -33 1 -33 45 0 25 2 45 5 45 3 0 17 -7 30 -16z m-15815 -721
c-1 -25 -14 -53 -25 -53 -9 0 -11 -9 -6 -33 13 -54 32 -74 110 -113 42 -21 82
-44 89 -51 7 -7 22 -13 33 -13 10 0 19 -4 19 -9 0 -5 10 -12 23 -15 40 -11 71
-41 62 -62 -5 -11 -9 -22 -9 -26 -2 -14 -15 -20 -28 -12 -7 5 -31 10 -53 11
-115 9 -148 12 -237 24 -91 12 -98 14 -98 35 0 12 -6 24 -14 27 -11 5 -31 59
-28 78 1 6 -78 32 -103 34 -5 1 -23 6 -38 13 -16 7 -37 12 -48 12 -19 0 -69
44 -69 61 0 11 78 32 90 24 6 -3 10 -3 10 2 0 4 21 9 46 10 25 1 51 6 57 11 7
5 37 13 67 16 31 4 67 13 80 20 27 15 70 20 70 9z m15220 -672 c-14 -27 6 -37
22 -11 18 28 32 25 53 -13 l17 -33 -47 -47 c-52 -52 -60 -55 -87 -30 -17 15
-21 15 -29 3 -5 -8 -8 -24 -6 -35 2 -16 -6 -21 -43 -27 -94 -14 -137 -10 -169
17 -16 14 -33 34 -36 45 -9 29 20 77 52 85 15 3 31 11 34 17 11 17 39 1 39
-23 0 -19 4 -21 31 -15 32 6 58 30 59 54 0 7 8 12 18 11 9 -1 28 3 42 9 14 6
33 11 43 11 14 1 16 -3 7 -18z m1434 -1892 c10 15 26 14 26 -2 0 -15 -37 -50
-63 -60 -9 -3 -17 -15 -17 -25 0 -18 -53 -42 -93 -42 -8 0 -18 -6 -20 -12 -4
-10 -8 -10 -15 1 -8 11 -11 10 -20 -4 -5 -10 -14 -15 -21 -11 -17 11 -13 44 7
55 9 6 13 11 7 11 -13 0 -13 60 -1 79 8 12 11 10 18 -8 4 -12 12 -19 18 -16 5
3 10 -3 10 -14 0 -14 5 -19 15 -15 8 4 15 1 15 -5 0 -6 5 -11 10 -11 7 0 8 6
1 17 -13 24 13 73 39 73 19 0 22 -4 24 -42 1 -10 6 -17 11 -15 6 1 9 13 7 26
-2 13 0 31 3 40 5 13 9 12 19 -8 9 -15 16 -20 20 -12z m-1880 -4 c-6 -13 6
-15 80 -12 92 4 150 -13 179 -52 19 -27 77 -63 91 -58 27 10 56 -35 56 -87 0
-25 7 -40 24 -54 27 -21 26 -62 -1 -62 -8 0 -11 5 -8 10 4 6 -8 10 -29 10 -20
0 -36 5 -36 10 0 6 -7 10 -16 10 -10 0 -14 -6 -11 -15 4 -8 2 -17 -4 -20 -14
-9 1 -27 17 -21 7 3 20 -1 27 -9 8 -7 20 -13 28 -12 8 1 15 -2 16 -7 4 -26 65
-24 97 3 7 6 16 8 19 5 3 -4 5 6 4 21 -2 22 3 28 23 30 14 2 36 8 50 13 24 9
23 10 -18 21 -29 8 -46 20 -54 37 -6 13 -18 24 -26 24 -11 0 -13 8 -8 30 5 26
3 30 -17 30 -13 0 -32 6 -42 14 -18 13 -14 14 30 9 28 -2 61 -8 75 -13 58 -20
90 -22 96 -6 5 13 16 15 58 10 37 -4 68 0 115 15 82 27 86 27 101 -9 7 -16 19
-30 26 -30 18 0 18 5 -2 35 -9 13 -13 29 -9 35 3 5 -2 10 -12 11 -15 0 -14 2
5 11 12 6 22 17 22 25 0 7 4 13 9 13 5 0 13 9 16 20 5 15 12 19 25 15 11 -3
28 -1 40 5 23 12 27 -1 7 -22 -8 -7 -17 -29 -21 -49 -3 -19 -15 -53 -26 -74
-11 -22 -17 -48 -14 -60 4 -14 3 -16 -4 -6 -7 10 -16 5 -37 -23 -15 -20 -34
-36 -41 -36 -8 0 -14 -6 -14 -14 0 -18 -32 -76 -42 -76 -14 0 -8 -31 7 -36 8
-4 15 -10 15 -16 0 -5 -4 -7 -9 -3 -5 3 -16 -2 -24 -10 -9 -8 -21 -15 -27 -15
-6 0 -13 -7 -16 -15 -7 -17 -44 -21 -44 -5 0 25 -37 7 -55 -27 -32 -64 -56
-93 -73 -93 -19 -1 -72 -44 -72 -59 0 -6 -22 3 -49 20 -36 22 -48 35 -45 47 5
15 4 15 -9 0 -17 -22 -37 -23 -37 -3 0 8 -8 15 -19 15 -10 0 -24 6 -30 14 -13
15 -54 18 -45 4 3 -5 -2 -11 -10 -14 -21 -8 -20 -23 1 -46 25 -28 2 -47 -25
-20 -10 10 -31 22 -45 26 -24 6 -26 10 -24 61 1 30 8 60 15 67 6 6 12 20 12
29 0 10 5 21 10 24 42 26 -45 57 -207 74 -7 0 -13 7 -13 15 0 7 -25 26 -56 42
-53 27 -104 77 -104 102 0 17 -20 15 -26 -3 -3 -8 2 -22 12 -32 17 -17 17 -18
-7 -22 -13 -1 -44 -18 -69 -36 l-45 -33 -23 34 c-12 18 -22 38 -22 42 0 5 -9
17 -20 27 -42 38 -10 59 83 54 33 -2 44 -6 40 -16 -4 -9 0 -11 11 -7 9 3 15
13 14 21 -2 9 16 22 52 37 55 22 55 22 58 69 3 45 4 46 33 40 18 -3 29 -1 29
6 0 6 4 11 10 11 5 0 7 -7 4 -15z m-14290 -243 c3 -10 15 -46 25 -82 17 -56
18 -67 6 -79 -8 -8 -22 -16 -32 -17 -10 -1 -33 -7 -50 -12 -18 -6 -33 -7 -33
-2 0 4 -13 13 -29 18 -28 10 -49 56 -30 68 5 3 9 13 9 22 0 10 9 23 20 30 12
7 18 17 15 21 -9 15 6 42 28 50 29 11 64 2 71 -17z m872 -43 c8 -17 11 -28 5
-25 -6 4 -11 3 -11 -2 0 -12 90 -68 123 -76 15 -3 27 -10 27 -15 0 -4 18 -16
39 -26 33 -14 40 -22 38 -44 -2 -25 -3 -26 -75 -26 -53 0 -72 4 -72 13 0 7 -5
10 -10 7 -6 -4 -7 -11 -4 -17 4 -7 2 -8 -4 -4 -7 4 -12 14 -12 21 0 9 -6 12
-15 9 -11 -5 -13 -2 -9 10 3 9 1 16 -5 16 -10 0 -43 24 -80 60 -9 8 -25 14
-36 12 -25 -3 -67 34 -63 56 4 21 54 34 68 17 6 -7 21 -15 33 -18 22 -6 22 -6
2 9 -20 15 -20 15 4 35 31 26 38 24 57 -12z m14839 -109 c-5 -15 -2 -20 10
-20 9 0 19 9 22 20 6 23 22 27 24 5 2 -24 4 -29 12 -42 4 -7 2 -22 -5 -34 -10
-17 -10 -23 0 -26 17 -7 15 -16 -9 -42 -17 -18 -23 -20 -30 -9 -7 10 -9 9 -9
-4 0 -10 -7 -18 -15 -18 -17 0 -20 16 -5 25 6 3 10 13 10 22 0 15 -2 15 -18 0
-15 -13 -25 -15 -55 -6 -34 9 -37 13 -37 44 0 39 4 42 26 20 8 -8 21 -12 29
-9 11 4 15 -1 15 -17 0 -18 3 -20 12 -11 7 7 22 12 34 12 13 0 24 8 27 20 5
19 2 20 -29 14 -33 -6 -34 -6 -34 28 0 35 6 48 22 48 5 0 6 -9 3 -20z m370
-414 c0 -13 47 -82 58 -84 15 -3 21 2 55 47 15 19 22 22 37 14 12 -7 14 -13 6
-17 -17 -11 -13 -24 9 -31 39 -12 18 -65 -26 -65 -23 0 -39 -24 -28 -42 4 -6
0 -14 -7 -19 -17 -11 -39 -12 -38 -1 1 4 0 12 -1 17 -1 6 -3 21 -3 35 -2 20
-7 24 -25 22 -31 -5 -64 35 -58 70 4 22 0 28 -24 37 -44 15 -38 33 8 25 20 -4
37 -7 37 -8z m-75 -46 c-8 -15 -8 -18 3 -14 11 4 13 -1 10 -20 -6 -29 16 -56
45 -56 11 0 25 -7 32 -15 11 -13 10 -18 -8 -31 -12 -8 -22 -24 -22 -35 0 -10
-4 -19 -10 -19 -5 0 -10 9 -10 19 0 11 -5 23 -11 26 -12 8 -76 -20 -105 -47
-19 -16 -25 -18 -42 -7 -16 10 -18 16 -9 31 14 21 33 24 40 6 3 -7 4 6 3 29
-1 27 3 44 12 48 16 6 45 72 37 85 -5 7 10 15 38 19 4 0 3 -8 -3 -19z"/>
<path d="M18623 11981 c-13 -11 -23 -24 -23 -29 0 -17 30 -35 68 -41 28 -5 37
-11 37 -26 0 -11 -5 -20 -12 -20 -7 0 -18 -6 -24 -12 -7 -7 -19 -13 -26 -13
-7 0 -17 -18 -23 -40 -6 -22 -15 -40 -20 -40 -6 0 -10 -7 -10 -15 0 -14 -3
-14 -25 1 -34 22 -65 10 -65 -26 0 -15 -7 -30 -15 -34 -17 -6 -20 -37 -5 -52
6 -6 3 -10 -9 -11 -29 -2 -45 21 -31 46 9 18 8 21 -10 21 -16 0 -20 -6 -20
-30 0 -16 -4 -30 -9 -30 -6 0 -18 14 -28 30 -21 36 -26 37 -53 8 -22 -24 -26
-38 -10 -38 6 0 19 -14 29 -31 10 -17 28 -37 40 -45 19 -14 21 -13 21 0 0 9
-7 16 -16 16 -9 0 -14 6 -11 13 4 13 23 14 79 3 35 -6 38 -5 54 30 10 21 20
32 22 26 6 -20 20 -13 34 16 10 21 21 28 51 30 20 2 37 9 37 15 0 18 60 43 69
28 5 -8 16 -8 38 0 26 8 36 7 57 -6 14 -10 26 -22 26 -27 0 -5 9 -6 21 -3 12
4 27 1 37 -8 9 -8 28 -13 42 -12 14 2 28 4 33 4 4 1 7 10 7 22 0 15 5 19 18
15 18 -6 62 25 62 43 0 7 7 23 16 36 9 14 13 25 8 25 -4 0 1 6 11 14 11 8 18
26 18 44 0 25 6 33 27 40 16 6 33 6 43 0 15 -8 17 -3 17 30 l0 40 -45 4 c-43
3 -47 1 -68 -32 -30 -49 -31 -50 -14 -50 16 0 32 -29 22 -39 -3 -3 -15 0 -25
7 -25 15 -25 15 -44 -4 -15 -14 -17 -14 -22 0 -3 9 -14 16 -24 16 -29 0 -64
34 -57 55 5 12 14 15 32 11 27 -7 65 11 65 31 0 10 -43 13 -187 13 -169 -1
-190 -3 -210 -19z"/>
<path d="M14775 11760 c3 -6 -1 -13 -9 -16 -20 -8 -21 -24 -1 -24 8 0 15 -4
15 -10 0 -15 -16 -12 -30 5 -7 8 -16 12 -21 9 -5 -3 -9 0 -9 5 0 6 -13 11 -30
11 -20 0 -30 -5 -30 -15 0 -18 -39 -35 -80 -35 -16 0 -41 -5 -56 -10 l-28 -11
25 -22 c13 -13 35 -23 49 -24 63 -5 71 -11 64 -48 -6 -33 -4 -36 25 -46 32
-11 42 -29 16 -29 -8 0 -15 -3 -15 -8 0 -4 36 -15 79 -25 50 -11 81 -23 85
-33 13 -35 125 -5 176 46 14 14 28 19 42 14 13 -4 18 -2 14 4 -3 6 -2 13 4 17
6 4 7 12 3 18 -4 7 -8 25 -9 40 -1 15 -10 37 -20 48 -11 12 -18 24 -16 28 1 3
-12 28 -29 54 -36 56 -72 75 -95 52 -19 -19 -25 -19 -50 0 -22 16 -79 21 -69
5z"/>
<path d="M19166 11725 c-8 -31 -32 -33 -40 -3 -4 17 -8 20 -17 11 -6 -6 -17
-9 -25 -6 -7 2 -19 -5 -26 -16 -7 -12 -20 -21 -30 -21 -9 0 -19 -3 -21 -7 -8
-14 12 -53 27 -53 7 0 17 -7 20 -16 5 -13 0 -16 -29 -12 -29 3 -35 1 -35 -14
0 -10 7 -18 15 -18 8 0 15 -4 15 -10 0 -5 9 -10 20 -10 11 0 20 5 20 10 0 16
27 12 34 -5 11 -29 23 -14 22 28 -1 40 1 43 42 62 40 18 42 22 42 62 0 49 -23
61 -34 18z"/>
<path d="M16118 11146 c-40 -17 -87 -87 -80 -118 4 -22 31 -23 58 -3 10 8 27
15 37 15 9 0 17 5 17 10 0 6 8 10 17 10 24 0 53 29 46 48 -9 22 -36 47 -53 49
-8 0 -27 -4 -42 -11z"/>
<path d="M19118 11013 c-13 -3 -18 -15 -18 -43 0 -41 -22 -59 -46 -39 -7 6
-18 8 -24 4 -6 -4 -19 0 -29 9 -16 15 -19 15 -39 -2 -19 -17 -20 -20 -6 -40
19 -27 71 -55 104 -56 18 -1 30 -10 42 -36 19 -37 34 -39 30 -3 -5 32 17 38
28 8 11 -30 34 -24 24 7 -4 13 -1 24 7 29 12 8 11 11 -1 19 -12 7 -12 12 -2
22 16 16 16 78 -1 78 -7 0 -23 -9 -35 -20 -25 -24 -42 -26 -42 -6 0 8 14 23
30 33 49 29 36 51 -22 36z"/>
<path d="M9969 10004 c-9 -11 -7 -15 6 -20 11 -5 15 -14 11 -28 -4 -16 2 -25
25 -39 17 -9 39 -17 50 -17 10 0 19 -4 19 -10 0 -5 7 -10 16 -10 12 0 15 -7
12 -25 -5 -26 6 -35 15 -11 6 14 47 29 47 17 0 -4 13 -8 30 -8 16 0 39 -8 49
-17 19 -18 20 -17 27 8 3 14 12 26 19 26 7 0 18 7 25 15 10 12 10 18 -1 32
-12 14 -12 16 1 9 8 -5 4 3 -10 17 -14 14 -41 28 -60 32 -26 4 -31 3 -20 -4
12 -9 11 -11 -6 -11 -12 0 -25 -7 -28 -16 -5 -13 -9 -14 -20 -5 -8 7 -25 9
-40 5 -16 -4 -26 -2 -26 5 0 6 6 12 13 12 6 1 -1 5 -18 8 -16 4 -36 3 -42 -2
-13 -9 -15 -6 -17 23 -1 20 -62 31 -77 14z"/>
<path d="M2535 2411 c-6 -5 -26 -14 -45 -19 -23 -6 -35 -14 -34 -25 1 -10 -2
-17 -7 -17 -5 0 -9 -11 -9 -25 0 -14 5 -25 11 -25 6 0 9 -6 6 -14 -4 -10 8
-15 46 -19 29 -3 56 -1 61 4 5 5 11 27 13 51 3 23 9 50 14 60 14 25 -34 50
-56 29z"/>
<path d="M2720 1719 c0 -5 -6 -6 -12 -4 -7 3 -26 -3 -41 -14 -23 -15 -25 -20
-13 -24 19 -8 21 -27 4 -27 -18 0 -17 -102 1 -123 7 -10 10 -17 6 -17 -4 0 -1
-7 6 -17 8 -9 12 -17 11 -17 -12 -3 24 -54 47 -67 28 -16 71 -10 71 11 0 5 8
10 18 11 9 0 12 3 5 5 -6 3 -9 21 -7 44 2 24 -2 42 -11 50 -7 6 -11 18 -8 26
3 8 -1 14 -11 14 -18 0 -22 15 -6 25 6 4 8 11 4 16 -3 5 -9 7 -14 4 -5 -3 -11
-1 -15 5 -3 5 1 10 10 10 12 0 15 5 9 23 -4 12 -7 32 -6 43 1 16 -5 23 -23 26
-14 3 -25 1 -25 -3z"/>
<path d="M1746 1167 c2 -7 -9 -18 -28 -25 -27 -10 -34 -9 -41 3 -4 9 -13 13
-18 9 -6 -4 -4 -15 5 -30 19 -28 21 -43 4 -26 -17 17 -29 15 -22 -3 4 -9 -3
-24 -16 -35 -26 -22 -40 -25 -40 -9 0 5 5 7 10 4 11 -7 14 8 4 18 -8 8 -44
-25 -38 -35 3 -4 -1 -8 -9 -8 -20 0 -29 -40 -11 -47 8 -3 23 -3 34 0 13 3 20
0 20 -9 0 -8 -9 -14 -19 -14 -11 0 -23 -5 -27 -11 -4 -7 10 -9 48 -4 43 5 58
4 71 -9 8 -9 20 -16 25 -16 6 0 12 -5 14 -12 3 -7 11 -9 24 -3 10 4 25 9 31
11 18 3 43 30 36 38 -3 3 0 13 7 22 8 8 15 23 17 32 10 64 17 82 29 82 8 0 14
11 14 26 0 20 -4 25 -16 20 -13 -5 -15 -1 -10 19 6 23 5 25 -12 16 -11 -6 -21
-9 -23 -7 -2 2 -18 6 -36 9 -23 5 -31 3 -27 -6z"/>
</g>
</svg>
