<?xml version="1.0" standalone="no"?>
<!DOCTYPE svg PUBLIC "-//W3C//DTD SVG 20010904//EN"
 "http://www.w3.org/TR/2001/REC-SVG-20010904/DTD/svg10.dtd">
<svg version="1.0" xmlns="http://www.w3.org/2000/svg"
 width="1280.000000pt" height="720.000000pt" viewBox="0 0 1280.000000 720.000000"
 preserveAspectRatio="xMidYMid meet">
<metadata>
Created by potrace 1.15, written by Peter Selinger 2001-2017
</metadata>
<g transform="translate(0.000000,720.000000) scale(0.100000,-0.100000)"
fill="#000000" stroke="none">
<path d="M0 5130 c0 -2054 0 -2069 20 -2075 11 -3 27 -23 36 -43 41 -95 41
-97 31 -119 -7 -16 -19 -23 -39 -23 -15 0 -28 5 -28 10 0 6 -4 10 -10 10 -5 0
-10 -13 -10 -29 0 -26 4 -29 51 -37 44 -8 54 -14 69 -41 9 -18 15 -45 12 -62
-3 -24 -10 -31 -36 -36 -17 -3 -46 -14 -64 -23 l-32 -17 0 -1041 0 -1041 24
-13 c15 -7 38 -10 55 -7 27 6 32 3 37 -18 3 -14 4 -32 0 -40 -3 -8 2 -18 10
-23 8 -4 16 -21 17 -38 2 -26 -1 -29 -28 -29 -16 -1 -42 -9 -57 -19 -16 -10
-35 -16 -43 -12 -13 5 -15 -19 -15 -179 l0 -185 333 2 332 3 5 30 c3 17 19 47
35 68 28 35 33 37 85 37 37 0 64 -6 84 -19 52 -34 71 -91 39 -110 -12 -7 243
-10 812 -10 714 0 833 2 849 14 25 19 87 19 112 0 10 -8 38 -15 62 -15 35 0
42 3 42 19 0 20 44 61 65 61 7 0 32 11 56 24 24 12 81 31 127 41 45 10 82 21
82 25 0 16 318 30 390 17 58 -10 91 -20 97 -30 4 -6 -2 -8 -15 -5 -13 4 -23 0
-26 -8 -3 -8 -17 -14 -31 -14 -14 0 -40 -8 -58 -17 -18 -10 -77 -23 -132 -30
-145 -17 -193 -27 -260 -54 l-60 -24 1239 -3 c845 -1 1243 1 1251 8 7 6 28 47
46 90 18 44 36 80 39 80 13 0 27 46 23 75 -4 25 3 39 36 75 23 25 41 49 41 53
0 4 9 27 20 49 11 23 20 47 20 53 0 6 12 22 26 36 20 19 24 30 20 54 -5 24 1
42 24 78 20 32 30 61 30 86 0 21 3 41 7 45 8 7 9 11 11 52 1 14 11 24 26 28
18 4 26 14 28 34 3 23 7 27 31 25 16 -1 35 -7 43 -14 15 -12 20 -89 5 -89 -13
0 -41 -93 -41 -137 -1 -21 -7 -49 -15 -63 -8 -14 -14 -37 -15 -51 0 -24 -17
-70 -39 -109 -17 -29 -31 -88 -26 -102 4 -9 -4 -22 -19 -32 -16 -10 -26 -26
-26 -41 0 -15 -6 -25 -14 -25 -21 0 -30 -20 -17 -33 18 -18 14 -24 -43 -67
-48 -36 -56 -48 -65 -91 -6 -28 -11 -54 -11 -59 0 -6 135 -10 349 -10 l350 0
17 39 c17 39 18 40 45 26 15 -8 29 -25 31 -37 l3 -23 1830 -2 c1007 0 1816 2
1800 6 -17 4 -39 12 -50 18 -11 7 -48 9 -90 6 -57 -5 -73 -3 -84 11 -17 21
-31 20 -46 -1 -12 -16 -17 -15 -70 11 -31 16 -64 40 -73 54 -13 19 -21 23 -46
18 -16 -4 -38 -14 -48 -23 -17 -15 -19 -15 -38 2 -11 10 -20 31 -20 47 0 21
-5 28 -19 28 -10 0 -24 6 -30 14 -9 11 -6 18 15 33 31 23 28 51 -6 60 -22 6
-26 33 -8 51 9 9 9 20 -1 47 -9 25 -9 40 -1 54 11 21 70 38 89 26 6 -3 11 1
11 9 0 9 -6 16 -14 16 -8 0 -20 13 -27 29 -10 22 -17 27 -26 19 -16 -13 -63
-2 -63 15 0 21 14 35 40 38 41 6 58 49 20 49 -17 0 -20 7 -20 39 0 22 -5 41
-12 44 -25 9 -1 16 97 31 169 26 284 38 294 31 6 -3 8 -12 5 -20 -3 -7 -1 -22
5 -34 9 -17 6 -23 -18 -40 -16 -12 -35 -37 -41 -56 -7 -20 -20 -37 -33 -41
-43 -13 -77 -55 -77 -95 0 -21 6 -42 14 -46 7 -4 18 -18 25 -30 6 -13 17 -23
24 -23 7 0 31 -18 52 -40 22 -22 46 -38 53 -35 16 6 48 -9 79 -37 12 -11 26
-17 32 -14 6 4 22 -1 37 -10 22 -15 30 -16 61 -5 33 12 37 11 63 -14 23 -22
33 -25 63 -20 35 7 36 6 39 -27 3 -31 5 -33 35 -30 35 3 65 -9 100 -40 14 -14
28 -18 43 -13 15 5 29 0 46 -16 l24 -22 25 23 c14 13 25 29 25 36 0 20 16 25
44 14 30 -11 56 -4 56 16 0 8 9 19 20 26 12 8 20 24 20 38 0 33 17 50 51 50
15 0 32 7 39 15 7 8 19 15 28 15 8 0 24 7 34 17 11 9 33 16 54 15 26 -1 46 6
67 24 23 19 37 24 56 19 64 -17 92 -8 140 44 26 28 54 51 62 51 8 0 20 5 26
11 17 17 -44 72 -77 72 -53 0 -157 -15 -191 -28 -20 -8 -45 -11 -57 -9 -11 3
-33 -1 -48 -9 -17 -8 -45 -12 -65 -10 -30 4 -40 0 -58 -23 -21 -26 -22 -27
-27 -8 -7 26 -96 45 -168 37 l-48 -6 34 -29 c33 -29 60 -32 113 -12 18 7 18 6
6 -9 -7 -9 -11 -28 -9 -42 3 -13 2 -23 -2 -20 -3 2 -22 -11 -42 -28 -26 -23
-37 -42 -40 -67 -4 -42 -49 -72 -77 -51 -9 6 -31 18 -48 26 -18 8 -40 26 -49
40 -9 14 -23 25 -30 25 -8 0 -14 8 -14 17 0 9 -9 26 -19 37 -11 12 -21 37 -22
56 -2 19 -15 55 -30 80 -31 54 -31 129 2 137 10 3 19 14 21 25 5 32 33 46 59
30 18 -12 23 -12 30 0 5 7 7 17 6 23 -4 11 17 35 31 35 14 0 22 24 16 47 -4
13 13 34 60 75 80 69 126 87 161 64 13 -9 35 -16 47 -16 14 0 35 -15 53 -35
17 -20 39 -35 51 -35 12 0 27 -7 34 -15 7 -8 18 -15 25 -15 7 0 20 -11 29 -24
10 -17 22 -23 35 -19 11 3 29 -2 41 -10 20 -14 27 -13 71 5 38 16 53 18 61 10
16 -16 43 -15 79 4 28 14 33 14 54 0 23 -15 26 -15 44 5 12 13 27 20 39 17 23
-6 35 0 49 26 7 13 24 19 62 22 44 4 58 10 85 39 19 19 39 35 46 35 6 0 20 10
31 22 14 17 17 18 13 6 -8 -24 27 -24 83 0 48 19 63 46 61 107 -1 22 3 62 9
90 8 35 8 54 1 62 -7 9 -7 17 1 27 7 8 9 25 6 39 -7 28 10 46 28 28 7 -7 13
-24 13 -39 1 -15 6 -58 11 -96 7 -51 6 -78 -3 -105 -8 -22 -9 -40 -3 -46 14
-14 11 -61 -6 -75 -19 -16 -19 -44 0 -60 20 -17 19 -42 -3 -71 -10 -13 -24
-38 -31 -56 -7 -17 -21 -39 -32 -49 -10 -9 -19 -25 -19 -35 0 -26 -49 -38 -65
-15 -9 12 -21 14 -44 10 -24 -5 -35 -2 -48 14 -13 15 -35 21 -81 25 -56 5 -66
3 -92 -20 -22 -18 -30 -33 -30 -59 0 -29 -4 -34 -27 -39 -70 -14 -78 -19 -78
-50 0 -28 2 -30 37 -27 21 2 48 -3 60 -9 34 -19 120 -19 140 -2 11 10 26 13
48 8 18 -4 36 -2 44 4 21 18 46 2 46 -29 0 -28 -15 -40 -50 -40 -27 0 -35 -18
-35 -75 l0 -50 -57 -9 c-49 -8 -58 -13 -69 -37 -6 -16 -9 -41 -6 -55 6 -33
-23 -65 -51 -57 -12 3 -28 -3 -41 -16 -12 -12 -33 -22 -48 -22 -19 -1 -22 -3
-9 -6 16 -4 17 -12 13 -58 -3 -30 -8 -58 -12 -64 -8 -13 -52 -15 -59 -2 -4 5
4 7 15 4 14 -4 26 0 33 9 16 22 8 95 -11 103 -12 4 -13 2 -6 -7 6 -7 10 -21
10 -30 0 -13 -4 -15 -19 -7 -14 7 -18 6 -18 -6 0 -9 10 -20 23 -25 22 -10 22
-10 -3 -7 -14 1 -29 12 -36 25 -10 20 -12 21 -18 7 -3 -9 -4 -21 0 -26 8 -13
-20 -11 -34 3 -7 7 -12 9 -12 6 0 -4 7 -13 15 -22 16 -16 20 -15 -45 -17 -11
0 -18 -4 -15 -10 4 -5 -3 -9 -14 -9 -12 0 -21 -4 -21 -10 0 -6 85 -10 235 -10
200 0 236 2 241 15 8 20 51 19 62 -1 11 -19 133 -16 140 4 2 6 -3 12 -12 12
-8 0 -18 5 -22 11 -4 8 1 9 16 4 15 -5 20 -4 16 4 -4 6 -14 11 -21 11 -38 0
-47 88 -13 120 29 27 54 25 85 -6 22 -22 24 -31 19 -65 -4 -22 -3 -38 1 -36 5
3 22 -13 38 -34 l30 -38 258 -1 c141 0 257 1 257 3 0 2 -7 24 -16 50 -14 42
-19 47 -45 47 -21 0 -32 -6 -39 -23 -16 -40 -9 7 9 58 10 28 23 50 30 50 14 0
51 -87 51 -117 0 -12 8 -18 25 -18 20 0 25 5 25 25 0 14 5 25 11 25 8 0 7 6
-2 18 -12 15 -12 16 1 5 9 -6 25 -10 35 -8 11 2 23 4 28 4 13 2 7 22 -9 28 -9
3 -20 0 -24 -8 -5 -7 -12 -10 -15 -7 -12 12 6 28 30 28 28 0 31 -4 43 -57 l9
-41 -41 0 c-22 -1 -44 5 -49 11 -6 8 -7 4 -4 -10 4 -17 0 -23 -11 -24 -13 0
-14 -2 -3 -6 10 -4 8 -9 -10 -19 -21 -11 5 -13 184 -14 l208 0 -2 194 -2 195
-25 6 c-14 3 -37 14 -51 24 -45 31 -59 32 -65 5 -4 -14 -18 -30 -32 -36 -23
-11 -29 -9 -45 11 -11 13 -19 29 -19 37 0 8 -9 14 -20 14 -10 0 -24 9 -30 20
-21 40 26 80 57 49 7 -7 19 -9 27 -6 18 7 21 48 5 64 -17 17 0 35 26 29 31 -8
37 2 18 30 -12 18 -24 24 -52 24 -89 0 -156 12 -178 34 -12 11 -34 21 -49 21
-24 0 -29 6 -40 45 -6 25 -15 52 -18 61 -5 11 2 22 20 34 24 15 32 16 58 6 44
-18 189 -50 267 -60 37 -5 81 -16 99 -25 18 -9 37 -16 42 -16 4 0 8 131 8 291
0 273 -1 291 -17 284 -10 -4 -43 -11 -73 -16 -113 -19 -124 -22 -144 -41 -45
-42 -91 -40 -98 4 -2 17 -13 25 -38 31 -29 8 -46 4 -99 -22 -49 -23 -69 -28
-83 -20 -22 12 -24 42 -3 59 25 20 14 52 -22 67 -29 12 -34 11 -61 -12 -48
-40 -77 -47 -105 -24 -14 10 -32 19 -40 19 -23 0 -29 16 -11 31 13 11 17 10
25 -3 8 -15 13 -15 59 0 27 10 48 21 47 26 -2 5 -27 18 -56 28 -69 23 -81 34
-81 72 0 23 -6 34 -22 41 -13 6 -24 18 -26 28 -3 13 3 17 27 17 26 0 31 4 31
24 0 13 8 34 18 47 9 13 22 33 28 44 9 15 21 19 44 17 18 -1 38 3 46 9 9 7 17
8 26 0 57 -47 78 -61 91 -61 9 0 19 -5 22 -10 11 -17 54 -11 65 10 6 11 16 17
25 14 8 -4 25 0 38 9 13 8 35 12 54 10 28 -5 32 -10 38 -46 6 -32 4 -43 -10
-53 -19 -14 -12 -34 12 -34 9 0 25 -7 35 -17 17 -15 20 -15 42 6 22 21 29 22
73 13 48 -11 93 -3 131 21 9 6 12 85 12 336 0 280 -2 330 -15 341 -8 7 -15 20
-15 30 0 10 7 23 15 30 12 10 15 39 15 140 l0 127 -37 7 c-21 3 -53 6 -70 6
-30 0 -33 3 -33 28 0 25 6 31 40 42 37 12 43 12 70 -9 l30 -22 0 85 c0 65 -3
85 -15 90 -8 3 -15 17 -15 31 0 14 7 28 15 31 9 4 15 19 15 40 0 28 -4 34 -21
34 -13 0 -19 -5 -16 -12 2 -7 1 -23 -4 -35 -10 -27 -59 -32 -79 -8 -11 13 -9
20 9 38 11 13 21 28 21 34 0 18 -49 47 -113 68 l-57 18 -22 -22 c-17 -19 -28
-22 -58 -18 -20 2 -46 -1 -58 -7 -29 -15 -112 -8 -112 10 0 8 10 14 24 14 14
0 28 5 32 11 4 7 22 9 47 5 23 -4 38 -4 35 0 -4 4 -1 18 6 33 7 14 11 34 8 44
-4 18 -5 17 -28 -4 -30 -28 -114 -39 -132 -16 -22 26 -2 46 64 67 64 19 94 18
94 -4 0 -6 5 -4 10 4 22 38 17 42 -55 46 -38 2 -84 6 -100 9 -25 4 -32 1 -40
-17 -8 -19 -17 -22 -45 -20 -73 5 -81 3 -106 -21 -13 -14 -37 -28 -52 -32 -27
-7 -35 -1 -72 53 -12 17 -24 22 -55 21 -141 -5 -155 -4 -171 12 -15 15 -14 18
5 36 29 27 18 51 -33 74 -40 18 -41 18 -48 -2 -4 -10 -19 -24 -33 -29 -14 -5
-25 -16 -25 -24 0 -20 -27 -28 -42 -12 -15 15 -68 27 -68 16 0 -4 7 -11 16
-14 13 -5 14 -9 4 -21 -16 -19 -27 -12 -35 25 -4 17 -10 30 -15 30 -4 0 -15
17 -25 38 -9 20 -35 72 -56 114 -22 43 -39 80 -39 83 0 3 16 5 35 5 21 0 35 5
35 13 1 20 37 57 55 57 14 0 16 -7 13 -30 -5 -35 6 -47 27 -30 9 7 26 9 40 6
20 -5 35 0 65 24 46 36 50 37 50 5 0 -36 13 -31 38 14 27 47 28 76 4 93 -10 7
-26 24 -36 38 -15 22 -17 22 -14 5 4 -30 -11 -49 -27 -35 -8 6 -11 18 -8 26 3
8 2 26 -2 42 -6 26 -7 26 -21 8 -12 -16 -16 -18 -27 -7 -9 11 -9 14 1 18 18 7
-5 33 -29 33 -11 0 -27 8 -37 18 -10 10 -32 24 -50 31 -21 9 -32 20 -32 35 0
72 -7 107 -26 128 -12 13 -24 31 -27 41 -4 9 -16 17 -28 17 -12 0 -23 8 -26
19 -6 23 -31 31 -98 31 -70 0 -80 -9 -78 -70 1 -37 7 -58 22 -74 12 -12 21
-25 21 -29 0 -4 9 -26 19 -50 25 -53 32 -127 13 -119 -8 3 -17 -1 -22 -8 -10
-16 -45 13 -67 55 -8 17 -23 39 -33 50 -10 11 -36 48 -57 81 -21 34 -74 103
-118 154 -47 55 -79 100 -77 110 2 10 -10 28 -26 41 -31 25 -52 69 -33 69 6 0
11 8 11 18 -1 16 -1 16 -11 0 -6 -12 -22 -18 -44 -18 -29 0 -34 4 -37 27 -4
33 -22 40 -34 13 -9 -20 -11 -20 -70 20 -34 23 -102 78 -151 123 -155 143
-203 181 -261 209 -32 15 -65 37 -75 49 -16 20 -16 24 -2 39 8 9 15 21 15 27
0 6 7 16 15 23 13 11 19 9 36 -8 11 -12 26 -22 34 -22 26 0 63 -22 76 -46 7
-13 21 -24 31 -24 11 0 39 -13 63 -30 24 -16 50 -30 59 -30 8 0 28 -14 44 -30
36 -35 62 -38 101 -9 33 24 107 28 139 8 12 -7 27 -33 34 -57 15 -49 37 -66
76 -57 23 4 29 1 40 -22 7 -16 27 -39 43 -52 30 -24 32 -24 61 -7 16 10 40 16
54 13 13 -2 24 0 24 4 0 5 -16 9 -35 9 -33 0 -94 23 -105 40 -3 4 -14 9 -25
11 -14 3 -21 13 -23 36 -3 25 1 32 18 35 11 2 19 7 18 13 -4 12 -32 7 -36 -6
-5 -12 -39 -11 -63 1 -10 6 -27 27 -38 48 -24 47 -46 66 -94 82 -53 17 -79 72
-70 148 5 43 3 52 -10 52 -8 0 -17 5 -19 11 -2 6 -27 14 -56 17 -28 2 -57 10
-63 18 -17 20 -7 55 22 76 25 19 28 19 57 4 17 -9 33 -25 37 -35 9 -28 36 -34
78 -16 77 32 118 13 169 -77 36 -65 72 -85 98 -53 9 11 8 19 -4 37 -22 31 -20
59 4 65 15 4 18 11 14 32 -4 18 1 33 16 48 16 18 19 27 10 42 -16 30 -12 52
10 58 26 7 36 40 17 61 -18 20 -12 68 10 94 10 11 11 18 3 23 -5 3 -17 22 -25
41 -8 19 -20 34 -27 34 -16 0 -88 -48 -105 -69 -15 -20 -47 -4 -51 27 -4 24
49 82 75 82 24 0 80 46 95 78 9 19 21 27 38 27 50 0 54 16 11 42 -23 13 -41
26 -41 29 0 20 25 44 45 44 34 0 32 25 -5 60 -24 23 -29 34 -24 54 5 21 2 27
-20 35 -24 10 -46 54 -33 68 3 3 21 6 39 7 49 2 45 35 -7 53 -50 17 -68 38
-53 63 9 13 6 22 -11 39 -23 23 -26 37 -11 46 9 6 11 39 10 161 0 22 6 47 13
56 17 21 151 61 178 53 18 -6 20 -12 15 -45 -5 -32 -2 -42 25 -69 23 -24 30
-40 28 -64 -2 -18 3 -42 9 -54 7 -12 12 -33 12 -47 0 -13 7 -31 15 -39 22 -22
68 -164 62 -193 -4 -21 1 -27 29 -39 37 -15 43 -35 19 -59 -22 -22 -18 -45 9
-55 31 -12 38 -34 20 -60 -9 -12 -14 -29 -13 -39 2 -9 -5 -31 -14 -49 -22 -41
-22 -43 8 -43 40 0 42 -27 5 -65 -37 -38 -59 -31 -52 17 2 15 1 28 -3 28 -15
0 -65 -42 -60 -51 4 -5 2 -9 -2 -9 -5 0 -13 -13 -19 -28 -13 -33 -62 -49 -95
-32 -16 9 -19 7 -19 -8 0 -10 9 -27 20 -37 16 -14 25 -16 43 -8 25 12 57 1 57
-20 0 -7 -14 -24 -31 -38 -31 -25 -31 -26 -15 -52 16 -24 16 -27 1 -51 -10
-14 -20 -26 -24 -26 -3 0 -11 -11 -17 -23 -11 -25 -2 -67 15 -67 15 0 -6 -63
-26 -77 -13 -10 -14 -13 -2 -13 8 0 24 -3 37 -6 13 -4 22 -3 21 2 -6 37 44 46
62 12 8 -15 4 -20 -18 -30 -15 -7 -31 -18 -36 -25 -4 -7 -15 -19 -23 -28 -10
-10 -14 -24 -10 -40 6 -25 -15 -57 -45 -67 -24 -8 2 -29 29 -24 34 7 49 -2 53
-33 3 -19 -3 -29 -23 -40 -25 -14 -28 -14 -48 4 -22 20 -22 20 -47 -9 -27 -32
-17 -50 24 -40 38 10 63 -4 63 -35 0 -16 -7 -34 -15 -41 -14 -11 -11 -15 16
-32 29 -18 30 -20 16 -41 -8 -12 -24 -23 -36 -25 -28 -4 -22 -23 13 -41 27
-12 29 -11 58 23 34 41 48 44 66 15 10 -15 21 -19 45 -17 32 3 32 2 35 -45 3
-38 6 -47 20 -45 12 2 18 -5 21 -22 1 -14 12 -37 22 -51 10 -15 19 -34 19 -42
0 -21 27 -40 46 -33 10 4 14 14 11 25 -3 14 0 17 13 14 28 -7 41 27 28 70 -9
31 -9 40 5 55 10 10 17 32 17 49 0 30 26 63 49 63 23 0 66 41 71 68 6 32 57
64 105 65 47 1 57 -11 59 -73 1 -49 -1 -53 -24 -57 -33 -5 -43 -17 -35 -42 6
-19 14 -21 74 -21 l68 0 34 -50 c30 -44 38 -50 69 -50 29 0 39 -6 53 -30 16
-26 21 -28 44 -19 21 8 30 6 49 -12 l22 -21 12 22 c9 18 9 28 0 46 -21 39 -6
57 40 49 48 -8 54 9 15 45 -34 32 -29 62 13 75 27 8 32 14 32 41 0 18 -4 36
-10 39 -17 10 -11 51 9 69 40 36 -5 74 -57 47 -9 -4 -31 -11 -49 -14 -40 -8
-79 19 -69 49 8 25 117 67 172 66 30 0 48 6 60 19 9 10 23 19 30 19 15 0 44
61 44 90 0 10 7 23 15 30 8 7 15 20 15 29 0 24 37 94 55 104 9 4 15 22 15 41
0 26 9 41 41 69 67 61 129 42 129 -41 0 -18 7 -43 15 -55 14 -22 12 -26 -50
-92 l-65 -69 20 -21 c27 -28 25 -51 -4 -71 -14 -8 -41 -36 -62 -60 -35 -43
-35 -46 -19 -64 18 -20 14 -70 -4 -70 -35 0 -54 -67 -26 -90 28 -23 18 -50
-25 -67 -34 -14 -40 -20 -40 -45 0 -24 -6 -32 -29 -41 -25 -9 -29 -15 -24 -42
3 -21 0 -35 -11 -44 -9 -7 -16 -28 -16 -45 0 -18 -5 -37 -11 -43 -14 -14 -3
-62 16 -69 16 -6 77 45 69 58 -13 20 26 57 63 60 37 3 38 4 48 57 l10 54 55
18 c30 10 60 25 65 35 46 77 58 88 108 99 l27 5 0 1295 0 1295 -967 -1 c-720
0 -962 -3 -945 -12 15 -7 22 -17 19 -28 -3 -11 2 -19 14 -22 20 -5 25 -32 10
-56 -7 -11 -11 -9 -20 8 -7 12 -17 21 -24 19 -7 -1 -22 1 -34 6 -12 4 -31 2
-42 -4 -15 -8 -29 -7 -56 4 -41 17 -42 24 -14 60 l21 27 -758 -5 c-418 -3
-783 -6 -812 -6 -49 0 -54 -2 -70 -31 -9 -17 -27 -46 -39 -65 -12 -18 -27 -51
-33 -72 -5 -22 -21 -51 -34 -65 l-24 -26 31 -3 c24 -2 35 -11 53 -45 21 -41
71 -92 125 -126 64 -41 41 -89 -48 -101 -27 -3 -59 -13 -71 -22 -29 -20 -54
-11 -87 31 -14 19 -35 35 -46 35 -12 0 -19 7 -19 18 0 10 -5 23 -11 29 -6 6
-12 33 -13 59 -1 28 -6 49 -14 52 -6 2 -12 10 -12 18 0 8 -4 22 -9 32 -13 26
-31 86 -31 105 0 10 -12 22 -26 27 -36 14 -52 12 -31 -4 9 -7 17 -18 17 -24 0
-6 6 -12 12 -14 10 -4 9 -9 -3 -21 -10 -9 -39 -17 -75 -20 -49 -4 -65 -1 -97
20 -28 18 -37 30 -35 46 3 20 9 22 68 22 l65 0 1 50 c2 72 2 73 24 85 37 20
86 -4 110 -55 l21 -43 37 11 c43 12 92 44 92 59 0 5 10 18 23 29 22 18 18 18
-224 19 -136 0 -249 -4 -255 -9 -5 -5 -24 -13 -43 -18 -19 -5 -38 -15 -42 -23
-19 -35 -42 -97 -44 -117 -1 -25 -22 -53 -41 -53 -24 0 -94 42 -94 56 0 20
-43 38 -73 30 -14 -3 -30 -18 -37 -36 -18 -44 -32 -51 -64 -35 -38 20 -60 19
-81 -5 -23 -25 -31 -17 -40 36 -8 53 14 81 75 92 25 5 63 21 84 35 27 19 52
27 82 27 23 0 46 5 49 10 4 7 -78 10 -239 10 -229 0 -246 -1 -246 -18 0 -10 6
-26 13 -37 24 -36 15 -59 -25 -69 -29 -7 -46 -5 -78 9 -22 10 -62 19 -88 19
l-47 1 -3 48 -3 47 -379 0 -378 0 -7 -30 c-6 -27 -11 -32 -31 -29 -4 0 -10 -5
-15 -13 -6 -10 -11 -10 -21 0 -14 14 -68 16 -68 2 0 -9 20 -14 46 -11 16 2 31
-44 39 -117 5 -50 2 -68 -12 -92 -26 -45 -50 -48 -84 -10 -16 17 -29 36 -29
41 0 6 -6 16 -12 23 -7 8 -20 24 -28 36 -8 12 -21 29 -28 36 -13 13 -11 16 14
18 5 1 26 18 47 38 32 32 35 41 30 72 l-6 36 -157 -1 -158 -1 2 -51 c2 -41 7
-54 27 -66 13 -9 29 -23 36 -31 14 -17 17 -60 5 -60 -4 0 -19 -18 -32 -40 -14
-22 -33 -40 -42 -40 -19 0 -78 67 -78 88 0 8 -12 23 -26 34 -27 22 -49 64 -45
86 1 8 -7 16 -18 19 -22 6 -30 35 -9 30 6 -1 14 6 16 16 3 16 -18 17 -343 17
-202 0 -344 -4 -341 -9 3 -5 29 -17 56 -27 32 -12 60 -30 76 -51 28 -37 169
-110 230 -120 20 -3 38 -12 41 -20 14 -37 -70 -68 -124 -46 -17 7 -51 15 -75
17 -64 7 -73 13 -84 59 -7 33 -16 45 -43 59 -19 9 -48 31 -65 47 -17 17 -46
36 -64 42 -18 6 -37 20 -43 30 -9 18 -40 19 -1074 19 l-1064 0 -45 -27 c-25
-16 -49 -38 -52 -50 -7 -24 -43 -32 -45 -10 -2 24 3 52 12 62 5 5 9 13 9 17 0
4 -112 8 -249 8 -246 0 -249 0 -254 -21 -5 -19 -10 -21 -49 -15 -24 4 -48 13
-54 22 -10 12 -64 14 -405 10 -217 -3 -414 -5 -439 -5 -25 0 -415 2 -867 4
l-823 4 0 -2069z m5183 1944 c16 -13 39 -24 52 -24 13 0 45 -15 72 -32 63 -43
147 -88 163 -88 19 0 130 -52 130 -61 0 -4 -4 -19 -9 -33 -6 -14 -6 -37 -1
-55 15 -53 -4 -65 -91 -58 -80 7 -147 27 -159 47 -4 6 -16 10 -26 8 -17 -3
-16 -5 6 -26 13 -12 31 -22 40 -22 13 0 16 -6 13 -24 -7 -37 13 -66 46 -66 16
0 51 -15 80 -35 44 -30 58 -35 111 -35 46 0 60 3 60 14 0 8 -4 18 -10 21 -13
8 -13 61 0 85 26 49 138 16 229 -69 97 -90 156 -148 182 -177 14 -16 42 -44
62 -61 30 -26 39 -42 44 -79 4 -29 16 -59 32 -78 15 -17 35 -43 44 -58 22 -34
45 -36 53 -4 8 33 33 54 68 58 41 4 42 21 3 40 -23 11 -41 31 -56 62 -17 36
-26 46 -46 46 -13 0 -28 6 -32 13 -4 7 -20 20 -35 30 -16 10 -28 23 -28 31 0
7 -15 33 -34 57 -47 60 -52 86 -24 128 13 19 30 46 39 60 42 70 132 9 140 -94
3 -45 20 -78 59 -115 15 -14 31 -33 36 -41 14 -23 85 -74 124 -89 19 -7 44
-20 55 -27 25 -16 60 -17 72 0 6 6 13 25 17 42 16 63 53 74 78 23 10 -23 13
-40 7 -56 -9 -25 4 -62 21 -62 6 0 10 -7 10 -15 0 -8 18 -31 39 -52 22 -21 48
-54 59 -73 20 -36 32 -40 82 -26 42 12 76 -24 99 -102 11 -37 22 -77 24 -89 2
-12 6 -26 10 -29 4 -4 7 -14 7 -22 0 -11 -9 -13 -37 -8 -21 4 -101 11 -178 16
-228 14 -403 54 -405 92 0 10 -44 77 -51 78 -3 0 -11 -11 -17 -25 -6 -14 -18
-25 -26 -25 -28 0 -131 69 -179 119 -46 50 -49 51 -105 51 -39 0 -67 6 -90 20
-18 11 -38 20 -46 20 -7 0 -21 9 -31 20 -10 11 -24 20 -32 20 -7 0 -13 4 -13
8 0 10 -32 27 -140 72 -41 18 -84 40 -95 50 -30 27 -92 50 -137 50 -21 0 -52
7 -69 16 -32 16 -59 12 -83 -12 -11 -10 -21 -12 -40 -4 -17 6 -44 6 -78 0 -46
-9 -56 -8 -79 9 -33 24 -138 63 -151 55 -11 -7 -105 24 -146 48 -34 21 -94 19
-108 -3 -13 -22 17 -54 64 -69 42 -13 47 -18 47 -45 0 -28 -3 -30 -42 -33 -26
-2 -43 1 -43 7 0 6 -7 11 -15 11 -9 0 -28 12 -43 27 -27 27 -96 53 -142 53
-15 0 -64 18 -109 41 -45 22 -90 39 -100 37 -18 -3 -17 -6 8 -58 19 -41 35
-59 61 -71 19 -9 39 -15 45 -12 6 2 17 -9 24 -24 7 -15 18 -37 23 -47 8 -14 7
-18 -4 -14 -7 3 -40 13 -73 24 -33 10 -66 24 -73 31 -7 7 -23 13 -35 14 -12 0
-33 3 -47 5 -14 3 -47 7 -75 10 -39 4 -56 11 -75 33 -28 32 -153 73 -211 69
-41 -3 -129 18 -185 44 -22 10 -49 18 -60 18 -29 0 -46 15 -42 36 2 13 22 24
69 37 71 20 72 20 164 -30 16 -9 77 -22 135 -29 58 -7 126 -18 153 -25 42 -12
51 -11 75 4 22 13 26 23 24 49 -3 42 -21 55 -91 68 -31 5 -85 19 -121 30 -55
18 -70 19 -99 9 -26 -9 -45 -9 -87 0 -30 7 -89 12 -132 11 -295 -5 -357 -2
-376 19 -10 11 -15 24 -12 30 3 5 43 17 88 27 59 13 90 26 114 46 39 35 54 35
110 2 40 -24 60 -27 227 -38 103 -7 192 -18 205 -25 15 -8 58 -11 123 -10 77
1 104 -2 117 -14 26 -22 91 -53 142 -67 25 -7 64 -27 87 -46 23 -19 44 -34 48
-34 14 0 56 58 65 93 6 20 12 37 14 37 13 0 66 -23 66 -29 0 -14 65 -78 95
-94 88 -45 152 -57 200 -35 23 10 29 8 63 -24 57 -54 133 -108 152 -108 13 0
16 6 13 24 -5 25 27 68 57 78 26 8 -4 54 -39 61 -17 4 -31 13 -31 20 0 22
-110 67 -165 67 -45 0 -52 3 -66 29 -13 22 -27 31 -58 36 -22 4 -51 15 -63 24
-13 10 -41 21 -63 25 -50 10 -115 60 -115 89 1 43 20 54 111 59 59 4 95 1 117
-7 17 -8 55 -16 84 -20 44 -6 63 -14 98 -46 39 -35 49 -39 95 -39 39 0 59 -6
85 -25 36 -27 81 -32 125 -15 38 14 19 41 -47 64 -64 23 -184 82 -192 94 -3 5
-37 20 -76 32 -90 29 -109 58 -55 88 22 12 42 4 88 -34z m-3285 -23 c12 -11
22 -24 22 -30 0 -6 17 -11 39 -11 48 0 65 -19 58 -64 -4 -26 -1 -39 13 -51 21
-19 37 -18 133 9 48 14 64 15 99 4 41 -12 83 -60 74 -85 -6 -15 13 -21 44 -13
14 3 44 -1 70 -11 40 -15 45 -21 48 -51 2 -29 -2 -38 -25 -54 -57 -38 -73 -44
-99 -33 -36 13 -65 51 -52 67 7 8 7 12 0 12 -7 0 -8 10 -2 31 l9 31 -49 -4
c-28 -1 -50 0 -50 3 0 3 -15 10 -33 16 -40 12 -79 1 -130 -40 -31 -24 -48 -30
-93 -31 -52 -1 -58 1 -90 36 -31 35 -34 43 -32 95 1 32 5 65 9 74 11 22 -3 39
-36 45 -38 7 -45 12 -45 34 0 40 78 54 118 21z m889 0 c98 -34 106 -60 36
-117 -27 -21 -49 -42 -51 -46 -6 -14 -47 -8 -79 12 -38 23 -42 50 -13 87 11
14 20 36 20 49 0 19 11 31 30 33 3 0 28 -8 57 -18z m-1260 -56 c21 -19 44 -35
51 -35 24 0 70 -32 81 -57 6 -13 23 -28 38 -35 104 -42 108 -46 72 -92 -20
-25 -53 -33 -74 -18 -6 4 -25 26 -43 48 -23 30 -42 44 -68 49 -20 3 -44 10
-53 14 -9 5 -35 18 -57 30 -23 11 -58 21 -77 21 -40 0 -67 21 -67 53 0 41 15
52 48 38 24 -10 35 -10 63 3 46 20 43 20 86 -19z m5603 -8 c13 -7 29 -21 35
-32 9 -19 117 -128 181 -185 27 -24 95 -101 144 -163 12 -15 30 -27 41 -27 10
0 19 1 19 3 0 1 -4 16 -9 33 -14 49 9 91 54 100 31 5 41 3 61 -18 13 -13 26
-33 28 -43 15 -80 47 -160 70 -177 16 -11 43 30 50 76 8 49 36 76 81 76 33 0
47 14 64 67 8 24 22 50 33 59 10 10 18 21 18 27 0 19 42 67 59 67 10 0 30 -9
45 -21 20 -16 26 -29 26 -59 0 -42 24 -66 54 -54 19 7 50 -15 54 -38 4 -26
-34 -42 -58 -25 -11 8 -18 16 -15 19 3 3 -3 12 -13 21 -29 26 -88 6 -97 -33
-4 -16 -11 -33 -16 -36 -39 -24 -45 -174 -8 -174 6 0 28 13 48 29 57 45 80 47
136 12 27 -17 55 -31 62 -31 15 0 46 -57 38 -69 -2 -5 -2 -23 1 -40 5 -23 16
-35 50 -51 25 -13 52 -19 63 -15 12 3 40 -2 66 -14 29 -13 56 -18 78 -14 44 7
87 -31 121 -110 31 -69 32 -79 7 -101 -29 -27 -177 -24 -204 3 -6 6 -15 11
-20 11 -5 0 -32 16 -58 35 -30 22 -61 35 -79 35 -18 0 -33 6 -36 15 -9 22 -42
37 -89 43 -22 2 -47 10 -56 18 -8 8 -21 14 -28 14 -7 0 -25 7 -41 16 -25 15
-34 15 -121 -1 -103 -18 -123 -30 -140 -84 -6 -20 -20 -48 -30 -63 -11 -14
-19 -29 -19 -33 0 -11 -50 -109 -59 -115 -4 -3 -17 -22 -30 -42 -23 -39 -34
-43 -106 -38 -64 4 -70 48 -15 109 17 18 39 45 48 60 9 14 35 51 59 81 23 31
46 70 49 88 6 30 5 32 -20 32 -15 0 -50 -10 -77 -21 -46 -20 -55 -21 -117 -10
-37 7 -95 13 -129 15 -34 2 -70 9 -78 16 -10 8 -19 10 -23 4 -19 -26 -70 -47
-129 -51 -70 -5 -93 5 -93 42 0 38 -49 61 -132 64 -29 1 -21 28 17 57 19 14
35 32 35 38 0 27 -57 65 -122 82 -55 13 -68 20 -68 36 0 19 -94 118 -113 118
-4 0 -6 9 -2 19 7 22 -13 61 -32 61 -6 0 -21 14 -33 30 -23 32 -75 64 -89 55
-16 -9 -41 7 -41 26 0 14 -7 19 -29 19 -17 0 -33 -5 -36 -10 -9 -15 -35 14
-35 39 0 12 4 21 9 21 8 0 21 30 25 55 0 5 13 14 28 19 22 8 34 4 74 -22 26
-18 51 -32 55 -32 4 0 14 -18 23 -40 9 -22 20 -40 26 -40 13 0 100 -79 100
-91 0 -5 20 -31 44 -57 25 -26 56 -63 68 -82 22 -32 28 -35 65 -32 23 2 52 -2
65 -9 13 -6 20 -8 16 -4 -4 4 -1 17 7 29 8 11 15 32 15 46 0 45 33 109 65 125
27 13 32 13 49 -5 30 -29 33 -109 7 -163 -11 -24 -21 -54 -21 -67 0 -26 -39
-110 -52 -110 -4 0 -8 -10 -8 -21 0 -18 4 -20 28 -15 15 4 44 9 65 13 31 5 41
13 58 44 15 30 25 39 44 39 37 0 124 -60 124 -86 1 -33 30 -50 108 -64 57 -10
82 -11 112 -2 21 7 52 12 70 12 41 0 43 33 2 58 -29 18 -31 21 -31 48 0 13 -7
15 -36 11 -34 -6 -39 -2 -109 71 -153 160 -191 198 -223 222 -45 33 -75 62
-87 84 -6 10 -25 20 -45 22 -19 2 -39 9 -44 14 -6 6 -16 10 -23 10 -8 0 -27
10 -42 21 -26 19 -28 25 -20 52 13 46 37 67 78 67 20 0 47 -6 61 -13z m4871
-86 c20 -16 22 -23 13 -38 -6 -10 -22 -19 -36 -21 -33 -4 -47 -19 -117 -128
-32 -50 -66 -94 -74 -97 -15 -5 -27 -39 -42 -109 -6 -34 -35 -43 -82 -27 -21
7 -59 11 -85 10 -37 -1 -49 3 -58 18 -27 52 55 97 101 55 16 -14 21 -14 61 8
52 29 70 63 72 134 1 29 4 55 6 57 12 11 86 47 97 47 6 0 24 20 40 44 24 39
52 63 74 65 4 1 17 -8 30 -18z m-11174 -36 c8 -9 29 -15 46 -13 18 1 42 -4 55
-11 20 -10 29 -9 69 13 l45 26 24 -23 c31 -29 30 -68 -1 -105 -14 -17 -25 -34
-25 -40 0 -11 -23 -22 -45 -22 -12 0 -21 28 -29 90 -2 14 -4 29 -5 34 -1 12
-73 -1 -81 -15 -9 -14 -57 -4 -88 19 -22 17 -22 18 -5 40 21 26 21 26 40 7z
m-167 -137 c11 -19 16 -46 15 -81 -2 -47 -4 -52 -26 -54 -15 -2 -35 8 -54 25
-55 51 -57 55 -40 95 8 19 20 37 27 40 30 12 62 1 78 -25z m1061 -30 c34 -36
99 -131 99 -146 0 -5 7 -15 15 -22 23 -19 18 -30 -15 -30 -24 0 -33 6 -43 28
-17 38 -46 60 -90 67 -50 9 -58 31 -23 62 15 13 24 28 20 35 -4 7 -3 8 4 4 16
-9 15 7 0 22 -7 7 -9 12 -5 12 4 0 21 -15 38 -32z m-1298 10 c-4 -7 -8 -17 -8
-23 0 -25 -25 -44 -83 -64 -34 -11 -69 -21 -77 -21 -8 0 -15 -4 -15 -10 0 -5
-5 -9 -12 -7 -7 1 -12 -5 -13 -13 -1 -59 -55 -59 -85 0 -22 44 -16 50 47 50
22 0 42 7 52 18 22 25 47 37 109 52 28 6 52 16 52 21 0 5 9 9 21 9 14 0 18 -4
12 -12z m9005 -122 c-2 -22 -11 -35 -30 -44 -16 -7 -31 -24 -34 -37 -3 -13
-12 -26 -19 -29 -18 -6 -65 -80 -65 -100 0 -9 -9 -20 -20 -26 -11 -6 -23 -23
-26 -38 -9 -33 -43 -100 -55 -108 -5 -3 -9 -18 -9 -34 0 -19 -12 -41 -36 -67
-20 -21 -36 -40 -35 -43 3 -13 -19 -60 -28 -60 -6 0 -11 -6 -11 -14 0 -19 -39
-46 -66 -46 -13 0 -36 -11 -52 -25 -17 -14 -35 -25 -41 -25 -16 0 -14 -7 11
-40 20 -28 20 -31 5 -48 -9 -10 -17 -23 -17 -28 0 -5 -14 -18 -30 -27 -29 -18
-31 -18 -60 3 -17 12 -30 25 -30 30 0 5 -12 23 -26 40 -20 24 -29 28 -35 18
-7 -10 -9 -10 -9 0 0 17 -25 15 -40 -3 -10 -11 -16 -12 -26 -4 -15 12 -3 30
29 42 9 3 17 14 17 23 0 50 64 68 135 38 34 -14 38 -14 50 3 8 10 17 34 20 55
11 61 42 78 115 64 48 -9 58 1 61 59 3 42 9 56 42 89 28 29 37 47 35 66 -2 19
7 39 30 64 17 20 32 42 32 49 0 7 9 28 19 48 11 21 17 46 14 62 -4 22 1 30 31
48 20 11 43 36 52 55 9 19 28 41 43 49 24 13 28 12 44 -7 11 -13 17 -33 15
-52z m-5835 -18 c9 -5 17 -15 17 -23 0 -21 29 -45 54 -45 13 0 31 -9 41 -20
20 -22 55 -26 72 -9 18 18 68 1 121 -42 28 -21 83 -53 123 -70 41 -17 79 -35
84 -39 6 -4 26 -13 46 -19 34 -11 81 -40 240 -149 93 -64 117 -66 154 -12 20
30 35 40 54 40 35 0 48 -10 56 -40 7 -28 -24 -70 -51 -70 -9 0 -27 -9 -40 -19
l-24 -19 32 -29 c57 -50 63 -62 71 -138 2 -18 -4 -20 -63 -19 -36 1 -59 0 -53
-3 10 -3 9 -9 -3 -20 -15 -16 -47 -25 -154 -44 -30 -6 -69 -14 -87 -19 -38 -9
-68 15 -57 45 11 28 -21 45 -72 38 -37 -5 -50 -2 -84 22 -25 17 -47 25 -61 22
-20 -5 -115 18 -134 33 -5 4 -39 15 -75 24 -36 9 -69 21 -74 26 -6 6 -25 10
-42 10 -18 0 -36 5 -40 11 -3 6 -17 9 -30 6 -34 -6 -70 34 -55 61 17 32 46 35
114 12 35 -12 77 -20 93 -18 24 2 30 8 32 33 5 40 19 55 52 55 53 0 84 -19
109 -65 13 -24 32 -47 42 -50 10 -4 37 -21 58 -40 35 -28 50 -34 113 -40 117
-10 175 -23 230 -49 53 -26 83 -21 71 10 -3 8 0 21 7 29 7 8 9 15 5 15 -4 0
-2 7 5 15 11 13 8 19 -14 40 -15 14 -32 25 -38 25 -17 0 -135 58 -143 70 -3 5
-13 10 -21 10 -8 0 -32 11 -53 25 -22 13 -51 27 -66 31 -26 6 -129 72 -195
124 -19 15 -49 31 -67 34 -18 4 -43 16 -56 26 -30 23 -107 38 -107 21 0 -14
-59 -41 -76 -34 -6 2 -11 18 -10 35 1 22 -6 36 -24 49 -25 19 -28 19 -92 2
-53 -14 -71 -15 -92 -5 -35 16 -33 33 9 71 25 22 35 40 35 60 0 16 6 31 13 34
16 6 77 -3 100 -15z m7820 -105 c9 -3 17 -10 17 -16 0 -6 3 -7 6 -4 4 3 15 2
25 -4 12 -6 26 -6 37 -1 25 14 42 4 42 -25 0 -15 -3 -23 -7 -20 -3 4 -11 -1
-18 -9 -8 -12 -20 -15 -43 -9 -18 3 -32 11 -32 17 0 6 -18 7 -50 3 -57 -8 -80
4 -80 40 0 25 42 48 70 38 8 -3 23 -8 33 -10z m-9416 -66 c38 -35 118 -101
178 -147 61 -46 140 -110 178 -142 37 -32 85 -67 108 -78 54 -28 147 -87 183
-117 16 -13 54 -37 85 -53 31 -15 74 -47 96 -70 60 -63 148 -128 212 -157 32
-14 88 -48 125 -74 37 -27 78 -51 91 -54 14 -4 37 -20 53 -36 15 -16 32 -29
37 -29 4 0 29 -14 55 -32 25 -17 66 -43 91 -56 26 -13 53 -31 62 -40 33 -34
57 -50 114 -76 33 -15 74 -38 92 -52 44 -34 140 -77 153 -69 5 3 10 2 10 -3 0
-6 11 -13 25 -16 13 -3 40 -20 59 -36 18 -17 38 -30 43 -30 12 0 56 -60 56
-77 0 -7 4 -13 8 -13 5 0 6 -6 3 -13 -3 -8 2 -20 11 -27 8 -7 15 -18 15 -24 0
-6 15 -27 33 -47 17 -19 38 -47 46 -61 7 -15 33 -41 57 -58 24 -17 44 -35 44
-40 0 -4 19 -18 43 -30 23 -12 52 -31 63 -42 14 -12 24 -16 28 -9 4 6 25 -8
52 -34 47 -47 68 -57 57 -27 -3 9 -3 14 1 10 4 -3 9 -14 10 -24 2 -12 12 -19
31 -21 40 -3 67 -30 54 -55 -6 -11 -13 -17 -16 -14 -7 7 -63 -22 -62 -32 3
-21 -3 -24 -15 -7 -12 17 -16 17 -30 6 -13 -11 -20 -11 -28 -3 -16 16 -52 16
-42 1 4 -7 1 -10 -7 -7 -8 3 -13 12 -11 22 2 9 -4 16 -13 16 -8 0 -15 -5 -15
-12 0 -6 -7 -3 -15 8 -14 19 -14 19 -15 0 0 -16 -3 -17 -12 -8 -22 22 -41 14
-33 -15 5 -23 4 -25 -9 -14 -8 7 -50 15 -93 17 -43 3 -85 11 -93 18 -26 23
-170 68 -195 62 -13 -3 -35 -2 -49 3 -13 6 -61 12 -106 15 -58 3 -85 9 -93 20
-8 11 -33 17 -79 20 -37 2 -75 9 -83 16 -9 7 -18 10 -21 7 -3 -3 -22 3 -42 13
-31 15 -55 18 -147 15 -60 -2 -123 1 -140 5 -16 5 -50 11 -74 13 -38 3 -49 10
-85 52 -42 47 -42 48 -78 36 -38 -13 -151 0 -193 22 -20 10 -30 13 -141 41
-83 21 -243 36 -383 36 -64 1 -168 7 -231 15 -190 24 -317 34 -472 38 -81 1
-151 6 -155 10 -10 10 16 27 42 27 13 0 27 13 40 38 11 20 24 40 30 44 6 5 5
8 -2 8 -7 0 -13 9 -13 20 0 17 7 20 45 20 33 0 45 4 45 15 0 8 5 15 12 15 9 0
9 3 0 12 -10 10 -15 10 -22 -2 -7 -11 -10 -3 -10 28 0 36 5 49 31 73 17 16 40
29 51 29 10 0 16 5 13 10 -3 6 -14 10 -23 10 -12 0 -18 9 -19 29 -2 35 18 43
74 30 21 -5 49 -9 63 -9 20 0 22 2 10 10 -8 5 -27 10 -41 10 -15 0 -32 6 -39
14 -6 8 -21 16 -32 18 -33 5 -32 23 3 62 22 26 37 35 50 31 11 -4 19 -2 19 3
0 17 68 21 127 7 70 -17 96 -18 88 -5 -3 6 -15 10 -25 10 -27 0 -81 35 -109
70 -13 16 -29 30 -37 30 -8 0 -14 9 -14 20 0 11 -4 20 -10 20 -5 0 -10 4 -10
10 0 5 3 9 8 9 4 -1 12 0 17 1 6 1 26 1 45 0 30 -2 32 0 21 14 -7 9 -19 16
-25 16 -23 0 -53 45 -59 87 -6 49 25 123 52 123 15 1 15 1 -1 10 -15 9 -15 13
-2 38 7 15 14 37 14 49 0 12 9 39 20 59 12 20 20 44 19 53 -3 19 11 74 20 81
12 10 41 86 52 140 14 66 17 155 5 193 -14 45 17 33 91 -36z m-707 33 c12 -7
12 -12 2 -22 -13 -13 -16 -57 -4 -74 4 -5 21 -16 39 -23 17 -7 54 -37 80 -66
42 -45 56 -54 96 -60 33 -5 62 -2 98 9 36 12 54 14 63 7 7 -6 16 -8 19 -4 4 3
7 1 7 -5 0 -27 -30 -43 -130 -66 -14 -3 -38 -17 -54 -31 -47 -41 -69 -32 -120
48 -12 18 -27 33 -33 33 -7 1 -20 2 -27 3 -8 0 -21 13 -28 28 -17 36 -57 54
-127 60 -31 2 -62 6 -68 8 -26 9 -12 32 42 70 37 27 55 47 55 62 0 29 57 44
90 23z m9148 -133 c23 -18 14 -45 -20 -52 -21 -5 -55 -32 -103 -81 -40 -41
-79 -74 -88 -74 -10 0 -17 -4 -17 -10 0 -5 -7 -10 -15 -10 -7 0 -18 -6 -22
-13 -4 -8 -26 -21 -48 -29 -22 -9 -39 -21 -38 -27 4 -16 -69 -23 -129 -12 -5
0 -8 8 -8 16 0 13 25 21 53 16 4 -1 10 6 13 14 4 8 12 15 20 15 8 0 32 13 55
29 22 17 55 35 73 41 18 6 39 22 47 37 16 31 114 133 144 149 21 12 62 8 83
-9z m-5181 -48 c63 -26 73 -33 73 -55 0 -12 -8 -32 -18 -45 -18 -21 -27 -23
-157 -25 -77 -2 -151 -8 -167 -15 -15 -6 -49 -9 -74 -6 -63 7 -82 0 -100 -39
-17 -36 -49 -53 -67 -35 -7 7 -7 18 1 36 7 14 12 40 12 56 0 34 16 69 31 69 6
0 42 14 80 30 103 46 307 61 386 29z m460 -88 c12 -11 23 -26 25 -33 4 -10 14
-10 49 3 50 18 81 12 99 -21 15 -28 80 -88 104 -96 10 -3 32 -19 47 -35 l28
-29 -124 0 c-112 0 -127 2 -145 20 -11 11 -20 30 -20 42 0 30 -44 84 -75 92
-14 4 -25 13 -25 22 0 8 -7 17 -15 20 -28 11 -17 24 26 33 3 0 15 -8 26 -18z
m3726 -114 c10 -6 20 -29 23 -49 6 -35 5 -37 -37 -57 -23 -12 -49 -21 -56 -21
-7 0 -13 -4 -13 -8 0 -4 -35 -37 -78 -72 -43 -35 -85 -78 -93 -95 -14 -26 -21
-30 -60 -30 -51 0 -89 -12 -89 -27 0 -6 -6 -6 -15 2 -9 7 -15 29 -15 52 0 57
34 88 97 88 46 0 49 2 133 86 47 47 98 99 114 115 31 31 62 37 89 16z m-1394
-73 c24 -30 42 -89 39 -126 -2 -23 -8 -26 -50 -31 -39 -5 -55 -13 -82 -42 -18
-19 -29 -35 -25 -35 5 0 9 -7 9 -15 0 -17 -27 -19 -65 -5 l-25 10 30 53 c16
30 30 61 30 71 0 22 38 106 58 129 22 25 57 21 81 -9z m-4774 -54 c22 -5 78
-12 125 -15 47 -3 123 -8 170 -11 47 -4 110 -6 141 -5 43 2 69 -4 110 -24 79
-38 105 -53 120 -71 12 -14 10 -19 -15 -39 -27 -22 -28 -24 -12 -46 23 -33 21
-37 -19 -45 -62 -11 -139 31 -129 71 10 39 -19 49 -155 56 -251 13 -476 50
-495 82 -9 15 -6 22 13 38 26 21 80 25 146 9z m6475 -90 c37 -56 -33 -93 -175
-93 -161 -1 -207 24 -152 83 23 25 26 25 171 25 119 0 149 -3 156 -15z m-1393
-100 c6 -19 17 -48 24 -65 7 -16 13 -40 14 -53 1 -22 -2 -23 -40 -16 -22 3
-80 19 -130 34 -49 16 -116 34 -147 41 -54 11 -79 29 -42 29 9 0 29 14 45 31
27 29 32 30 76 24 27 -3 59 -2 73 4 14 6 45 9 70 8 42 -2 46 -4 57 -37z m646
-120 c-10 -16 -34 -39 -53 -52 -46 -32 -46 -52 2 -56 31 -3 43 2 63 24 14 15
25 33 25 40 0 7 9 15 19 19 11 3 22 12 25 20 8 21 59 18 89 -5 32 -25 47 -25
94 1 61 35 92 40 124 23 38 -19 38 -52 0 -83 -16 -13 -27 -30 -25 -36 3 -6 -4
-22 -14 -35 -17 -21 -26 -23 -93 -21 -92 3 -119 18 -119 66 0 41 -15 53 -39
31 -10 -9 -21 -16 -26 -16 -15 0 -44 -42 -51 -73 -9 -46 -22 -57 -65 -57 -64
0 -349 111 -349 136 0 8 7 14 15 14 8 0 15 4 15 8 0 11 45 32 68 32 9 0 30 -7
46 -15 53 -28 119 -11 145 38 13 25 33 37 86 54 25 7 31 6 33 -10 2 -10 -5
-31 -15 -47z m3401 54 c10 -26 8 -29 -41 -64 -27 -19 -59 -44 -72 -57 -13 -13
-29 -23 -36 -23 -6 0 -26 -7 -44 -16 -17 -9 -42 -17 -54 -19 -12 -1 -44 -13
-72 -26 -27 -12 -65 -22 -84 -20 -18 1 -39 -3 -46 -9 -7 -6 -24 -13 -36 -15
-13 -3 -29 -12 -35 -20 -15 -20 -54 -20 -54 0 0 8 3 14 8 14 23 -4 42 4 66 26
14 13 68 40 119 60 134 53 191 81 228 112 76 65 141 89 153 57z m-6059 -41
c-4 -13 1 -14 27 -9 21 4 28 3 19 -3 -9 -6 -3 -10 22 -13 20 -2 34 -1 31 3 -8
14 26 25 61 21 19 -2 33 -7 30 -11 -2 -4 17 -7 43 -7 26 1 58 -3 71 -8 16 -6
21 -5 17 3 -4 7 1 11 13 11 11 0 23 5 26 10 3 6 11 10 18 10 6 0 2 -6 -8 -14
-17 -13 -16 -14 23 -21 70 -11 183 -10 190 2 6 9 22 8 62 -1 l55 -14 -70 -2
c-61 -2 -65 -3 -35 -10 45 -11 206 -14 246 -5 21 5 35 2 45 -8 24 -23 56 -37
88 -37 16 0 33 -4 36 -10 3 -5 37 -10 76 -10 44 0 69 -4 69 -11 0 -7 -10 -9
-26 -5 -15 4 -23 3 -20 -2 9 -15 59 -21 80 -10 17 9 16 11 -10 29 -19 12 -23
19 -13 19 9 0 28 -12 42 -26 15 -14 32 -24 39 -21 7 2 30 -4 50 -14 21 -11 44
-19 53 -19 8 0 15 -7 15 -15 0 -8 9 -15 21 -15 11 0 18 4 14 9 -3 5 4 12 14
16 26 8 84 -22 75 -38 -4 -7 -4 -9 1 -5 4 4 14 3 22 -4 7 -6 17 -8 20 -4 4 4
1 12 -7 17 -11 8 -6 9 20 5 35 -5 35 -5 10 9 -14 8 -36 15 -50 15 -23 1 -24 2
-7 14 16 13 16 14 1 20 -9 4 -14 9 -11 12 3 3 13 1 24 -4 10 -6 48 -24 86 -41
37 -17 67 -35 67 -40 0 -12 60 -32 73 -24 6 3 7 1 3 -5 -4 -7 -5 -12 -2 -12 2
0 12 -3 22 -7 13 -5 15 -3 9 7 -6 10 -4 12 9 7 10 -4 23 -7 29 -7 7 0 6 -5 -3
-11 -12 -9 -12 -10 3 -5 10 3 28 6 40 7 21 0 21 1 2 10 -17 8 -17 9 5 4 14 -2
31 -5 38 -5 6 0 12 -5 12 -11 0 -5 -5 -7 -10 -4 -12 7 -42 -20 -33 -29 11 -11
34 -6 27 6 -4 7 -3 8 5 4 6 -4 23 -1 36 8 30 20 39 20 32 2 -4 -10 5 -16 30
-21 19 -3 43 -10 52 -15 9 -5 36 -16 61 -24 45 -16 45 -16 22 3 -15 13 -19 22
-11 26 6 4 16 2 22 -4 6 -6 17 -11 25 -11 27 0 83 -33 74 -42 -6 -6 -18 -6
-31 2 -12 6 -27 9 -34 6 -7 -2 -5 -5 5 -5 9 -1 23 -7 30 -14 7 -7 33 -18 58
-25 39 -9 42 -9 26 3 -29 22 -11 35 32 23 94 -25 217 -79 246 -109 15 -14 38
-11 30 4 -4 6 2 3 14 -7 12 -11 20 -21 18 -23 -6 -7 -88 17 -127 38 -20 10
-63 23 -95 28 -70 12 -162 38 -303 86 -58 20 -110 34 -116 32 -13 -6 -140 18
-180 33 -50 19 -163 40 -215 40 -27 0 -67 6 -87 14 -21 8 -60 17 -87 20 -41 5
-98 21 -186 54 -8 3 -28 6 -45 7 -56 3 -280 36 -343 51 -35 7 -82 14 -106 14
-23 0 -67 4 -97 9 -55 10 -69 12 -219 30 -141 17 -638 23 -810 10 -85 -7 -168
-13 -185 -14 -209 -13 -278 -19 -325 -29 -59 -13 -154 -10 -144 5 3 5 -2 9
-10 9 -9 0 -16 -6 -16 -14 0 -10 -16 -17 -47 -21 -27 -3 -73 -10 -103 -15
-103 -17 -150 -21 -150 -12 0 12 49 34 61 27 5 -4 9 -1 9 4 0 6 7 11 15 11 8
0 15 -5 15 -11 0 -11 27 -8 85 8 11 3 38 8 60 10 22 3 44 9 50 14 5 5 21 9 36
9 15 0 31 5 34 10 3 6 18 10 33 10 21 0 23 -3 12 -10 -20 -13 -6 -23 17 -12
85 42 163 56 328 57 123 2 152 4 137 14 -20 12 79 6 112 -8 24 -9 37 -9 72 5
24 9 44 21 44 26 0 5 4 7 8 4 31 -19 190 -17 178 2 -2 4 11 6 30 4 26 -3 34
-8 29 -19z m3515 -153 c11 -11 20 -23 20 -28 0 -11 -38 -42 -51 -42 -6 0 -32
-11 -58 -24 -79 -43 -117 -54 -215 -66 -95 -12 -126 -10 -126 10 0 21 126 83
225 110 22 6 60 22 85 35 55 30 94 31 120 5z m616 -75 c38 -22 53 -40 59 -71
2 -7 -18 -11 -54 -12 -32 0 -62 -2 -67 -3 -5 -2 -25 5 -44 14 -19 8 -47 18
-62 22 -36 7 -35 19 3 57 27 28 34 30 76 24 26 -3 65 -17 89 -31z m1452 -386
c18 -14 39 -20 67 -18 91 4 99 -2 70 -57 -17 -33 -50 -53 -86 -54 -21 0 -31 8
-45 38 -10 20 -17 40 -17 43 1 3 -9 4 -22 2 -17 -4 -28 2 -40 21 -9 14 -14 30
-10 36 10 17 55 11 83 -11z m-489 -180 c25 -6 54 -20 66 -32 11 -12 36 -34 55
-49 l35 -27 -42 -1 c-23 0 -44 4 -48 9 -3 5 -31 13 -63 17 -68 8 -72 10 -107
52 -44 52 -20 59 104 31z m-8771 -495 c12 -8 28 -12 34 -8 33 20 128 -15 142
-53 4 -9 5 -17 4 -18 -12 -10 -120 -34 -132 -29 -12 5 -16 -1 -16 -23 0 -16
-3 -33 -6 -36 -11 -11 -66 34 -76 63 -5 15 -20 32 -33 38 -27 13 -34 49 -13
70 17 17 69 15 96 -4z m1166 -185 c37 -20 65 -51 88 -98 12 -25 27 -51 32 -57
44 -47 79 -104 70 -112 -4 -4 -9 -1 -11 6 -8 22 -51 67 -58 61 -3 -4 6 -21 21
-38 15 -18 24 -38 20 -47 -6 -17 29 -53 52 -54 17 0 15 -20 -3 -20 -8 0 -15
-4 -15 -10 0 -5 5 -10 11 -10 5 0 7 -4 4 -10 -3 -5 -15 -10 -26 -10 -10 0 -19
-5 -19 -11 0 -7 11 -9 28 -6 28 6 67 -14 54 -27 -4 -4 5 -5 20 -1 20 5 29 2
37 -13 15 -28 14 -35 -4 -28 -10 3 -15 -1 -15 -13 0 -30 11 -51 26 -51 8 0 14
-4 14 -9 0 -5 10 -11 23 -13 18 -2 21 -8 19 -33 -1 -16 1 -25 5 -19 12 15 41
25 48 14 3 -4 -1 -11 -7 -14 -7 -2 -2 -4 12 -3 16 1 25 -4 28 -16 3 -15 0 -18
-18 -12 -18 6 -21 3 -18 -12 2 -10 11 -18 20 -18 10 0 26 -7 35 -15 10 -8 24
-15 31 -16 27 -2 32 -5 32 -17 0 -7 9 -18 20 -25 11 -7 20 -20 20 -30 0 -12
-10 -7 -34 21 -39 42 -50 47 -33 14 17 -32 81 -87 101 -87 9 0 16 -4 16 -10 0
-5 7 -10 15 -10 8 0 15 -8 14 -17 0 -12 -2 -13 -6 -5 -4 10 -8 9 -19 -5 -19
-26 -17 -35 6 -28 23 7 26 -5 8 -24 -11 -10 -9 -11 7 -5 11 4 25 13 30 20 8
11 14 10 29 -1 19 -15 19 -15 -2 -15 -27 0 -29 -17 -2 -25 11 -3 20 -14 20
-22 0 -9 3 -13 6 -10 4 3 16 -5 26 -19 11 -14 18 -28 14 -31 -3 -4 -6 -2 -6 4
0 6 -9 13 -19 16 -13 3 -18 0 -17 -11 3 -21 35 -42 64 -42 19 0 22 -3 14 -13
-15 -18 12 -57 38 -57 15 0 19 -6 17 -22 -2 -19 3 -23 24 -23 29 -1 79 -30 79
-46 0 -6 -4 -7 -10 -4 -6 3 -7 -1 -4 -9 3 -9 12 -16 20 -16 8 0 14 -6 14 -13
0 -8 16 -28 35 -46 19 -17 35 -28 35 -24 0 4 6 -2 14 -13 8 -10 20 -19 28 -19
7 0 13 -7 13 -15 0 -8 6 -16 13 -16 25 -3 27 -6 7 -15 -15 -7 -12 -8 13 -3 18
3 32 2 30 -3 -4 -14 13 -53 23 -53 5 0 9 -6 9 -14 0 -8 8 -13 17 -12 10 0 22
-9 28 -21 5 -13 15 -23 22 -23 7 0 13 -4 13 -10 0 -5 7 -10 16 -10 8 0 13 -4
10 -9 -3 -5 4 -16 17 -24 12 -9 34 -26 49 -39 14 -13 36 -30 49 -38 12 -8 39
-28 58 -45 44 -36 98 -75 106 -75 3 0 11 -4 18 -10 7 -5 32 -26 57 -46 25 -19
53 -42 63 -50 9 -8 20 -14 23 -14 2 0 10 -5 17 -11 28 -24 117 -81 178 -113
36 -19 71 -41 78 -50 8 -9 17 -16 21 -16 4 0 31 -16 60 -35 29 -19 56 -35 62
-35 5 0 24 -11 42 -25 18 -14 37 -25 43 -25 5 0 18 -9 28 -20 10 -11 24 -20
30 -20 22 0 65 -27 57 -35 -4 -4 3 -4 16 -1 15 5 24 3 28 -8 4 -9 12 -15 18
-14 6 2 13 -1 15 -7 6 -16 60 -53 133 -92 37 -19 65 -39 63 -43 -3 -5 0 -12 6
-16 8 -4 9 -3 5 4 -4 7 -4 12 1 12 12 0 118 -54 121 -62 2 -5 10 -8 18 -8 8 0
14 -4 14 -8 0 -5 18 -15 40 -22 22 -7 40 -17 40 -23 0 -5 6 -7 14 -4 17 7 36
-11 36 -35 0 -10 7 -21 15 -24 8 -4 15 -10 15 -15 0 -4 -7 -6 -17 -2 -13 5
-15 2 -11 -15 7 -25 7 -25 -26 -12 -26 9 -38 -3 -13 -13 6 -3 2 -6 -11 -6 -13
-1 -21 3 -18 8 11 17 -219 89 -301 94 -7 0 -13 4 -13 9 0 4 -7 8 -16 8 -22 0
-115 41 -110 49 2 3 -12 7 -31 8 -19 1 -40 6 -46 11 -7 6 -21 12 -32 16 -11 3
-3 4 18 1 49 -5 39 11 -12 20 -57 9 -63 35 -8 36 69 1 13 17 -100 28 -54 6
-118 17 -143 25 -25 8 -61 17 -81 20 -25 5 -38 13 -42 26 -3 11 -13 20 -24 19
-16 0 -16 -1 2 -9 18 -8 17 -9 -7 -9 -16 -1 -28 1 -28 3 0 2 -3 12 -6 21 -6
14 0 15 45 11 28 -3 51 -3 51 -1 0 3 -14 12 -31 20 -39 21 -33 28 11 15 42
-12 52 -4 14 11 -53 21 -115 33 -319 60 l-90 13 53 12 c29 7 62 10 73 7 11 -3
27 1 37 9 18 16 31 16 97 4 22 -4 38 -6 35 -3 -14 14 -119 47 -150 47 -19 0
-69 6 -110 14 -41 7 -117 19 -168 26 -51 7 -91 14 -89 16 2 2 21 6 42 9 51 6
104 23 85 26 -8 1 17 5 55 9 50 5 81 3 109 -7 22 -7 41 -11 43 -9 9 9 -90 46
-124 46 -21 0 -63 4 -93 10 -30 5 -122 21 -204 35 -82 13 -152 28 -155 31 -3
4 10 4 29 0 42 -8 150 3 150 15 0 5 -12 7 -27 3 -20 -4 -24 -3 -14 4 11 8 9
11 -10 15 -13 3 3 2 36 0 33 -3 73 -12 89 -19 39 -19 54 -18 30 2 -18 15 -18
15 11 10 17 -2 39 -8 50 -11 16 -6 16 -3 -5 14 -15 12 -40 21 -61 21 -19 0
-58 6 -85 14 -27 8 -77 20 -111 27 -35 6 -63 14 -63 18 0 3 -29 6 -64 6 -43 0
-69 5 -78 14 -11 12 -10 13 2 9 8 -3 26 -8 40 -12 23 -7 24 -6 6 8 -17 14 -16
15 18 22 21 3 35 8 33 11 -9 9 -126 -21 -120 -31 4 -5 -1 -7 -11 -3 -10 4 -25
7 -33 7 -32 0 -2 14 50 23 79 15 193 11 219 -8 25 -16 42 -20 34 -6 -6 10 52
24 65 15 5 -3 9 -1 9 4 0 14 -26 22 -68 22 -20 0 -66 9 -101 20 -35 10 -97 24
-137 31 -40 6 -71 16 -68 20 3 5 -1 9 -8 10 -7 1 14 7 47 15 33 7 44 12 25 10
-20 -2 -43 2 -53 9 -15 11 -10 12 35 8 76 -6 85 -8 100 -20 31 -25 57 -33 64
-21 4 7 3 8 -4 4 -7 -4 -12 -2 -12 3 0 6 -7 11 -15 11 -8 0 -15 4 -15 9 0 13
25 20 52 15 22 -5 22 -5 4 10 -10 8 -23 13 -29 9 -19 -12 -95 -3 -139 17 -23
11 -56 20 -71 20 -16 0 -26 4 -22 10 5 8 -45 16 -77 11 -3 0 -5 7 -3 17 1 9
-3 21 -9 25 -6 5 6 6 27 2 27 -4 37 -3 32 4 -8 13 9 14 55 2 19 -5 50 -12 69
-15 33 -6 34 -5 17 13 -9 10 -37 21 -62 25 -24 3 -78 17 -119 31 -42 14 -82
25 -89 25 -8 0 -16 5 -18 10 -2 6 -17 11 -34 13 -37 2 -35 22 4 32 15 4 29 10
32 15 3 4 26 4 52 1 33 -5 49 -4 52 4 2 7 -29 20 -87 34 -51 13 -105 29 -121
37 -16 8 -41 15 -55 15 -17 1 -20 3 -8 6 9 2 17 9 17 14 0 6 16 8 38 5 20 -3
28 -3 18 0 -11 4 -26 13 -34 21 -13 13 -10 14 24 7 21 -4 58 -16 82 -27 41
-19 75 -16 39 4 -9 6 -14 15 -11 21 4 6 2 8 -4 4 -6 -3 -35 4 -64 17 -45 19
-80 31 -156 53 -7 2 -10 8 -7 14 4 6 -5 10 -19 10 -14 0 -28 5 -31 10 -4 6 5
10 19 10 14 0 26 5 26 10 0 15 41 12 70 -5 34 -19 39 -18 33 5 -3 11 -9 20
-14 20 -5 0 -46 18 -93 40 -46 22 -92 41 -102 41 -18 1 -18 2 0 6 15 4 16 7 5
15 -10 7 -8 8 9 3 12 -4 22 -2 22 4 0 12 59 4 74 -10 6 -5 15 -9 20 -9 12 0
-34 39 -46 40 -4 0 -29 14 -55 30 -27 17 -59 32 -72 35 -31 6 -39 14 -22 24
19 12 -4 24 -32 17 -12 -3 -29 -1 -37 4 -12 8 -11 10 6 10 11 0 25 5 32 12 8
8 12 8 12 1 0 -13 45 -23 61 -12 8 5 -3 17 -35 36 -27 15 -54 34 -61 41 -8 6
-22 12 -32 12 -14 0 -11 7 15 29 l33 29 -33 23 c-18 13 -38 30 -44 38 -6 8
-16 11 -22 7 -15 -9 -62 11 -62 28 0 8 -8 17 -17 19 -10 3 -7 4 7 3 14 -1 31
-5 38 -10 8 -5 18 -3 25 4 9 9 5 18 -18 37 -16 15 -29 32 -27 40 2 7 -4 16
-13 19 -8 3 -15 11 -15 18 0 17 -57 76 -73 76 -8 0 -21 8 -28 17 -12 15 -12
16 8 11 12 -3 24 -1 26 6 9 23 -18 43 -68 51 -27 4 -44 10 -37 12 6 3 10 8 7
13 -3 4 1 8 8 7 51 -2 65 23 25 44 -20 11 -20 12 -4 24 16 12 16 14 -3 27 -12
8 -22 26 -23 40 -2 19 -7 24 -20 20 -14 -3 -17 0 -12 13 5 11 1 21 -9 27 -10
5 -17 21 -17 35 0 25 1 26 56 19 31 -3 66 -11 78 -17z m-1753 -281 c27 -29 49
-59 49 -67 0 -8 18 -31 40 -50 44 -40 57 -83 27 -89 -22 -5 -73 41 -81 72 -7
27 -53 62 -97 73 -44 12 -81 72 -60 97 27 32 69 20 122 -36z m2246 22 c14 -11
40 -20 57 -21 30 -1 30 -1 6 -9 -24 -8 -23 -8 8 -9 17 -1 32 -5 32 -11 0 -5 8
-10 18 -10 14 0 15 2 2 10 -9 6 -10 10 -3 10 19 0 73 -50 73 -68 0 -12 3 -13
12 -4 7 7 23 12 38 11 22 0 22 -1 6 -8 -16 -6 -17 -9 -4 -13 8 -4 21 -2 29 3
18 11 42 12 35 0 -4 -5 9 -8 29 -7 19 2 32 0 30 -5 -3 -4 2 -14 10 -22 8 -9
15 -20 15 -26 0 -6 5 -11 10 -11 6 0 10 -9 10 -20 0 -12 -7 -20 -16 -20 -9 0
-14 -6 -11 -12 2 -7 12 -13 23 -13 10 1 22 -3 25 -9 8 -11 59 1 59 14 0 6 -9
10 -20 10 -11 0 -20 4 -20 8 0 17 12 21 36 12 13 -5 24 -7 24 -4 0 9 -24 30
-45 39 -19 8 -19 8 -1 13 10 2 22 -2 26 -8 5 -8 21 -11 39 -8 22 3 30 1 27 -7
-3 -8 4 -10 18 -8 16 3 28 -3 40 -23 l18 -27 -28 7 -29 6 27 -24 c26 -23 27
-25 8 -31 -11 -4 -20 -13 -20 -21 0 -17 12 -18 28 -2 9 9 12 9 12 -3 0 -25
-21 -40 -37 -27 -7 6 -17 7 -21 3 -4 -4 -1 -10 6 -12 7 -3 22 -15 33 -27 17
-18 18 -21 5 -24 -33 -7 -14 -22 24 -20 32 1 40 5 40 20 0 27 17 22 22 -7 5
-25 3 -27 -47 -29 -11 -1 -21 -9 -23 -19 -4 -21 5 -21 52 -2 32 14 36 14 36 0
0 -9 -4 -14 -9 -11 -14 9 -41 -4 -41 -20 0 -8 -10 -14 -25 -14 -16 0 -25 6
-25 15 0 8 -4 15 -10 15 -5 0 -10 -18 -10 -40 0 -22 5 -40 10 -40 6 0 10 6 10
13 0 15 56 22 65 7 4 -7 12 -7 25 0 10 5 27 10 37 9 12 0 6 -6 -15 -15 -29
-13 -72 -47 -72 -58 0 -10 39 8 44 20 6 17 47 19 63 3 14 -14 6 -39 -12 -39
-17 0 -40 -29 -30 -38 4 -4 10 -1 12 6 6 17 23 15 23 -3 0 -8 4 -15 9 -15 15
0 23 18 11 25 -15 9 -12 25 6 25 8 0 12 4 9 10 -3 6 1 7 9 4 11 -4 16 0 16 11
0 10 -5 15 -13 12 -19 -7 -38 18 -24 32 9 9 9 14 -2 20 -9 6 -11 16 -6 27 6
17 8 17 16 -5 5 -13 7 -32 4 -42 -5 -15 -1 -19 22 -20 44 -2 57 2 76 22 10 10
26 19 37 19 10 0 27 3 37 6 17 5 16 4 -1 -10 -25 -20 -15 -31 13 -14 28 17 28
48 1 41 -11 -3 -20 -1 -20 3 0 12 74 44 80 35 9 -13 50 -7 50 7 0 10 -7 12
-25 8 -18 -5 -27 -2 -31 9 -4 8 -15 15 -25 15 -21 0 -26 -16 -6 -23 6 -2 -3
-7 -21 -11 -26 -6 -36 -4 -46 9 -11 15 -16 16 -37 4 -13 -7 -28 -14 -34 -15
-5 0 -12 -2 -15 -4 -3 -1 -20 -3 -37 -5 -27 -2 -33 1 -33 16 0 11 -7 19 -17
19 -25 0 -39 12 -47 38 -6 17 -3 22 11 22 15 0 16 2 3 10 -9 6 -17 5 -21 -1
-3 -6 -9 -2 -11 9 -3 11 -2 26 3 33 7 11 9 10 9 -3 0 -23 5 -23 30 2 19 19 19
19 -20 41 -22 13 -40 28 -40 35 0 7 -7 17 -16 22 -10 5 -12 12 -6 15 5 4 21
-5 35 -18 21 -22 26 -23 37 -10 14 17 60 21 60 5 0 -5 18 -10 40 -10 38 0 54
-13 28 -23 -7 -3 -4 -5 7 -6 74 -3 95 -7 95 -17 0 -16 -28 -26 -51 -19 -11 4
-19 2 -19 -5 0 -6 5 -8 10 -5 6 3 10 -1 10 -9 0 -22 23 -20 38 4 15 24 42 27
42 4 0 -25 -26 -44 -59 -44 -21 0 -31 5 -31 16 0 20 -51 15 -58 -5 -3 -10 1
-12 17 -8 11 3 21 2 21 -2 0 -12 78 -29 88 -19 6 6 12 6 16 0 3 -5 -3 -17 -14
-27 -13 -11 -20 -14 -20 -6 0 7 -4 9 -10 6 -14 -9 -12 -22 4 -28 7 -3 29 8 47
23 29 25 32 31 19 40 -11 7 -5 10 25 11 l40 1 -32 9 c-32 9 -43 31 -23 44 6 3
10 1 10 -5 0 -7 6 -8 19 0 11 5 28 10 38 9 15 0 14 -2 -4 -9 -26 -11 -31 -30
-7 -30 8 0 12 5 9 10 -4 6 6 10 27 9 47 -2 69 -9 63 -20 -4 -5 0 -9 8 -9 8 0
18 -8 22 -17 6 -17 7 -17 16 0 6 9 7 22 3 29 -4 7 -3 8 4 4 7 -4 12 -14 12
-22 0 -8 7 -14 15 -14 8 0 15 -5 15 -11 0 -5 5 -7 11 -3 8 5 8 9 -1 14 -9 5
-9 9 -1 14 6 4 18 0 27 -8 19 -19 31 -20 37 -3 3 7 6 5 6 -5 1 -11 9 -18 20
-18 27 0 51 -10 51 -22 0 -6 -10 -8 -21 -5 -13 3 -32 -2 -48 -13 -31 -21 -86
-36 -76 -20 3 6 -3 10 -14 10 -12 0 -21 6 -21 14 0 8 -14 19 -31 25 -42 15
-58 13 -37 -3 17 -12 17 -14 -1 -30 -13 -12 -27 -16 -42 -11 -22 7 -22 7 -5
-10 17 -17 20 -17 46 -2 30 18 60 22 60 9 0 -14 -36 -43 -44 -35 -4 4 -4 0 0
-10 5 -14 2 -16 -24 -11 -24 5 -30 2 -35 -15 -3 -14 0 -21 10 -21 8 0 11 5 8
10 -3 6 3 10 14 10 14 0 19 -5 15 -15 -4 -8 -1 -15 5 -15 6 0 16 11 21 24 6
17 18 25 42 28 18 3 41 8 50 12 13 6 15 3 12 -11 -3 -12 3 -21 18 -28 37 -16
34 -41 -6 -55 -20 -6 -36 -17 -36 -23 0 -8 -3 -7 -9 1 -7 11 -9 10 -15 -3 -4
-11 -12 -14 -25 -10 -11 3 -25 -1 -34 -10 -18 -18 -30 -6 -16 15 13 22 11 37
-7 44 -11 4 -14 1 -10 -12 5 -14 0 -17 -28 -17 -23 0 -32 4 -29 13 3 6 9 12
15 12 5 0 6 5 3 11 -5 6 -13 3 -22 -10 -8 -12 -24 -21 -36 -21 -20 1 -18 4 13
30 19 16 31 30 26 30 -5 0 -17 -6 -25 -14 -22 -19 -61 -30 -61 -17 0 5 8 15
18 20 27 16 8 13 -34 -6 -34 -15 -36 -17 -16 -21 13 -2 26 -10 29 -18 3 -8 12
-14 21 -14 13 0 13 -2 -1 -18 -22 -24 -22 -62 -1 -62 12 0 14 7 9 29 -5 22 -2
30 12 35 10 3 24 9 31 12 6 3 12 -1 12 -9 0 -8 -9 -17 -20 -20 -11 -3 -20 -12
-20 -21 0 -13 4 -15 19 -6 27 14 34 13 27 -5 -3 -9 0 -15 9 -15 8 0 18 17 24
43 l11 42 -5 -52 c-2 -30 0 -53 5 -53 6 0 10 7 10 16 0 12 6 15 24 10 18 -4
23 -2 22 11 0 8 5 18 12 20 6 3 12 -1 12 -9 0 -24 -18 -42 -51 -53 -40 -14
-60 -42 -40 -54 10 -7 10 -10 1 -16 -7 -4 -16 -1 -21 6 -6 9 -8 0 -7 -26 0
-23 3 -30 5 -17 5 25 21 29 29 7 4 -8 10 -12 16 -9 5 3 4 11 -3 20 -9 11 -7
16 12 23 18 6 25 5 27 -5 5 -18 21 -18 28 1 4 8 10 12 15 9 5 -3 9 2 9 11 0
17 -12 17 -72 -1 -13 -4 -18 0 -18 14 0 15 6 19 26 16 18 -2 34 6 50 23 12 13
28 22 33 18 6 -3 11 -1 11 6 0 7 8 9 21 6 15 -4 19 -1 17 11 -4 18 -40 18 -46
1 -5 -14 -22 0 -22 18 0 9 6 13 15 9 9 -3 24 3 34 13 19 19 19 19 26 -2 6 -19
8 -20 12 -4 4 16 29 22 78 19 19 -2 19 -1 1 9 -10 6 -34 9 -54 5 -34 -5 -34
-5 -14 10 12 8 19 21 16 29 -4 8 -1 15 5 15 6 0 11 -7 11 -15 0 -8 5 -15 10
-15 6 0 10 9 10 20 0 11 -7 20 -15 20 -8 0 -15 5 -15 10 0 6 -9 10 -19 10 -21
0 -33 22 -25 45 8 20 68 20 84 0 9 -11 16 -13 24 -5 15 15 41 12 60 -9 20 -22
13 -46 -26 -84 -29 -28 -36 -47 -18 -47 6 0 10 7 10 15 0 8 8 19 18 24 16 9
21 5 30 -25 9 -29 8 -39 -6 -55 -9 -11 -19 -29 -22 -41 -3 -12 -17 -25 -30
-29 l-25 -7 23 -7 c16 -6 21 -13 17 -26 -8 -24 -1 -24 26 -1 57 47 86 78 83
92 -2 8 -6 27 -10 43 -5 20 -3 27 9 27 9 0 17 7 19 15 2 10 7 12 18 5 13 -9
11 -13 -10 -30 -14 -11 -19 -20 -12 -20 7 0 23 9 35 20 18 17 19 24 9 40 -18
30 -3 56 31 51 4 0 7 7 7 18 0 10 7 24 15 31 12 10 15 9 15 -5 0 -11 5 -15 15
-11 21 8 19 0 -12 -34 -19 -22 -29 -27 -34 -18 -6 10 -11 10 -20 1 -9 -9 -8
-16 5 -28 20 -20 21 -41 1 -49 -8 -3 -15 -15 -15 -26 0 -14 -7 -20 -23 -20
-22 0 -23 -3 -21 -70 1 -38 -1 -70 -5 -70 -4 0 -15 -16 -24 -35 -19 -41 -23
-100 -6 -89 8 4 9 0 4 -15 -7 -22 9 -30 19 -8 3 6 3 2 0 -10 -3 -13 -1 -23 5
-23 6 0 11 6 11 14 0 8 9 18 20 21 11 3 20 13 20 21 0 8 5 14 10 14 6 0 10 7
10 15 0 8 6 15 13 15 7 0 14 11 15 25 1 16 -3 25 -13 25 -18 0 -20 21 -3 38 9
9 9 12 0 12 -7 0 -12 -5 -12 -12 0 -6 -3 -8 -7 -4 -9 9 -11 46 -2 41 8 -5 19
30 19 63 0 12 5 22 11 22 14 0 39 -25 39 -39 0 -6 4 -11 10 -11 5 0 9 8 7 18
-1 9 3 17 8 17 9 0 10 -12 6 -63 -1 -9 -9 -11 -23 -7 -20 5 -21 5 -5 -5 11 -7
15 -16 10 -23 -7 -11 -9 -34 -3 -47 1 -3 3 -18 4 -35 1 -16 5 -36 9 -42 5 -7
6 -17 3 -22 -3 -4 10 -1 29 7 19 9 35 20 35 25 0 5 -7 4 -15 -3 -15 -12 -45
-7 -45 7 0 14 63 38 68 25 5 -16 38 17 47 48 4 14 13 28 19 33 8 5 6 10 -4 17
-13 8 -13 10 2 10 9 0 20 -5 23 -10 5 -8 11 -7 21 1 18 15 32 3 16 -13 -23
-23 -12 -27 21 -8 17 11 44 25 60 31 28 11 37 29 15 29 -7 0 -22 -7 -32 -15
-24 -18 -36 -19 -36 -2 0 7 10 17 23 22 17 8 22 18 21 43 -1 28 2 32 20 30 11
-2 21 3 22 10 3 25 4 25 17 8 10 -14 18 -15 40 -7 15 6 27 15 27 21 0 13 -27
13 -35 0 -9 -15 -25 -12 -25 4 0 9 -8 12 -25 8 -20 -3 -25 0 -25 16 0 11 -6
23 -12 25 -8 3 -5 6 5 6 10 1 17 7 14 14 -2 7 -15 11 -30 9 -15 -2 -27 0 -27
5 0 4 10 9 23 9 12 1 31 5 42 8 19 6 21 3 21 -33 0 -22 -3 -38 -7 -35 -4 2
-10 0 -14 -5 -6 -11 54 -10 71 2 6 3 19 -2 29 -13 18 -20 18 -21 -3 -43 -29
-30 -28 -39 3 -31 19 5 24 3 20 -8 -4 -11 2 -15 25 -15 24 0 29 4 25 18 -6 19
28 45 45 34 6 -3 10 3 10 14 0 28 17 35 25 10 4 -12 10 -17 14 -12 3 6 16 13
29 17 16 5 22 3 22 -7 0 -16 -21 -28 -59 -33 -35 -4 -47 -21 -21 -29 12 -4 27
-2 33 4 17 17 31 13 17 -4 -10 -12 -9 -15 4 -15 9 0 19 7 22 15 4 8 10 13 14
10 12 -7 40 5 40 17 0 6 -9 8 -21 5 -15 -4 -19 -2 -15 10 3 8 6 27 6 41 0 24
4 27 34 28 29 0 32 -1 19 -14 -20 -20 -9 -26 27 -14 17 6 37 9 45 6 19 -8 19
-34 1 -34 -22 0 -30 -19 -16 -35 10 -12 9 -15 -6 -16 -16 0 -16 -2 4 -11 13
-7 21 -17 18 -25 -6 -16 10 -18 20 -2 3 6 0 16 -7 21 -10 7 -11 11 -2 14 7 3
9 12 6 20 -3 9 4 24 16 36 21 19 22 19 19 2 -2 -11 -10 -24 -18 -31 -13 -10
-10 -12 15 -13 23 0 27 -3 15 -10 -12 -8 -10 -10 8 -10 13 0 21 -4 18 -9 -8
-12 -46 -2 -46 12 0 6 -2 8 -5 5 -11 -11 8 -37 32 -43 24 -6 25 -7 7 -21 -20
-17 -19 -16 81 1 17 3 9 -2 -17 -11 -27 -9 -48 -21 -48 -27 0 -5 7 -7 15 -3 8
3 15 1 15 -4 0 -6 -7 -10 -15 -10 -8 0 -15 -7 -15 -15 0 -12 4 -13 18 -6 11 6
39 17 63 25 l44 15 -25 -19 c-14 -11 -29 -20 -35 -20 -5 -1 -1 -5 10 -10 16
-7 17 -9 3 -9 -24 -1 -29 -14 -18 -50 8 -29 -3 -46 -13 -18 -3 9 -10 9 -31 -3
-15 -8 -23 -16 -17 -18 9 -3 9 -8 0 -18 -7 -8 -9 -17 -5 -21 3 -4 13 2 20 13
11 14 11 21 3 26 -8 5 -6 8 5 8 9 0 22 -8 27 -17 10 -16 12 -16 23 -2 7 8 21
18 31 22 15 6 17 3 12 -13 -5 -16 -2 -20 19 -20 13 0 32 -3 42 -7 15 -6 16 -1
11 38 -5 37 -4 40 5 22 6 -13 17 -23 25 -23 7 0 13 -4 13 -10 0 -5 -6 -10 -14
-10 -16 0 -31 -34 -22 -49 3 -5 -4 -7 -16 -4 -17 3 -19 2 -9 -5 9 -7 10 -12 2
-16 -18 -12 -12 -36 8 -36 11 0 22 -4 26 -9 3 -5 19 -12 35 -16 32 -7 40 -31
18 -54 -11 -11 -10 -14 0 -18 6 -3 10 -8 7 -13 -3 -5 7 -7 22 -5 16 1 32 -2
36 -9 6 -8 10 -8 14 2 8 21 23 13 23 -13 0 -14 5 -25 10 -25 6 0 10 11 10 25
0 18 5 25 20 25 14 0 20 7 20 21 0 11 4 29 10 39 10 19 -2 22 -27 7 -8 -5 -13
-3 -13 7 0 11 9 16 29 16 36 0 50 -19 28 -35 -21 -15 -22 -26 -2 -18 9 3 22
-2 30 -13 7 -11 17 -16 21 -11 4 4 2 13 -4 19 -15 15 -16 48 -2 48 6 0 10 -6
10 -14 0 -9 7 -12 20 -9 11 3 17 9 14 14 -3 5 7 9 23 10 15 1 43 2 62 4 22 2
29 0 20 -6 -8 -5 -22 -6 -31 -3 -10 3 -18 1 -18 -5 0 -6 -9 -11 -20 -11 -11 0
-20 -5 -20 -11 0 -7 10 -9 25 -7 29 6 30 5 9 -16 -12 -12 -12 -16 -2 -16 10 0
10 -2 -1 -9 -7 -5 -10 -14 -6 -20 10 -17 36 6 28 25 -8 20 14 17 39 -6 13 -12
29 -18 40 -14 13 4 16 1 12 -10 -3 -9 -1 -16 5 -16 6 0 11 -5 11 -11 0 -7 -9
-9 -22 -5 -59 17 -75 17 -90 2 -14 -13 -17 -11 -34 20 -10 19 -25 34 -34 33
-10 0 -11 -2 -2 -6 19 -7 14 -22 -7 -20 -11 0 -17 6 -14 14 3 8 -2 13 -14 13
-10 0 -24 5 -29 10 -8 8 -15 6 -24 -5 -11 -13 -10 -15 6 -9 16 6 17 5 7 -7 -7
-7 -13 -19 -13 -27 0 -12 3 -12 15 -2 20 17 32 5 15 -15 -16 -20 -1 -19 28 1
15 10 22 11 22 3 0 -6 8 -9 20 -6 23 6 24 4 9 -26 -9 -21 -9 -21 5 -3 8 10 19
15 25 12 6 -4 19 -1 31 6 16 10 24 10 40 0 13 -8 20 -8 20 -1 0 5 4 8 9 5 5
-4 7 -20 5 -36 -5 -27 -2 -30 20 -30 14 0 28 5 32 11 4 8 9 7 15 -2 16 -25 9
-31 -36 -28 -24 2 -47 0 -51 -4 -4 -4 -2 -7 5 -7 8 0 10 -8 7 -22 -3 -13 -3
-17 0 -10 3 6 12 12 20 12 8 0 14 4 14 9 0 5 11 8 25 7 14 0 25 -4 25 -8 0 -4
10 -12 21 -19 20 -10 21 -9 16 10 -6 26 1 27 20 4 13 -16 14 -15 9 12 -5 25
-5 27 5 11 8 -13 8 -25 0 -43 -15 -33 -15 -33 18 -23 24 7 29 5 24 -6 -3 -8
-14 -14 -24 -14 -25 0 -34 -23 -19 -47 9 -14 10 -15 6 -1 -6 22 4 30 21 16 10
-8 17 -8 25 0 18 18 30 14 20 -5 -10 -20 -5 -46 8 -38 4 3 6 -4 3 -15 -3 -11
0 -20 6 -20 6 0 11 -5 11 -11 0 -6 -6 -9 -12 -6 -16 5 -48 -10 -48 -24 0 -6
10 -9 23 -7 18 2 23 -2 25 -29 2 -18 8 -33 14 -33 7 0 9 15 5 40 -5 37 6 56
15 28 7 -20 38 0 38 24 0 16 3 19 11 11 13 -13 -9 -53 -29 -53 -7 0 -12 -8
-10 -17 2 -10 7 -16 12 -15 5 2 12 -1 15 -6 11 -19 81 10 87 36 6 19 36 33 33
15 -3 -20 2 -27 11 -13 5 8 12 12 15 8 4 -3 1 -15 -7 -27 -11 -18 -10 -22 7
-35 13 -9 21 -11 24 -4 2 6 -1 13 -7 17 -6 3 -9 18 -9 33 2 21 6 26 18 23 9
-3 24 2 33 11 27 27 27 11 1 -20 -31 -37 -31 -46 0 -46 21 0 25 -5 25 -28 0
-15 7 -38 16 -50 17 -24 4 -31 -16 -7 -18 22 -32 18 -20 -5 8 -14 8 -20 0 -20
-14 0 -32 17 -48 45 -11 20 -11 20 -12 0 0 -11 9 -27 19 -35 11 -7 18 -18 15
-22 -3 -5 6 -6 19 -3 18 5 28 2 36 -12 10 -17 12 -17 21 0 16 26 30 21 30 -11
0 -25 -4 -28 -35 -29 -22 -1 -35 4 -35 11 0 8 -14 12 -35 12 -39 -1 -42 -17
-4 -27 13 -4 18 -7 11 -8 -7 -1 -10 -5 -7 -11 7 -11 54 -8 74 4 10 7 11 4 2
-12 -21 -39 -32 -74 -21 -67 6 3 10 11 10 16 0 6 6 16 13 24 29 30 45 54 41
58 -3 3 -1 8 5 12 11 6 16 -19 13 -57 -1 -12 3 -15 14 -11 10 4 14 14 11 29
-3 15 1 24 8 24 18 0 25 -48 9 -54 -8 -3 -14 -12 -14 -21 0 -24 -19 -18 -32
10 -12 26 -28 34 -28 14 0 -7 -8 -18 -17 -26 -17 -13 -16 -14 8 -9 19 4 32 -1
53 -23 15 -16 26 -35 25 -42 -1 -8 5 -30 13 -49 9 -19 18 -42 21 -50 3 -8 6
-3 6 13 1 31 20 36 28 7 3 -11 12 -20 20 -20 12 0 14 7 10 30 -6 25 -3 30 14
30 16 0 19 5 14 23 -5 20 -5 20 9 -3 19 -32 20 -40 1 -40 -19 0 -19 -7 0 -27
10 -10 24 -13 41 -9 17 5 23 3 19 -4 -3 -5 -13 -10 -21 -10 -8 0 -14 -9 -14
-20 0 -11 -4 -20 -10 -20 -5 0 -7 -7 -4 -15 4 -10 16 -13 37 -10 18 2 33 5 35
6 1 1 8 2 14 3 7 0 14 10 16 20 2 10 13 28 23 39 10 12 19 27 19 34 0 20 18
15 31 -9 10 -18 9 -20 -5 -15 -10 4 -14 3 -11 -2 3 -5 1 -12 -5 -16 -18 -11
-11 -25 13 -25 12 0 28 9 35 20 7 11 21 20 33 20 11 0 18 -4 14 -10 -3 -5 -12
-7 -20 -3 -8 3 -15 0 -15 -5 0 -6 12 -12 27 -14 17 -2 32 -12 40 -28 11 -22
13 -22 13 -5 0 16 2 17 9 5 6 -8 8 -17 6 -21 -3 -3 10 -3 28 0 20 4 33 14 36
26 3 19 28 44 43 45 4 0 14 -12 21 -27 l15 -27 7 33 7 32 79 -3 c70 -3 78 -5
73 -20 -5 -15 1 -18 40 -18 24 0 57 -5 71 -10 15 -6 32 -7 38 -3 7 4 22 6 35
4 12 -1 22 2 22 8 0 6 -9 11 -19 11 -11 0 -23 5 -26 11 -15 23 7 20 69 -11 36
-18 77 -32 92 -32 32 -1 42 -23 19 -48 -16 -17 -16 -19 2 -29 24 -12 86 -11
94 2 4 5 12 6 19 2 9 -6 9 -10 -1 -17 -10 -6 -4 -8 18 -5 30 3 32 2 18 -13
-20 -22 -19 -30 5 -30 28 0 26 -30 -2 -31 -13 0 -17 -3 -10 -6 9 -4 10 -9 2
-18 -8 -9 -7 -14 4 -18 17 -7 30 8 21 23 -3 5 3 10 14 10 10 0 21 6 24 13 2 6
8 8 13 4 5 -5 1 -13 -9 -19 -13 -7 -17 -17 -13 -34 4 -16 2 -24 -7 -24 -21 0
-16 -29 6 -36 20 -6 19 -7 -4 -25 -24 -18 -24 -19 21 -31 8 -3 10 -7 4 -10 -5
-4 -28 1 -49 11 -39 17 -40 18 -17 30 23 12 21 31 -4 31 -8 0 -14 -9 -14 -19
0 -11 -4 -23 -10 -26 -20 -12 -9 -25 20 -25 17 0 30 -4 30 -10 0 -5 9 -10 20
-10 11 0 20 -7 20 -15 0 -8 5 -15 10 -15 14 0 13 13 -2 28 -10 10 -3 12 30 9
24 -3 45 -7 49 -11 8 -8 48 -8 56 1 4 3 1 13 -6 21 -10 13 -9 15 11 10 15 -4
22 -2 22 8 0 11 29 34 43 34 2 0 2 -11 -1 -25 -2 -14 -11 -25 -18 -25 -19 0
-18 -16 1 -24 8 -3 15 -17 15 -31 0 -14 5 -25 10 -25 6 0 10 8 10 19 0 10 7
24 15 31 13 11 13 15 3 21 -21 13 22 50 50 43 l22 -6 -22 -20 -22 -19 35 4
c38 4 72 23 82 47 4 8 5 3 2 -12 -4 -22 -2 -28 13 -28 10 0 23 -5 30 -12 8 -8
15 -8 27 2 18 15 25 10 29 -17 3 -21 66 -33 66 -12 0 7 3 9 7 6 9 -10 10 -57
1 -57 -4 0 -8 7 -8 15 0 17 -25 20 -35 5 -3 -5 1 -10 9 -10 10 0 16 -9 16 -22
0 -13 3 -41 7 -62 4 -27 3 -37 -5 -33 -6 5 -8 -1 -4 -15 5 -19 7 -20 10 -5 3
14 11 17 35 15 18 -2 32 -8 32 -15 0 -6 3 -14 6 -18 4 -3 3 -23 -2 -43 -5 -22
-4 -41 1 -46 7 -7 10 -4 10 8 0 9 5 14 10 11 6 -4 8 -11 5 -16 -4 -5 1 -9 9
-9 9 0 15 3 14 8 0 4 2 15 7 25 4 9 5 29 3 42 -7 35 11 31 23 -5 6 -17 15 -30
20 -30 5 0 9 -5 9 -11 0 -6 -8 -8 -19 -4 -11 3 -22 1 -26 -5 -4 -6 4 -10 19
-10 29 0 63 -39 44 -51 -17 -10 -28 -1 -21 16 4 11 -2 15 -21 15 -17 0 -24 -4
-20 -14 4 -10 -5 -15 -30 -18 -40 -4 -48 8 -13 22 22 9 22 9 -4 9 -14 1 -35
10 -47 21 -11 11 -23 16 -26 11 -3 -4 -18 -7 -33 -5 -16 2 -21 1 -12 -2 9 -3
21 -16 28 -30 14 -31 14 -37 1 -29 -5 3 -10 -1 -10 -9 0 -19 -11 -21 -28 -4
-8 8 -12 9 -12 1 0 -6 -8 -14 -17 -16 -10 -3 1 -5 25 -6 23 0 42 3 42 9 0 16
49 23 65 10 10 -9 15 -9 15 -1 0 6 18 11 43 11 40 -1 41 -1 22 -17 -19 -15
-19 -15 5 -8 66 19 80 18 80 -4 0 -11 -4 -21 -10 -21 -5 0 -10 7 -10 15 0 19
-16 19 -24 0 -3 -8 -12 -12 -20 -9 -20 8 -30 -14 -15 -32 10 -12 9 -13 -4 -9
-8 4 -18 2 -21 -4 -4 -6 -14 -3 -26 9 -11 11 -26 20 -32 19 -10 0 -10 -2 0 -6
18 -7 14 -24 -5 -21 -18 3 -18 0 -5 -46 3 -13 1 -17 -6 -12 -7 4 -12 16 -12
27 0 10 -5 19 -10 19 -6 0 -8 -10 -4 -24 3 -13 1 -26 -4 -30 -5 -3 -12 8 -16
24 -4 25 -10 30 -33 30 -24 -1 -25 -2 -10 -11 9 -5 17 -16 17 -23 0 -21 -31
-28 -50 -11 -19 17 -40 20 -40 5 0 -5 7 -10 15 -10 8 0 15 -4 15 -10 0 -6 -9
-6 -26 0 -33 13 -64 13 -64 0 0 -5 8 -10 18 -10 11 0 8 -5 -12 -15 -35 -18
-36 -18 -36 -1 0 9 -7 12 -20 9 -10 -3 -18 -10 -17 -16 4 -18 -66 -28 -79 -11
-6 7 -21 14 -34 14 -18 0 -20 -3 -11 -14 16 -19 -61 -31 -89 -14 -17 11 -22
10 -30 -2 -6 -10 -26 -14 -71 -13 -34 1 -70 -2 -79 -7 -11 -6 -21 -5 -28 2 -7
7 -15 8 -19 4 -4 -4 -2 -11 5 -15 8 -5 1 -8 -17 -8 -25 0 -28 3 -19 14 6 7 8
16 5 20 -9 8 -38 -17 -31 -28 3 -5 0 -9 -6 -9 -6 0 -10 8 -8 18 2 14 -3 16
-28 14 -39 -4 -110 -38 -92 -45 45 -16 -37 -22 -276 -21 -230 2 -280 5 -322
19 -54 19 -68 21 -204 30 -52 3 -99 10 -104 15 -6 6 -23 10 -40 10 -16 0 -61
9 -100 21 -197 58 -215 64 -198 70 14 6 12 8 -8 13 -112 26 -131 32 -128 41 2
6 -17 13 -42 16 -54 8 -263 62 -304 78 -51 20 -22 21 45 1 35 -11 93 -22 129
-25 l65 -5 -70 14 c-148 29 -207 54 -97 41 116 -14 238 -48 228 -64 -3 -4 13
-11 36 -14 22 -3 44 -10 47 -15 3 -6 20 -14 36 -18 17 -4 39 -12 50 -18 27
-14 45 -17 146 -19 63 -1 92 -6 105 -18 39 -33 60 -37 28 -5 -20 21 -9 38 22
30 26 -7 32 7 12 24 -7 5 -44 15 -81 21 -38 7 -76 16 -85 21 -32 16 -57 22
-117 27 -33 2 -66 9 -73 16 -8 6 -34 12 -59 14 -54 3 -113 21 -113 34 0 6 -4
8 -8 5 -13 -8 -106 15 -117 28 -5 7 -14 13 -20 14 -41 3 -96 15 -91 19 11 11
-38 30 -51 20 -9 -6 -13 -6 -13 0 0 6 -30 18 -67 28 -38 10 -72 22 -77 26 -6
5 -16 9 -22 9 -7 0 -25 5 -41 12 -33 14 -30 12 -68 23 -16 5 -59 23 -95 42
-36 18 -73 33 -83 33 -11 0 -32 9 -47 20 -16 11 -34 19 -42 17 -7 -2 -10 -2
-5 0 10 6 9 33 -1 33 -4 0 -13 -5 -19 -11 -15 -15 -53 6 -53 29 0 10 -5 23
-12 30 -13 13 -8 15 16 6 9 -3 16 -14 16 -24 0 -10 7 -21 16 -24 22 -9 30 0
15 18 -7 9 -8 17 -2 20 5 3 11 3 13 -1 1 -5 13 2 26 15 20 20 20 23 4 18 -20
-7 -86 17 -97 34 -4 6 -11 8 -16 5 -5 -4 -9 -2 -9 3 0 5 10 14 23 20 20 9 19
10 -14 10 -35 -1 -52 8 -87 45 -9 9 -24 17 -34 17 -9 0 -20 4 -23 10 -3 5 -15
10 -26 10 -10 0 -19 3 -19 8 0 10 -50 32 -76 32 -17 0 -21 4 -17 20 3 11 1 20
-5 20 -5 0 -12 -9 -15 -20 -6 -24 -27 -27 -27 -4 0 10 -6 14 -15 10 -9 -3 -15
0 -15 9 0 8 -8 15 -18 15 -27 0 -44 20 -29 35 7 6 19 14 27 17 8 2 -8 8 -37
12 -46 6 -52 9 -55 33 -2 17 -10 27 -23 29 -11 2 -25 10 -31 18 -6 9 -17 16
-24 16 -7 0 -10 6 -7 14 3 8 -1 13 -11 12 -9 0 -17 6 -17 14 0 10 9 14 25 13
14 -1 19 1 11 4 -11 5 -11 7 0 15 10 6 6 7 -11 2 -14 -4 -30 -14 -36 -23 -10
-12 -7 -20 12 -38 37 -34 31 -53 -16 -53 -45 0 -54 16 -12 23 15 2 10 3 -10 2
-37 -3 -51 8 -25 18 6 3 -3 6 -21 6 -29 1 -33 -2 -27 -19 7 -21 -9 -28 -20 -9
-4 6 -13 8 -21 5 -8 -3 -14 -1 -14 5 0 6 -5 7 -11 4 -12 -8 -51 29 -42 39 4 3
-1 6 -10 6 -9 0 -19 5 -23 11 -5 8 1 10 20 7 30 -6 39 1 25 22 -6 11 -9 12 -9
2 0 -9 -7 -8 -25 5 -27 20 -32 33 -11 33 7 0 19 7 26 15 9 11 9 15 1 15 -22 0
-62 -33 -57 -46 3 -7 1 -16 -4 -19 -6 -4 -10 1 -10 10 0 11 -6 15 -18 11 -23
-8 -77 46 -69 68 3 8 2 18 -3 21 -23 14 -6 25 40 25 28 0 50 4 50 8 0 5 -30 5
-67 0 -39 -4 -71 -4 -76 1 -6 6 -18 6 -31 0 -14 -7 -30 -7 -46 0 -25 10 -25
10 5 11 17 0 37 5 45 10 11 7 4 10 -27 10 -23 0 -45 -5 -48 -11 -9 -13 -45 24
-45 46 0 21 -20 19 -21 -2 -1 -17 -2 -17 -6 0 -3 12 -11 15 -29 11 l-24 -6 16
37 c12 29 12 36 2 33 -7 -3 -14 -14 -16 -26 -2 -12 -8 -22 -13 -22 -6 0 -8 9
-4 19 3 11 1 22 -5 26 -6 3 -10 -4 -11 -17 -1 -20 -2 -20 -6 -4 -8 30 -27 44
-56 41 -15 -2 -25 1 -21 6 3 5 12 9 20 9 8 0 14 4 14 9 0 5 -14 9 -30 9 -38
-1 -47 8 -32 32 11 19 9 20 -30 20 -41 1 -84 20 -72 33 4 3 -6 12 -22 19 -39
16 -40 18 -25 27 7 5 10 14 7 20 -4 6 -13 8 -19 4 -13 -8 -47 -12 -47 -5 0 2
10 13 23 23 l22 20 -22 -6 c-15 -4 -23 -1 -26 12 -3 12 -4 11 -2 -3 1 -17 -4
-21 -27 -22 -15 0 -28 3 -28 8 0 4 6 7 13 6 6 0 13 4 14 9 1 6 -10 9 -24 8
-24 -2 -25 -1 -8 17 20 22 7 28 -14 8 -11 -11 -12 -9 -7 9 4 12 2 24 -4 28 -6
3 -7 11 -4 17 4 7 -2 8 -17 3 -23 -7 -23 -7 -8 11 16 18 15 20 -17 41 -19 12
-34 20 -34 18 0 -15 15 -35 26 -35 21 0 17 -17 -5 -23 -12 -3 -18 0 -16 7 5
12 -31 55 -61 72 -24 14 -33 47 -10 38 9 -3 16 -14 17 -23 0 -11 2 -12 6 -3 3
7 -3 22 -12 32 -9 10 -14 23 -11 28 3 5 -6 12 -19 15 -14 2 -28 0 -31 -5 -8
-13 -26 2 -20 18 3 9 -4 16 -21 20 -23 6 -24 8 -10 19 26 19 20 25 -23 25 -34
0 -42 4 -50 26 -14 35 -13 36 11 29 18 -6 19 -5 8 14 -8 12 -17 17 -24 11 -5
-4 -21 -6 -35 -3 -30 5 -68 62 -49 73 8 5 8 10 1 14 -6 4 -16 -3 -22 -14 -6
-11 -16 -18 -22 -14 -7 4 -6 9 2 14 18 11 3 30 -23 30 l-22 1 23 13 c21 11 22
14 7 26 -8 7 -18 10 -22 6 -3 -3 -1 -6 5 -6 7 0 12 -4 12 -9 0 -4 -11 -6 -25
-3 -23 4 -36 22 -16 22 6 0 6 12 1 31 -5 17 -9 34 -8 38 3 25 -4 32 -24 26
-16 -6 -20 -4 -15 9 3 8 2 18 -4 22 -6 3 -8 12 -5 20 3 9 -2 14 -14 14 -28 0
-25 20 3 21 16 1 18 2 5 6 -10 2 -18 11 -18 19 0 8 -6 14 -14 14 -17 0 -28
-52 -13 -62 8 -5 7 -8 -3 -8 -20 1 -55 28 -47 36 4 4 2 13 -4 20 -6 8 -9 20
-5 29 3 8 0 14 -7 12 -8 -1 -11 9 -10 29 2 19 -3 34 -11 37 -9 4 -12 -2 -9
-21 4 -26 4 -26 -11 -8 -9 12 -13 29 -9 47 4 19 1 29 -6 29 -8 0 -10 -8 -6
-21 5 -15 3 -20 -6 -17 -8 3 -14 11 -15 19 -3 44 -5 50 -12 45 -5 -3 -7 -20
-5 -38 3 -30 3 -31 -7 -9 -6 13 -8 32 -5 42 3 9 1 20 -5 24 -5 3 -10 1 -10 -4
0 -25 -19 -8 -34 29 -9 22 -20 40 -26 40 -5 0 -10 15 -10 34 0 42 -15 55 -26
23 -6 -17 -8 -12 -11 26 -3 31 -9 47 -18 47 -7 0 -17 9 -20 20 -3 11 -12 20
-19 20 -8 0 -20 8 -27 18 -12 15 -12 16 1 6 41 -30 67 -22 34 10 -8 9 -12 21
-9 26 4 6 1 18 -6 26 -8 10 -9 18 -2 25 8 8 18 4 34 -12 21 -21 22 -24 6 -27
-16 -3 -25 -32 -9 -32 21 1 52 14 52 22 0 5 10 18 23 29 19 16 19 18 5 19 -10
0 -18 2 -18 4 0 2 -3 11 -6 20 -8 21 3 20 33 -4z m5029 -128 c9 -31 23 -64 30
-72 7 -8 21 -41 32 -72 10 -32 22 -55 25 -52 4 4 2 -7 -2 -24 -5 -18 -5 -60 0
-99 11 -89 11 -103 -1 -103 -6 0 -9 10 -7 23 2 12 2 16 0 10 -3 -7 -9 -13 -14
-13 -5 0 -9 -7 -9 -16 0 -27 -20 -4 -21 24 -1 24 -3 22 -14 -13 -8 -22 -14
-38 -15 -35 -1 3 -3 21 -6 40 -2 19 -7 46 -10 60 -4 14 -8 34 -9 45 -4 46 -18
101 -29 114 -8 11 -8 13 1 8 6 -4 14 -3 18 3 3 5 2 10 -4 10 -12 0 -27 68 -17
77 3 4 13 -2 22 -13 14 -18 15 -17 9 19 -4 25 -2 44 6 54 9 10 9 17 2 21 -11
8 -24 74 -12 66 4 -2 15 -30 25 -62z m-65 -398 c19 -7 32 -96 25 -177 -6 -72
-28 -83 -53 -27 -10 23 -11 22 -18 -27 l-7 -52 -25 16 c-13 9 -21 19 -16 22
13 10 9 71 -6 80 -12 8 -12 14 -2 39 8 18 10 44 6 61 -12 56 11 32 35 -35 22
-64 24 -66 36 -43 19 37 28 99 15 99 -6 0 -11 9 -11 20 0 11 -4 20 -10 20 -5
0 -10 5 -10 11 0 6 6 8 13 5 6 -3 19 -9 28 -12z m-7270 -43 c42 -6 90 -16 105
-22 16 -7 32 -12 37 -11 4 1 7 -2 7 -8 0 -5 7 -10 15 -10 9 0 37 -11 63 -25
26 -14 52 -25 59 -25 7 0 25 -13 40 -30 14 -16 32 -30 40 -30 7 0 13 -6 13
-12 1 -17 30 -51 63 -72 27 -19 77 -16 77 4 0 21 26 8 71 -36 34 -33 45 -51
41 -66 -4 -18 -10 -19 -56 -14 -35 5 -62 2 -84 -7 -25 -10 -45 -11 -80 -4 -52
10 -94 11 -164 4 -42 -5 -48 -3 -48 13 0 10 3 26 6 35 8 20 67 50 115 59 21 4
42 13 49 21 10 12 6 18 -22 35 -18 11 -44 20 -57 20 -13 0 -60 19 -105 41 -50
26 -93 41 -113 40 -17 -1 -47 8 -66 19 -29 17 -42 20 -69 12 -20 -5 -43 -5
-58 0 -13 5 -35 6 -49 3 -38 -7 -56 7 -42 33 6 12 21 28 34 37 23 17 23 17
178 -4z m1054 -41 c10 -11 23 -20 29 -20 10 0 50 -45 70 -78 10 -16 15 -62 8
-62 -3 0 -13 6 -21 13 -9 7 -45 26 -80 42 l-63 30 -22 -28 c-35 -43 -56 -31
-56 33 0 21 10 37 37 59 44 36 73 39 98 11z m-1431 -93 c28 -29 35 -32 70 -26
43 7 85 -2 122 -26 13 -8 30 -15 39 -15 8 0 15 -4 15 -10 0 -5 8 -10 19 -10
26 0 71 -38 71 -59 0 -10 8 -25 18 -33 19 -18 129 -48 147 -42 6 3 19 -4 28
-14 16 -17 16 -22 2 -49 -25 -50 -49 -66 -90 -59 -26 5 -39 14 -45 32 -5 13
-20 28 -34 34 -15 5 -30 24 -41 52 -30 79 -151 132 -247 108 -43 -11 -49 -10
-89 16 -79 49 -107 92 -77 122 22 22 59 13 92 -21z m-1383 1 c59 -31 72 -46
65 -72 -6 -24 -11 -26 -59 -26 -28 0 -62 -3 -74 -6 -19 -5 -23 -2 -23 17 0 19
-2 21 -10 9 -7 -11 -8 -5 -4 20 8 43 19 58 47 63 12 2 25 5 28 6 4 0 17 -5 30
-11z m814 -89 c28 -6 66 -17 86 -24 20 -8 112 -19 205 -25 279 -18 293 -20
312 -40 9 -9 27 -21 40 -24 39 -13 25 -33 -25 -38 -69 -7 -372 -3 -380 5 -3 4
-35 7 -70 7 -40 0 -72 6 -86 15 -30 19 -115 45 -150 45 -28 0 -118 24 -146 39
-22 11 -24 27 -5 45 13 14 29 16 93 11 42 -4 99 -11 126 -16z m2245 -9 c70 0
110 -18 110 -48 -1 -22 -55 -82 -74 -82 -8 0 -17 -4 -21 -9 -6 -10 -149 -6
-178 5 -24 9 -22 30 10 95 27 54 29 55 58 47 16 -4 59 -8 95 -8z m407 -67 c44
-55 67 -103 43 -88 -5 3 -10 1 -10 -4 0 -6 -6 -11 -14 -11 -7 0 -19 -6 -25
-14 -6 -8 -31 -17 -56 -20 -34 -6 -52 -16 -79 -47 -24 -26 -44 -39 -61 -39
-18 0 -31 -9 -42 -28 -9 -15 -32 -35 -52 -44 -20 -9 -57 -26 -83 -38 -57 -26
-98 -20 -98 16 0 16 10 28 31 39 17 9 40 32 51 51 11 19 24 34 29 34 4 0 26
17 47 38 22 21 53 44 71 52 17 7 38 22 46 34 19 26 135 105 156 105 9 1 29
-16 46 -36z m-847 -93 c2 -41 68 -76 122 -65 46 11 58 -45 17 -86 -15 -15 -21
-16 -56 -4 -44 16 -80 19 -87 6 -8 -13 -110 -61 -129 -61 -10 0 -17 -3 -17 -7
0 -10 -49 -33 -67 -33 -8 0 -16 -7 -20 -15 -6 -18 -106 -70 -152 -80 -48 -10
-90 3 -97 31 -8 32 61 106 136 144 62 31 166 66 223 75 41 7 45 11 51 69 2 23
11 45 22 53 10 7 14 13 10 13 -4 0 -4 5 0 11 8 14 43 -27 44 -51z m9310 -172
c22 -13 40 -29 40 -37 0 -9 7 -11 21 -8 15 4 32 -5 60 -33 44 -43 45 -46 22
-72 -22 -25 -94 -25 -117 1 -10 11 -25 17 -37 14 -24 -7 -69 15 -69 32 0 7
-12 17 -27 24 l-28 13 25 20 c14 11 24 25 22 31 -12 40 31 48 88 15z m-8114
-145 l44 -48 -27 -11 c-58 -24 -79 -35 -118 -59 -73 -45 -119 -62 -192 -68
l-73 -7 0 33 c0 45 37 79 129 117 41 16 79 30 86 30 7 0 30 13 51 29 21 16 43
30 47 30 5 1 28 -20 53 -46z m-892 31 c9 -3 16 -10 16 -16 0 -5 -4 -7 -9 -3
-6 3 -6 -6 -1 -25 9 -31 0 -79 -25 -127 -8 -15 -15 -44 -15 -63 0 -29 -6 -39
-30 -53 -22 -14 -30 -26 -30 -47 0 -18 -9 -35 -25 -48 -13 -11 -21 -22 -18
-26 3 -3 1 -6 -6 -6 -6 0 -16 -11 -21 -25 -5 -14 -14 -25 -19 -25 -5 0 -12
-15 -15 -32 -3 -18 -17 -46 -31 -62 -20 -24 -32 -28 -77 -30 -48 -1 -53 1 -61
25 -15 40 -2 72 53 135 28 31 50 66 50 76 0 10 11 41 25 68 14 27 34 74 46
105 14 37 39 73 78 113 68 70 83 78 115 66z m1170 -293 c50 -34 74 -61 57 -61
-7 0 -10 -4 -7 -9 4 -5 0 -11 -6 -14 -7 -2 -13 -19 -13 -37 0 -22 -6 -36 -20
-44 -26 -15 -45 -33 -45 -43 -1 -4 -18 -21 -39 -38 -24 -18 -43 -44 -50 -66
-8 -28 -22 -42 -60 -62 -27 -15 -61 -27 -75 -27 l-27 0 7 63 c6 59 50 167 74
182 5 3 10 13 10 21 0 24 60 82 97 95 26 8 35 18 40 40 3 16 8 29 10 29 2 0
23 -13 47 -29z m-880 -17 c9 -3 16 -17 16 -31 0 -39 -76 -104 -149 -126 -66
-21 -81 -17 -81 18 0 26 36 60 120 110 59 35 69 38 94 29z m8561 -114 c10 -8
19 -8 34 -1 16 9 25 6 48 -13 16 -13 35 -36 42 -50 8 -14 23 -26 34 -28 27 -4
44 -54 28 -80 -13 -22 0 -48 24 -48 16 0 26 -25 15 -36 -5 -5 -10 -20 -12 -33
-5 -37 -28 -39 -28 -2 l0 31 -69 0 c-39 0 -73 -4 -76 -10 -3 -5 -30 -10 -60
-10 -53 0 -54 0 -65 38 -6 20 -15 46 -20 57 -25 59 -60 155 -60 166 0 10 3 10
12 1 18 -18 46 -14 53 7 9 29 70 36 100 11z m-10997 -189 c61 -67 64 -71 58
-95 -6 -25 -21 -30 -120 -38 -26 -3 -28 -5 -15 -18 8 -8 28 -32 44 -53 15 -21
45 -47 65 -57 l37 -19 26 27 c20 19 40 27 83 32 101 11 119 3 170 -74 23 -35
24 -40 10 -62 -10 -14 -30 -26 -53 -30 -50 -9 -89 -34 -71 -45 10 -7 9 -9 -3
-9 -9 0 -22 -6 -28 -14 -17 -20 -88 -31 -106 -16 -22 18 -18 32 4 20 32 -17
61 -12 61 9 0 14 -10 21 -35 25 -24 5 -38 15 -47 33 -15 31 -66 47 -113 34
-16 -4 -61 -4 -100 -1 -38 4 -94 5 -122 2 -34 -3 -58 0 -67 7 -13 11 -11 16
11 36 27 22 27 23 9 50 -20 31 -15 55 12 55 10 0 33 15 52 34 26 26 41 33 58
29 29 -7 28 4 -8 50 -29 40 -30 57 -2 90 23 26 165 25 190 -2z m-571 -71 c14
-11 29 -18 33 -15 4 3 13 -2 19 -9 9 -11 9 -23 -3 -50 -16 -38 -33 -44 -66
-24 -15 9 -27 10 -52 1 -55 -19 -126 -25 -148 -13 -23 12 -27 30 -7 30 7 0 26
14 42 30 16 17 34 30 40 30 6 0 28 9 50 20 49 25 61 25 92 0z m3003 -26 c14
-36 -2 -87 -38 -124 -17 -16 -35 -30 -40 -30 -5 0 -15 -6 -21 -14 -12 -14
-107 -16 -129 -2 -20 12 -2 57 47 114 50 58 87 80 139 81 26 1 34 -4 42 -25z
m1450 -61 c0 -19 -28 -41 -62 -48 -18 -4 -50 -16 -71 -27 -21 -10 -46 -18 -55
-17 -39 3 -53 -2 -62 -27 -6 -14 -14 -22 -20 -19 -5 3 -10 1 -10 -6 0 -23 -59
-69 -89 -69 -15 0 -40 -9 -54 -20 -14 -11 -33 -20 -44 -20 -10 -1 -29 -7 -43
-15 -14 -8 -37 -14 -52 -15 -41 0 -58 -10 -58 -34 0 -19 26 -41 60 -51 3 -1
25 -7 50 -14 25 -7 69 -26 97 -42 29 -16 58 -29 66 -29 7 0 28 -11 47 -24 19
-12 51 -26 71 -30 21 -3 48 -15 62 -26 14 -11 33 -20 42 -20 9 0 29 -7 44 -15
27 -13 31 -13 56 7 31 24 139 47 241 51 67 3 71 2 66 -18 -8 -34 -33 -55 -68
-55 -18 0 -53 -9 -79 -20 -26 -11 -66 -20 -89 -20 -23 0 -47 -5 -53 -11 -19
-19 -134 -7 -170 19 -17 12 -37 22 -43 22 -7 0 -48 18 -92 40 -44 22 -85 40
-92 40 -27 0 -84 21 -102 38 -18 17 -101 46 -134 47 -10 0 -15 10 -15 30 -1
41 -29 44 -101 11 -39 -18 -54 -30 -51 -40 6 -16 -32 -46 -57 -46 -15 0 -109
-52 -136 -75 -8 -7 -40 -16 -70 -20 -30 -3 -74 -13 -97 -22 -50 -18 -96 -11
-91 15 2 10 22 23 48 32 25 8 61 27 80 41 19 15 51 35 70 44 19 10 49 28 65
40 17 12 57 36 90 54 33 17 76 46 95 65 34 31 118 76 145 76 7 0 22 14 35 30
13 17 30 30 39 30 9 0 32 10 51 23 33 21 76 44 160 82 19 8 42 19 50 24 29 16
87 31 122 31 46 0 70 9 61 23 -4 6 1 8 14 5 11 -3 38 -2 59 1 40 7 74 -5 74
-26z m806 -399 c-16 -42 -19 -67 -6 -59 9 6 10 3 1 -14 -7 -11 -18 -21 -25
-21 -20 0 -52 -78 -38 -92 19 -19 14 -41 -14 -68 -14 -14 -47 -47 -72 -74 -57
-59 -115 -86 -188 -86 -30 0 -54 -4 -54 -10 0 -5 -9 -10 -20 -10 -25 0 -25 3
-1 67 22 62 37 81 141 190 91 94 194 173 226 173 13 0 26 5 29 10 10 16 28 11
21 -6z m816 -46 c15 -8 25 -18 21 -21 -3 -4 1 -7 10 -7 10 0 17 -7 17 -15 0
-9 6 -12 15 -9 21 9 19 -9 -7 -41 l-22 -28 33 -26 33 -27 -26 -38 c-32 -47
-32 -59 -3 -79 19 -13 20 -18 10 -36 -7 -11 -13 -41 -13 -65 0 -25 -5 -48 -10
-51 -6 -4 -10 -25 -10 -48 1 -23 -4 -62 -10 -87 -6 -25 -13 -56 -14 -70 -2
-35 -35 -80 -58 -80 -36 0 -58 19 -58 50 0 16 -4 31 -9 35 -9 5 -8 85 5 300 3
50 6 125 7 168 1 43 7 81 13 85 14 9 29 66 14 57 -12 -8 -24 20 -17 39 7 17
41 14 79 -6z m-313 -8 c17 0 31 -53 25 -92 -5 -28 -3 -42 6 -48 19 -12 16
-166 -4 -215 -17 -40 -21 -85 -8 -85 4 0 13 -9 20 -20 9 -15 9 -25 0 -44 -9
-20 -8 -30 6 -51 14 -21 16 -38 11 -77 -13 -92 -11 -123 13 -187 22 -63 23
-65 4 -83 -24 -24 -93 -26 -127 -4 -37 24 -51 70 -53 171 -1 49 -7 94 -12 99
-13 13 -13 113 0 121 6 4 8 16 4 28 -4 12 -8 56 -10 97 -1 41 -3 78 -3 81 -2
12 -54 29 -72 24 -11 -4 -19 -2 -19 4 0 10 14 15 33 12 4 0 7 5 7 12 0 7 9 20
20 30 17 14 19 24 14 57 -4 22 -2 52 4 67 6 16 13 45 17 66 6 35 8 37 40 35
19 -1 38 1 42 5 4 4 13 5 21 2 7 -3 17 -5 21 -5z m5286 -128 c0 -18 9 -40 22
-54 22 -23 22 -25 5 -61 -22 -46 -54 -52 -45 -7 6 35 -9 40 -39 13 -12 -10
-37 -17 -68 -17 -28 -1 -50 -4 -50 -7 0 -3 9 -14 20 -24 26 -24 25 -35 -3 -35
-33 0 -64 35 -48 54 8 10 9 16 1 21 -14 9 -13 45 3 46 6 1 30 1 52 0 46 -1 80
20 73 46 -5 19 13 42 41 55 26 11 36 3 36 -30z m-9980 8 c4 -6 22 -17 40 -24
34 -15 51 -45 43 -81 -2 -13 -16 -18 -58 -20 -30 -2 -68 -5 -85 -7 -28 -3 -30
0 -33 32 -1 19 -8 45 -14 57 -17 33 5 53 58 53 23 0 46 -5 49 -10z m11127 -77
c10 -9 18 -27 18 -40 0 -30 -33 -63 -57 -57 -11 3 -29 -4 -43 -17 -51 -44 -86
-67 -114 -73 -16 -4 -42 -21 -57 -37 -34 -37 -52 -31 -37 11 8 23 7 34 -3 46
-11 14 -10 19 9 34 14 12 22 29 22 48 0 30 17 42 63 42 10 0 30 14 44 30 22
27 31 30 81 30 38 0 61 -5 74 -17z m-9905 -130 c24 8 38 8 55 -1 13 -6 51 -19
86 -29 46 -13 62 -22 62 -35 0 -19 -1 -19 -95 -24 -122 -6 -184 -14 -238 -30
-59 -18 -59 -18 -103 6 -62 35 -59 71 9 105 13 6 53 8 107 3 55 -4 96 -3 117
5z m1965 -23 c69 -11 158 -54 158 -77 0 -31 -78 -31 -165 -1 -63 22 -85 21
-110 -2 -28 -27 -55 -21 -55 12 0 45 52 93 90 83 8 -3 45 -9 82 -15z m572 -48
c7 -12 -22 -52 -38 -52 -8 0 -24 -16 -37 -34 -38 -55 -92 -81 -168 -78 -74 2
-107 22 -90 53 13 25 37 37 124 60 41 10 90 28 107 39 33 20 93 27 102 12z
m-1415 -52 c10 -5 35 -10 55 -12 79 -5 49 -46 -38 -53 -41 -3 -65 -10 -81 -25
-11 -11 -33 -20 -48 -20 -15 0 -30 -8 -36 -19 -8 -13 -25 -20 -68 -23 -53 -5
-132 -39 -141 -60 -2 -4 -16 -8 -30 -8 -15 0 -47 -14 -71 -30 -24 -17 -52 -30
-61 -30 -10 0 -23 -7 -30 -15 -7 -8 -21 -15 -31 -15 -10 0 -24 -8 -31 -19 -15
-20 -69 -51 -92 -51 -8 0 -21 -6 -28 -13 -56 -54 -113 -91 -135 -89 -16 3 -32
-5 -46 -21 -15 -17 -38 -27 -72 -32 -87 -13 -90 -12 -93 15 -4 34 43 78 143
131 38 21 96 66 151 116 26 24 60 43 119 68 41 17 52 22 165 73 36 16 81 33
100 37 19 4 41 12 48 18 20 16 112 47 140 47 12 0 36 7 52 15 16 8 35 13 42
10 7 -3 27 -1 43 4 41 12 53 13 74 1z m-2143 -48 c6 -13 14 -23 18 -22 9 1 36
-26 36 -37 0 -4 -14 -19 -31 -32 -27 -22 -41 -25 -125 -26 -110 -2 -118 6 -83
80 25 54 37 60 116 60 50 0 59 -3 69 -23z m5609 -119 c2 -10 4 -21 4 -24 1 -3
10 -16 21 -29 21 -24 19 -53 -4 -77 -6 -6 -51 -13 -103 -15 l-93 -4 0 34 c0
26 8 42 34 66 56 52 67 59 97 60 16 1 29 5 29 10 0 15 11 0 15 -21z m-5429
-80 c21 -23 26 -36 23 -59 0 -4 4 -10 9 -13 6 -4 4 -11 -4 -19 -8 -7 -14 -9
-14 -5 0 5 -19 9 -42 9 -71 0 -138 9 -138 17 0 14 52 101 68 114 18 15 62 -5
98 -44z m6314 -14 c72 -31 112 -108 76 -145 -17 -16 -52 -19 -61 -4 -8 14 -48
13 -63 -2 -9 -9 -17 -7 -33 8 -18 16 -21 27 -16 77 5 56 19 87 39 87 5 0 31
-9 58 -21z m570 14 c0 -5 14 -16 30 -25 17 -9 34 -28 39 -41 5 -13 23 -30 40
-37 17 -7 31 -16 31 -21 0 -4 8 -10 18 -13 10 -3 37 -23 62 -44 55 -49 51 -72
-14 -72 -37 0 -52 7 -100 46 -31 26 -53 50 -51 55 3 4 -12 20 -34 35 -23 14
-38 31 -35 36 3 5 -3 19 -13 31 -11 12 -23 30 -26 40 -5 14 -1 17 23 17 17 0
30 -3 30 -7z m-5140 -65 c0 -15 -92 -68 -118 -68 -10 0 -23 -5 -30 -12 -6 -6
-31 -13 -54 -14 -32 -2 -46 -8 -61 -28 -17 -24 -22 -26 -73 -20 -49 6 -57 4
-70 -15 -15 -21 -74 -31 -74 -11 0 16 131 97 185 114 28 9 57 20 65 23 8 4 47
15 85 24 86 21 145 24 145 7z m770 -78 c0 -5 7 -10 15 -10 12 0 12 -4 -3 -21
-9 -12 -26 -29 -36 -38 -37 -31 -51 -52 -61 -89 -8 -29 -16 -38 -37 -40 -16
-2 -30 -11 -33 -23 -5 -14 -15 -19 -40 -19 -36 0 -55 -20 -52 -54 1 -13 -7
-22 -27 -27 -17 -5 -34 -15 -38 -24 -5 -8 -22 -15 -38 -15 -22 0 -36 -9 -57
-37 -15 -21 -35 -46 -43 -56 -18 -23 -106 -69 -124 -65 -7 2 -29 -6 -49 -17
-43 -23 -70 -14 -75 26 -2 18 9 36 40 67 23 23 47 42 52 42 6 0 52 38 101 85
50 47 99 88 110 91 11 4 50 33 86 65 36 33 69 59 73 59 5 0 22 12 40 27 63 53
196 103 196 73z m330 -30 c0 -4 -10 -14 -21 -22 -12 -7 -23 -25 -25 -38 -31
-191 -32 -192 -124 -194 -52 -1 -63 2 -75 20 -21 33 7 103 72 174 26 30 44 40
79 46 25 3 44 12 44 19 0 8 9 10 25 7 14 -2 25 -8 25 -12z m3128 -28 c17 -9
32 -22 32 -29 0 -7 5 -13 10 -13 6 0 10 -10 10 -22 0 -12 12 -39 27 -60 14
-22 30 -60 35 -86 5 -26 11 -59 15 -74 5 -27 4 -28 -25 -22 -17 4 -46 1 -64
-5 -47 -17 -77 9 -100 85 -9 32 -21 68 -27 79 -5 11 -17 46 -27 77 -18 57 -18
57 4 76 25 22 59 20 110 -6z m-5614 4 c40 -17 113 -30 143 -27 14 1 28 -7 38
-22 11 -18 22 -23 40 -20 23 5 110 -21 129 -39 6 -4 22 -8 37 -8 15 0 32 -7
39 -16 10 -11 28 -14 69 -12 31 1 62 -1 69 -5 18 -12 15 -62 -5 -79 -34 -28
-224 -142 -241 -144 -9 -1 -41 -12 -70 -25 -54 -24 -80 -21 -90 10 -5 16 72
90 112 106 82 35 102 100 36 120 -19 6 -45 16 -57 23 -12 6 -33 12 -47 12 -14
0 -28 5 -31 10 -3 6 -21 10 -39 10 -19 0 -50 7 -69 15 -20 8 -55 15 -77 15
-48 0 -75 12 -90 41 -24 44 35 64 104 35z m-1862 -284 c7 -7 24 -12 39 -12 31
0 54 -23 45 -45 -3 -9 4 -29 15 -45 22 -29 19 -53 -6 -44 -7 3 -24 -2 -37 -10
-14 -9 -52 -25 -87 -36 -53 -18 -65 -19 -89 -7 -24 11 -27 18 -25 61 2 76 10
93 56 124 43 31 69 34 89 14z m1680 -98 c26 -8 79 -79 72 -98 -9 -22 -48 -30
-85 -17 -18 6 -43 11 -57 11 -31 0 -62 26 -62 53 0 12 10 31 22 44 21 23 45
24 110 7z"/>
<path d="M5676 6565 c-3 -9 -2 -13 4 -10 6 3 10 0 10 -8 0 -24 51 -109 84
-139 17 -16 49 -38 72 -49 23 -11 51 -29 63 -40 28 -27 113 -53 145 -45 17 4
26 13 26 26 0 21 -35 50 -62 50 -11 0 -18 7 -18 18 0 10 -10 24 -22 32 -12 8
-38 30 -56 48 -19 17 -39 32 -45 32 -7 0 -32 14 -56 30 -24 17 -49 30 -54 30
-6 0 -18 6 -26 14 -27 23 -58 28 -65 11z"/>
<path d="M6473 6170 c9 -44 64 -89 109 -90 41 0 71 -24 94 -75 8 -16 23 -41
34 -54 20 -23 22 -24 53 -9 20 9 42 12 58 8 15 -4 31 -5 36 -1 17 11 21 60 7
72 -8 6 -14 17 -14 23 0 6 -17 29 -38 52 l-38 41 -70 -9 c-67 -9 -69 -9 -91
17 -13 14 -44 32 -70 40 -70 21 -77 20 -70 -15z"/>
<path d="M6160 2202 c0 -7 -6 -12 -14 -12 -7 0 -16 -9 -19 -20 -3 -13 0 -20
10 -20 9 0 13 -8 11 -22 -2 -13 -7 -21 -13 -18 -5 2 -9 10 -7 17 4 18 -17 16
-24 -2 -4 -8 -12 -15 -20 -15 -18 0 -18 9 3 32 16 18 8 23 -21 12 -9 -3 -16
-14 -16 -23 0 -9 -5 -22 -12 -29 -6 -6 -8 -15 -4 -19 4 -4 11 -1 16 7 7 11 12
12 21 3 6 -6 19 -9 28 -6 10 3 12 2 5 -4 -6 -4 -13 -16 -17 -25 -5 -15 0 -18
34 -18 33 0 40 3 35 16 -4 11 -1 14 12 12 9 -2 17 -8 17 -15 0 -6 3 -15 8 -19
16 -16 5 -21 -38 -16 -31 3 -45 1 -45 -7 0 -7 6 -11 13 -10 6 1 25 -1 41 -6
19 -5 31 -4 36 5 5 8 19 11 39 7 32 -7 61 0 61 13 0 5 -8 6 -18 3 -26 -7 -78
15 -65 28 7 7 17 7 30 -2 15 -9 24 -9 39 0 17 10 16 10 -8 5 -31 -7 -40 11
-10 20 9 3 4 4 -12 2 -18 -3 -42 4 -63 18 -32 21 -42 36 -23 36 6 0 10 -4 10
-9 0 -5 9 -11 20 -14 27 -7 25 6 -5 29 -32 24 -32 34 3 35 15 0 20 3 12 6 -8
3 -23 12 -32 21 -12 10 -18 11 -18 4z"/>
<path d="M12763 4383 c-18 -9 -33 -25 -35 -37 -2 -11 -16 -27 -33 -36 -16 -8
-32 -19 -34 -24 -2 -6 -15 -20 -27 -33 -13 -13 -24 -35 -24 -48 0 -26 -25 -45
-59 -45 -23 0 -29 -25 -8 -33 8 -3 20 -1 28 4 20 12 63 11 93 -3 22 -9 29 -8
46 7 14 13 29 16 55 12 l35 -6 0 130 c0 71 -1 129 -2 128 -2 0 -17 -7 -35 -16z"/>
<path d="M11830 4160 c0 -5 -16 -12 -35 -16 -19 -3 -35 -10 -35 -14 0 -4 -18
-15 -39 -25 -39 -17 -105 -17 -161 0 l-25 8 23 -25 c13 -14 22 -37 22 -56 0
-24 4 -32 19 -32 10 0 37 -24 62 -56 24 -30 59 -62 76 -69 18 -8 38 -25 44
-39 8 -17 21 -26 43 -28 25 -2 32 -9 39 -35 7 -24 17 -34 38 -38 19 -4 29 -13
29 -25 0 -27 11 -50 23 -50 13 0 77 -49 77 -59 0 -4 -12 -13 -26 -19 -30 -14
-23 -32 12 -32 19 0 28 7 36 30 5 17 19 35 29 41 17 9 18 12 5 30 -17 24 -52
44 -95 54 -35 8 -56 29 -47 50 3 9 0 15 -8 15 -13 0 -46 31 -46 43 0 4 18 7
40 7 22 0 40 3 40 8 0 6 -45 36 -105 68 -11 6 -21 20 -23 32 -2 11 -12 22 -23
25 -10 3 -19 12 -19 21 0 21 43 21 60 1 17 -21 46 -19 70 5 11 11 33 20 51 20
24 0 33 -6 44 -32 7 -18 23 -39 35 -46 16 -10 21 -21 19 -47 -3 -26 3 -41 24
-63 15 -15 27 -35 27 -43 1 -18 30 -53 58 -68 12 -6 22 -17 22 -24 1 -13 56
-41 102 -52 15 -4 29 -14 32 -23 8 -32 -1 -136 -12 -140 -7 -2 -12 6 -12 17 0
30 -23 26 -48 -9 -12 -16 -36 -37 -53 -46 -23 -11 -28 -19 -20 -27 6 -6 11
-21 11 -32 0 -30 31 -57 50 -45 8 5 25 10 37 10 12 0 28 8 35 18 7 10 25 22
40 26 15 3 35 17 44 31 9 14 22 25 29 25 19 0 55 62 55 93 0 30 18 46 31 26 6
-11 13 -9 33 10 36 34 56 22 56 -31 -1 -63 14 -170 27 -194 17 -31 36 -43 95
-65 29 -10 54 -19 55 -19 2 0 3 20 3 44 0 43 -1 45 -31 48 -45 4 -56 27 -36
71 26 54 23 67 -18 67 -25 0 -35 4 -35 15 0 20 69 90 98 99 29 9 28 20 -3 34
-14 6 -25 18 -25 25 0 8 11 20 25 27 32 17 32 44 0 58 -16 8 -28 23 -32 43 -8
40 -28 47 -58 19 -28 -26 -62 -20 -75 15 -6 16 -18 24 -42 27 -30 3 -33 1 -33
-22 0 -35 -29 -33 -33 2 -3 28 -39 47 -61 34 -5 -3 -21 -2 -35 4 -19 7 -26 17
-26 35 0 16 -6 25 -15 25 -8 0 -15 5 -15 10 0 6 -17 10 -38 10 -37 0 -72 25
-72 51 0 7 -12 9 -30 7 -16 -3 -30 -1 -30 4 0 4 7 8 15 8 9 0 15 9 15 25 0 22
-4 25 -35 25 -27 0 -38 6 -52 28 -32 50 -47 53 -62 12 -13 -37 -42 -40 -65 -5
-9 14 -22 25 -29 25 -6 0 -34 11 -62 25 -54 26 -75 31 -75 15z"/>
</g>
</svg>
