<?xml version="1.0" standalone="no"?>
<!DOCTYPE svg PUBLIC "-//W3C//DTD SVG 20010904//EN"
 "http://www.w3.org/TR/2001/REC-SVG-20010904/DTD/svg10.dtd">
<svg version="1.0" xmlns="http://www.w3.org/2000/svg"
 width="1024.000000pt" height="768.000000pt" viewBox="0 0 1024.000000 768.000000"
 preserveAspectRatio="xMidYMid meet">
<metadata>
Created by potrace 1.15, written by Peter Selinger 2001-2017
</metadata>
<g transform="translate(0.000000,768.000000) scale(0.100000,-0.100000)"
fill="#000000" stroke="none">
<path d="M6220 5860 c-23 -12 -104 -35 -114 -32 -5 2 -12 -2 -16 -9 -4 -6 -26
-15 -49 -19 -33 -6 -43 -4 -50 9 -8 13 -11 12 -20 -9 -13 -32 -31 -155 -31
-215 0 -34 4 -46 13 -42 6 2 36 10 66 18 48 12 54 12 66 -4 7 -9 16 -17 20
-17 4 0 2 7 -5 15 -17 21 -7 29 40 30 26 1 40 -3 40 -11 0 -7 10 -20 22 -28
12 -9 17 -16 10 -16 -6 0 -12 -4 -12 -10 0 -17 19 -11 30 10 12 23 -2 60 -24
60 -7 0 -21 9 -31 20 -17 18 -17 27 -7 82 18 97 32 99 100 13 41 -52 53 -88
32 -98 -6 -3 -5 -4 2 -3 7 1 14 12 16 24 3 21 50 42 95 42 42 0 13 41 -110
153 -55 49 -59 51 -83 37z"/>
<path d="M7105 5791 c-3 -5 4 -12 15 -16 11 -4 20 -15 20 -26 0 -11 7 -27 15
-36 17 -17 110 -53 138 -53 9 0 22 -11 27 -25 9 -22 20 -30 43 -26 4 0 7 -4 7
-10 0 -8 5 -7 15 1 9 7 39 13 68 14 43 0 62 -6 104 -33 56 -36 70 -56 52 -77
-13 -16 -4 -33 26 -44 18 -7 22 -14 18 -31 -5 -19 -3 -21 15 -17 14 4 22 0 25
-13 3 -11 14 -19 26 -19 11 0 24 -6 28 -14 4 -7 25 -19 46 -25 20 -7 37 -19
37 -27 0 -8 5 -13 12 -11 6 1 17 -9 24 -23 7 -14 22 -26 33 -26 31 -2 101 -53
101 -74 0 -7 7 -10 17 -6 23 9 83 -13 83 -31 0 -8 14 -33 31 -54 26 -33 28
-40 15 -45 -21 -8 -1 -36 23 -32 11 2 17 -6 19 -24 3 -23 -1 -28 -18 -28 -11
0 -32 8 -47 17 -25 17 -25 16 -19 -4 4 -13 1 -27 -9 -37 -9 -9 -13 -20 -10
-26 4 -6 8 -53 10 -106 4 -126 26 -264 41 -264 6 0 14 -9 17 -20 3 -11 17 -24
31 -30 23 -8 32 -28 28 -61 -2 -10 37 2 44 12 8 14 24 11 24 -5 0 -8 11 -13
30 -12 16 1 30 5 30 10 0 4 7 6 15 2 10 -4 14 1 12 16 -1 11 4 23 11 25 8 3
12 -8 12 -37 0 -40 1 -42 25 -36 14 4 25 2 25 -4 0 -5 -4 -10 -10 -10 -5 0
-10 -13 -10 -28 0 -15 -5 -33 -11 -39 -7 -7 -7 -13 0 -17 12 -8 4 -36 -11 -36
-5 0 -8 8 -7 18 4 40 -2 45 -17 15 -9 -18 -21 -33 -26 -33 -15 0 -22 32 -10
51 17 26 15 35 -6 35 -16 0 -18 -8 -17 -46 2 -51 -9 -80 -30 -80 -19 0 -19 24
0 40 8 7 12 17 8 23 -4 6 -13 2 -23 -11 -9 -11 -30 -22 -45 -24 -39 -4 -43
-25 -5 -33 16 -4 27 -11 24 -17 -4 -6 -10 -6 -16 0 -7 7 -19 7 -33 2 -16 -6
-29 -4 -41 5 -24 18 -54 19 -54 1 0 -16 -27 -29 -41 -20 -5 3 -9 -4 -9 -14 0
-11 7 -22 15 -26 11 -4 14 -13 9 -31 -5 -22 -3 -25 20 -25 14 0 26 -5 26 -11
0 -6 -7 -9 -15 -5 -8 3 -15 0 -15 -6 0 -6 -3 -8 -7 -5 -3 4 -12 2 -20 -5 -11
-8 -17 -8 -26 2 -9 10 -9 13 1 17 6 3 12 8 12 13 0 12 -42 20 -54 11 -6 -5
-33 -8 -59 -7 -35 1 -51 6 -59 19 -9 17 -11 17 -28 2 -14 -13 -20 -14 -26 -3
-5 7 -9 20 -9 28 0 8 -11 17 -25 20 -18 4 -21 8 -12 14 8 5 20 1 31 -8 19 -17
54 -17 72 1 12 12 39 7 39 -8 0 -5 -9 -9 -20 -9 -11 0 -20 -4 -20 -10 0 -5 16
-10 35 -10 28 0 35 4 35 20 0 11 -5 20 -10 20 -6 0 -14 8 -17 18 -4 9 -15 26
-25 37 -16 17 -20 18 -28 5 -14 -22 -12 -33 6 -26 10 4 14 1 12 -6 -3 -7 -14
-14 -26 -14 -13 -1 -19 3 -15 10 4 6 -1 5 -11 -3 -15 -12 -19 -12 -33 1 -17
18 -10 38 13 38 18 0 18 15 -1 34 -23 23 -19 42 5 21 18 -16 20 -16 20 -2 0
10 7 17 15 17 8 0 15 9 15 20 0 23 -27 27 -32 5 -2 -10 -7 -6 -15 11 -10 22
-10 24 3 13 12 -10 16 -9 21 9 3 12 10 22 15 22 6 0 5 6 -2 15 -19 23 -4 48
25 43 15 -3 25 -1 25 7 0 12 -47 14 -66 3 -5 -3 -20 -2 -33 3 -19 8 -21 12
-11 24 11 13 10 18 -5 29 -18 13 -18 14 1 25 19 11 19 11 0 26 -27 21 -36 19
-31 -6 3 -17 2 -19 -10 -9 -12 10 -17 7 -25 -15 -5 -14 -10 -31 -10 -36 0 -12
-37 -12 -45 1 -9 15 -25 12 -25 -5 0 -16 -12 -20 -23 -8 -4 4 -22 7 -40 7 -32
1 -51 21 -19 21 9 0 22 3 27 6 6 3 28 7 50 8 22 1 42 6 44 12 1 6 14 22 27 36
13 14 24 32 24 39 0 20 -19 27 -26 9 -4 -9 -13 -14 -21 -11 -8 3 -11 1 -8 -4
3 -6 -5 -10 -19 -10 -13 0 -27 -6 -30 -12 -3 -10 -9 -8 -19 4 -22 27 -61 28
-65 1 -3 -18 1 -20 19 -16 15 4 20 3 15 -5 -4 -7 -14 -12 -22 -12 -9 0 -22 -7
-30 -15 -9 -8 -30 -15 -47 -15 -35 0 -98 -45 -75 -52 8 -3 5 -9 -10 -17 -12
-6 -22 -21 -22 -31 0 -11 -6 -20 -12 -20 -16 -1 -48 -63 -48 -93 0 -12 -4 -28
-9 -36 -7 -11 -13 -9 -30 8 -11 11 -21 17 -21 11 0 -5 -4 -10 -10 -10 -5 0
-10 12 -10 26 0 19 4 25 15 20 18 -6 20 10 3 20 -6 4 -16 0 -23 -9 -14 -19
-35 -23 -35 -7 0 6 -7 22 -17 36 -12 19 -18 22 -24 12 -14 -21 -10 -28 12 -28
18 0 20 -2 9 -15 -7 -9 -19 -14 -26 -11 -17 7 -49 -19 -40 -32 9 -15 36 -15
36 0 0 6 2 9 5 6 3 -3 3 -13 -1 -22 -7 -17 -34 -23 -34 -6 0 5 -6 7 -12 5 -18
-7 -47 15 -30 22 6 2 9 9 6 15 -4 6 -1 14 5 18 18 11 -31 94 -58 98 -12 2 -21
-1 -21 -7 0 -6 9 -11 20 -11 13 0 20 -7 20 -19 0 -11 5 -21 11 -23 7 -2 9 -15
5 -36 l-7 -31 -23 26 -23 27 -8 -23 c-4 -14 -12 -20 -21 -17 -9 4 -12 2 -8 -5
8 -13 -33 -3 -53 13 -7 5 -17 7 -23 3 -6 -4 -17 -1 -25 5 -21 18 -20 -16 1
-37 14 -15 14 -17 0 -25 -9 -5 -14 -13 -11 -17 2 -5 -20 -7 -51 -6 -50 1 -76
-7 -57 -18 5 -2 1 -2 -7 1 -94 28 -140 32 -140 12 0 -4 -9 -6 -20 -3 -11 3
-20 9 -20 13 0 5 -14 12 -31 15 -22 5 -28 10 -19 15 17 10 -10 40 -37 41 -13
1 -11 3 6 8 l24 6 -34 29 c-19 16 -33 33 -32 37 2 5 -4 6 -12 3 -18 -7 -20 7
-2 25 6 8 7 11 1 8 -6 -4 -19 2 -29 13 -17 19 -17 20 -1 20 9 0 14 5 11 10 -4
6 -11 7 -17 4 -6 -4 -8 -2 -5 4 4 5 17 8 30 4 21 -5 21 -4 5 15 -20 22 -23 33
-7 33 5 0 7 -4 4 -10 -3 -5 -1 -10 5 -10 6 0 10 8 8 18 -2 9 -8 17 -15 17 -6
0 -15 3 -19 8 -4 4 1 7 11 7 17 0 16 3 -5 25 -26 27 -40 32 -40 12 0 -16 -38
-40 -51 -31 -5 3 -7 14 -4 25 4 13 2 19 -8 19 -19 0 -37 42 -26 62 7 13 5 15
-11 11 -14 -4 -20 0 -20 11 0 9 -5 16 -11 16 -5 0 -7 5 -4 10 3 6 -1 17 -10
26 -10 10 -13 24 -9 37 6 19 5 20 -8 9 -13 -10 -17 -9 -23 10 -5 13 -9 32 -10
43 -1 11 -7 19 -13 18 -7 -2 -12 1 -12 6 0 5 -9 11 -20 14 -13 3 -18 11 -14
20 3 8 -1 17 -8 20 -8 2 -27 24 -43 48 -16 24 -37 52 -47 62 -10 10 -18 24
-18 32 0 8 -4 15 -8 15 -11 0 -47 63 -44 78 2 6 -2 12 -8 12 -21 0 -9 33 23
64 52 48 88 76 98 76 6 0 7 5 4 10 -4 6 6 10 22 10 15 1 50 7 77 14 28 7 66
10 91 6 24 -4 51 -3 59 2 9 5 23 5 35 -1 10 -6 21 -7 25 -4 3 3 6 -3 6 -15 0
-12 6 -22 13 -23 6 0 1 -5 -12 -10 -18 -7 -21 -13 -13 -21 7 -7 8 -17 1 -29
-8 -15 -1 -27 33 -61 24 -24 42 -46 41 -50 -2 -5 4 -8 12 -8 8 0 30 -16 50
-37 19 -20 37 -34 40 -31 3 3 -1 11 -10 18 -8 7 -15 18 -15 24 0 7 -10 22 -21
35 -20 21 -20 24 -5 39 16 16 19 15 56 -5 46 -27 50 -28 50 -9 0 9 -7 12 -20
9 -14 -4 -20 0 -20 11 0 9 -5 15 -11 13 -6 -1 -14 4 -17 12 -3 11 1 12 19 7
65 -20 72 -20 64 3 -7 23 5 27 36 11 13 -8 19 -7 19 0 0 15 56 3 87 -17 13 -9
23 -11 23 -5 0 6 -9 13 -19 17 -11 3 -21 12 -24 19 -4 9 -20 13 -49 11 -37 -3
-46 0 -54 18 -9 21 -46 38 -43 20 2 -15 -13 -53 -22 -53 -13 0 -23 22 -13 29
10 7 17 31 8 31 -3 0 -14 -5 -24 -10 -32 -17 -31 5 1 24 20 12 39 16 57 11
l27 -6 -25 24 c-21 21 -26 22 -31 8 -5 -13 -9 -10 -18 11 -10 26 -11 27 -38
13 -15 -8 -30 -10 -33 -5 -9 14 -57 23 -65 11 -8 -15 -26 -4 -19 12 6 16 -48
19 -58 4 -6 -9 -12 -9 -28 1 -27 16 -50 15 -27 -2 9 -7 17 -16 17 -19 0 -3
-49 -4 -110 -2 -60 1 -110 -1 -110 -6 0 -5 -7 -9 -16 -9 -8 0 -13 -4 -9 -9 3
-5 1 -12 -3 -15 -13 -8 -52 23 -52 40 0 16 -15 17 -45 4 -19 -8 -18 -9 4 -9
20 -1 23 -5 19 -28 -3 -16 -9 -36 -13 -46 -6 -14 -3 -16 11 -11 16 5 16 4 4
-5 -8 -6 -30 -11 -48 -11 -18 0 -42 -5 -53 -10 -16 -9 -21 -7 -28 11 -10 30
-21 12 -14 -25 3 -16 14 -31 24 -33 15 -4 16 -9 8 -24 -11 -22 -39 -26 -39 -5
0 14 -34 30 -59 26 -9 -1 -12 5 -8 19 3 15 0 21 -10 21 -47 0 -58 94 -17 147
14 19 24 37 21 39 -11 12 -100 -10 -116 -27 -13 -14 -36 -20 -87 -23 -38 -3
-71 -5 -74 -5 -3 -1 7 -7 22 -15 28 -15 104 -32 128 -29 8 2 21 0 29 -3 11 -4
11 -7 -3 -17 -13 -10 -14 -18 -7 -45 8 -28 8 -33 -4 -28 -8 3 -17 1 -21 -5 -3
-6 -12 -8 -19 -5 -8 3 -15 0 -18 -7 -2 -8 -38 -12 -108 -13 -161 -3 -169 -3
-169 -14 0 -5 7 -10 15 -10 8 0 15 -5 15 -10 0 -6 6 -10 13 -9 31 4 87 -2 87
-9 0 -13 -83 -7 -110 8 -28 16 -83 22 -74 9 3 -5 17 -9 30 -9 30 0 28 -23 -2
-28 -35 -7 -34 -18 1 -14 37 4 125 -17 125 -30 0 -8 -29 -12 -62 -10 -10 1
-18 -3 -18 -8 0 -10 49 -15 103 -11 30 3 36 -13 10 -28 -17 -10 -17 -10 0 -11
9 0 17 4 17 9 0 14 43 21 57 9 7 -6 25 -8 39 -5 23 4 49 0 131 -18 12 -3 24
-14 28 -24 6 -20 60 -45 76 -35 17 10 9 25 -11 19 -11 -4 -20 -2 -20 4 0 6 -5
11 -11 11 -6 0 -18 8 -27 19 -19 21 -91 41 -146 41 -22 0 -36 5 -36 13 0 9 -2
9 -9 -1 -6 -11 -11 -10 -25 3 -10 11 -26 15 -41 12 -14 -2 -30 2 -35 9 -9 10
-2 11 32 8 24 -3 59 -9 78 -15 19 -5 42 -8 50 -7 8 1 33 -3 55 -9 22 -6 53
-14 68 -17 15 -4 37 -17 48 -30 14 -17 28 -23 43 -19 11 2 26 5 33 5 7 1 10 5
7 10 -3 5 -10 6 -15 3 -5 -4 -12 1 -15 9 -3 9 -10 16 -15 16 -4 0 -6 -7 -2
-16 4 -12 2 -15 -8 -12 -8 3 -13 13 -13 22 1 10 -6 16 -17 16 -10 0 -19 5 -19
10 0 6 12 8 28 4 19 -4 23 -3 13 4 -11 8 -11 10 0 14 8 3 -2 12 -24 23 -25 12
-36 23 -33 32 4 8 6 17 6 19 0 2 5 4 11 4 6 0 8 -7 5 -15 -3 -10 1 -18 12 -22
9 -3 26 -17 37 -30 16 -18 31 -24 73 -25 50 -2 56 -7 53 -35 -1 -7 5 -13 14
-13 9 0 13 5 10 10 -12 19 8 10 31 -15 16 -17 19 -27 11 -32 -8 -5 -3 -9 12
-13 13 -3 29 -14 35 -24 6 -10 23 -32 38 -48 15 -15 35 -42 44 -60 9 -17 25
-40 35 -52 12 -13 16 -22 9 -24 -6 -2 4 -17 22 -34 33 -29 43 -45 92 -143 17
-34 22 -51 14 -56 -7 -5 -3 -21 14 -51 24 -41 86 -212 107 -294 6 -22 17 -65
25 -96 l14 -58 -29 0 c-16 0 -29 -4 -29 -10 0 -5 7 -7 15 -4 10 4 15 0 15 -15
0 -12 5 -21 11 -21 6 0 9 7 6 15 -4 8 -2 17 3 20 12 7 13 -25 2 -41 -7 -11
-63 -11 -81 1 -7 3 -11 -2 -11 -14 0 -18 6 -21 41 -21 26 0 38 -4 34 -11 -4
-6 -13 -8 -21 -5 -8 3 -14 0 -14 -6 0 -9 -3 -9 -12 0 -18 18 -24 15 -48 -23
-12 -19 -26 -32 -32 -29 -6 4 -6 10 1 17 19 19 12 25 -28 23 -22 -1 -39 0 -39
3 3 35 -6 54 -37 73 -19 13 -37 31 -40 40 -3 9 -16 18 -27 20 -12 2 -23 9 -26
17 -3 9 2 11 17 6 20 -6 21 -5 9 14 -7 12 -19 19 -29 16 -18 -6 -65 36 -74 66
-7 20 -35 27 -35 9 0 -5 5 -10 10 -10 6 0 10 -7 10 -15 0 -17 -16 -20 -25 -5
-4 6 -21 8 -41 4 -26 -5 -40 -2 -56 12 -12 11 -18 13 -14 6 6 -10 3 -13 -10
-10 -10 2 -20 12 -22 22 -3 11 0 16 7 12 6 -4 11 -3 11 2 0 22 -43 21 -61 -1
-23 -27 -24 -37 -4 -37 8 0 15 -5 15 -10 0 -7 -20 -9 -52 -5 -47 4 -49 4 -20
-5 18 -6 30 -15 27 -20 -4 -7 -13 -6 -25 0 -27 15 -27 15 -32 -42 -6 -66 -34
-129 -57 -126 -10 2 -17 -5 -19 -19 -4 -25 -32 -39 -43 -22 -12 20 -41 2 -34
-22 6 -18 3 -20 -32 -17 -33 3 -38 6 -35 26 3 22 -12 30 -23 12 -10 -16 -38
-11 -65 10 -15 12 -18 18 -7 14 9 -3 17 -1 17 5 0 6 7 8 17 4 11 -4 14 -3 9 5
-4 7 -14 12 -22 12 -10 0 -14 12 -14 44 0 27 -6 48 -15 56 -9 7 -13 15 -11 18
3 2 1 13 -4 23 -7 12 -6 22 5 33 8 8 15 25 15 38 0 30 17 48 45 48 12 0 40 9
63 20 45 22 62 25 62 11 0 -13 34 -23 54 -15 22 8 12 21 -37 45 -70 34 -164
24 -215 -24 -17 -16 -25 -18 -34 -9 -9 9 -9 12 0 12 7 0 5 7 -5 20 -10 11 -21
20 -26 20 -5 0 -5 -9 -2 -20 4 -12 2 -20 -5 -20 -6 0 -8 -5 -4 -12 5 -8 -3 -9
-29 -5 -20 3 -36 3 -36 -1 3 -21 -3 -32 -16 -32 -8 0 -15 5 -15 10 0 6 -5 10
-11 10 -6 0 -9 -9 -6 -20 4 -15 0 -20 -15 -20 -14 0 -18 -5 -14 -16 4 -12 2
-15 -9 -10 -17 6 -20 -20 -6 -43 5 -8 7 -21 4 -28 -5 -12 -7 -12 -14 -1 -7 10
-9 9 -9 -3 0 -9 -7 -20 -16 -23 -8 -3 -13 -10 -10 -14 3 -5 -8 -24 -25 -43
-25 -29 -27 -35 -12 -38 10 -2 19 2 21 8 5 14 32 15 32 1 0 -5 -7 -10 -15 -10
-18 0 -20 -16 -2 -23 9 -4 9 -8 1 -14 -7 -4 -13 -17 -16 -28 -3 -15 -11 -5
-31 37 -15 31 -32 60 -37 63 -6 4 -7 11 -4 17 4 7 2 8 -4 4 -9 -5 -10 -51 -2
-51 1 0 3 -8 5 -18 3 -14 -8 -9 -47 18 -27 20 -53 34 -56 31 -3 -3 -2 -6 2 -6
4 0 1 -6 -6 -13 -10 -11 -17 -11 -37 -1 -30 16 -39 11 -21 -11 11 -13 8 -14
-20 -8 -27 5 -32 3 -28 -9 5 -11 0 -14 -20 -11 -19 3 -23 2 -13 -5 8 -6 9 -12
3 -16 -6 -3 -14 -2 -17 4 -10 17 -37 -10 -30 -29 5 -13 4 -14 -6 -3 -17 16
-29 15 -29 -3 0 -8 -5 -15 -11 -15 -6 0 -9 7 -5 15 3 8 1 15 -4 15 -6 0 -10
-4 -10 -10 0 -5 -7 -7 -16 -3 -10 4 -17 -2 -21 -16 -4 -16 -9 -19 -18 -11 -9
8 -17 6 -28 -5 -9 -8 -21 -15 -27 -15 -6 0 -21 -5 -32 -11 -17 -9 -18 -13 -7
-21 10 -7 8 -7 -8 -3 -14 4 -23 2 -23 -4 0 -6 -6 -11 -12 -11 -7 0 -26 -7 -42
-15 -15 -8 -31 -13 -35 -10 -10 6 -84 -34 -94 -51 -8 -14 -126 -88 -132 -83
-2 2 21 31 51 64 59 65 105 139 74 120 -5 -3 -20 -8 -32 -10 -13 -3 -38 -21
-57 -40 -31 -34 -58 -43 -32 -11 7 8 14 34 17 58 2 23 8 44 14 46 6 2 8 7 6
11 -3 4 -7 20 -10 35 -4 23 -3 26 9 16 8 -7 12 -16 9 -21 -3 -5 -1 -9 3 -9 5
0 9 16 9 35 0 25 6 40 23 51 13 10 20 22 17 31 -4 9 1 17 14 20 12 3 19 11 17
17 -2 6 0 19 5 29 5 10 12 31 14 45 3 15 11 30 17 34 9 6 8 11 -3 18 -12 8
-13 10 -1 10 8 0 11 3 8 7 -4 3 5 15 20 25 16 10 22 18 16 19 -7 1 -17 3 -23
4 -5 1 -18 3 -27 4 -14 1 -15 3 -5 10 7 4 14 17 15 28 0 11 8 20 16 19 8 -1
17 8 19 19 6 32 30 53 56 48 15 -3 25 1 29 11 10 25 -7 26 -53 4 -31 -16 -45
-18 -48 -10 -2 7 -11 12 -20 12 -17 0 -122 95 -122 110 0 5 -16 27 -35 50 -19
23 -35 49 -35 57 0 12 -8 14 -34 10 -19 -3 -39 0 -45 6 -8 8 -11 8 -11 -1 0
-8 -16 -12 -44 -12 -48 0 -92 -28 -113 -72 -85 -176 -124 -264 -143 -321 -13
-37 -27 -70 -31 -73 -5 -3 -55 28 -111 68 -158 112 -304 204 -353 221 -19 7
-19 7 -1 -8 10 -8 24 -16 30 -18 6 -2 8 -7 5 -11 -3 -3 -20 -1 -38 5 -24 8
-35 8 -46 -1 -13 -10 -15 -8 -13 14 1 14 7 26 12 26 15 0 -73 88 -122 121 -49
33 -54 35 -46 14 4 -9 0 -15 -9 -15 -26 0 -67 -22 -67 -36 0 -21 110 -103 152
-114 21 -6 50 -23 65 -38 16 -16 57 -41 93 -57 112 -51 241 -134 389 -253 l24
-19 -22 -74 c-12 -41 -26 -83 -30 -94 -19 -44 -51 -143 -51 -157 0 -9 -11 -36
-25 -61 -14 -24 -23 -52 -19 -61 4 -10 -2 -19 -20 -27 -48 -22 -47 -11 28 186
44 115 52 150 24 106 -8 -13 -23 -21 -41 -21 -16 0 -26 -4 -22 -10 3 -5 1 -10
-4 -10 -6 0 -11 -15 -12 -32 0 -18 -3 -27 -6 -21 -3 9 -11 8 -29 -4 -31 -20
-37 -14 -38 39 -1 36 -4 43 -23 46 -14 2 -32 -6 -47 -21 -30 -30 -51 -38 -64
-25 -13 13 -32 2 -32 -18 0 -8 9 -14 20 -14 11 0 28 -8 38 -18 15 -15 16 -23
6 -57 -10 -37 -13 -40 -43 -37 -33 4 -33 4 -16 -21 10 -16 14 -34 9 -51 -6
-24 -4 -26 29 -26 80 0 72 -14 -22 -36 -51 -13 -100 -20 -108 -17 -22 9 -10
26 25 35 17 5 33 12 36 17 4 5 -22 1 -57 -10 -34 -10 -93 -20 -130 -23 -74 -5
-82 -8 -82 -34 0 -20 -61 -40 -127 -41 -27 -1 -48 -6 -51 -13 -3 -10 -7 -10
-17 -1 -10 9 -6 15 19 27 39 21 40 27 2 16 -15 -4 -50 -6 -77 -3 -46 4 -48 3
-30 -11 11 -9 29 -16 40 -16 10 0 16 -3 13 -6 -4 -4 -34 -1 -67 6 -51 11 -60
16 -60 34 0 12 5 27 12 34 9 9 8 12 -5 12 -9 0 -17 -6 -17 -14 0 -8 -12 -17
-26 -20 -19 -5 -30 -1 -44 16 -18 23 -18 23 -40 3 -13 -12 -33 -18 -50 -17
-17 2 -29 -2 -33 -12 -4 -9 -13 -13 -21 -10 -11 4 -13 0 -9 -14 3 -12 -1 -22
-11 -25 -9 -4 -16 -18 -16 -32 0 -14 -3 -25 -8 -25 -4 0 -12 -10 -17 -22 -6
-12 -21 -25 -35 -29 -14 -4 -19 -7 -11 -8 10 -1 11 -4 2 -14 -12 -15 -11 -16
70 -18 28 -1 56 4 62 10 8 8 7 11 -5 11 -10 0 -29 11 -44 25 -22 20 -24 25 -9
25 12 0 15 5 11 16 -11 28 5 36 25 13 17 -19 19 -20 19 -4 0 10 -8 24 -17 32
-10 8 -12 11 -4 7 11 -5 13 -3 8 9 -8 20 7 31 20 14 6 -6 18 -36 28 -64 11
-29 24 -53 31 -53 6 0 14 -21 17 -47 3 -26 11 -52 19 -57 17 -14 48 -62 48
-76 0 -23 -18 -8 -35 29 -10 22 -24 42 -31 45 -8 3 -14 12 -14 20 0 10 -7 12
-22 8 l-22 -5 22 -8 c25 -10 30 -29 7 -29 -12 0 -14 -4 -7 -16 6 -11 5 -27 -2
-46 -8 -21 -7 -33 2 -48 6 -10 9 -26 6 -35 -4 -10 0 -15 14 -15 12 0 23 4 27
10 3 6 15 5 30 -2 22 -10 24 -16 19 -47 -4 -20 -11 -37 -15 -39 -5 -2 -9 -10
-9 -17 0 -19 -17 -28 -32 -18 -23 14 -68 9 -73 -8 -8 -24 -44 -31 -69 -13 -30
20 -37 17 -30 -12 6 -24 5 -26 -17 -18 -13 4 -34 8 -46 9 -13 0 -23 4 -23 8 0
5 -4 6 -9 3 -5 -3 -11 1 -15 9 -4 11 2 15 23 15 30 0 70 34 52 44 -5 4 -12 2
-16 -4 -4 -6 -11 -7 -17 -4 -6 4 -5 10 3 15 11 7 9 9 -6 9 -19 0 -34 -19 -51
-63 -4 -12 -14 -16 -33 -14 -14 3 -34 0 -43 -5 -21 -10 -12 -40 11 -34 42 11
91 16 91 9 -1 -16 -29 -45 -47 -47 -14 -3 -17 -11 -15 -35 1 -17 -2 -31 -8
-31 -15 0 -12 -26 5 -40 13 -11 23 -9 54 8 21 12 50 22 65 22 14 0 26 4 26 9
0 15 51 43 81 45 25 2 78 37 87 59 2 4 10 7 17 7 7 0 19 13 27 30 15 34 24 38
31 13 3 -10 6 0 7 22 2 22 5 31 7 19 3 -16 11 -21 34 -20 27 1 29 3 23 31 -4
17 -13 42 -20 57 -8 15 -14 34 -14 43 0 9 -4 13 -10 10 -5 -3 -10 -2 -10 4 0
6 -7 8 -15 5 -19 -8 -19 7 0 32 15 19 15 19 35 -5 11 -12 17 -27 14 -32 -3 -5
4 -21 15 -35 12 -15 21 -33 21 -42 0 -8 13 -30 30 -48 16 -19 32 -45 36 -58 3
-14 18 -29 35 -37 20 -8 32 -21 35 -38 6 -29 49 -49 92 -43 19 3 21 6 11 18
-9 11 -7 14 12 15 16 0 39 18 69 54 25 29 57 61 71 70 14 10 31 31 38 46 7 16
18 29 26 29 7 0 29 21 48 46 20 26 51 57 69 71 l33 24 25 -29 c15 -18 43 -34
73 -42 26 -7 50 -17 53 -22 11 -17 59 -31 103 -29 34 2 54 10 90 39 l45 37
-21 -35 c-12 -19 -31 -39 -42 -45 -22 -10 -28 -25 -11 -25 6 0 10 -9 10 -20 0
-12 7 -20 17 -20 15 0 10 -15 -5 -15 -4 0 -13 -4 -20 -9 -10 -6 -10 -11 -2
-21 9 -11 8 -19 -4 -36 -11 -16 -12 -27 -5 -41 6 -10 7 -27 4 -38 -8 -24 -70
-43 -96 -29 -24 13 -63 -20 -53 -44 3 -10 2 -17 -4 -17 -15 0 -72 34 -72 43 0
9 46 28 77 32 35 4 73 33 67 50 -4 8 -1 15 5 15 6 0 11 16 11 35 0 19 4 35 8
35 10 0 32 57 24 64 -3 3 -15 6 -28 6 -18 0 -23 -6 -26 -42 -3 -24 0 -46 5
-49 13 -9 -4 -17 -37 -17 -20 0 -35 -8 -49 -26 -10 -14 -27 -26 -38 -26 -10 0
-19 -6 -19 -13 0 -7 -20 -18 -45 -25 -25 -7 -45 -16 -45 -22 0 -5 -6 -7 -13
-4 -8 3 -18 -6 -25 -21 -6 -14 -19 -25 -27 -25 -13 0 -14 -4 -5 -20 6 -11 16
-18 21 -14 7 4 7 -2 -1 -15 -14 -27 -44 -23 -48 6 -2 14 -8 20 -18 16 -11 -4
-12 -9 -3 -19 6 -8 10 -14 8 -15 -21 -4 -67 -10 -76 -11 -19 -2 -16 -18 3 -18
8 0 12 -5 8 -11 -4 -8 0 -9 15 -4 12 3 21 2 21 -3 0 -15 -21 -19 -62 -12 -22
4 -41 3 -47 -3 -16 -16 -13 -30 5 -23 12 5 15 2 10 -10 -3 -8 -6 -18 -6 -20 0
-2 -4 -4 -9 -4 -5 0 -12 11 -15 24 -4 18 -12 24 -26 21 -25 -5 -44 27 -35 58
4 15 3 18 -3 8 -7 -9 -12 -10 -16 -2 -9 15 -26 4 -26 -16 0 -8 6 -29 13 -46 8
-18 20 -49 26 -71 16 -46 39 -71 66 -70 11 1 70 27 130 58 72 36 119 55 135
53 14 -2 41 4 60 14 19 11 42 19 52 19 9 0 30 12 48 26 25 22 37 25 67 21 36
-6 103 16 103 33 0 4 8 10 18 14 34 11 83 44 102 69 l21 26 -21 38 c-13 24
-16 41 -10 47 13 13 40 17 40 5 0 -5 -5 -9 -10 -9 -14 0 7 -40 29 -57 9 -7 30
-13 48 -13 38 0 48 -12 31 -39 -16 -26 -39 -35 -48 -20 -14 22 -21 -9 -14 -61
6 -46 5 -50 -14 -50 -16 0 -21 7 -24 32 -2 24 -9 34 -23 36 -15 2 -16 1 -7 -6
21 -14 -12 -42 -44 -36 -26 5 -73 -29 -74 -53 0 -14 65 -37 82 -28 7 4 4 0 -6
-9 -10 -8 -23 -17 -28 -18 -21 -7 5 -38 33 -38 35 0 36 -4 5 -36 -21 -24 -24
-24 -40 -9 -9 9 -16 22 -16 29 0 7 -9 21 -20 31 -11 10 -20 24 -20 32 0 7 -9
13 -20 13 -11 0 -20 4 -20 10 0 5 -13 16 -30 25 -23 12 -34 13 -55 3 -26 -12
-35 -30 -12 -25 8 1 11 -8 9 -25 -1 -16 2 -28 8 -28 14 0 13 -37 -2 -43 -20
-8 13 -28 35 -22 9 3 26 8 37 11 12 4 20 2 20 -5 0 -5 -6 -8 -13 -5 -9 3 -13
-3 -12 -18 4 -38 -10 -54 -47 -52 -18 1 -41 5 -50 9 -11 4 -18 3 -18 -5 0 -7
-8 -9 -19 -5 -21 6 -22 -6 -3 -41 13 -24 7 -34 -21 -34 -18 0 -77 -54 -77 -69
0 -3 24 -5 53 -4 43 2 49 0 32 -9 -11 -6 -23 -15 -26 -20 -3 -5 -18 -4 -33 3
-20 10 -29 10 -38 1 -9 -9 -9 -12 2 -12 8 0 23 -7 34 -15 18 -13 18 -15 -3
-41 -11 -15 -21 -21 -21 -15 0 6 -7 23 -16 37 l-17 25 -19 -21 c-10 -11 -23
-20 -27 -20 -5 0 -11 -7 -15 -15 -3 -8 0 -14 7 -12 7 1 11 -4 9 -11 -2 -9 4
-11 18 -7 15 5 18 3 14 -9 -11 -27 20 -18 60 18 20 19 59 51 86 72 27 21 50
47 52 58 2 16 10 21 31 21 15 -1 27 2 27 5 0 3 15 11 33 18 61 25 71 35 113
119 9 19 27 16 41 -6 9 -15 29 -22 73 -27 l61 -7 -7 -61 c-3 -33 -9 -63 -13
-66 -4 -3 -11 -19 -14 -37 -5 -24 -3 -31 7 -27 18 7 24 -12 18 -64 -4 -39 -6
-42 -33 -42 -22 0 -27 -4 -22 -16 3 -8 12 -13 19 -10 28 11 13 -15 -15 -27
-20 -9 -27 -17 -22 -25 9 -14 61 -6 61 9 0 5 8 9 19 9 15 0 20 -11 27 -72 5
-40 9 -83 8 -95 0 -14 6 -23 16 -23 9 0 21 -14 27 -31 11 -27 14 -29 33 -19
16 9 20 17 15 33 -11 35 -7 58 12 79 16 18 16 21 2 32 -11 7 -16 26 -16 53 0
50 35 88 91 98 19 4 34 12 33 18 -1 6 8 13 21 15 17 3 22 10 22 33 0 22 5 29
20 29 29 0 45 -36 23 -50 -13 -8 -14 -13 -5 -16 14 -7 16 -34 2 -34 -5 0 -10
5 -10 10 0 6 -6 5 -14 -2 -9 -8 -11 -17 -5 -24 5 -6 6 -14 2 -17 -3 -4 3 -7
15 -7 26 0 28 -15 7 -36 -20 -20 -19 -44 1 -44 12 0 15 -7 12 -25 -4 -19 -1
-25 13 -25 21 0 25 15 8 26 -8 5 -7 9 4 15 17 10 47 2 47 -12 0 -5 7 -9 16 -9
15 0 15 -2 0 -25 -9 -13 -16 -33 -16 -44 0 -11 -7 -27 -16 -35 -22 -23 -3 -20
53 9 26 13 60 26 75 29 15 3 32 7 38 11 6 3 10 -3 10 -15 0 -15 -5 -20 -14
-17 -16 6 -32 -23 -18 -32 5 -3 12 -16 16 -28 4 -13 12 -23 19 -23 8 0 8 3 -1
12 -7 7 -12 20 -12 29 0 13 8 17 33 15 29 -1 32 1 30 27 -1 15 2 25 7 22 10
-6 72 50 63 59 -3 3 1 6 9 6 15 0 -14 -62 -80 -175 -28 -48 -40 -93 -29 -104
9 -9 -17 -39 -101 -119 -62 -59 -112 -115 -112 -124 0 -15 -9 -18 -49 -18 -28
0 -53 -4 -56 -10 -3 -5 1 -11 9 -11 29 -3 34 -4 42 -11 4 -5 22 -8 41 -8 24 0
33 -5 33 -16 0 -12 7 -15 26 -11 19 3 24 1 20 -10 -3 -8 -6 -16 -6 -19 0 -2
-7 -1 -15 2 -15 6 -20 -9 -15 -50 1 -12 -2 -16 -11 -11 -7 5 -10 4 -5 -3 13
-21 63 -40 80 -30 19 11 22 30 2 22 -7 -3 -16 1 -19 10 -3 8 1 17 10 20 13 5
15 16 10 55 -5 43 -3 51 19 72 13 12 24 28 24 35 0 32 110 119 140 111 11 -3
23 -1 26 4 3 5 14 9 25 9 10 0 19 5 19 10 0 12 69 10 76 -2 3 -4 15 -8 27 -8
12 0 31 -12 44 -26 14 -17 27 -23 35 -18 7 5 25 7 41 5 30 -3 75 29 138 98 26
29 43 17 22 -15 l-16 -26 39 8 c48 8 50 10 34 29 -10 12 -9 16 3 21 9 3 13 12
10 20 -3 8 1 14 10 14 8 0 17 -5 19 -10 2 -7 19 -5 47 5 43 15 44 15 27 -3
-19 -22 -11 -56 11 -48 8 4 11 1 7 -5 -4 -7 1 -9 12 -7 11 2 18 10 16 18 -3
11 0 11 12 1 9 -7 22 -11 30 -8 11 4 13 1 10 -11 -5 -14 -4 -15 5 -2 6 8 8 23
5 34 -4 13 -2 17 7 14 19 -6 23 -46 7 -65 -11 -15 -11 -16 7 -8 11 4 29 8 40
8 25 1 37 18 23 34 -7 9 -7 13 1 13 7 0 9 9 5 26 -5 19 -4 25 5 20 6 -4 11
-13 11 -19 0 -7 4 -18 8 -25 13 -19 72 14 72 40 0 21 26 47 48 48 6 0 12 -7
12 -15 0 -8 -6 -15 -13 -15 -7 0 -18 -5 -25 -12 -9 -9 -7 -15 6 -25 9 -8 11
-12 5 -8 -7 3 -13 2 -13 -3 0 -15 113 -9 118 6 2 6 -2 13 -10 13 -67 7 -75 10
-63 28 4 8 12 8 25 1 36 -19 43 -10 15 20 -30 32 -28 55 3 27 23 -21 32 -21
32 -1 0 9 -5 12 -12 8 -7 -4 -8 -3 -4 5 4 6 12 8 18 5 7 -5 9 -1 5 9 -4 11 -1
17 7 17 8 0 16 -5 18 -12 6 -16 38 -2 38 15 0 8 -13 20 -28 26 -37 16 -96 -8
-121 -49 -13 -23 -20 -27 -29 -18 -7 7 -12 18 -12 25 0 7 -7 10 -15 7 -8 -4
-15 -17 -15 -30 0 -13 -4 -24 -9 -24 -10 0 -7 88 5 153 3 20 10 37 15 37 10 0
6 -101 -5 -118 -4 -7 -3 -12 3 -12 12 0 41 28 41 41 0 5 12 9 26 9 23 0 25 -2
13 -17 -13 -15 -12 -15 18 1 21 11 30 21 27 31 -4 10 0 15 15 15 15 0 21 5 19
16 -2 10 2 19 8 21 12 4 27 -31 25 -58 -2 -23 64 -60 114 -64 22 -2 49 -7 60
-11 18 -7 18 -6 6 9 -7 9 -10 17 -6 17 4 0 3 6 -3 13 -13 15 11 51 36 53 9 1
24 3 32 5 9 3 14 -3 14 -13 -1 -14 6 -18 36 -18 35 0 39 3 45 30 5 23 12 30
30 30 13 0 26 -4 30 -9 6 -11 53 11 67 31 8 10 11 10 15 1 2 -8 22 -13 44 -13
21 0 39 -5 39 -11 0 -5 5 -7 10 -4 6 4 7 13 1 23 -11 23 -3 42 19 42 10 0 20
5 22 11 2 6 20 11 41 12 20 0 37 5 37 9 0 4 4 8 9 8 8 0 7 -29 -4 -66 -8 -25
13 -43 25 -23 5 7 6 17 4 21 -3 4 0 8 7 8 7 0 10 3 6 6 -8 8 21 64 33 64 14 0
8 -52 -7 -68 -7 -7 -13 -21 -13 -31 0 -10 -3 -21 -7 -25 -14 -14 -12 -44 4
-51 14 -5 15 -8 4 -14 -9 -6 -10 -14 -4 -26 9 -15 11 -16 16 -1 4 9 17 16 30
16 13 0 26 3 30 6 8 8 -18 34 -33 34 -6 0 -8 5 -5 10 9 15 43 12 52 -5 5 -9
17 -12 31 -9 12 4 20 10 17 14 -5 8 43 56 53 53 16 -6 42 10 42 25 0 13 2 14
8 4 6 -9 12 -5 21 14 14 32 22 26 26 -16 1 -17 5 -33 8 -36 2 -3 18 14 35 38
17 24 37 49 43 57 9 10 9 15 -2 22 -12 8 -11 9 1 7 22 -4 80 25 80 39 0 7 5
13 11 13 5 0 8 4 5 8 -6 11 4 24 32 40 18 10 27 10 38 1 10 -8 14 -8 14 0 0 6
-4 11 -10 11 -5 0 -12 11 -16 25 -4 17 -13 25 -27 25 -18 0 -17 15 1 15 4 0
12 4 19 8 6 4 14 3 18 -3 3 -5 20 -10 36 -10 26 0 28 -2 20 -19 -9 -16 -8 -18
9 -14 11 3 17 9 14 14 -3 5 2 9 11 9 12 0 15 5 10 18 -25 58 -11 88 14 31 18
-40 34 -24 21 21 -17 59 -13 78 15 76 23 -1 24 -4 18 -38 -3 -21 -3 -38 0 -38
16 0 37 35 37 63 0 51 10 72 39 90 21 12 36 14 60 7 24 -7 31 -6 31 5 0 20 21
30 30 15 4 -7 15 -10 25 -7 9 4 13 12 9 18 -4 8 0 9 15 4 15 -5 21 -2 21 9 0
9 4 16 10 16 5 0 36 27 68 60 33 33 62 60 66 60 3 0 30 -16 58 -36 51 -35 59
-36 115 -19 18 6 25 2 34 -19 14 -30 26 -32 57 -10 23 16 92 13 92 -4 0 -12
58 -72 69 -72 5 0 6 10 3 23 -10 31 -35 67 -48 67 -17 0 -15 161 2 181 13 15
12 17 -6 22 -25 7 -26 23 -1 30 18 4 19 9 9 41 -6 20 -17 36 -25 36 -18 0 -16
17 3 24 13 5 15 16 10 54 -3 26 -3 41 0 35 12 -28 26 -12 21 23 -5 31 -2 40
19 56 13 11 22 24 19 29 -4 5 -2 9 3 9 16 0 77 -33 85 -47 4 -7 21 -20 37 -28
16 -8 37 -28 46 -45 21 -35 70 -56 90 -39 8 6 11 15 8 20 -3 5 -1 9 5 9 6 0 8
7 5 15 -4 10 -14 13 -31 9 -19 -5 -31 0 -48 19 -13 14 -29 27 -36 29 -9 3 -9
12 -2 34 7 21 16 29 34 30 63 1 99 15 116 44 9 17 20 30 23 31 64 8 65 8 49
-4 -8 -7 -18 -22 -21 -34 -6 -22 -5 -22 23 -7 16 8 29 12 29 8 0 -4 7 -1 15 6
8 7 15 19 15 26 0 19 -33 94 -41 94 -4 0 -5 8 -3 18 3 9 23 25 45 34 21 9 39
23 39 32 0 9 16 23 37 31 32 14 38 14 53 0 16 -15 30 -11 30 8 0 5 -7 7 -15 3
-23 -9 -18 19 10 52 14 17 25 33 25 37 0 4 11 18 25 31 14 13 25 34 25 49 0
14 5 25 10 25 11 0 35 49 31 65 -1 5 6 3 16 -5 48 -39 64 -43 87 -21 13 12 25
18 29 15 3 -4 5 2 3 13 -6 28 9 47 29 39 11 -4 15 -2 12 6 -2 7 -12 12 -21 11
-11 0 -15 4 -12 13 4 10 -2 14 -18 14 -18 0 -23 4 -19 18 3 12 -3 22 -18 28
-20 9 -31 45 -29 94 0 8 1 25 1 38 1 12 7 22 15 22 10 0 13 7 8 24 -6 24 -4
25 40 22 31 -2 46 1 46 10 0 6 7 14 15 18 21 8 19 26 -2 27 -15 0 -15 2 2 9
17 7 17 9 3 9 -23 1 -23 16 2 44 83 94 100 116 100 132 0 22 76 97 122 121 22
12 53 16 95 15 55 -2 63 0 63 16 0 10 3 28 6 41 5 18 2 24 -15 29 -11 3 -21
10 -21 15 0 13 21 52 33 59 5 4 11 43 13 87 l2 81 -43 40 c-44 40 -75 88 -75
113 0 8 -9 31 -20 53 -11 22 -20 44 -20 50 0 5 -21 33 -46 62 -25 28 -45 55
-46 60 0 4 -4 16 -9 25 -7 13 -4 20 9 27 14 7 18 18 14 41 -5 33 14 90 31 90
5 0 16 8 23 18 12 15 12 15 7 -5 -4 -18 -1 -23 13 -23 16 0 17 -2 4 -10 -10
-6 -11 -10 -3 -10 24 0 26 -47 4 -71 -20 -22 -20 -32 -5 -90 3 -11 12 -15 24
-12 11 3 27 0 35 -7 8 -7 21 -10 29 -7 8 3 22 -1 33 -8 10 -8 28 -15 41 -15
12 0 22 -3 22 -7 0 -5 15 -8 32 -8 23 0 34 5 36 18 4 21 32 23 32 2 0 -8 5
-15 10 -15 13 0 13 27 0 35 -14 9 0 35 19 35 13 0 16 8 13 40 -3 25 2 49 11
64 11 16 14 32 8 52 -5 18 -10 24 -15 16 -4 -7 -13 -12 -19 -12 -9 0 -9 2 0 8
8 5 8 12 -2 26 -13 17 -17 17 -37 5 -26 -16 -64 -17 -120 -5 -31 7 -38 13 -38
33 0 21 -4 24 -27 21 -17 -2 -35 -14 -48 -33 l-20 -30 -20 21 c-11 12 -25 30
-31 40 -7 13 -27 21 -57 24 -25 3 -54 13 -64 22 -10 9 -31 21 -46 27 -25 10
-31 8 -53 -16 -14 -15 -28 -40 -31 -55 -3 -15 -9 -28 -14 -28 -5 0 -9 -9 -9
-19 0 -17 -5 -18 -42 -14 -60 8 -127 44 -185 98 -75 72 -286 207 -434 278
-214 103 -415 170 -579 192 -118 16 -316 20 -325 6z m-3123 -1244 c7 -7 30
-26 51 -42 30 -22 143 -161 221 -270 7 -9 -2 -32 -27 -74 -20 -34 -34 -68 -30
-77 3 -8 2 -14 -3 -13 -21 4 -25 -2 -13 -18 12 -15 12 -16 -5 -10 -14 6 -17 4
-12 -8 4 -10 -2 -19 -17 -25 -12 -5 -16 -9 -9 -9 6 -1 12 -5 12 -11 0 -13 -27
-13 -32 0 -1 5 -34 14 -73 20 -38 5 -83 13 -100 16 -27 7 -29 6 -16 -9 17 -21
6 -56 -11 -39 -7 7 -23 12 -38 13 -22 0 -23 1 -5 8 18 7 18 8 -5 14 -14 3 -45
26 -69 51 l-44 45 33 93 c84 239 141 358 171 358 4 0 14 -6 21 -13z m3998
-492 c0 -9 -7 -18 -16 -22 -8 -3 -13 -12 -10 -20 3 -7 -1 -16 -9 -19 -20 -8
-19 -34 0 -34 18 0 20 -16 4 -26 -8 -5 -6 -10 5 -16 9 -5 16 -16 16 -23 0 -8
9 -16 20 -16 33 -2 38 -4 46 -11 12 -12 54 -9 54 3 0 7 12 10 30 7 18 -3 35 1
41 9 6 7 18 13 26 13 15 0 73 36 84 53 4 5 12 6 18 3 7 -5 5 -19 -8 -44 -15
-30 -33 -44 -88 -70 -143 -67 -501 -187 -628 -211 -67 -13 -105 -28 -105 -42
0 -8 -4 -9 -13 0 -10 7 -23 8 -48 0 -19 -6 -51 -10 -71 -10 -21 1 -38 -3 -38
-8 0 -7 -106 -27 -160 -30 -8 0 -40 -5 -70 -10 -108 -18 -150 -20 -150 -5 0 8
-6 14 -14 14 -8 0 -16 5 -18 12 -3 7 -15 13 -29 13 -13 1 -24 6 -24 11 0 5 5
8 12 6 8 -2 13 7 14 20 1 16 3 18 6 6 6 -22 34 -32 45 -16 5 9 8 6 8 -9 0 -16
6 -23 20 -23 11 0 20 4 20 9 0 5 9 7 20 4 13 -3 20 0 20 8 1 9 8 6 19 -8 17
-20 20 -21 32 -7 8 10 15 12 23 4 16 -16 30 -12 16 5 -18 21 -6 30 13 10 26
-26 119 -15 157 18 16 15 35 27 41 27 5 0 7 5 4 10 -3 6 -1 10 5 10 6 0 13 -7
16 -15 9 -22 94 -21 94 1 0 13 7 15 30 11 17 -4 30 -2 30 3 0 6 13 10 30 10
20 0 33 7 41 21 7 14 17 19 30 16 12 -3 19 0 19 9 0 11 -10 14 -37 12 -37 -3
-38 -2 -35 26 3 26 1 28 -12 17 -13 -11 -16 -11 -16 1 0 7 -20 22 -45 33 -47
21 -58 35 -26 35 10 0 22 -7 25 -16 5 -12 14 -15 36 -10 17 3 30 1 30 -4 0
-13 37 -50 50 -50 6 0 10 5 10 10 0 6 7 10 16 10 11 0 14 -6 9 -20 -5 -14 -2
-20 9 -20 19 0 21 -11 4 -28 -20 -20 0 -25 21 -5 14 13 32 18 61 16 50 -2 51
7 3 29 -28 13 -39 15 -45 5 -6 -9 -10 -9 -20 1 -9 9 -8 12 6 12 10 0 16 6 13
13 -2 6 -16 12 -32 12 -15 0 -30 5 -32 12 -4 12 27 11 75 -3 18 -5 22 -2 22
15 0 12 4 20 9 17 5 -4 12 0 14 6 3 7 3 -2 0 -19 -5 -32 10 -47 20 -20 4 10 7
10 18 0 7 -7 25 -13 40 -13 15 0 31 -5 34 -10 7 -12 -42 -33 -56 -24 -5 3 -9
-2 -9 -10 0 -20 4 -20 46 0 19 9 34 23 34 30 0 8 5 14 10 14 6 0 10 -4 10 -10
0 -5 7 -10 15 -10 22 0 18 18 -7 32 -13 7 -25 13 -28 13 -64 10 -78 17 -73 34
4 15 -1 18 -29 16 -33 -3 -58 9 -58 26 0 5 7 9 15 9 8 0 15 -5 15 -11 0 -5 5
-7 11 -4 6 4 8 14 5 22 -4 10 4 18 24 26 16 6 30 18 30 25 0 9 6 12 16 8 12
-4 14 -1 9 13 -3 11 -1 22 5 26 16 10 25 -25 12 -46 -16 -25 -15 -62 1 -56 6
2 11 11 9 21 -2 9 4 16 13 16 13 0 15 7 9 36 -5 27 -4 35 5 30 6 -4 14 0 17 9
5 12 14 14 35 10 25 -6 29 -4 29 15 0 16 4 20 15 16 9 -3 15 0 15 9 0 8 5 15
10 15 6 0 10 -7 10 -15z m-4229 -72 c8 -9 33 -25 56 -35 23 -10 46 -26 52 -35
6 -11 33 -20 84 -27 l75 -11 -29 -73 c-18 -46 -30 -93 -30 -127 -1 -39 -6 -55
-15 -55 -8 0 -14 -4 -14 -10 0 -5 -7 -10 -15 -10 -17 0 -20 16 -5 25 5 3 14
14 20 25 8 15 7 17 -11 13 -28 -8 -76 -57 -71 -74 3 -8 1 -11 -3 -7 -5 4 -14
3 -22 -3 -10 -9 -13 -6 -13 15 0 39 -29 62 -83 64 l-47 3 1 -38 c1 -58 11 -74
59 -92 37 -14 45 -22 51 -50 7 -36 42 -70 71 -71 9 0 31 18 48 40 17 22 36 38
41 34 17 -10 9 -51 -16 -80 -29 -34 -29 -35 -12 -57 22 -29 170 -147 184 -147
9 0 11 -5 6 -12 -4 -7 -8 -17 -8 -23 0 -5 -8 -9 -17 -7 -9 1 -19 -2 -23 -8 -9
-15 -25 -12 -25 5 0 21 -25 19 -58 -4 -15 -11 -43 -22 -63 -25 -34 -6 -38 -4
-52 26 -27 55 -64 67 -80 26 -9 -24 -37 -23 -37 1 0 12 9 20 28 24 37 7 84 55
80 81 -2 11 -12 25 -24 31 -11 6 -19 16 -16 23 2 6 -2 12 -8 12 -8 0 -10 9 -6
24 5 20 0 28 -24 43 -16 9 -30 21 -30 25 0 4 -11 15 -25 24 -21 14 -28 14 -42
3 -15 -13 -16 -11 -9 14 5 21 3 27 -10 27 -13 0 -16 -7 -11 -36 4 -25 2 -34
-6 -31 -7 2 -13 14 -15 26 -2 12 -10 25 -18 28 -22 8 -17 43 8 52 14 5 17 10
10 15 -7 4 -12 19 -12 33 0 14 -8 32 -17 39 -17 12 -17 13 3 14 22 0 34 23 34
68 0 12 4 22 9 22 5 0 12 17 16 38 8 45 33 129 47 159 6 11 7 26 4 32 -8 12 1
31 13 31 5 0 15 -7 22 -17z m379 -28 c11 -13 15 -13 21 -3 6 10 9 8 9 -6 0
-13 -5 -16 -17 -12 -18 7 -42 -15 -61 -57 -16 -36 -15 -38 6 -30 16 6 16 6 0
-10 -9 -9 -21 -17 -27 -17 -17 0 -13 -18 5 -28 11 -6 15 -17 11 -31 -3 -11 -1
-24 4 -27 5 -3 9 -11 9 -17 0 -7 -4 -6 -10 3 -5 8 -12 11 -16 7 -4 -3 -1 -13
5 -21 10 -12 9 -15 -8 -13 -12 1 -21 6 -21 13 0 6 -6 16 -12 22 -10 8 -13 2
-14 -24 0 -19 -3 -36 -6 -39 -8 -8 -38 5 -38 17 0 5 4 7 9 4 5 -3 8 16 8 42 0
57 47 156 93 196 17 14 28 30 25 36 -10 16 11 12 25 -5z m802 -61 c41 -29 42
-43 3 -39 -28 4 -31 -4 -12 -25 7 -9 4 -8 -8 1 -11 9 -26 14 -34 11 -8 -2 -11
0 -7 6 3 6 -4 12 -16 14 -31 5 -69 -3 -63 -12 3 -4 -9 -22 -25 -40 -34 -37
-36 -40 -15 -40 19 0 19 -7 -2 -33 -12 -14 -27 -21 -42 -19 -19 3 -23 0 -19
-16 7 -25 -6 -47 -22 -37 -9 6 -9 9 1 16 7 4 10 11 6 16 -13 13 -42 -13 -40
-36 2 -15 -4 -22 -23 -27 -13 -4 -23 -11 -21 -18 5 -16 -21 -39 -34 -30 -8 4
-9 3 -5 -4 4 -7 1 -12 -8 -12 -12 0 -16 12 -17 48 -1 27 -4 36 -6 20 -5 -30
-31 -45 -47 -27 -8 9 -7 10 6 6 19 -7 28 10 18 37 -6 17 -7 18 -13 3 -4 -10
-12 -14 -22 -11 -11 5 -17 -2 -21 -25 -4 -17 -10 -28 -15 -26 -4 3 -6 12 -2
20 3 9 -1 15 -11 15 -9 0 -16 -4 -16 -10 0 -5 -4 -10 -10 -10 -5 0 -7 7 -3 16
5 14 3 14 -14 4 -11 -7 -26 -29 -33 -48 -8 -24 -15 -31 -20 -21 -7 10 -11 10
-24 -1 -9 -7 -19 -10 -22 -7 -9 8 6 28 16 22 5 -3 11 -1 14 4 12 19 -24 19
-47 0 -14 -10 -30 -19 -36 -19 -5 0 -17 -10 -25 -22 -9 -12 -18 -19 -21 -16
-4 3 20 28 51 54 32 27 71 61 87 77 16 15 32 27 37 27 5 0 28 13 52 29 45 30
152 71 188 71 11 0 29 5 39 12 15 9 26 9 44 1 22 -10 26 -9 30 8 3 10 10 19
17 19 6 0 8 -5 5 -11 -4 -6 3 -5 14 3 17 10 18 14 6 16 -19 4 -7 17 56 61 54
37 82 39 131 5z m832 -278 c-3 -7 -16 -19 -28 -26 -14 -7 -22 -19 -21 -29 2
-9 4 -22 4 -29 1 -8 11 -3 27 12 18 16 38 24 62 24 19 0 38 6 43 14 5 7 9 8 9
2 0 -19 48 -3 53 17 3 10 10 19 16 19 15 0 -19 -70 -47 -98 -15 -14 -31 -21
-42 -17 -10 3 -21 1 -25 -5 -3 -5 -15 -15 -25 -20 -16 -8 -18 -8 -14 5 4 8 1
15 -5 15 -6 0 -11 -7 -11 -15 0 -20 -26 -19 -34 1 -3 8 -11 12 -16 9 -6 -4
-24 -4 -40 0 l-30 7 22 19 c18 14 20 21 10 27 -10 7 -6 13 14 28 15 10 36 29
47 41 21 23 40 22 31 -1z m-992 -395 c-16 -14 -44 -34 -63 -45 -19 -10 -29
-21 -21 -23 20 -7 15 -35 -5 -29 -22 7 -33 0 -61 -41 -26 -36 -28 -53 -7 -53
20 0 19 -23 -2 -42 -26 -23 -46 -26 -61 -12 -15 15 -41 4 -60 -27 -9 -13 -7
-22 8 -39 10 -12 20 -26 22 -31 7 -21 163 45 181 77 4 8 25 23 46 33 46 24 94
65 183 154 70 70 101 85 94 45 -3 -26 13 -58 30 -58 12 0 34 -42 34 -64 0 -8
11 -21 25 -30 34 -22 32 -46 -2 -48 -49 -2 -65 2 -81 22 -17 20 -62 19 -62 -2
0 -5 -4 -6 -10 -3 -11 7 -67 -41 -75 -65 -4 -12 -12 -16 -24 -13 -18 5 -66
-35 -56 -45 3 -3 25 -4 50 -4 43 2 45 1 35 -18 -6 -11 -19 -20 -29 -20 -21 0
-35 -36 -17 -45 6 -3 -1 -3 -16 0 -16 3 -28 2 -28 -2 0 -5 -11 -21 -25 -37
-14 -16 -25 -34 -25 -41 0 -14 106 -9 137 7 13 6 26 9 29 5 3 -3 17 -2 30 3
15 6 24 6 24 0 0 -15 -22 -24 -52 -22 -18 2 -31 -3 -34 -13 -4 -8 -13 -15 -20
-15 -23 0 -37 -49 -24 -81 7 -15 18 -30 26 -33 16 -6 19 -42 3 -51 -5 -4 -18
0 -28 9 -26 24 -54 21 -46 -4 10 -33 -5 -61 -41 -76 -18 -8 -39 -24 -45 -36
-26 -52 -50 -68 -100 -68 -54 0 -63 8 -50 41 6 17 3 33 -12 59 -11 20 -21 59
-22 90 -6 106 -16 175 -30 204 -8 16 -15 42 -15 57 0 15 -4 30 -9 33 -5 3 -18
26 -30 51 -12 25 -26 45 -31 45 -6 0 -10 13 -10 28 0 23 -8 33 -40 51 -22 12
-47 29 -56 38 -15 16 -15 17 2 23 11 4 25 -1 37 -13 12 -12 22 -16 29 -9 13
13 18 132 5 132 -29 0 10 14 72 25 38 8 88 26 111 40 24 15 72 35 109 44 l66
17 33 -24 32 -25 -28 -26z m688 -662 c0 -5 -5 -9 -11 -9 -6 0 -9 -7 -5 -15 6
-17 -9 -21 -19 -4 -4 5 -19 -9 -34 -33 -28 -42 -74 -88 -89 -88 -4 0 -31 -16
-60 -35 -51 -35 -193 -109 -302 -157 -30 -13 -107 -48 -170 -77 -155 -71 -238
-102 -245 -91 -3 5 3 13 12 19 10 6 13 11 7 11 -20 0 -65 -53 -61 -71 3 -12 0
-16 -9 -12 -23 9 -16 48 14 75 15 14 40 42 55 62 15 20 34 36 42 36 8 0 15 4
15 10 0 10 99 60 119 60 7 0 9 5 5 12 -5 8 -2 9 12 4 35 -15 87 -19 80 -7 -4
7 1 11 13 11 12 0 21 4 21 8 0 4 15 14 33 22 17 7 35 15 39 17 3 2 4 -5 1 -16
-3 -12 -25 -27 -61 -41 -32 -12 -71 -29 -89 -36 -17 -8 -34 -14 -38 -14 -24 0
-114 -53 -133 -79 l-23 -31 33 15 c18 8 96 41 173 74 77 32 181 78 230 102 50
23 92 43 95 44 14 3 98 51 158 89 71 46 101 75 122 115 7 14 18 30 24 36 11
13 46 8 46 -6z m-570 -501 c0 6 4 12 9 12 4 0 6 -11 3 -25 -5 -30 2 -31 30 -5
12 11 24 20 27 20 14 -1 29 -17 35 -37 8 -24 -2 -29 -47 -25 -18 2 -18 1 -1
-15 10 -10 22 -18 27 -18 6 0 15 -13 20 -28 10 -32 -4 -57 -34 -57 -17 0 -25
22 -20 53 1 4 -5 17 -12 28 -13 18 -15 17 -27 -25 -9 -34 -16 -43 -29 -39 -13
4 -13 3 -2 -5 15 -11 6 -36 -10 -27 -5 4 -9 2 -9 -4 0 -6 -12 -8 -32 -4 -22 4
-29 3 -24 -5 4 -7 3 -12 -1 -12 -5 0 -14 -15 -21 -33 -7 -20 -23 -39 -39 -46
-20 -9 -24 -15 -14 -21 8 -4 10 -13 7 -19 -4 -6 -12 -9 -17 -6 -5 4 -9 -5 -9
-19 0 -14 -4 -26 -9 -26 -15 0 -23 36 -15 75 4 21 2 41 -5 49 -6 7 -12 42 -14
77 -2 57 0 64 16 61 12 -2 21 4 24 17 3 12 8 21 12 21 3 0 19 11 35 25 17 15
36 23 45 20 9 -3 12 -3 8 1 -3 4 13 17 36 29 30 17 44 20 49 12 6 -9 8 -9 8 1z"/>
<path d="M9266 5775 c-3 -8 -12 -12 -21 -9 -9 4 -15 1 -15 -9 0 -8 -9 -26 -21
-41 -11 -14 -18 -30 -14 -36 3 -6 0 -7 -9 -4 -11 4 -16 0 -16 -15 0 -12 -4
-21 -9 -21 -5 0 -7 -10 -3 -22 3 -14 1 -19 -6 -14 -6 3 -13 -2 -17 -13 -3 -10
-14 -26 -25 -36 -27 -25 -26 -61 3 -69 12 -3 37 -19 55 -36 56 -49 66 -48 131
15 85 82 101 165 50 249 -10 17 -23 41 -29 54 -11 25 -45 30 -54 7z"/>
<path d="M6639 5590 c-26 -33 -50 -38 -69 -15 -12 14 -40 21 -40 9 0 -12 34
-39 49 -39 9 0 17 -8 19 -18 3 -13 -3 -17 -22 -17 -14 0 -26 -6 -26 -13 0 -17
55 -40 79 -32 15 4 21 0 25 -22 7 -31 44 -53 89 -53 15 0 26 -4 23 -9 -3 -4 6
-13 21 -20 21 -10 28 -9 35 1 8 10 11 10 15 1 2 -7 18 -13 33 -13 17 0 33 -7
39 -17 10 -17 10 -17 11 0 0 23 15 22 40 -3 11 -11 20 -15 20 -10 0 6 7 10 15
10 8 0 15 -4 15 -9 0 -13 40 -21 40 -8 0 7 7 4 14 -5 15 -20 33 -23 38 -8 2 7
19 5 48 -5 54 -19 121 -12 162 17 24 17 29 17 34 4 3 -8 3 -19 1 -23 -3 -5 3
-9 14 -9 10 0 19 7 19 15 0 12 3 12 12 3 16 -16 29 -15 22 2 -3 8 -1 17 4 20
6 4 5 18 -2 38 -18 51 -36 79 -46 73 -5 -3 -15 3 -22 15 -7 11 -21 20 -30 20
-14 0 -18 8 -18 34 0 33 -1 33 -42 33 -44 0 -89 10 -143 33 -16 7 -34 12 -39
11 -4 -1 -14 3 -21 9 -10 8 -15 8 -20 0 -9 -15 -84 -3 -106 16 -26 23 -58 17
-77 -15 -17 -31 -66 -47 -88 -30 -12 10 -51 14 -73 8 -8 -2 -15 6 -17 20 -6
35 -8 35 -35 1z"/>
<path d="M5255 5391 c-80 -8 -121 -32 -151 -87 -10 -19 -21 -34 -25 -34 -6 0
-52 -88 -55 -107 -1 -6 -13 -27 -27 -45 -13 -18 -22 -39 -19 -47 3 -8 0 -11
-7 -7 -6 4 -11 1 -11 -8 0 -8 -7 -19 -15 -23 -19 -11 -40 -76 -22 -70 7 2 14
12 16 23 8 44 41 54 41 13 0 -11 5 -17 10 -14 6 3 10 19 10 36 0 19 5 29 15
29 8 0 15 5 15 11 0 6 7 9 15 5 8 -3 15 -1 15 3 0 5 -7 12 -16 15 -13 5 -14 9
-4 21 7 9 20 14 29 13 10 -2 16 4 16 17 0 19 12 35 28 35 4 0 7 -6 7 -14 0 -7
9 -16 20 -19 15 -4 20 0 20 14 0 13 -5 17 -17 12 -17 -6 -17 -6 -1 10 10 10
33 17 60 18 24 0 37 3 31 6 -23 9 -13 22 22 29 41 7 70 34 36 34 -11 0 -21 4
-21 9 0 5 -13 12 -30 16 -16 4 -30 11 -30 16 0 15 27 10 64 -11 20 -10 38 -15
41 -10 3 5 12 7 20 3 8 -3 15 0 15 6 0 6 -4 11 -10 11 -5 0 -10 5 -10 12 0 9
3 9 12 0 19 -19 28 -14 28 13 0 27 9 32 27 14 7 -7 13 -7 17 0 7 11 -31 51
-50 51 -7 0 -18 2 -26 3 -7 2 -45 1 -83 -2z"/>
<path d="M7614 5215 c-7 -17 -34 -21 -34 -5 0 6 -7 10 -15 10 -28 0 -15 -18
25 -34 22 -9 40 -21 40 -28 0 -6 6 -3 14 7 14 19 14 19 36 0 18 -16 23 -17 30
-5 8 12 10 10 10 -7 0 -12 5 -25 11 -29 6 -3 9 -14 6 -23 -2 -10 3 -33 12 -52
14 -29 22 -34 54 -37 28 -2 42 2 51 14 10 14 16 15 35 5 19 -11 26 -9 48 13
20 20 22 26 9 26 -9 0 -16 6 -16 14 0 7 -6 19 -14 26 -8 6 -12 19 -9 28 4 13
3 14 -5 3 -7 -9 -12 -10 -16 -2 -4 6 -14 11 -23 11 -13 0 -13 -3 -3 -15 7 -8
18 -15 25 -15 7 0 15 -17 18 -37 7 -42 0 -56 -15 -30 -7 14 -19 18 -46 15 -35
-3 -37 -1 -40 30 -3 29 -1 33 15 28 30 -10 27 49 -4 65 -17 9 -26 10 -31 2
-10 -15 -54 -20 -59 -6 -2 6 4 13 14 16 13 3 11 6 -11 12 -20 6 -31 4 -34 -3
-5 -17 -32 -15 -32 3 0 8 -9 15 -20 15 -11 0 -23 -7 -26 -15z"/>
<path d="M2476 5026 c7 -19 0 -20 -25 -4 -23 14 -51 4 -51 -17 0 -53 377 -363
480 -396 19 -6 43 -19 53 -27 16 -15 17 -14 15 16 -1 20 -6 28 -12 22 -6 -6
-14 -1 -21 13 -6 12 -16 21 -22 20 -6 -1 -9 11 -7 27 2 17 0 30 -4 31 -24 2
-45 8 -50 15 -4 4 1 4 10 1 12 -4 15 -2 11 9 -3 8 -12 13 -20 10 -8 -3 -12 -2
-9 3 3 4 -9 21 -27 38 -47 44 -124 101 -107 79 18 -23 8 -19 -42 14 -43 29
-52 49 -10 23 l27 -17 -25 28 c-13 15 -26 22 -28 17 -5 -15 -29 -14 -39 2 -4
8 -15 17 -23 21 -45 21 -61 34 -50 41 6 4 23 -1 38 -10 l27 -16 -24 21 c-14
12 -31 18 -42 15 -14 -5 -17 -2 -13 8 3 8 1 18 -5 22 -7 3 -8 0 -5 -9z"/>
<path d="M5005 4928 c6 -14 -59 -23 -78 -11 -6 4 -20 8 -31 8 -18 2 -18 1 -1
-12 16 -11 17 -13 3 -13 -9 0 -20 5 -23 10 -11 18 -22 11 -36 -22 -7 -18 -25
-44 -39 -57 -19 -18 -20 -23 -6 -18 15 6 17 4 11 -10 -4 -10 -14 -37 -22 -59
-7 -23 -22 -50 -32 -60 -19 -22 -8 -45 18 -36 15 5 13 2 -25 -41 -6 -7 -13
-22 -16 -34 -4 -17 -2 -20 10 -16 10 5 13 2 8 -6 -9 -13 14 -35 52 -51 12 -5
22 -17 22 -26 0 -8 6 -14 12 -12 7 3 18 -1 25 -8 17 -16 53 -7 46 12 -4 12 0
14 23 8 16 -4 31 -7 34 -6 30 0 40 4 35 12 -3 6 -1 10 5 10 7 0 10 6 7 14 -3
8 -1 16 4 18 6 2 -3 21 -20 42 -34 42 -41 72 -15 62 9 -3 21 -6 28 -6 7 0 24
-9 37 -21 l24 -21 3 23 c5 32 31 69 49 69 8 0 22 8 31 17 18 18 20 18 -33 -3
-9 -4 -15 -3 -14 2 4 25 -4 33 -41 39 -22 4 -40 11 -40 16 0 5 -30 6 -66 3
-54 -5 -66 -4 -62 7 3 8 18 17 34 20 18 4 21 7 10 8 -27 1 -8 18 25 23 14 1
34 -3 43 -11 14 -11 16 -11 16 3 0 10 8 16 23 16 22 -1 22 -1 2 -16 -19 -15
-18 -16 22 -11 54 6 94 35 87 62 -12 47 -27 75 -40 75 -18 0 -17 -10 1 -34 20
-27 19 -36 -6 -36 -11 0 -18 -4 -14 -9 8 -14 -32 -23 -53 -12 -13 7 -23 7 -32
-2 -10 -9 -14 -9 -17 1 -3 6 -13 12 -24 12 -11 0 -22 7 -26 16 -8 20 21 44 53
44 12 0 25 7 28 16 8 22 8 24 -9 24 -8 0 -12 -6 -10 -12z"/>
<path d="M4580 4443 c0 -6 5 -13 11 -15 5 -2 7 -11 3 -21 -6 -16 -8 -16 -30
-2 -28 18 -38 19 -27 3 4 -7 -5 -5 -20 5 -38 25 -44 21 -15 -10 14 -16 33 -40
43 -55 17 -27 17 -28 -6 -37 -15 -6 -18 -10 -9 -11 8 -1 -4 -6 -27 -11 -54
-10 -114 -39 -108 -50 3 -4 25 1 49 13 32 15 53 19 80 14 22 -4 34 -11 30 -18
-4 -5 5 -2 20 7 23 15 26 16 26 1 0 -21 -52 -56 -58 -38 -3 9 -8 8 -17 -5 -17
-23 2 -37 22 -17 18 17 33 10 33 -17 0 -17 6 -20 33 -17 28 3 32 6 29 31 -2
19 3 29 15 34 10 3 24 11 31 16 7 6 25 12 40 13 15 2 28 8 30 14 2 5 7 8 12 5
5 -3 20 -1 35 5 15 6 24 6 20 1 -3 -5 5 -13 17 -17 13 -4 26 -12 30 -18 5 -7
8 -5 8 6 0 10 -8 25 -18 35 -25 25 -57 76 -54 86 1 5 -2 6 -7 3 -13 -8 -42 4
-35 15 3 5 -1 6 -9 3 -8 -3 -20 2 -27 11 -7 8 -19 15 -26 15 -8 0 -14 5 -14
11 0 8 -14 10 -43 6 -28 -4 -48 -2 -55 5 -9 9 -12 9 -12 1z"/>
<path d="M2025 4322 c-6 -4 -10 -35 -10 -68 l0 -62 25 27 c23 25 25 25 28 6 2
-11 9 -27 16 -35 7 -8 21 -32 31 -53 18 -35 23 -38 53 -32 38 7 43 -7 7 -23
-20 -9 -24 -17 -22 -49 2 -24 7 -37 15 -35 16 3 16 -15 0 -21 -10 -3 -9 -9 3
-22 20 -21 55 -13 62 15 7 26 36 37 48 19 6 -10 3 -15 -9 -17 -20 -5 -72 -58
-72 -75 0 -7 11 -32 25 -56 14 -23 25 -52 25 -62 0 -10 9 -28 20 -39 10 -10
21 -30 23 -42 4 -28 28 -81 40 -89 5 -3 8 -10 7 -15 0 -5 8 -10 20 -12 23 -4
27 -22 4 -22 -8 0 -12 -4 -9 -10 11 -17 35 -11 80 20 24 17 48 30 54 30 5 0
13 9 16 20 3 11 14 20 24 20 39 0 87 29 106 63 l18 35 27 -20 c16 -11 56 -23
99 -29 66 -9 75 -8 108 11 20 12 43 18 54 15 16 -6 18 -3 10 17 -5 13 -9 25
-9 28 -2 32 -18 60 -40 69 -17 8 -22 15 -14 20 8 4 0 13 -21 26 -17 10 -34 22
-37 26 -3 4 -18 10 -34 13 -15 3 -34 10 -41 16 -9 8 -14 6 -18 -9 -3 -15 5
-27 34 -47 21 -15 39 -30 39 -35 0 -4 7 -15 16 -23 18 -18 7 -20 -31 -6 -15 6
-25 15 -23 22 8 22 -98 98 -135 98 -8 0 -22 -9 -32 -20 -26 -29 -36 -25 -19 8
17 33 18 49 3 54 -7 2 -13 17 -15 32 -4 35 -2 33 -44 38 -33 3 -35 1 -32 -23
2 -17 -3 -29 -12 -32 -9 -4 -16 -16 -16 -28 0 -27 50 -80 70 -74 10 3 19 -5
27 -24 11 -29 10 -29 -21 -24 -27 4 -37 0 -59 -26 -17 -21 -28 -27 -33 -20 -4
7 4 20 19 31 15 11 27 29 27 39 0 28 -147 169 -176 169 -13 0 -26 -4 -29 -10
-3 -5 -13 -10 -21 -10 -12 0 -12 4 2 25 21 33 12 55 -24 55 -19 0 -37 10 -55
30 -15 17 -31 30 -35 30 -5 0 -8 10 -7 23 1 18 7 21 28 19 15 -2 27 1 27 7 0
6 -4 11 -9 11 -4 0 -19 10 -32 23 -23 21 -126 97 -132 97 -1 0 -7 -4 -12 -8z"/>
<path d="M3029 4063 c-1 -5 -2 -13 -3 -20 0 -7 -10 -18 -20 -26 -22 -16 -14
-37 13 -37 41 0 78 -20 77 -43 -1 -14 6 -23 19 -25 29 -6 45 -22 45 -45 0 -45
19 1 21 53 4 69 -19 110 -62 110 -18 0 -32 7 -39 20 -10 19 -49 28 -51 13z"/>
<path d="M2657 3663 c-4 -3 -7 -14 -7 -24 0 -9 -6 -20 -12 -22 -10 -4 -9 -8 2
-16 11 -8 18 -7 26 4 13 17 34 20 34 4 0 -5 -4 -7 -10 -4 -5 3 -10 0 -10 -8 0
-9 18 -19 47 -27 27 -6 56 -20 66 -31 16 -17 21 -18 34 -7 9 7 26 13 37 13 15
0 22 7 24 25 2 23 2 24 -11 7 -14 -17 -53 -14 -42 3 3 5 -1 14 -8 22 -8 7 -12
19 -9 26 9 27 -16 40 -61 31 -24 -4 -46 -4 -51 2 -12 11 -40 12 -49 2z"/>
<path d="M8636 3526 c-3 -13 -22 -46 -41 -74 -41 -60 -41 -62 -15 -62 12 0 20
-7 20 -16 0 -13 3 -14 15 -4 8 6 19 9 24 5 6 -3 19 -1 30 5 23 12 51 3 51 -16
0 -10 -7 -13 -26 -8 -24 6 -25 5 -22 -27 3 -29 6 -34 28 -31 48 5 54 53 11 99
-16 18 -32 46 -36 63 -5 21 -11 30 -21 26 -17 -6 -19 25 -3 41 7 7 7 13 1 17
-5 3 -13 -5 -16 -18z"/>
<path d="M2350 3196 c0 -8 -3 -16 -7 -18 -5 -2 -18 -15 -31 -29 -18 -21 -21
-31 -13 -51 9 -24 7 -26 -20 -30 -34 -5 -38 6 -8 22 11 7 18 14 16 17 -6 6
-49 -16 -58 -30 -4 -5 -17 -6 -29 -2 -18 6 -20 9 -9 17 10 7 7 8 -11 4 -14 -3
-28 -6 -32 -6 -4 0 -5 -8 -2 -17 4 -11 2 -14 -3 -8 -9 12 -63 17 -63 6 0 -4 6
-14 13 -23 15 -20 77 -13 77 8 0 11 5 12 20 4 11 -5 29 -14 40 -20 19 -10 80
-3 80 9 0 3 13 12 29 19 30 13 34 46 4 35 -13 -5 -13 -3 -2 15 7 11 18 18 24
15 5 -3 4 0 -2 8 -17 17 -16 29 1 29 7 0 16 9 19 20 4 15 0 20 -14 20 -10 0
-19 -6 -19 -14z"/>
<path d="M1977 3096 c-8 -8 -24 -12 -39 -9 -34 6 -75 -31 -58 -52 8 -9 8 -15
0 -20 -5 -3 -10 -15 -10 -27 0 -18 4 -20 43 -14 29 5 48 2 61 -7 22 -16 82 -7
79 11 -2 6 -4 24 -5 40 -2 28 -5 30 -34 26 -18 -2 -35 0 -39 6 -8 12 28 47 43
42 7 -2 12 1 12 7 0 16 -36 14 -53 -3z"/>
<path d="M1757 2983 c4 -10 12 -22 20 -26 20 -12 16 -27 -7 -27 -11 0 -20 -7
-20 -15 0 -8 5 -15 11 -15 8 0 8 -4 0 -13 -7 -10 -7 -17 0 -24 6 -6 9 -23 7
-39 -2 -20 -10 -30 -28 -34 -16 -4 -24 -12 -22 -23 2 -11 -4 -17 -15 -17 -14
0 -15 -2 -4 -9 11 -7 9 -13 -8 -30 l-21 -21 23 0 c43 0 54 -4 66 -23 12 -18
10 -18 -21 -11 -18 4 -42 8 -52 8 -25 1 -50 -43 -35 -60 7 -9 7 -19 -1 -33 -8
-17 -8 -21 4 -21 8 0 18 -4 21 -10 8 -13 -21 -67 -42 -79 -14 -8 -15 -12 -4
-25 11 -13 11 -16 -2 -16 -12 0 -14 -12 -11 -62 6 -113 24 -164 73 -211 16
-16 27 -35 25 -42 -3 -8 7 -22 23 -32 15 -9 31 -22 35 -27 4 -6 8 -8 10 -6 20
31 28 54 24 68 -3 9 -2 31 2 47 7 23 5 33 -7 43 -12 10 -13 15 -3 18 20 9 14
23 -8 17 -17 -5 -19 -1 -15 32 7 48 28 71 47 50 36 -40 43 -51 45 -75 2 -18 0
-21 -7 -10 -5 8 -6 18 -4 22 3 4 1 8 -4 8 -10 0 -22 -23 -22 -41 0 -6 4 -7 10
-4 6 3 7 -1 4 -9 -3 -9 -1 -16 4 -16 12 0 9 -17 -12 -75 -12 -35 -12 -41 0
-48 8 -5 23 -6 33 -2 16 5 18 2 14 -15 -3 -11 -13 -20 -22 -21 -10 0 -11 -2
-3 -6 6 -2 12 -11 12 -19 0 -21 21 -17 27 6 3 11 9 20 14 20 14 0 40 58 29 65
-13 8 -13 35 0 35 12 0 34 -48 31 -67 -1 -6 4 -15 10 -19 7 -4 9 -3 5 4 -3 5
-1 12 6 14 19 7 20 46 0 51 -14 4 -15 5 -1 6 10 1 17 10 17 24 0 12 1 29 3 37
3 11 -6 16 -29 18 -23 2 -32 8 -29 16 3 8 0 19 -6 26 -7 7 -7 10 -1 7 6 -3 18
3 27 14 20 23 39 25 35 3 -2 -10 3 -19 11 -22 8 -3 11 0 7 6 -3 6 0 13 6 15
10 4 10 6 1 6 -9 1 -10 8 -3 26 9 24 8 25 -21 20 -21 -4 -28 -2 -24 5 4 7 -2
6 -14 -2 -18 -11 -23 -11 -30 1 -17 27 -1 41 49 41 54 0 74 15 38 29 l-23 9
27 7 c16 4 25 11 22 16 -8 14 6 11 21 -5 10 -10 11 -16 2 -25 -8 -8 -4 -11 15
-11 33 0 46 -19 25 -35 -9 -7 -13 -15 -9 -19 4 -4 -5 -5 -20 -1 -26 7 -26 7
-24 -49 1 -31 -1 -56 -4 -56 -9 0 -7 -47 2 -56 4 -3 1 -13 -7 -21 -19 -18 -19
-29 0 -37 8 -3 15 0 15 7 0 8 4 7 10 -3 11 -17 39 -9 167 48 64 29 85 43 94
65 7 16 15 25 18 20 9 -13 44 -14 61 -2 11 8 12 12 3 16 -19 7 -16 16 8 32 19
11 21 11 16 -1 -10 -27 28 -39 82 -27 52 11 74 27 69 50 -2 10 8 14 34 14 25
1 45 8 62 24 13 13 28 21 33 18 5 -3 15 -2 23 3 11 7 12 11 0 25 -7 9 -19 14
-27 11 -7 -3 -13 -1 -13 5 0 7 -10 9 -26 5 -14 -4 -31 -3 -37 2 -10 9 -38 9
-72 3 -5 -2 -1 -6 10 -11 17 -7 17 -9 3 -9 -10 -1 -18 -5 -18 -11 0 -5 -6 -10
-14 -10 -8 0 -18 -10 -22 -22 -7 -23 -7 -22 -16 5 -5 15 -15 27 -23 27 -7 0
-18 7 -25 15 -9 10 -9 15 -1 15 20 0 12 17 -11 23 -24 7 -76 -38 -55 -47 8 -3
6 -5 -3 -6 -8 -1 6 -7 32 -14 60 -14 58 -32 -3 -28 -33 2 -51 -2 -63 -13 -9
-9 -16 -13 -16 -9 0 3 -7 1 -15 -6 -16 -14 -35 -6 -35 16 0 8 -8 14 -17 14
-13 0 -14 -3 -5 -12 17 -17 15 -28 -4 -28 -9 0 -18 9 -21 19 -6 23 -39 34 -63
21 -10 -5 -20 -6 -24 -3 -15 15 -3 23 37 23 23 0 49 5 57 10 8 5 11 10 6 10
-5 0 2 9 15 19 16 12 34 17 52 14 19 -4 29 -1 34 12 6 17 0 25 -44 51 -15 10
-16 13 -4 28 13 15 15 15 32 0 11 -10 25 -13 38 -9 28 9 26 27 -4 42 -14 6
-25 7 -25 2 0 -5 -11 -9 -25 -9 -14 0 -25 5 -25 11 0 6 -6 9 -14 6 -8 -3 -17
-3 -21 1 -3 3 -22 5 -41 3 -19 -1 -41 3 -49 9 -14 11 -35 6 -35 -9 0 -4 16
-13 35 -20 27 -9 39 -10 50 -1 26 22 28 -10 1 -36 -13 -14 -22 -32 -19 -40 4
-10 0 -12 -13 -8 -15 5 -16 4 -8 -5 9 -10 17 -10 32 -2 21 11 52 6 52 -9 0 -5
-18 -11 -41 -15 -31 -5 -43 -3 -52 9 -14 19 -74 38 -79 25 -2 -4 -13 -6 -25
-3 -13 4 -20 10 -17 15 3 5 2 15 -3 22 -4 6 -8 17 -10 22 -1 6 -4 21 -7 34 -5
22 -3 23 27 18 18 -3 39 -7 47 -10 8 -2 12 -2 7 0 -4 3 -5 9 -1 14 3 5 -6 9
-20 9 -14 0 -26 6 -27 13 0 6 -2 26 -2 42 -2 25 -7 31 -29 33 -18 2 -31 -4
-41 -18 -10 -15 -28 -22 -61 -25 -43 -4 -59 5 -36 20 15 9 -16 36 -34 29 -8
-3 -24 -21 -35 -40 l-21 -35 31 -6 31 -6 -31 -13 c-38 -16 -39 -27 -5 -43 27
-12 90 -6 100 10 3 5 12 9 21 9 18 0 8 -15 -10 -15 -7 0 -11 -9 -9 -18 2 -13
-2 -18 -15 -16 -26 4 -66 -20 -59 -36 8 -23 -14 -29 -29 -9 -19 25 -14 37 16
45 22 7 22 7 -6 8 -51 1 -57 -9 -57 -90 1 -43 -3 -68 -7 -59 -12 22 -23 100
-14 100 5 0 7 19 7 42 -1 24 2 48 6 53 13 19 17 52 8 69 -6 10 -5 16 2 16 5 0
9 3 8 8 -2 4 7 20 19 36 19 23 28 27 50 22 45 -11 94 -12 100 -3 2 4 11 3 19
-4 9 -7 30 -9 59 -5 39 6 45 10 45 31 0 20 -16 68 -27 84 -2 3 -26 4 -53 2
-28 -1 -50 2 -50 6 0 17 16 29 38 30 33 2 48 24 42 57 -6 34 -23 41 -105 41
-49 0 -60 -3 -63 -17 -2 -13 3 -18 17 -18 12 0 21 -5 21 -10 0 -6 -6 -10 -12
-9 -39 5 -58 -2 -58 -21 0 -13 -7 -20 -19 -20 -24 0 -36 16 -17 23 17 7 30 59
21 87 -4 12 -13 19 -20 16 -7 -2 -16 2 -19 10 -3 8 -14 14 -25 14 -15 0 -19
-5 -14 -17z"/>
<path d="M2765 2667 c-12 -15 -18 -35 -19 -59 0 -10 -4 -18 -9 -18 -5 0 -15
-7 -24 -16 -9 -8 -21 -13 -28 -10 -8 3 -10 -4 -7 -20 4 -22 21 -31 47 -24 6 2
19 2 29 2 11 -1 27 3 37 8 12 7 19 5 23 -6 5 -13 -27 -34 -54 -34 -12 0 -50
-41 -50 -53 0 -5 11 -7 25 -5 13 3 26 0 29 -6 2 -6 5 4 5 22 1 33 17 42 39 20
9 -9 12 -9 12 -1 0 7 9 15 20 18 26 8 25 35 -4 92 -14 27 -30 60 -37 76 -14
30 -19 32 -34 14z"/>
<path d="M1499 2029 c-8 -4 -28 -6 -45 -4 -16 2 -37 -1 -45 -6 -11 -7 -10 -9
6 -10 11 -1 24 -1 28 0 4 1 10 -5 13 -13 3 -8 13 -12 25 -9 10 3 19 1 19 -5 0
-5 10 -13 23 -16 21 -6 21 -7 -8 -21 -16 -7 -24 -14 -17 -14 7 -1 20 -17 28
-37 13 -32 18 -35 42 -30 15 3 39 8 54 11 35 5 68 23 68 35 0 6 7 10 15 10 8
0 15 7 15 16 0 11 -6 14 -20 9 -15 -5 -26 0 -41 19 -11 14 -25 26 -31 26 -6 0
-19 6 -27 13 -24 20 -87 36 -102 26z"/>
<path d="M1420 1964 c0 -13 13 -19 33 -15 5 1 6 -3 3 -8 -4 -5 0 -12 6 -14 8
-3 6 -6 -5 -6 -9 -1 -34 8 -55 19 -26 14 -38 17 -41 8 -2 -7 1 -14 8 -16 6 -2
11 -10 11 -17 0 -7 6 -16 13 -18 7 -3 4 -6 -6 -6 -15 -1 -17 -8 -13 -43 2 -24
5 -49 5 -55 1 -17 26 -16 43 1 8 7 24 16 36 20 48 16 75 85 33 87 -12 0 -12 2
4 9 11 5 14 9 7 9 -15 1 -33 44 -21 52 5 3 -7 5 -26 6 -24 1 -35 -3 -35 -13z"/>
<path d="M1557 1804 c-3 -3 -28 -7 -55 -8 -47 -1 -82 -20 -82 -46 0 -6 -9 -20
-20 -32 -15 -16 -17 -25 -9 -41 6 -10 8 -31 4 -46 -3 -14 -8 -45 -10 -69 -3
-33 -1 -41 8 -34 7 5 21 12 32 16 16 5 15 2 -5 -13 -14 -11 -22 -23 -18 -26 4
-4 -7 -25 -23 -48 -36 -50 -39 -94 -6 -100 19 -4 19 -4 -5 -6 -27 -1 -46 -30
-33 -51 3 -5 1 -10 -4 -10 -6 0 -11 -11 -11 -24 0 -18 7 -25 30 -30 17 -3 30
-9 29 -13 -5 -31 35 -93 60 -93 6 0 11 -5 11 -10 0 -18 125 -140 148 -145 13
-2 27 3 34 14 7 10 25 21 40 25 15 3 32 15 38 26 9 17 8 20 -10 20 -11 0 -20
-7 -20 -15 0 -9 -12 -20 -26 -26 -32 -12 -34 -10 -23 18 6 16 13 21 25 16 14
-5 16 -3 11 11 -4 10 -3 15 3 11 6 -3 10 -1 10 4 0 6 8 11 17 11 33 0 3 12
-46 19 -58 7 -58 28 -1 33 28 2 35 0 34 -14 -1 -10 2 -16 6 -13 4 2 16 -2 26
-10 18 -13 18 -14 -6 -24 -22 -9 -23 -10 -4 -10 27 -1 93 63 79 77 -4 4 -12
-1 -19 -11 -18 -23 -28 -22 -60 8 -15 14 -25 25 -22 25 3 0 -2 9 -11 20 -13
15 -20 17 -30 8 -11 -9 -18 -7 -31 5 -10 11 -12 17 -4 17 7 0 12 5 12 12 0 6
7 19 16 29 14 16 13 18 -18 25 -18 4 -45 6 -60 5 -46 -4 -58 13 -13 19 36 4
40 8 40 33 1 25 -2 27 -23 22 -18 -4 -22 -3 -16 7 6 10 3 9 -9 -1 -9 -7 -17
-10 -17 -6 0 4 -12 -5 -26 -20 -20 -22 -23 -30 -12 -36 10 -7 9 -9 -4 -9 -10
0 -18 -5 -18 -11 0 -5 -4 -7 -10 -4 -5 3 -10 2 -10 -2 0 -5 -10 -9 -21 -10
l-21 -2 20 22 c14 15 19 30 16 44 -3 11 0 24 7 28 7 5 10 4 5 -3 -7 -12 20
-10 31 3 4 4 2 5 -4 1 -8 -4 -13 -1 -13 8 0 8 -6 16 -12 19 -9 3 -10 8 -2 16
8 9 15 6 29 -9 23 -26 26 -25 62 8 36 32 46 55 31 70 -8 8 -3 11 16 9 21 -1
30 4 37 21 7 18 5 22 -12 22 -12 0 -19 5 -16 13 2 6 13 12 25 12 11 0 24 4 28
8 4 4 2 7 -5 7 -8 0 -11 7 -7 15 4 11 -1 15 -17 15 -12 0 -31 9 -41 21 -12 14
-24 19 -39 15 -12 -3 -28 -6 -34 -6 -16 0 -17 -27 -2 -32 7 -2 0 -12 -14 -21
-25 -16 -27 -16 -38 4 -8 15 -8 19 0 15 7 -5 11 2 11 17 0 14 -7 28 -16 31 -8
3 -12 10 -9 16 8 13 45 13 45 0 0 -13 57 -13 65 0 3 5 19 7 36 3 35 -7 62 14
78 57 9 27 8 28 -23 26 -29 -3 -32 -1 -30 26 1 16 -2 25 -8 22 -5 -3 -7 -12
-4 -20 3 -8 -1 -17 -9 -20 -21 -8 -48 4 -39 17 4 8 9 7 15 -2 6 -10 9 -6 9 14
0 28 -2 31 -13 21z"/>
<path d="M1680 1386 c-14 -8 -37 -19 -52 -25 -16 -6 -28 -16 -27 -23 0 -10 2
-10 6 0 15 37 67 -14 56 -56 -8 -32 15 -46 44 -27 26 17 33 19 33 7 0 -5 -10
-13 -22 -19 -16 -7 -6 -9 43 -8 67 1 94 10 84 26 -4 5 -1 9 4 9 6 0 11 4 11
10 0 5 -6 7 -14 4 -7 -3 -16 2 -19 10 -4 9 -13 12 -28 9 -20 -5 -21 -3 -15 20
3 15 3 28 -1 28 -52 8 -63 7 -63 -7 0 -8 4 -14 10 -14 5 0 2 -9 -7 -20 -21
-24 -40 -26 -40 -5 0 8 6 15 14 15 7 0 13 5 13 11 0 7 -10 9 -25 7 -34 -7 -31
8 5 27 17 9 30 20 30 25 0 13 -10 12 -40 -4z"/>
<path d="M1410 1092 c0 -5 -6 -9 -12 -10 -70 -6 -92 -12 -111 -30 -12 -11 -26
-21 -32 -21 -5 0 -13 -7 -17 -15 -5 -9 -12 -24 -18 -33 -11 -20 -40 -84 -40
-88 0 -10 88 11 98 24 8 9 11 10 7 4 -3 -7 -1 -13 4 -13 19 0 12 29 -11 53
-13 12 -26 21 -30 19 -5 -1 -8 2 -8 8 0 6 9 10 21 10 11 0 18 -3 15 -8 -2 -4
7 -12 20 -19 20 -9 26 -8 34 7 5 10 17 20 25 24 9 3 13 2 10 -4 -3 -6 1 -10
11 -10 11 0 15 6 11 20 -3 11 -2 20 3 20 13 0 18 -38 6 -50 -6 -6 7 -3 28 7
25 12 33 19 22 21 -14 3 -13 6 6 23 14 11 17 17 7 13 -12 -4 -18 3 -22 25 -6
27 -27 45 -27 23z"/>
<path d="M1164 842 c-12 -4 -34 -23 -50 -42 -44 -53 -102 -110 -113 -110 -5 0
-29 -15 -53 -33 -78 -59 -141 -100 -155 -100 -7 0 -13 -4 -13 -9 0 -5 -4 -6
-10 -3 -25 15 -7 -24 21 -44 23 -17 28 -25 19 -36 -9 -11 -7 -12 9 -8 12 3 18
10 14 16 -3 6 -1 7 6 3 6 -4 23 2 37 13 28 22 49 28 39 11 -3 -5 -1 -10 4 -10
6 0 11 -7 11 -15 0 -8 7 -15 15 -15 8 0 15 -7 15 -15 0 -31 51 -9 63 28 4 11
3 16 -3 12 -15 -9 -12 4 4 21 11 11 16 11 19 1 4 -9 6 -9 6 1 1 7 14 12 31 12
23 0 33 6 39 23 5 12 5 23 0 25 -5 2 -7 8 -3 13 9 15 -13 10 -30 -7 -9 -8 -24
-13 -34 -11 -16 4 -16 5 1 6 10 0 15 6 12 11 -12 20 55 34 82 17 19 -12 41 3
48 33 6 28 23 41 58 45 21 2 37 22 37 45 0 12 -2 13 -9 1 -5 -7 -13 -11 -19
-7 -6 3 -13 2 -17 -4 -3 -5 -15 -10 -26 -10 -13 0 -18 4 -13 12 5 7 1 9 -13 6
-18 -5 -19 -1 -16 33 3 30 0 39 -11 39 -9 0 -16 5 -16 10 0 6 9 10 20 10 13 0
20 7 20 20 0 11 -1 20 -2 19 -2 -1 -13 -4 -24 -7z"/>
<path d="M8707 624 c-4 -4 -7 -20 -7 -35 0 -31 -13 -44 -32 -32 -21 13 -67 10
-73 -5 -3 -8 4 -26 15 -42 11 -15 20 -33 20 -40 0 -8 12 -4 32 9 18 11 33 28
33 37 0 11 11 21 28 25 27 7 28 6 23 -17 -4 -13 -14 -32 -24 -42 -9 -10 -26
-30 -37 -45 -11 -15 -26 -27 -33 -27 -10 0 -9 -4 3 -16 11 -11 14 -25 10 -45
-5 -23 -3 -29 10 -29 9 0 13 -4 10 -10 -3 -6 -2 -10 3 -10 5 0 20 21 33 48 13
26 27 49 32 50 4 2 7 10 7 18 0 8 9 40 20 71 22 63 24 74 13 72 -21 -3 -33 2
-33 16 0 7 -6 18 -14 22 -8 4 -15 12 -15 18 1 12 -15 18 -24 9z"/>
<path d="M7437 557 c-2 -7 0 -21 6 -32 10 -19 10 -19 19 0 7 17 8 16 4 -4 -6
-31 9 -51 40 -51 13 0 24 -5 24 -11 0 -6 -9 -8 -20 -4 -18 6 -20 3 -16 -20 6
-31 33 -65 51 -65 7 0 18 -6 24 -14 7 -8 21 -12 31 -9 11 3 20 0 20 -6 0 -6
-6 -11 -14 -11 -21 0 -29 -17 -18 -36 8 -15 12 -14 33 11 13 16 35 38 47 49
35 31 81 139 52 121 -6 -4 -15 8 -21 25 -7 20 -16 29 -25 26 -8 -3 -14 1 -14
9 0 10 -10 15 -29 15 -25 0 -28 -3 -23 -27 4 -21 2 -25 -11 -20 -9 3 -19 2
-22 -4 -4 -5 -11 -6 -17 -3 -7 5 -9 1 -5 -9 3 -10 2 -17 -4 -17 -6 0 -13 9
-16 20 -3 11 -9 17 -14 14 -5 -3 -9 1 -9 8 0 9 -3 9 -10 -2 -6 -9 -10 -10 -10
-3 0 6 -3 20 -7 30 -6 16 -5 16 10 4 18 -14 38 -7 21 8 -16 15 -72 21 -77 8z"/>
<path d="M8426 438 c5 -17 0 -27 -22 -45 -24 -19 -27 -25 -14 -33 12 -8 12
-10 1 -10 -8 0 -19 7 -26 17 -8 10 -17 13 -26 7 -23 -14 -39 -13 -39 2 0 7 11
16 25 20 14 3 25 11 25 16 0 6 -7 7 -15 4 -8 -3 -22 -9 -32 -13 -13 -5 -15 -2
-11 15 5 19 2 22 -22 22 -24 0 -28 -4 -25 -21 4 -17 2 -19 -11 -8 -22 18 -39
-3 -23 -29 16 -25 47 -24 55 1 5 16 8 17 15 6 5 -8 9 -21 9 -29 0 -13 -1 -13
-10 0 -8 13 -10 13 -10 -1 0 -9 7 -20 16 -23 13 -5 16 -17 12 -62 -3 -30 -1
-57 4 -60 4 -3 8 -14 8 -25 0 -10 15 -38 33 -62 17 -24 38 -53 46 -65 8 -11
20 -18 26 -16 9 4 11 -3 8 -20 -5 -26 -5 -26 61 -26 66 0 67 1 82 32 8 18 18
40 23 48 5 8 20 40 34 70 22 50 23 58 11 83 -17 32 -29 36 -21 7 6 -23 6 -23
-30 -8 -15 6 -31 11 -35 10 -5 -1 -8 3 -8 8 0 13 6 13 33 -1 22 -12 22 -12 3
10 -11 11 -14 21 -8 21 6 0 12 -6 15 -12 4 -10 7 -10 18 -1 9 10 10 13 1 13
-7 0 -12 9 -12 19 0 10 -7 21 -15 25 -8 3 -15 15 -15 26 0 24 -8 25 -32 3 -17
-15 -19 -15 -37 1 -17 16 -19 16 -25 -6 l-6 -23 -20 24 c-22 25 -27 57 -8 45
7 -4 8 -3 4 4 -4 7 -1 12 9 12 10 0 13 -5 9 -12 -4 -7 -3 -8 4 -4 17 10 15 46
-3 46 -8 0 -15 5 -15 10 0 6 -5 10 -11 10 -6 0 -8 -9 -3 -22z"/>
<path d="M9264 379 c-3 -6 -14 -9 -24 -6 -9 2 -22 -4 -29 -14 -6 -11 -17 -18
-24 -16 -7 1 -11 -7 -10 -18 1 -15 -10 -26 -42 -41 -38 -19 -50 -20 -95 -11
-46 9 -54 8 -81 -12 -23 -17 -29 -19 -29 -6 0 8 -4 15 -10 15 -5 0 -10 -8 -10
-19 0 -17 14 -26 59 -36 7 -2 19 -12 26 -23 12 -16 24 -18 80 -15 57 2 70 0
84 -17 9 -11 27 -21 41 -22 14 -2 28 -7 32 -12 3 -5 28 -10 54 -10 41 -1 49 2
53 21 3 13 14 32 24 43 9 11 17 26 17 33 0 7 4 17 10 23 13 13 1 54 -16 54 -8
0 -14 7 -14 16 0 14 3 14 15 4 11 -9 15 -9 15 -1 0 6 -11 16 -24 22 -13 6 -29
22 -35 35 -11 25 -54 34 -67 13z"/>
<path d="M7691 313 c1 -5 1 -18 0 -31 -1 -19 -4 -21 -18 -13 -11 5 -24 6 -34
0 -15 -8 -15 -37 1 -86 7 -23 15 -33 30 -38 10 -3 20 -15 23 -25 7 -28 53 -27
60 0 6 23 -21 43 -51 38 -12 -2 -16 3 -14 15 2 10 -2 25 -9 33 -16 19 12 29
40 14 25 -13 45 -4 37 16 -3 7 2 17 10 22 18 10 14 48 -4 45 -7 -2 -12 1 -12
5 0 4 -14 9 -30 10 -17 1 -30 -1 -29 -5z"/>
</g>
</svg>
