<?xml version="1.0" standalone="no"?>
<!DOCTYPE svg PUBLIC "-//W3C//DTD SVG 20010904//EN"
 "http://www.w3.org/TR/2001/REC-SVG-20010904/DTD/svg10.dtd">
<svg version="1.0" xmlns="http://www.w3.org/2000/svg"
 width="1125.000000pt" height="1500.000000pt" viewBox="0 0 1125.000000 1500.000000"
 preserveAspectRatio="xMidYMid meet">
<metadata>
Created by potrace 1.15, written by Peter Selinger 2001-2017
</metadata>
<g transform="translate(0.000000,1500.000000) scale(0.100000,-0.100000)"
fill="#000000" stroke="none">
<path d="M654 14976 c-3 -14 -3 -29 0 -34 3 -6 -1 -12 -9 -16 -8 -3 -12 -12
-9 -21 3 -8 1 -15 -5 -15 -18 0 -13 -33 15 -89 14 -29 23 -56 20 -59 -4 -3 1
-14 11 -24 9 -10 13 -21 10 -24 -3 -4 5 -23 18 -43 14 -19 25 -44 25 -53 0
-10 4 -18 9 -18 5 0 15 -21 22 -47 9 -29 29 -63 55 -90 36 -36 54 -63 58 -83
1 -3 6 -12 11 -20 19 -29 34 -55 41 -70 6 -16 26 -60 32 -72 1 -4 -3 -6 -10
-3 -8 3 -20 -11 -30 -36 -10 -23 -22 -38 -28 -34 -6 4 -10 -4 -10 -20 0 -14
-4 -33 -9 -43 -36 -70 -36 -176 -1 -244 46 -90 82 -106 192 -88 121 20 232 18
330 -4 15 -3 55 -22 90 -41 35 -19 72 -39 83 -44 22 -9 75 -56 75 -66 0 -3 11
-22 24 -43 37 -56 49 -134 36 -233 -5 -46 -10 -87 -10 -92 0 -12 -112 -121
-146 -143 -16 -10 -33 -24 -37 -31 -5 -8 -12 -11 -18 -8 -5 4 -9 1 -9 -4 0 -6
-3 -10 -7 -9 -5 2 -18 -6 -30 -16 -12 -11 -31 -21 -43 -23 -25 -4 -61 -35 -64
-56 -3 -20 -36 -57 -50 -57 -6 0 -4 5 4 10 9 6 10 10 3 10 -21 0 -25 -20 -8
-46 16 -24 52 -30 48 -7 -3 15 39 25 122 30 115 6 115 6 121 33 3 14 12 45 20
69 8 25 14 52 14 61 0 9 10 26 23 38 21 20 24 20 55 5 32 -15 36 -15 85 6 75
33 96 36 103 16 8 -19 -20 -85 -36 -85 -5 0 -10 -11 -10 -25 0 -18 4 -23 15
-19 8 4 15 12 15 19 0 8 14 25 31 38 27 21 30 27 20 45 -10 19 -6 24 33 52 39
26 46 36 52 77 6 38 3 54 -16 89 l-23 42 33 42 c18 23 34 51 35 62 1 11 20 41
43 66 22 26 49 57 59 70 12 15 37 26 78 34 86 18 97 43 45 101 -17 19 -30 38
-30 41 0 8 -11 22 -68 83 -43 47 -69 82 -149 203 -23 36 -56 84 -73 107 -16
23 -30 46 -30 50 0 4 -18 26 -40 48 -66 67 -126 138 -143 170 -9 17 -22 41
-29 55 -7 14 -20 33 -28 43 -8 10 -15 21 -15 25 0 4 -10 21 -23 39 -12 17 -22
36 -22 42 0 6 -4 11 -10 11 -5 0 -10 7 -10 15 0 9 -7 18 -15 21 -8 4 -15 10
-15 15 0 8 -35 47 -152 171 -27 27 -48 51 -48 53 0 2 -25 28 -55 59 l-54 56
-290 0 -291 0 -6 -24z"/>
<path d="M4890 14984 c0 -18 62 -34 72 -20 7 11 12 1 9 -17 -1 -4 6 -10 14
-13 8 -3 13 -9 11 -13 -2 -3 6 -6 17 -7 12 -1 41 -4 65 -9 35 -6 42 -5 42 9 0
17 2 17 63 21 44 3 114 32 121 51 4 12 -23 14 -155 14 -91 0 -169 -4 -180 -10
-10 -6 -19 -7 -19 -2 0 5 -13 9 -30 9 -18 0 -30 -6 -30 -13z"/>
<path d="M6914 14978 c2 -14 11 -24 24 -26 28 -4 28 -18 2 -25 -23 -6 -27 -35
-5 -43 8 -4 13 -10 10 -14 -3 -4 2 -13 10 -20 12 -10 15 -10 15 1 0 7 14 -3
31 -24 17 -20 35 -34 41 -31 6 4 8 2 4 -4 -3 -6 1 -17 10 -26 8 -9 13 -20 10
-24 -7 -12 16 -75 32 -85 6 -4 12 -14 12 -22 0 -8 10 -20 23 -27 12 -7 22 -22
22 -33 0 -13 8 -21 23 -23 14 -2 22 2 22 12 0 16 61 33 79 22 5 -4 12 -2 15 3
8 12 56 -10 56 -26 0 -7 9 -13 20 -14 68 -4 65 -5 64 34 -1 20 3 37 9 37 5 0
7 9 4 20 -4 17 0 20 34 20 21 0 39 5 39 10 0 6 -4 10 -10 10 -5 0 -10 5 -10
10 0 14 37 12 43 -2 3 -7 5 1 6 17 2 44 6 69 15 83 10 17 -19 16 -33 -2 -9
-11 -9 -15 1 -19 9 -4 7 -6 -4 -6 -10 -1 -18 8 -20 21 -2 16 -10 22 -30 23
-16 0 -28 -3 -28 -8 0 -4 -9 -3 -21 3 -11 7 -23 9 -26 6 -3 -3 -11 2 -18 11
-7 10 -26 16 -46 16 -19 0 -40 6 -47 14 -7 7 -20 13 -27 13 -20 0 -67 49 -59
61 3 6 -1 18 -10 28 -9 10 -14 25 -10 35 6 14 -8 16 -135 16 -140 0 -141 0
-137 -22z"/>
<path d="M8030 14990 c25 -4 48 -6 53 -3 4 2 44 -14 90 -36 45 -22 94 -44 109
-50 21 -8 25 -15 21 -33 -4 -13 -11 -27 -17 -31 -6 -5 -1 -5 12 -2 13 4 22 2
22 -4 0 -6 -16 -11 -35 -11 -26 0 -33 -3 -29 -15 4 -8 1 -15 -5 -15 -6 0 -11
4 -11 10 0 5 -7 7 -15 4 -8 -4 -21 -2 -28 3 -15 11 -159 9 -178 -2 -8 -5 -14
-4 -17 4 -3 8 -9 5 -19 -8 -8 -12 -21 -21 -29 -21 -17 0 -44 -23 -44 -39 0
-17 -16 -21 -46 -12 -20 6 -33 4 -41 -4 -18 -19 -12 -55 9 -55 23 0 23 -9 1
-26 -12 -9 -14 -13 -5 -14 7 0 21 -7 30 -16 15 -15 14 -16 -7 -9 -16 5 -21 4
-17 -4 4 -6 14 -11 23 -11 13 0 13 -3 3 -15 -10 -12 -10 -18 -1 -29 13 -16 -2
-32 -19 -21 -5 3 -10 1 -10 -5 0 -6 7 -13 15 -17 23 -8 -40 -52 -65 -46 -11 3
-20 0 -20 -6 0 -6 12 -11 28 -11 23 -1 25 -2 11 -13 -8 -7 -18 -20 -22 -29 -5
-14 -1 -18 14 -18 11 0 18 -4 14 -9 -3 -6 -18 -6 -36 -1 -26 8 -40 4 -85 -20
-29 -17 -60 -30 -68 -30 -9 0 -16 -9 -16 -20 0 -11 -4 -20 -10 -20 -21 0 -5
-52 28 -88 6 -7 12 -19 12 -25 0 -7 4 -6 10 3 7 12 12 12 34 1 14 -8 24 -17
21 -20 -12 -20 51 -42 153 -55 19 -2 37 -7 40 -11 4 -4 -5 -5 -20 -3 -19 4
-28 1 -28 -8 0 -8 5 -14 11 -14 6 0 18 -7 26 -16 11 -10 24 -13 42 -9 14 4 23
3 18 -1 -10 -11 23 -44 45 -44 10 0 18 -5 18 -10 0 -12 108 -9 129 4 9 6 18 3
27 -8 11 -15 14 -14 28 15 19 39 19 39 2 39 -8 0 -17 -6 -19 -12 -3 -8 -6 -6
-6 5 -1 9 4 17 9 17 6 0 10 5 10 11 0 5 -4 7 -10 4 -5 -3 -10 2 -11 12 0 10
-3 13 -6 6 -7 -19 -30 -16 -42 5 -8 12 -13 14 -18 5 -6 -7 -24 3 -57 33 -28
24 -53 44 -57 44 -15 0 -39 70 -33 96 5 21 4 26 -7 22 -9 -3 -22 10 -37 38
-22 43 -22 44 -2 44 14 0 20 7 20 21 0 11 5 29 10 40 7 13 7 19 0 19 -5 0 -10
5 -10 11 0 8 5 7 16 -2 13 -11 17 -10 25 4 14 25 60 21 88 -8 26 -28 46 -33
37 -10 -7 19 10 20 21 2 4 -8 29 -19 55 -27 26 -7 45 -16 42 -21 -6 -10 44
-44 53 -35 3 3 1 6 -6 6 -7 0 -9 5 -6 10 7 12 26 14 24 3 -3 -21 3 -33 17 -33
11 0 14 -6 9 -22 -6 -17 -4 -20 10 -14 13 4 16 2 11 -9 -3 -9 3 -19 14 -25 11
-6 17 -16 14 -25 -4 -8 -11 -12 -18 -8 -6 3 -6 1 2 -8 6 -7 12 -22 12 -34 0
-34 23 -75 43 -75 9 0 17 -7 17 -16 0 -9 5 -12 12 -8 6 4 17 -1 24 -11 7 -10
20 -15 29 -12 17 7 19 -1 6 -22 -10 -16 5 -36 41 -51 23 -10 23 -10 -2 -4 -14
3 -38 8 -55 11 l-30 4 25 -14 c14 -7 24 -18 23 -24 -1 -6 6 -9 17 -6 15 4 20
0 21 -13 0 -17 2 -17 11 3 10 20 12 20 44 7 19 -8 36 -14 39 -14 3 0 5 -3 5
-7 0 -5 -11 -7 -25 -7 -32 2 -34 -25 -2 -28 36 -2 41 -3 54 -11 9 -5 9 0 3 23
-9 31 5 44 16 15 4 -8 15 -15 25 -15 10 0 19 -7 19 -15 0 -11 7 -14 25 -9 14
3 33 3 42 -2 28 -12 67 -12 82 0 9 7 16 6 25 -4 6 -9 21 -14 34 -12 13 2 30
-2 38 -8 10 -9 14 -9 14 -1 0 6 13 11 29 11 16 0 37 8 47 17 16 16 16 16 10
-5 -6 -17 -4 -21 8 -16 11 4 16 1 16 -10 0 -9 5 -16 10 -16 6 0 10 7 10 15 0
8 5 15 10 15 6 0 10 -9 10 -20 0 -22 44 -70 65 -70 17 0 49 -61 36 -69 -11 -7
22 -51 38 -51 11 0 15 -12 12 -43 -1 -9 4 -20 12 -23 9 -3 12 -14 9 -31 -3
-15 1 -29 9 -34 12 -7 11 -9 -1 -9 -12 -1 -11 -3 3 -11 19 -11 23 -39 6 -39
-22 0 -40 -29 -33 -55 3 -14 10 -25 14 -25 5 0 12 -9 15 -20 8 -25 54 -38 66
-19 11 19 23 -13 17 -46 -4 -17 2 -31 18 -46 29 -27 31 -39 4 -32 -16 4 -20 0
-22 -18 -3 -48 -16 -81 -29 -73 -5 3 -9 -5 -9 -18 0 -18 2 -20 10 -8 6 9 10
11 10 3 0 -7 7 -10 15 -6 12 4 11 -2 -5 -30 -14 -23 -17 -38 -10 -42 5 -3 10
0 10 7 0 9 3 9 10 -2 5 -8 10 -28 10 -43 0 -15 6 -30 14 -33 11 -4 11 -10 2
-30 -9 -20 -18 -24 -58 -24 -38 0 -46 -3 -42 -15 5 -11 11 -12 24 -5 25 13 27
13 33 -9 3 -15 0 -18 -17 -14 -17 4 -18 3 -6 -6 13 -9 11 -11 -7 -11 -12 0
-29 -3 -38 -6 -14 -6 -11 -11 15 -35 17 -16 38 -29 46 -29 8 0 17 -7 20 -15 4
-10 14 -13 31 -9 15 4 28 2 33 -6 6 -9 13 -9 28 -1 24 13 62 4 41 -10 -8 -4
-10 -11 -6 -15 9 -9 38 16 31 27 -3 5 0 9 6 9 7 0 10 -7 6 -15 -4 -13 1 -14
33 -9 33 5 41 3 50 -15 15 -27 27 -27 36 2 8 22 8 22 12 -3 5 -27 28 -50 51
-50 11 0 10 3 -2 16 -19 18 -19 18 -6 65 12 43 49 61 57 28 3 -10 10 -16 16
-12 7 4 8 -6 5 -28 -3 -19 -2 -43 3 -54 6 -17 8 -17 8 -2 1 24 21 22 21 -3 0
-12 7 -20 18 -21 10 0 12 -3 5 -6 -19 -7 -16 -23 4 -23 13 0 14 -3 5 -12 -9
-9 -16 -7 -29 9 -10 11 -24 18 -30 16 -7 -3 -13 0 -13 7 0 7 -6 8 -17 2 -10
-5 -24 -7 -30 -5 -7 3 -13 -2 -13 -11 0 -9 5 -16 10 -16 6 0 10 -7 10 -15 0
-8 4 -15 8 -15 5 0 7 -13 4 -29 -2 -16 1 -32 7 -35 6 -4 11 -27 11 -51 0 -52
18 -74 55 -68 23 5 25 3 23 -26 -2 -23 -7 -31 -23 -32 -19 0 -19 -1 3 -11 12
-6 22 -16 22 -22 0 -6 7 -3 14 7 17 22 46 12 46 -17 -1 -11 -5 -41 -9 -65 -6
-30 -5 -53 2 -69 9 -20 9 -26 -1 -30 -8 -2 -10 -13 -5 -30 6 -24 5 -26 -10
-14 -9 8 -22 10 -29 6 -7 -5 -21 -9 -30 -9 -22 -2 -12 12 -103 -140 -43 -71
-81 -132 -85 -135 -3 -3 -21 -30 -38 -60 -18 -30 -41 -66 -51 -80 -29 -38
-226 -342 -241 -370 -7 -14 -16 -27 -20 -30 -3 -3 -21 -32 -40 -65 -19 -33
-41 -71 -50 -85 -54 -81 -164 -253 -228 -355 -17 -27 -36 -55 -41 -62 -6 -6
-25 -35 -42 -65 -18 -29 -42 -65 -53 -79 -12 -15 -39 -55 -61 -89 -22 -35 -56
-86 -75 -115 -19 -29 -54 -81 -77 -116 -23 -35 -47 -69 -52 -76 -6 -6 -24 -35
-42 -65 -18 -29 -37 -57 -43 -63 -6 -5 -26 -32 -44 -60 -17 -27 -35 -54 -40
-60 -4 -5 -23 -32 -42 -60 -19 -27 -37 -52 -40 -55 -3 -3 -19 -25 -35 -49 -17
-25 -43 -59 -58 -75 -15 -17 -44 -56 -65 -86 -20 -30 -43 -59 -49 -63 -7 -4
-13 -13 -13 -18 0 -10 -79 -118 -107 -147 -7 -7 -13 -16 -13 -20 0 -6 -15 -24
-86 -104 -13 -15 -24 -32 -24 -38 0 -5 -4 -10 -8 -10 -5 0 -29 -28 -55 -62
-25 -35 -59 -77 -74 -95 -15 -17 -39 -45 -53 -63 -101 -126 -395 -432 -481
-499 -36 -28 -116 -62 -132 -55 -6 3 -25 26 -42 52 -59 91 -130 116 -216 76
-28 -13 -56 -24 -62 -24 -7 0 -24 19 -39 43 -15 23 -54 73 -87 110 -39 43 -61
77 -61 92 0 30 -24 43 -95 55 -29 5 -75 19 -102 31 -91 42 -188 71 -238 73
-61 1 -238 -55 -297 -95 -38 -24 -113 -120 -154 -193 -18 -32 -23 -71 -28
-199 -2 -62 0 -85 7 -78 13 13 27 14 27 2 0 -5 -9 -12 -19 -16 -27 -8 -37 -43
-18 -62 10 -10 17 -11 21 -4 4 6 2 11 -3 11 -6 0 -11 7 -11 15 0 8 4 15 8 15
5 0 17 16 28 35 22 42 53 46 85 13 12 -13 19 -18 15 -11 -5 9 9 11 51 7 38 -3
54 -1 47 6 -6 6 -34 11 -62 11 -36 1 -52 6 -52 15 0 7 -8 18 -17 23 -14 8 -8
10 29 11 26 0 50 -4 53 -10 3 -5 1 -10 -6 -10 -28 0 8 -19 40 -22 18 -1 36 -8
38 -15 7 -18 33 -16 33 2 0 8 -4 15 -10 15 -5 0 -10 5 -10 10 0 6 15 10 33 9
27 0 29 -2 12 -9 -19 -8 -19 -9 3 -9 12 -1 22 -7 22 -13 0 -9 4 -8 10 2 15 22
12 30 -12 40 -13 5 -16 9 -8 9 8 0 30 -12 47 -27 91 -77 97 -81 111 -69 11 9
17 7 28 -8 8 -10 14 -15 14 -10 0 5 7 0 15 -11 9 -10 14 -13 13 -5 -6 29 23
22 33 -8 6 -17 15 -31 20 -31 5 0 9 -5 9 -11 0 -6 -9 -8 -21 -4 -28 9 -16 -13
15 -26 16 -7 13 -8 -14 -3 -19 4 -41 11 -49 17 -11 10 -12 6 -6 -22 5 -24 3
-36 -6 -42 -12 -8 -11 -11 1 -19 22 -14 45 -13 33 3 -5 6 -10 22 -11 34 -1 19
3 21 36 16 20 -3 41 -10 47 -14 15 -15 23 -10 18 11 -3 11 -9 17 -14 14 -10
-6 -12 9 -2 19 3 4 12 -1 19 -11 12 -15 13 -14 14 10 0 31 35 68 64 68 20 0
20 0 0 -15 -14 -11 -15 -14 -4 -15 8 0 22 4 30 10 9 5 19 5 27 -2 10 -8 13 -6
13 6 0 9 7 16 15 16 9 0 12 6 9 18 -4 9 5 4 20 -13 14 -16 24 -35 21 -42 -2
-6 2 -14 10 -17 10 -3 12 0 8 12 -6 15 -3 14 15 -2 26 -23 42 -14 18 9 -19 20
-20 27 -4 43 18 18 30 15 60 -13 15 -14 34 -25 42 -25 17 0 31 -18 22 -27 -4
-4 -12 -1 -18 5 -15 15 -41 16 -32 0 4 -7 3 -8 -5 -4 -6 4 -9 12 -5 17 8 13
-15 39 -34 39 -13 0 -12 -3 4 -14 10 -8 19 -23 19 -33 0 -12 7 -18 24 -18 13
0 26 -6 28 -12 3 -7 -4 -13 -14 -13 -17 -1 -17 -1 0 -11 9 -5 18 -20 18 -32 1
-12 5 -4 9 18 5 33 8 37 15 20 4 -11 15 -28 22 -37 8 -9 12 -22 8 -29 -5 -6
-8 -21 -9 -33 -1 -13 -8 -21 -19 -20 -9 1 -15 -2 -12 -6 3 -5 1 -12 -5 -15 -6
-4 -9 -3 -8 2 2 4 -1 9 -7 10 -5 1 -9 -4 -7 -12 4 -21 -64 -17 -84 6 -9 10
-24 19 -32 19 -8 0 -12 6 -8 15 4 11 -2 15 -22 14 -18 -1 -21 -3 -9 -6 11 -3
16 -11 13 -19 -4 -10 2 -14 19 -14 16 0 25 -6 25 -16 0 -11 -5 -14 -16 -10
-14 5 -15 4 -5 -8 7 -8 20 -12 29 -9 13 4 14 3 3 -5 -11 -8 -10 -12 5 -21 11
-6 13 -11 7 -11 -7 0 -13 -5 -13 -10 0 -7 13 -8 35 -4 19 3 35 4 35 0 0 -9
-64 -40 -77 -38 -6 1 -14 -2 -18 -8 -3 -5 -21 -9 -38 -9 -24 1 -26 3 -9 6 15
3 22 11 22 26 -1 20 -2 21 -14 5 -12 -16 -14 -16 -24 8 -7 14 -12 26 -12 27 0
2 16 1 35 -1 23 -3 32 -8 28 -16 -4 -6 1 -5 11 3 21 18 6 29 -32 24 -22 -3
-23 -2 -8 5 18 8 18 9 2 15 -10 4 -27 7 -39 7 -17 0 -19 2 -8 9 19 12 6 41
-17 41 -29 0 -34 -11 -15 -33 17 -19 17 -20 -3 -9 -12 6 -26 7 -34 2 -8 -5
-19 -5 -26 1 -8 6 -13 3 -17 -11 -5 -18 -13 -20 -75 -20 -39 0 -74 -5 -77 -10
-3 -6 -18 -7 -32 -4 -22 6 -24 4 -19 -13 11 -35 -14 -44 -109 -38 -49 2 -90 7
-93 9 -2 3 3 12 12 22 12 12 20 13 30 5 13 -11 26 -5 26 10 0 5 -19 13 -41 19
-33 9 -44 9 -51 -2 -8 -10 -11 -10 -15 0 -5 14 -33 17 -33 3 0 -5 -8 -7 -19
-4 -10 3 -22 0 -25 -6 -5 -8 -13 -8 -28 0 -15 8 -22 8 -28 -1 -5 -9 -9 -9 -14
-1 -4 6 -12 11 -17 11 -6 0 -7 -4 -4 -10 11 -18 -12 -10 -31 11 -17 19 -18 21
-1 30 28 16 21 39 -10 33 -21 -4 -31 0 -41 16 -7 11 -10 25 -7 30 9 14 43 12
48 -2 2 -7 4 -1 4 14 1 31 -17 41 -50 29 -21 -8 -24 -16 -25 -68 0 -32 6 -71
14 -87 18 -37 18 -37 -3 -34 -10 2 -17 -2 -16 -8 3 -15 -62 -25 -91 -14 -12 4
-28 5 -35 0 -11 -6 -11 -9 0 -13 9 -3 10 -6 2 -6 -6 -1 -15 3 -18 9 -12 20
-27 10 -21 -14 5 -19 2 -23 -17 -22 -12 1 -21 7 -19 14 1 7 -5 12 -13 12 -13
0 -14 -4 -5 -20 6 -11 16 -20 23 -20 7 0 20 -7 30 -14 16 -12 14 -13 -15 -11
-18 2 -39 3 -46 4 -7 1 -11 4 -9 9 9 13 -19 31 -34 21 -23 -15 -52 -11 -45 6
4 12 -4 15 -39 15 -33 0 -47 5 -54 19 -8 15 -7 20 8 24 10 2 27 0 37 -5 10 -5
1 6 -20 25 -26 23 -37 40 -33 51 4 9 11 16 17 16 5 0 10 4 10 9 0 4 -15 9 -32
9 -74 2 -73 1 -52 16 10 8 25 12 34 9 12 -4 12 -3 1 5 -7 5 -21 7 -31 5 -18
-5 -29 18 -22 50 4 22 22 22 22 0 0 -9 3 -14 6 -10 4 3 4 17 0 31 -5 19 -11
23 -28 18 -13 -3 -28 -12 -34 -20 -10 -13 -13 -13 -22 4 -10 17 -11 16 -12 -9
0 -15 6 -30 13 -33 10 -4 13 -22 10 -70 -3 -45 0 -70 9 -81 11 -14 10 -16 -13
-10 -19 5 -34 1 -53 -14 -32 -25 -53 -19 -62 16 -5 20 -9 23 -20 14 -7 -6 -18
-8 -24 -4 -18 11 -11 33 14 39 14 3 27 15 31 25 3 11 13 22 23 26 14 7 13 9
-8 14 -14 4 -27 16 -28 26 -2 11 -10 27 -17 35 -11 12 -11 18 -1 33 18 24 52
21 70 -5 20 -28 32 -16 40 37 12 87 19 115 27 115 5 0 9 -4 9 -9 0 -14 49 -23
68 -12 13 8 9 10 -21 11 -25 0 -36 4 -31 11 3 6 14 9 25 6 10 -3 25 3 35 14
18 20 74 26 74 9 0 -15 -23 -53 -39 -66 -11 -9 -10 -12 9 -17 29 -7 44 1 31
16 -12 15 5 37 43 57 29 15 34 36 9 34 -25 -3 -13 14 14 21 17 4 29 2 31 -4 2
-6 15 -11 28 -11 24 0 32 -14 14 -25 -5 -3 -10 -14 -10 -22 0 -13 7 -10 30 12
24 23 33 26 42 17 10 -10 10 -15 -2 -22 -12 -8 -10 -10 8 -10 12 0 22 6 22 14
0 11 9 13 34 9 44 -7 54 11 53 97 0 92 11 155 40 230 35 89 61 139 94 180 46
55 40 74 -28 93 -109 30 -336 57 -476 57 -156 0 -226 12 -255 43 -11 12 -30
49 -42 82 -35 96 -96 130 -153 85 -26 -21 -61 -105 -56 -137 6 -40 -11 -73
-47 -88 -20 -8 -44 -15 -53 -15 -9 0 -49 -21 -89 -47 -41 -26 -81 -48 -89 -49
-8 -2 -37 -5 -64 -7 -114 -12 -174 -76 -191 -203 -6 -44 -17 -87 -26 -97 -12
-13 -13 -20 -4 -29 21 -21 14 -41 -12 -34 -14 3 -37 1 -51 -4 -23 -9 -28 -7
-32 10 -9 35 -38 20 -41 -21 -3 -33 0 -38 27 -47 24 -9 31 -17 31 -37 0 -41
34 -29 38 13 5 45 41 53 105 22 31 -15 36 -44 10 -60 -17 -9 -16 -11 6 -30 13
-11 29 -20 37 -20 17 0 18 -12 4 -26 -8 -8 -6 -15 4 -23 18 -15 36 -6 36 18 0
40 54 55 83 23 20 -22 21 -50 5 -89 -12 -30 -15 -38 -17 -52 0 -5 -8 -17 -17
-26 -14 -14 -15 -20 -4 -39 15 -28 1 -61 -30 -71 -24 -7 -27 -45 -4 -45 30 0
13 -53 -23 -70 -39 -18 -42 -44 -8 -66 36 -23 55 -5 55 53 0 24 7 60 15 80 8
19 15 45 15 56 0 12 7 41 16 64 22 58 46 57 76 -3 l23 -46 -28 -24 c-31 -27
-35 -44 -9 -45 58 -4 57 -3 60 -47 4 -51 -20 -69 -47 -35 -17 20 -17 20 -51
-9 l-35 -28 29 -24 c26 -20 28 -27 23 -62 -4 -23 -16 -45 -29 -55 -21 -17 -22
-18 -5 -37 19 -21 23 -57 7 -67 -7 -4 -1 -16 15 -30 27 -26 33 -63 13 -83 -20
-20 -32 -14 -73 34 -38 47 -38 47 -39 140 -1 96 -10 120 -39 108 -21 -8 -22
-37 -2 -54 21 -17 19 -54 -5 -75 -24 -22 -25 -38 -5 -55 19 -16 19 -44 0 -60
-20 -17 -19 -27 5 -33 24 -6 28 -52 5 -61 -18 -6 -55 27 -55 49 0 9 -7 26 -15
39 -9 13 -16 41 -16 62 0 110 -3 129 -27 132 -23 4 -23 4 -26 -78 -1 -26 -7
-44 -21 -54 -18 -13 -19 -15 -3 -33 20 -22 34 -108 19 -117 -5 -4 -20 -1 -31
6 -18 11 -21 19 -16 56 6 48 -1 52 -34 17 -20 -21 -22 -28 -12 -50 8 -18 9
-39 0 -80 l-11 -55 -26 16 c-14 9 -33 26 -43 37 -14 18 -19 19 -32 8 -9 -8
-16 -29 -16 -47 0 -19 -3 -34 -8 -34 -18 0 -52 32 -52 49 0 22 29 93 30 73 0
-9 10 -12 27 -10 28 3 28 3 29 88 2 120 12 220 22 234 5 6 7 45 5 86 -3 41 -4
82 -4 90 1 8 3 49 5 90 4 90 15 158 28 184 8 15 7 22 -7 32 -13 10 -14 17 -6
33 15 27 14 31 -7 31 -10 0 -27 7 -38 15 -12 8 -24 11 -28 8 -3 -3 -6 1 -6 11
0 9 -4 15 -9 12 -5 -4 -19 9 -30 28 -22 35 -39 46 -71 46 -22 0 -86 28 -113
50 -10 8 -47 43 -80 76 -106 105 -146 123 -183 83 -10 -12 -39 -33 -64 -47
-43 -26 -87 -62 -74 -62 4 0 1 -7 -6 -15 -7 -9 -10 -18 -7 -22 4 -3 2 -14 -4
-24 -6 -13 -6 -19 1 -19 5 0 10 -6 10 -12 0 -26 151 -168 177 -168 6 0 13 -8
15 -17 3 -10 39 -35 81 -56 50 -24 78 -45 83 -59 11 -34 8 -98 -5 -111 -6 -6
-11 -26 -11 -45 0 -31 -47 -116 -74 -134 -6 -4 -8 -10 -4 -13 3 -4 1 -20 -6
-36 -8 -20 -10 -50 -4 -96 13 -122 -20 -155 -167 -170 -68 -6 -101 8 -123 54
-9 21 -21 41 -27 45 -5 4 -6 8 -2 8 5 0 -5 11 -21 25 -41 35 -81 32 -120 -6
-47 -46 -45 -95 4 -141 20 -18 44 -41 52 -50 9 -9 19 -15 23 -13 4 3 12 -2 19
-10 7 -8 19 -15 26 -15 8 0 13 -4 12 -8 -4 -12 130 -140 153 -147 10 -4 19
-15 19 -26 0 -10 4 -19 9 -19 4 0 11 -17 15 -37 4 -29 2 -41 -12 -51 -16 -12
-16 -14 0 -23 17 -10 26 -59 10 -59 -4 0 -23 4 -41 10 -24 7 -39 6 -48 -1 -10
-9 -13 -8 -13 4 0 18 -14 16 -67 -11 -18 -9 -33 -22 -33 -29 0 -7 -5 -13 -10
-13 -6 0 -8 -12 -4 -27 4 -20 3 -24 -4 -14 -8 11 -12 10 -21 -7 -15 -28 -14
-37 2 -23 11 8 17 3 31 -25 9 -20 19 -34 23 -31 18 19 59 -95 46 -129 -4 -12
-3 -15 5 -10 17 10 15 -2 -2 -20 -11 -11 -16 -11 -19 -1 -4 9 -6 9 -6 -1 -1
-8 -19 -30 -41 -51 -30 -28 -42 -48 -49 -84 -5 -26 -5 -44 0 -41 5 3 12 -1 15
-9 3 -8 29 -27 57 -43 58 -31 79 -49 70 -58 -4 -3 1 -6 10 -6 9 0 17 -7 17
-15 0 -9 7 -18 15 -21 8 -4 15 -12 15 -20 0 -8 7 -14 15 -14 8 0 15 -9 15 -20
0 -11 6 -20 13 -20 13 0 71 -68 73 -85 0 -5 4 -18 9 -28 10 -24 -10 -67 -32
-67 -10 0 -30 -6 -44 -14 -23 -12 -27 -11 -38 5 -6 11 -23 19 -37 19 -17 0
-23 4 -18 12 5 8 2 9 -10 5 -9 -4 -28 0 -41 9 -13 9 -28 13 -34 10 -5 -4 -18
5 -29 19 -27 34 -72 57 -88 44 -6 -5 -19 -7 -28 -3 -9 3 -16 1 -16 -5 0 -21
-19 -11 -37 19 -9 16 -25 30 -35 30 -10 0 -18 5 -18 10 0 6 -5 10 -11 10 -6 0
-8 -9 -4 -20 4 -11 0 -34 -8 -50 -10 -19 -12 -32 -5 -36 5 -3 7 -16 4 -27 -3
-12 0 -27 6 -34 7 -9 7 -13 -1 -13 -6 0 -11 -6 -11 -14 0 -8 -8 -21 -17 -28
-10 -7 -26 -28 -36 -45 -16 -30 -17 -44 -7 -149 6 -64 20 -148 31 -187 12 -40
24 -87 26 -104 3 -18 9 -33 14 -33 5 0 6 -7 3 -15 -4 -8 -1 -21 5 -28 11 -14
8 -47 -6 -70 -11 -18 -14 -45 -5 -51 5 -3 7 -22 5 -43 -4 -46 9 -81 56 -153
35 -53 36 -58 38 -154 0 -54 7 -119 13 -145 19 -70 61 -160 79 -166 9 -3 21
-15 26 -27 8 -18 18 -23 45 -23 49 0 63 -11 47 -35 -6 -11 -19 -20 -28 -20 -9
0 -24 -9 -34 -20 -17 -18 -17 -20 -2 -14 12 4 17 1 17 -12 0 -15 2 -16 9 -5
13 20 41 6 41 -20 0 -12 8 -23 20 -26 11 -3 20 -9 20 -14 0 -5 13 -15 30 -24
16 -9 30 -12 30 -8 0 4 13 -6 30 -22 31 -30 39 -59 18 -71 -6 -4 -35 -9 -62
-10 -28 -2 -60 -5 -71 -8 -11 -2 -24 -5 -30 -5 -5 -1 -3 -5 5 -11 12 -8 12
-10 -3 -16 -10 -4 -16 -13 -13 -20 3 -8 0 -26 -7 -41 -9 -21 -9 -27 1 -31 16
-5 16 -44 0 -60 -9 -9 -9 -15 -2 -20 5 -4 16 -23 24 -42 7 -19 19 -42 27 -51
7 -9 15 -31 18 -48 2 -18 9 -39 16 -47 6 -8 9 -14 6 -14 -3 0 3 -31 14 -70 10
-38 19 -83 19 -98 0 -16 3 -32 7 -36 5 -4 8 -13 8 -19 1 -7 5 -11 11 -10 6 1
11 -16 12 -38 2 -33 0 -39 -18 -39 -15 0 -20 -7 -20 -25 0 -14 -8 -29 -20 -35
-11 -6 -20 -7 -20 -3 0 5 -11 10 -26 11 -14 1 -33 6 -43 12 -10 5 -22 6 -26 2
-5 -4 -5 1 -2 11 4 11 1 17 -8 17 -9 0 -12 6 -9 15 4 8 1 15 -5 15 -6 0 -11
-7 -11 -15 0 -12 -4 -11 -20 5 -24 24 -25 31 -3 23 11 -4 14 -3 9 5 -4 7 -13
12 -19 12 -7 0 -24 21 -37 47 -14 26 -31 54 -38 62 -7 7 -11 20 -8 28 3 8 1
11 -4 8 -10 -6 -18 9 -39 76 -19 60 -14 157 10 185 7 8 6 14 -1 19 -7 5 -8 11
-1 19 5 6 8 35 6 64 -2 29 0 52 6 52 5 0 9 5 9 10 0 6 -8 10 -19 10 -15 0 -18
6 -15 30 3 24 0 30 -16 30 -10 0 -22 5 -26 12 -4 7 -3 8 4 4 20 -12 13 10 -8
29 -11 10 -20 23 -20 30 0 10 -73 43 -77 34 -1 -2 -12 6 -25 17 -13 12 -36 26
-52 31 -17 5 -31 16 -34 24 -3 11 -1 11 8 -1 9 -12 11 -7 6 23 -2 20 -12 44
-20 53 -9 8 -16 26 -16 39 0 13 -2 29 -3 37 -2 7 -2 9 1 5 2 -4 10 -3 17 3 8
7 11 26 7 58 -6 57 -20 82 -47 82 -3 0 -1 9 4 19 12 21 0 36 -34 43 -11 2 -19
10 -17 16 1 7 -3 12 -9 12 -5 0 -7 5 -4 11 4 6 14 8 22 5 12 -5 14 -1 10 21
-3 17 0 36 9 47 8 11 14 28 14 38 0 9 9 22 21 28 11 7 18 18 15 25 -3 8 2 21
10 30 18 17 27 72 14 80 -5 3 -7 12 -4 20 4 8 -1 18 -10 21 -9 3 -21 24 -27
45 -8 24 -18 39 -28 39 -9 0 -21 8 -26 19 -40 76 -56 115 -51 127 3 8 1 14 -3
14 -5 0 -12 18 -16 40 -4 22 -11 40 -17 40 -6 0 -7 7 -4 16 3 8 2 12 -4 9 -6
-3 -10 1 -10 9 0 9 -9 16 -21 16 -13 0 -18 4 -13 11 5 8 -1 10 -20 7 -25 -5
-26 -4 -22 31 2 20 10 58 17 84 14 59 6 161 -18 196 -9 14 -15 42 -15 62 1 22
-4 42 -13 49 -8 7 -15 19 -15 26 0 8 -7 14 -16 14 -10 0 -14 6 -11 14 4 10 1
13 -9 9 -7 -3 -14 -1 -14 3 0 5 -22 7 -50 6 -32 -3 -50 0 -50 7 0 6 -9 11 -20
11 -10 0 -24 9 -30 20 -6 11 -16 20 -23 20 -7 0 -27 14 -46 30 -18 17 -38 30
-42 30 -5 0 -9 7 -9 15 0 8 -5 15 -11 15 -5 0 -7 5 -4 10 3 6 1 10 -4 10 -15
0 -14 33 1 48 9 9 9 12 1 12 -7 0 -15 -5 -18 -11 -4 -6 -16 -14 -28 -18 -20
-8 -46 -78 -47 -129 0 -26 -64 -97 -79 -88 -10 7 -34 -61 -26 -74 7 -11 -52
-176 -76 -212 -36 -55 -129 -78 -189 -47 -19 10 -54 19 -77 20 -32 2 -44 8
-52 26 -6 13 -15 23 -20 23 -5 0 -12 11 -15 25 -5 19 -12 24 -29 21 -12 -3
-24 -5 -27 -5 -2 -1 1 -6 8 -13 8 -8 5 -18 -13 -40 -13 -16 -22 -35 -19 -43 6
-13 -11 -20 -38 -16 -5 0 -8 -4 -8 -10 0 -6 7 -9 15 -5 10 4 14 0 12 -14 -2
-11 -7 -23 -12 -27 -4 -5 -5 -2 -1 5 4 7 1 12 -9 12 -9 0 -13 -5 -10 -10 4 -7
-2 -9 -19 -4 -36 9 -77 -38 -71 -81 2 -16 -1 -35 -6 -41 -6 -7 -11 -28 -11
-46 0 -18 -5 -39 -11 -46 -8 -10 -7 -16 4 -23 9 -6 10 -9 2 -9 -19 0 -8 -105
14 -134 16 -22 41 -37 68 -40 6 -1 15 -4 20 -7 22 -13 121 -9 149 6 32 17 66
20 66 5 0 -5 12 -13 26 -16 17 -4 23 -11 19 -21 -3 -10 -1 -13 9 -10 22 9 58
-27 44 -41 -9 -9 -8 -19 6 -43 16 -27 17 -37 5 -97 -7 -37 -19 -79 -26 -94 -7
-16 -12 -28 -10 -28 2 0 1 -20 -3 -45 -5 -35 -4 -45 7 -45 13 0 22 -14 27 -42
1 -7 5 -19 9 -25 5 -7 6 -17 2 -22 -3 -5 0 -13 6 -17 6 -3 14 -1 18 5 5 7 12
2 21 -14 10 -19 11 -28 2 -37 -8 -8 -6 -17 9 -36 13 -17 16 -29 9 -37 -5 -6
-7 -15 -3 -19 4 -3 -3 -13 -15 -22 -21 -14 -32 -42 -13 -29 5 3 12 1 15 -4 13
-21 -14 -20 -28 1 -9 12 -17 20 -19 17 -1 -2 -9 -13 -17 -24 -14 -18 -14 -19
2 -6 15 11 19 11 24 -2 3 -8 4 -23 2 -33 -2 -11 2 -18 10 -16 7 1 17 -9 22
-22 5 -13 14 -27 20 -31 17 -10 1 -86 -21 -106 -11 -9 -19 -21 -19 -28 0 -6
-7 -11 -15 -11 -8 0 -15 -7 -15 -15 0 -8 -4 -15 -10 -15 -5 0 -10 5 -10 10 0
6 -7 10 -15 10 -8 0 -15 -4 -15 -10 0 -5 -8 -10 -19 -10 -21 0 -37 54 -25 84
3 9 1 16 -5 16 -6 0 -11 -4 -11 -10 0 -25 -15 -7 -17 20 -2 31 -23 60 -42 60
-5 0 -13 15 -16 33 -6 29 -10 33 -40 34 -23 1 -35 -4 -37 -14 -2 -12 -8 -11
-28 7 l-25 22 26 -7 c16 -4 30 -2 34 5 4 6 15 8 26 5 13 -4 19 -2 19 8 0 8 -9
17 -21 20 -24 6 -17 27 9 27 9 1 -1 7 -23 15 -30 11 -41 11 -47 2 -6 -9 -8 -9
-8 1 0 6 -6 12 -14 12 -8 0 -16 -6 -19 -12 -10 -28 -16 1 -7 32 8 27 6 35 -8
46 -9 7 -19 10 -22 7 -3 -3 1 -8 8 -10 14 -5 17 -33 3 -33 -12 0 -32 26 -25
33 3 3 1 14 -5 24 -9 16 -10 16 -11 -5 0 -14 -4 -21 -11 -17 -6 4 -9 23 -7 43
2 29 -1 38 -15 40 -9 2 -17 -2 -17 -8 0 -18 -23 -37 -41 -33 -11 3 -21 -5 -30
-25 -7 -17 -17 -28 -21 -26 -4 3 -8 -1 -8 -8 0 -9 -3 -9 -10 2 -7 11 -10 3
-10 -30 0 -33 -3 -41 -10 -30 -7 12 -10 12 -10 1 0 -7 -6 -11 -15 -8 -8 4 -17
2 -20 -4 -4 -5 -1 -8 7 -7 9 2 12 -6 11 -25 -1 -20 2 -27 11 -24 12 5 16 -27
4 -39 -6 -5 5 -31 27 -64 21 -31 30 -77 29 -133 -1 -32 -5 -61 -8 -64 -3 -4
-6 -18 -6 -32 0 -15 -7 -37 -16 -49 -11 -16 -12 -22 -3 -22 10 0 10 -3 1 -12
-7 -7 -12 -27 -12 -45 0 -21 -6 -36 -15 -39 -9 -4 -15 -19 -15 -40 0 -19 -4
-34 -10 -34 -5 0 -10 -7 -10 -15 0 -8 -9 -15 -20 -15 -11 0 -24 -8 -27 -17 -6
-15 -7 -15 -14 3 -6 15 -8 16 -8 3 -1 -9 -12 -20 -26 -23 -14 -4 -25 -11 -25
-17 0 -16 -28 -41 -32 -28 -7 20 -38 -3 -47 -35 -7 -25 -9 -27 -10 -8 -1 12
-8 25 -16 28 -8 4 -15 14 -16 23 0 10 -2 11 -6 4 -7 -19 -24 -15 -21 4 2 11
-3 18 -12 18 -17 0 -45 33 -36 42 4 4 12 1 18 -5 15 -15 28 -16 28 -2 0 6 -7
10 -16 10 -10 0 -14 6 -11 15 5 11 0 13 -21 11 -15 -2 -21 -1 -13 1 10 4 12
18 9 56 -3 29 -3 44 -1 35 9 -34 21 -17 16 21 -5 34 -1 44 23 68 15 15 29 37
30 49 1 11 7 38 13 60 6 21 11 62 12 89 0 28 1 69 2 92 0 23 3 40 7 38 3 -2 7
13 7 33 1 20 -4 40 -10 44 -7 4 -13 12 -13 18 -1 5 -2 15 -3 20 0 6 -6 10 -12
10 -5 0 -7 -5 -3 -12 5 -8 -1 -9 -22 -5 -56 11 -84 27 -94 52 -6 15 -15 23
-21 20 -16 -10 -64 47 -67 79 -1 16 -7 35 -12 42 -8 8 -8 14 0 19 8 5 7 11 -2
23 -8 9 -8 13 -2 9 7 -4 14 0 18 8 3 8 15 15 26 15 11 0 20 7 20 15 0 14 11
19 38 16 6 -1 12 2 12 8 0 5 -6 12 -12 14 -7 3 4 6 24 6 20 1 48 5 63 11 21 8
24 14 19 36 -4 17 -2 29 7 35 12 7 12 9 0 9 -10 0 -5 11 14 30 25 26 28 34 19
58 -11 31 -7 73 6 52 4 -7 13 -9 19 -6 22 14 10 26 -26 26 -34 0 -35 1 -20 18
10 10 17 22 17 26 0 13 28 36 43 36 8 0 31 17 51 37 28 30 36 45 36 75 0 29
-4 38 -17 38 -15 0 -15 1 2 13 17 13 17 14 -3 19 -15 4 -19 11 -15 27 4 17 0
24 -15 28 -23 6 -33 32 -26 69 3 15 1 23 -5 20 -5 -4 -12 -2 -16 4 -4 6 -10 8
-15 5 -8 -5 -22 36 -15 44 3 2 5 -1 5 -7 0 -7 7 -12 15 -12 21 0 19 18 -4 32
-15 9 -18 19 -14 39 4 21 0 31 -16 41 -12 7 -21 21 -21 30 0 10 -4 18 -10 18
-5 0 -10 -9 -10 -20 0 -11 5 -20 10 -20 18 0 11 -19 -11 -31 -19 -10 -20 -9
-14 13 l7 23 -17 -23 c-21 -29 -13 -95 10 -85 26 9 16 -11 -13 -28 -18 -10
-27 -24 -28 -42 -1 -15 -5 -35 -10 -45 -4 -9 -8 -20 -9 -24 -2 -5 -4 -9 -5
-10 -2 -3 -6 -23 -12 -78 -2 -16 -11 -26 -28 -30 -14 -3 -25 -11 -25 -18 0 -7
-4 -16 -10 -20 -5 -4 -10 -13 -10 -20 0 -7 -11 -19 -25 -26 -14 -7 -24 -18
-23 -24 3 -11 -79 -28 -94 -19 -5 3 -19 -1 -33 -9 l-25 -15 27 4 c16 2 33 -2
40 -10 6 -8 7 -13 2 -12 -23 4 -26 -3 -9 -21 17 -19 17 -20 1 -14 -12 5 -19 1
-23 -15 -3 -11 -13 -21 -23 -21 -10 0 -31 -7 -46 -15 -21 -11 -24 -15 -11 -15
10 0 15 -4 12 -10 -4 -6 8 -10 27 -11 18 0 27 -3 20 -6 -7 -3 -39 -2 -70 2
-40 5 -51 10 -38 15 18 6 16 8 -12 23 -32 16 -42 11 -20 -11 7 -7 8 -12 2 -12
-16 0 -38 46 -29 60 6 9 9 9 15 0 6 -9 13 -9 31 1 l24 13 -30 7 c-29 6 -29 6
13 14 41 7 59 25 25 25 -9 0 -14 3 -10 6 3 3 15 3 26 -1 23 -7 28 -31 9 -38
-20 -7 -6 -15 37 -21 38 -6 38 -5 14 6 -22 11 -24 16 -15 32 8 14 8 20 -1 23
-14 5 -18 34 -5 32 21 -4 42 2 42 12 0 7 -12 10 -29 7 -37 -5 -51 26 -20 43
25 13 16 29 -14 22 -20 -4 -21 -3 -4 10 21 17 22 27 2 27 -8 0 -15 4 -15 8 0
5 -11 14 -24 20 -19 8 -42 6 -103 -8 -43 -11 -104 -22 -135 -26 l-58 -7 0
-697 c0 -608 2 -699 15 -704 9 -3 12 -12 8 -22 -4 -10 0 -20 9 -25 13 -7 14
-17 6 -51 -5 -24 -16 -53 -24 -65 -12 -19 -14 -102 -14 -511 l0 -489 30 -34
c16 -19 30 -38 30 -43 0 -5 8 -16 18 -25 11 -9 22 -28 25 -43 4 -16 10 -39 13
-53 4 -15 1 -30 -9 -40 -10 -9 -14 -25 -11 -42 3 -15 0 -29 -7 -34 -10 -6 -10
-11 -1 -22 7 -7 9 -16 6 -19 -11 -12 46 -105 79 -131 30 -23 39 -25 67 -17 18
5 36 8 40 5 3 -2 31 21 60 51 30 31 68 63 85 71 16 9 24 18 18 20 -10 4 -9 9
3 20 8 9 13 24 11 34 -6 21 8 26 17 7 3 -7 3 -2 0 11 -4 16 -2 21 5 17 6 -4 9
-2 6 6 -3 7 8 21 25 30 16 9 30 24 30 32 0 8 4 16 8 18 18 7 54 85 59 127 3
25 9 54 14 63 5 9 9 33 9 53 0 30 -3 36 -16 31 -12 -5 -15 -2 -9 11 4 10 8 26
9 36 0 10 6 21 11 25 6 4 17 20 25 35 8 16 16 24 18 18 2 -6 8 -11 13 -11 6 0
8 4 5 9 -8 13 18 62 31 57 6 -3 14 7 18 22 3 14 15 38 25 53 11 14 16 29 13
33 -4 3 4 5 17 3 28 -4 70 31 50 43 -17 10 3 22 24 14 9 -3 16 -1 16 5 0 6 53
64 117 129 101 101 123 119 152 120 19 2 39 7 45 11 6 5 28 12 49 16 32 6 36
5 31 -10 -5 -12 -2 -16 12 -15 41 5 46 0 23 -20 -13 -10 -18 -19 -11 -20 6 0
12 -9 12 -20 0 -11 5 -20 10 -20 7 0 7 -7 0 -21 -9 -16 -8 -23 5 -33 12 -9 15
-22 11 -54 -6 -50 -12 -62 -32 -62 -8 0 -14 -8 -14 -18 0 -10 -9 -29 -20 -42
-130 -164 -162 -208 -190 -262 -18 -35 -36 -65 -39 -68 -12 -10 -58 -86 -71
-120 -15 -35 -25 -51 -69 -99 -13 -14 -30 -36 -38 -48 -9 -13 -21 -23 -28 -23
-7 0 -19 -8 -26 -17 -10 -11 -10 -14 -2 -9 7 4 13 2 13 -4 0 -6 -7 -13 -15
-16 -8 -4 -15 -11 -15 -16 0 -8 -51 -81 -70 -98 -46 -44 -82 -106 -90 -155 -9
-58 -12 -62 -123 -189 -43 -49 -68 -66 -157 -109 -58 -28 -112 -52 -120 -54
-69 -14 -122 2 -157 47 -29 36 -46 146 -32 210 5 25 12 66 16 93 l6 47 -32 0
-31 0 0 -1180 0 -1180 5625 0 5625 0 -3 5157 c-3 5290 -2 5253 -37 5253 -5 0
-7 6 -4 13 3 8 -2 20 -11 27 -8 7 -15 19 -15 27 0 15 -26 77 -63 152 -12 25
-22 47 -23 50 -2 26 -17 71 -23 71 -8 0 -37 62 -46 103 -4 15 -16 44 -26 64
-10 21 -19 44 -19 53 0 9 -18 51 -40 95 -23 43 -38 85 -36 92 3 8 -1 16 -9 19
-8 4 -15 12 -15 19 0 8 -9 29 -19 47 -11 18 -22 47 -24 65 -3 18 -12 42 -21
55 -9 12 -16 33 -16 45 0 13 -4 23 -9 23 -6 0 -18 26 -27 58 -10 31 -23 62
-28 67 -14 12 -33 55 -52 115 -20 59 -36 93 -51 103 -6 4 -14 20 -18 36 -3 16
-15 37 -25 46 -11 10 -17 22 -14 26 3 5 1 9 -5 9 -5 0 -15 17 -22 38 -14 43
-63 115 -72 105 -4 -3 -7 0 -7 7 0 8 -9 23 -20 35 -11 11 -34 39 -50 63 -18
25 -38 42 -50 42 -11 0 -20 5 -20 11 0 5 -4 7 -10 4 -5 -3 -10 0 -10 7 0 7
-16 24 -35 38 -18 14 -36 33 -38 43 -3 9 -14 17 -25 17 -11 0 -25 7 -32 15 -7
8 -22 15 -34 15 -24 0 -64 25 -85 53 -7 10 -20 16 -28 13 -11 -4 -13 -2 -10 9
4 8 2 17 -4 21 -5 3 -9 28 -7 54 3 46 4 48 21 33 13 -13 20 -14 29 -5 9 9 7
12 -7 12 -20 1 -20 1 -1 15 17 13 18 15 3 15 -9 0 -17 5 -17 10 0 6 7 10 15
10 9 0 20 12 27 28 6 15 17 41 24 57 8 18 9 31 4 33 -6 2 -10 11 -10 19 0 9 6
13 14 10 16 -6 12 16 -7 41 -7 8 -5 12 6 12 19 0 12 30 -9 43 -7 4 -11 14 -8
22 4 8 1 15 -6 15 -7 0 -10 6 -7 14 3 8 -1 20 -9 26 -8 7 -14 20 -14 29 0 38
-22 52 -72 45 -33 -5 -48 -11 -48 -21 0 -11 -7 -13 -24 -9 -18 4 -25 1 -29
-15 -3 -12 -10 -18 -16 -14 -6 3 -9 11 -6 16 3 5 -1 6 -9 3 -9 -3 -16 -12 -16
-20 0 -8 -6 -14 -14 -14 -8 0 -22 -3 -32 -7 -14 -5 -16 -2 -12 14 3 13 -1 24
-13 32 -11 6 -19 18 -19 26 0 18 -16 20 -23 3 -3 -7 -6 1 -6 19 -1 35 -19 53
-32 32 -7 -11 -9 -11 -9 3 0 9 5 20 10 23 15 10 12 28 -4 22 -17 -7 -30 19
-13 27 7 3 2 3 -9 1 -17 -5 -23 0 -29 22 -5 15 -8 39 -9 53 -1 14 -7 29 -13
33 -7 4 -13 26 -13 47 0 22 -4 40 -9 40 -15 0 -32 55 -34 109 -1 28 -5 51 -8
51 -11 0 -18 39 -9 45 11 7 0 79 -12 83 -4 2 -8 9 -8 16 0 6 -18 47 -40 91
-22 44 -43 94 -46 112 -4 19 -12 33 -20 33 -9 0 -14 12 -14 34 0 19 -4 38 -10
41 -5 3 -10 14 -10 24 0 10 -7 24 -15 31 -8 7 -15 19 -15 26 0 8 -7 22 -15 31
-8 10 -15 21 -15 26 0 4 -12 19 -27 33 -16 15 -27 31 -25 36 3 11 -59 162 -91
223 -12 22 -20 40 -18 40 5 0 -20 60 -49 117 -19 39 -25 58 -17 62 9 3 9 5 0
5 -7 1 -13 8 -13 16 0 8 -4 15 -8 15 -4 0 -8 10 -9 22 -2 25 -61 146 -81 167
-7 7 -11 19 -8 26 3 8 -6 25 -19 39 -13 14 -32 39 -41 56 -10 16 -22 30 -26
30 -4 0 -8 5 -8 10 0 6 -9 20 -20 32 -11 12 -20 18 -20 13 0 -4 -8 -1 -18 8
-16 14 -64 16 -427 15 -226 0 -390 -4 -365 -8z m564 -332 c5 -4 14 -4 19 -1 5
3 3 10 -4 15 -10 6 -5 8 16 6 23 -2 31 -8 33 -28 5 -35 22 -50 23 -19 0 15 3
18 6 9 3 -8 12 -23 20 -32 13 -15 13 -16 -6 -11 -17 4 -21 1 -21 -20 0 -14 -3
-32 -6 -41 -3 -9 -1 -16 5 -16 6 0 11 9 11 20 0 11 5 20 10 20 6 0 10 -11 10
-24 0 -16 7 -27 20 -31 23 -7 27 -25 5 -25 -26 0 -16 -21 16 -32 28 -10 30
-12 14 -27 -15 -15 -17 -15 -29 2 -13 17 -14 17 -21 0 -6 -17 -7 -17 -20 0
-13 18 -13 18 -18 0 -3 -12 -5 -9 -6 9 -1 30 -19 47 -31 28 -6 -9 -10 -6 -15
10 -4 13 -20 36 -36 51 -19 19 -29 39 -29 58 0 39 -27 49 -41 14 -11 -31 -31
-19 -23 14 6 23 60 38 69 19 2 -6 2 9 -1 34 -4 38 -3 42 7 25 7 -11 17 -23 23
-27z m1341 -2631 c18 -35 18 -40 5 -32 -11 7 -14 -8 -3 -19 14 -14 30 -76 32
-126 1 -29 6 -61 11 -71 12 -22 19 -84 23 -204 4 -107 13 -175 32 -230 7 -22
17 -53 21 -70 10 -39 8 -36 24 -70 30 -69 39 -92 51 -135 7 -25 16 -50 21 -56
4 -6 12 -39 17 -75 6 -35 15 -80 20 -99 6 -19 11 -58 11 -87 0 -28 5 -55 10
-58 6 -3 10 -21 10 -40 0 -18 4 -55 10 -82 5 -26 24 -117 41 -201 16 -84 37
-168 45 -187 8 -19 16 -50 19 -70 2 -20 7 -40 10 -45 11 -18 15 -53 26 -200
11 -163 21 -207 55 -266 13 -22 24 -48 24 -57 0 -10 5 -17 10 -17 11 0 35 -22
59 -53 7 -9 19 -43 26 -76 11 -52 10 -62 -6 -92 -23 -44 -23 -67 0 -121 16
-39 24 -106 36 -303 2 -35 -8 -70 -40 -150 -4 -11 -10 -31 -12 -45 -2 -14 -12
-61 -23 -105 -16 -69 -19 -113 -17 -315 2 -301 -18 -514 -60 -625 -8 -22 -17
-55 -20 -72 -3 -18 -9 -33 -14 -33 -5 0 -9 -6 -9 -14 0 -7 -9 -42 -20 -77 -17
-53 -19 -71 -10 -106 14 -58 13 -130 -4 -216 -8 -40 -17 -117 -19 -172 -9
-173 -32 -285 -82 -388 -28 -59 -51 -127 -64 -189 -11 -53 -29 -114 -41 -135
-11 -21 -27 -49 -35 -63 -7 -14 -26 -65 -41 -113 -15 -49 -47 -123 -71 -165
-24 -41 -43 -78 -43 -82 0 -4 -15 -27 -32 -51 -18 -24 -42 -64 -54 -89 -11
-25 -43 -71 -70 -103 -28 -32 -59 -74 -69 -95 -11 -20 -33 -52 -50 -70 -16
-19 -48 -60 -70 -91 -22 -32 -61 -87 -87 -122 -26 -35 -57 -79 -70 -97 -13
-19 -40 -54 -60 -78 -21 -25 -38 -51 -38 -57 0 -7 -11 -29 -25 -49 -14 -20
-43 -78 -65 -128 -80 -187 -185 -388 -201 -389 -20 -1 -55 -39 -64 -70 -12
-40 -64 -124 -100 -161 -19 -19 -50 -68 -69 -107 -20 -40 -52 -96 -73 -125
-20 -29 -57 -82 -81 -118 -25 -36 -65 -90 -91 -120 -66 -78 -110 -149 -168
-270 -27 -58 -88 -163 -134 -235 -47 -71 -95 -146 -106 -165 -12 -20 -34 -46
-48 -60 -15 -14 -43 -56 -63 -95 -20 -38 -59 -99 -85 -134 -27 -36 -59 -94
-72 -130 -27 -76 -88 -215 -168 -384 -32 -65 -57 -121 -57 -123 0 -12 -80
-104 -81 -92 0 10 -2 10 -6 1 -2 -7 -11 -13 -19 -13 -12 0 -12 4 1 24 15 22
15 27 0 55 -8 17 -20 31 -25 31 -6 0 -10 6 -10 13 0 15 -35 47 -51 47 -6 0 -8
7 -5 16 7 19 -20 54 -41 54 -7 0 -13 4 -13 9 0 9 -29 20 -69 26 -14 2 -36 15
-50 29 -79 77 -86 79 -127 41 -15 -14 -31 -25 -37 -25 -5 0 -7 -9 -4 -20 4
-14 0 -20 -11 -20 -13 0 -13 -2 2 -13 16 -12 17 -17 6 -38 -7 -13 -19 -27 -26
-32 -15 -8 -11 -61 5 -81 7 -8 7 -24 -1 -50 -9 -29 -9 -42 0 -57 7 -10 12 -24
12 -30 0 -18 40 -48 55 -43 19 8 35 -23 35 -66 0 -11 8 -23 18 -27 9 -3 29
-17 43 -32 25 -25 25 -27 11 -58 -29 -62 -94 -48 -121 27 l-17 45 -54 1 c-49
1 -55 3 -58 24 -7 46 -69 82 -93 54 -13 -15 -49 -19 -49 -5 0 5 10 11 22 14
31 9 21 14 -38 21 -77 8 -85 13 -84 55 0 20 -2 51 -6 69 -5 25 -2 36 11 46 9
6 16 19 15 27 -4 28 0 39 15 39 8 0 15 -4 15 -10 0 -5 9 -10 21 -10 11 0 29
-4 39 -10 12 -7 21 -6 28 3 19 25 44 105 46 153 2 27 5 56 9 64 16 43 17 70 2
70 -8 0 -15 7 -15 16 0 11 -4 14 -12 7 -7 -5 -30 -15 -52 -22 -30 -10 -40 -11
-46 -1 -9 15 -30 4 -30 -16 0 -8 -4 -14 -10 -14 -5 0 -10 6 -10 13 0 8 -11 19
-25 25 -15 7 -22 17 -19 26 10 27 81 36 96 12 5 -6 8 -2 8 11 0 19 -35 50 -50
44 -3 -1 -6 10 -8 25 -5 36 -27 57 -52 49 -18 -6 -20 -3 -15 18 5 20 1 26 -23
36 -16 7 -34 23 -40 37 -16 34 -34 30 -85 -21 -25 -25 -51 -45 -59 -45 -8 1
-7 4 4 11 10 5 15 16 12 24 -4 9 0 15 7 15 11 0 11 2 0 9 -24 15 -20 49 6 56
13 3 23 12 23 21 0 8 -4 13 -8 10 -4 -2 -14 -1 -21 4 -11 6 -10 12 7 30 11 12
25 19 31 16 5 -4 13 -1 17 5 5 8 2 10 -7 5 -8 -4 -5 0 5 8 19 16 19 16 -2 39
-12 13 -19 27 -15 30 3 4 -8 7 -26 7 -22 0 -30 4 -25 12 5 7 3 8 -6 3 -12 -7
-30 10 -30 30 0 19 84 11 102 -9 21 -22 23 -30 7 -20 -7 4 -10 1 -7 -6 11 -33
68 -12 68 25 0 9 4 14 9 10 5 -3 17 5 25 17 9 12 19 18 23 14 5 -5 2 -11 -4
-13 -7 -3 -13 -16 -13 -29 0 -14 -5 -23 -12 -22 -8 2 -13 -8 -13 -26 0 -16 -6
-31 -12 -33 -7 -3 -13 0 -13 6 0 6 -4 11 -10 11 -5 0 -10 -6 -10 -13 0 -16 40
-20 57 -5 7 6 14 8 14 4 1 -6 5 -19 8 -31 0 -2 12 0 26 5 16 6 25 6 25 -1 0
-6 7 -6 20 1 11 6 20 17 20 25 0 8 4 15 10 15 5 0 8 -13 7 -29 -1 -20 -6 -27
-17 -24 -13 4 -13 4 0 -6 23 -16 27 -14 34 23 4 19 16 46 27 61 24 30 18 45
-11 27 -30 -19 -53 -16 -42 6 12 21 7 69 -9 88 -8 10 -8 14 0 14 6 0 11 5 11
11 0 5 -8 9 -18 7 -11 -2 -26 3 -36 11 -20 17 -26 12 -35 -29 l-6 -31 -23 21
c-21 20 -25 21 -41 6 -24 -22 -34 -20 -21 4 6 11 17 20 24 20 8 0 21 11 30 25
13 20 22 23 46 19 22 -5 31 -2 36 10 9 23 27 20 19 -3 -3 -11 0 -23 6 -27 8
-5 10 -2 6 8 -9 24 16 52 42 45 23 -6 30 17 7 26 -9 4 -12 18 -11 41 2 20 -1
36 -6 36 -6 0 -7 -5 -4 -11 4 -6 -3 -5 -15 3 -18 11 -22 11 -31 -4 -14 -25
-33 -23 -26 2 4 15 -2 24 -25 36 -16 8 -36 13 -44 10 -11 -4 -13 -2 -6 11 19
33 -14 74 -33 42 -4 -6 -16 0 -29 15 -21 26 -47 37 -29 14 13 -16 24 -60 14
-53 -4 2 -8 -2 -8 -9 0 -8 6 -12 13 -9 18 7 29 -18 13 -28 -10 -6 -2 -9 24 -9
26 0 37 -4 37 -15 0 -26 -4 -30 -37 -29 -33 0 -43 -10 -20 -20 10 -5 10 -7 0
-12 -20 -9 -15 -31 8 -37 20 -5 20 -7 6 -21 -20 -20 -31 -20 -23 -1 4 12 -2
14 -31 11 -20 -3 -40 -11 -46 -18 -7 -10 -8 -9 -4 2 6 21 -29 64 -47 57 -8 -3
-20 1 -27 9 -7 8 -20 12 -30 9 -15 -5 -19 -1 -19 15 0 13 -4 19 -11 14 -15 -9
-7 -89 13 -134 29 -64 39 -105 28 -108 -5 -2 -8 -8 -4 -13 10 -16 -7 -51 -22
-45 -8 3 -14 1 -14 -4 0 -6 7 -10 15 -10 8 0 15 -9 15 -19 0 -11 5 -23 10 -26
6 -4 8 -11 5 -16 -11 -17 -23 -9 -30 19 -3 15 -14 35 -23 45 -14 16 -14 20 -2
28 12 8 12 12 2 16 -34 14 -53 69 -43 127 4 18 -11 46 -25 46 -8 0 -14 7 -14
15 0 8 7 15 16 15 13 0 15 10 10 63 -2 34 -5 70 -5 80 -1 10 -9 17 -21 17 -20
0 -26 -11 -12 -24 4 -4 8 -12 8 -17 1 -5 2 -10 3 -11 2 -2 4 -15 6 -30 3 -25
2 -26 -27 -17 -17 4 -32 10 -33 11 -2 2 -6 22 -15 86 0 1 -11 0 -25 -2 -13 -3
-27 0 -30 5 -4 5 -1 9 6 9 9 0 9 3 0 14 -9 11 -9 17 1 27 15 16 20 49 8 49 -4
0 -15 16 -24 35 -19 40 -31 43 -54 14 -27 -32 -60 -11 -53 34 0 4 -4 7 -10 7
-16 0 -64 40 -64 53 -2 22 -18 72 -27 84 -5 7 -6 18 -2 24 11 18 13 69 3 69
-5 0 -14 12 -19 26 -7 17 -15 24 -25 20 -8 -3 -15 -2 -15 2 0 13 -49 30 -70
25 -11 -3 -20 -12 -20 -20 0 -11 -7 -14 -25 -11 -13 3 -26 2 -27 -2 -2 -4 -18
-3 -36 2 -33 9 -37 28 -4 23 9 -1 11 0 5 2 -17 6 -16 39 0 55 8 7 12 20 9 30
-3 12 4 21 22 29 38 18 33 47 -8 40 -10 -2 -56 46 -56 60 0 5 -7 9 -16 9 -8 0
-12 5 -9 11 4 6 1 9 -6 8 -28 -6 -67 11 -72 31 -6 24 27 65 58 72 17 4 14 7
-15 20 -19 8 -49 31 -66 51 -33 39 -68 47 -104 25 -15 -10 -26 -10 -52 0 -21
8 -34 9 -36 2 -8 -24 -19 -7 -15 26 2 25 -2 43 -17 61 -11 14 -20 40 -20 58 0
17 -3 35 -7 38 -4 4 -8 43 -10 87 -2 74 -1 80 17 80 11 0 20 2 20 4 0 2 3 11
6 20 5 12 0 16 -20 16 -19 0 -26 5 -26 19 0 10 -6 21 -14 24 -16 6 -28 60 -15
68 11 7 -6 106 -22 126 -6 7 -18 13 -25 13 -8 0 -14 5 -14 12 0 6 -3 8 -6 5
-6 -6 -47 13 -80 35 -25 18 37 199 73 212 8 3 26 -2 41 -11 30 -19 112 -103
112 -115 0 -11 49 -34 88 -41 25 -5 32 -3 32 9 0 8 5 12 10 9 13 -8 13 36 0
70 -7 18 -6 31 2 45 10 15 10 22 0 32 -15 15 -16 45 0 50 6 2 -15 12 -48 22
-69 22 -84 32 -84 56 0 25 23 41 60 42 17 1 33 5 36 10 11 17 54 -34 54 -64 0
-22 6 -29 27 -34 17 -5 28 -3 31 4 2 7 10 12 18 12 8 0 14 6 14 13 0 16 -15
39 -26 39 -5 0 -8 4 -6 9 5 20 -16 7 -23 -13 -4 -17 -8 -19 -12 -9 -3 8 4 22
16 32 13 10 20 23 16 29 -3 5 -1 10 4 10 6 0 11 8 11 18 0 9 17 28 36 42 20
14 44 32 53 40 22 19 90 60 114 67 9 3 17 12 17 20 0 8 5 11 10 8 6 -3 10 0
10 8 0 22 67 85 135 127 22 14 54 39 70 57 17 17 41 33 55 35 17 2 31 14 42
38 61 123 131 157 161 78 8 -23 36 -23 32 0 -2 9 -4 23 -4 30 -1 7 -5 11 -10
8 -14 -9 -22 23 -11 44 7 14 6 30 -6 60 -17 42 -15 113 4 132 6 6 25 5 51 -2
33 -9 46 -8 72 5 36 19 68 14 120 -20 49 -32 136 -42 177 -21 44 23 68 63 75
125 7 56 -5 93 -44 134 -10 11 -17 23 -16 26 19 42 34 70 49 87 10 11 27 51
38 89 19 67 42 105 65 105 6 0 22 10 35 23 14 12 27 20 29 17 3 -3 23 19 45
48 23 29 57 63 76 75 47 29 53 36 69 75 8 19 21 41 30 49 11 12 16 39 18 102
2 95 -5 83 93 154 50 37 65 75 44 117 -17 35 -103 113 -139 127 -16 6 -51 18
-76 27 -25 9 -54 22 -64 29 -19 14 -23 6 67 129 11 15 20 16 59 7 30 -6 78 -7
140 0 52 5 97 7 101 5 4 -3 38 -6 75 -8 123 -7 339 -74 528 -165 204 -98 229
-110 370 -185 63 -34 100 -50 88 -37 -13 12 -23 29 -23 38 0 15 2 15 18 0 10
-10 23 -17 29 -17 5 0 18 -9 28 -20 10 -11 22 -20 28 -20 12 0 -21 51 -45 68
-10 8 -38 30 -62 51 -67 58 -397 244 -541 304 -133 56 -279 99 -396 116 -48 7
-85 6 -136 -4 -48 -9 -83 -11 -109 -4 -22 4 -54 9 -73 9 l-33 0 6 43 c3 27 -6
110 -28 237 -23 130 -31 201 -25 212 5 10 27 23 49 29 22 7 47 23 55 35 8 13
48 47 88 74 103 73 228 190 315 295 41 49 81 94 88 98 8 4 14 13 14 20 0 7 17
30 38 53 42 46 52 58 163 212 45 61 86 112 91 112 5 0 6 5 3 10 -4 6 7 25 24
42 17 18 31 35 31 39 0 4 14 23 31 42 17 19 31 39 31 44 0 4 13 24 29 44 16
20 29 42 29 48 0 7 7 14 15 17 8 4 15 13 15 20 0 8 7 17 15 20 8 4 15 10 15
15 0 5 14 28 30 51 17 22 30 45 30 50 0 5 16 29 35 52 19 24 35 45 35 48 0 3
34 56 75 117 41 62 75 116 75 119 0 4 20 34 45 67 25 33 45 64 45 69 0 7 114
184 209 324 20 29 41 60 46 70 6 9 28 44 51 77 23 33 43 65 45 71 5 13 76 129
137 221 23 36 42 67 42 69 0 2 35 56 78 120 42 64 88 133 102 154 14 21 40 59
58 85 17 25 32 48 32 51 0 3 57 91 128 195 70 105 132 198 137 207 6 10 28 40
51 67 23 28 48 64 57 80 8 17 29 45 46 63 18 19 31 44 31 59 0 21 2 23 15 13
8 -7 21 -26 30 -43z m-2936 -3624 c22 -19 52 -146 49 -208 0 -16 4 -43 10 -60
15 -41 42 -165 42 -192 0 -25 -31 -46 -55 -37 -23 9 -50 85 -70 194 0 3 -9 18
-20 34 -11 16 -20 34 -20 40 -2 22 -25 66 -35 66 -7 0 -9 27 -7 76 4 68 7 77
28 89 34 18 53 18 78 -2z m-1351 -461 c-2 -11 7 -18 27 -23 28 -6 28 -7 5 -8
l-25 -2 28 -24 c15 -14 23 -25 17 -25 -17 0 -4 -135 20 -209 l20 -64 -20 -14
c-24 -17 -16 -37 11 -30 22 6 33 -6 49 -58 7 -22 19 -53 28 -70 8 -16 19 -39
24 -49 8 -14 6 -21 -6 -28 -9 -5 -16 -17 -16 -26 1 -16 1 -16 14 0 15 21 36 6
36 -26 0 -25 48 -126 71 -149 10 -9 16 -24 13 -31 -4 -10 0 -13 14 -9 13 3 21
-1 24 -15 7 -25 -1 -37 -28 -44 -28 -7 -37 -1 -62 41 -20 32 -20 35 -4 48 15
13 15 13 -5 8 -20 -5 -26 1 -47 47 -49 105 -87 210 -82 224 3 8 1 14 -4 14 -9
0 -60 101 -60 119 0 5 -12 34 -26 65 -15 32 -24 68 -22 81 3 14 0 26 -8 29 -7
3 -18 31 -24 63 -7 32 -18 75 -26 96 -20 53 -18 62 19 78 37 17 49 15 45 -9z
m-1140 -34 c17 -17 15 -55 -5 -90 -11 -18 -14 -32 -8 -35 33 -12 37 -21 31
-67 -6 -39 -11 -46 -30 -46 -40 0 -56 38 -56 138 0 89 8 112 40 112 9 0 21 -5
28 -12z m-71 -403 c3 -9 -2 -24 -12 -35 -21 -23 -15 -45 11 -45 12 0 20 -8 22
-22 3 -18 -2 -23 -18 -23 -16 0 -21 -5 -18 -22 2 -17 10 -23 30 -23 34 0 51
-16 46 -46 -2 -16 -11 -25 -25 -27 -19 -3 -20 -7 -12 -35 14 -48 11 -54 -12
-30 -22 21 -98 231 -99 270 0 40 73 72 87 38z m2553 -45 c33 -16 68 -30 78
-30 43 0 54 -41 20 -71 -35 -29 -60 -23 -114 26 -27 25 -52 45 -56 45 -10 0
-11 44 -1 53 9 10 7 10 73 -23z m-3591 -650 c14 0 39 -56 45 -103 7 -45 6 -48
-21 -58 -15 -6 -43 -12 -62 -13 -30 -1 -35 3 -43 30 -4 17 -15 37 -23 44 -8 7
-15 21 -15 31 0 11 -5 19 -11 19 -23 0 0 25 46 50 42 22 52 25 63 13 7 -7 17
-13 21 -13z m-1434 -990 c-3 -5 -1 -10 4 -10 6 0 10 -3 10 -7 -3 -20 2 -26 11
-13 8 12 10 11 10 -7 0 -13 4 -23 8 -23 18 0 72 32 72 42 0 6 10 8 25 4 18 -5
25 -2 25 9 0 11 10 15 38 15 39 -1 77 -21 64 -35 -4 -5 -2 -6 3 -3 6 3 28 2
50 -2 l40 -8 -43 -1 c-28 -1 -42 -5 -41 -13 3 -27 -1 -48 -11 -48 -5 0 -19 -9
-30 -20 -11 -11 -29 -20 -40 -20 -11 0 -20 -7 -20 -15 0 -8 -6 -15 -12 -15
-23 0 -41 -18 -43 -42 -2 -31 -35 -37 -36 -6 -2 22 -2 22 -6 1 -5 -28 -34 -54
-40 -35 -3 6 -13 12 -23 12 -29 0 -46 28 -31 52 10 16 10 19 -1 16 -16 -6 -52
27 -44 41 4 5 2 12 -3 15 -15 9 9 88 25 82 7 -3 16 -1 19 4 4 6 1 10 -5 10 -6
0 -9 4 -6 9 4 5 0 12 -6 14 -7 3 0 6 15 6 16 1 26 -3 22 -9z m-112 -285 c9 -8
32 -15 51 -15 36 0 48 -13 24 -24 -10 -5 -10 -7 0 -12 6 -3 12 -14 12 -25 0
-10 5 -19 10 -19 14 0 13 -27 -2 -36 -8 -5 -9 -2 -5 9 3 10 2 17 -3 17 -15 0
-12 -17 6 -45 9 -13 13 -33 10 -43 -8 -24 -53 -34 -81 -19 -11 6 -24 11 -30
12 -5 0 -20 4 -33 9 -22 7 -22 9 -6 20 16 12 16 14 1 22 -9 5 -18 26 -20 47
-2 21 -12 43 -21 50 -12 9 -16 20 -11 38 5 21 13 26 45 27 23 2 44 -3 53 -13z
m2511 -649 c21 -9 45 -16 54 -16 8 0 24 -11 36 -23 12 -13 31 -29 42 -35 18
-12 18 -12 0 -23 -15 -9 -16 -13 -5 -20 10 -6 5 -10 -18 -15 -18 -4 -33 -10
-33 -14 0 -4 -11 -10 -25 -12 -22 -5 -24 -2 -19 21 5 23 4 24 -6 8 -11 -18
-14 -16 -32 14 -11 18 -18 42 -15 55 3 16 0 21 -10 17 -8 -3 -13 2 -13 13 0
11 -3 30 -6 44 -3 15 -2 20 3 14 4 -7 25 -19 47 -28z m649 -3 c13 -8 37 -69
37 -95 0 -38 -65 -82 -108 -72 -58 13 -61 15 -68 50 -12 64 46 138 100 128 16
-3 34 -7 39 -11z m-507 -228 c38 -35 65 -65 61 -65 -5 0 -1 -7 7 -16 9 -8 16
-22 16 -30 0 -8 6 -14 13 -14 8 0 14 -6 14 -12 0 -7 4 -22 9 -32 6 -16 4 -18
-9 -13 -9 3 -17 2 -17 -3 0 -20 -19 -9 -69 40 -28 27 -51 56 -51 64 0 8 -8 20
-17 26 -17 11 -17 11 0 6 19 -6 21 2 8 23 -5 8 -14 10 -21 6 -10 -6 -12 -1 -8
19 4 21 1 27 -18 32 -28 7 -31 21 -6 27 9 3 17 5 18 6 0 0 31 -28 70 -64z
m-4238 -101 c18 -8 32 -20 32 -25 0 -5 7 -9 16 -9 8 0 13 -4 10 -8 -3 -5 7
-15 22 -23 56 -29 60 -36 48 -88 -13 -55 -31 -82 -52 -74 -8 3 -14 0 -14 -6 0
-6 -7 -8 -15 -5 -9 4 -15 0 -15 -8 0 -11 -9 -13 -32 -10 -28 4 -30 2 -25 -17
6 -23 0 -26 -23 -11 -10 6 -11 10 -2 10 6 0 12 5 12 10 0 6 -6 10 -14 10 -8 0
-24 9 -37 20 -22 18 -22 21 -7 30 14 9 15 15 2 57 -17 58 -17 58 2 77 8 9 17
25 19 37 5 23 23 49 35 49 4 0 21 -7 38 -16z m4942 -94 c11 -11 20 -23 20 -26
0 -3 14 -26 30 -51 17 -24 30 -46 30 -49 0 -17 -48 -42 -70 -38 -14 3 -35 7
-47 10 -13 2 -23 11 -23 19 0 8 -5 15 -10 15 -6 0 -15 11 -21 24 -18 39 20
103 69 115 1 1 11 -8 22 -19z m-490 -62 c0 -6 -7 -8 -15 -4 -18 7 -20 -19 -2
-31 6 -4 14 -8 17 -9 18 -3 53 -23 43 -23 -7 -1 -13 -6 -13 -12 0 -6 6 -9 14
-6 8 3 20 -1 26 -9 7 -8 9 -14 5 -14 -5 0 0 -9 10 -20 10 -11 22 -17 26 -14 5
3 9 1 9 -5 0 -5 -6 -11 -12 -14 -9 -3 -5 -10 10 -22 21 -15 57 -81 54 -97 -1
-5 4 -8 11 -8 14 0 47 -35 47 -50 0 -7 8 -6 22 1 20 11 27 7 70 -41 33 -34 46
-56 40 -63 -18 -23 -21 -57 -5 -57 11 0 13 -7 8 -28 -4 -22 1 -35 30 -66 19
-21 35 -45 35 -52 0 -17 16 -18 25 -3 4 6 13 8 21 5 8 -3 11 0 8 9 -4 10 0 12
15 8 12 -3 24 -9 26 -13 5 -9 84 19 86 29 0 3 2 20 4 36 2 17 7 47 11 68 4 22
2 37 -4 37 -5 0 -12 9 -15 19 -3 14 -1 18 9 14 8 -3 17 2 20 11 3 9 10 16 16
16 5 0 6 -4 3 -10 -3 -5 1 -10 9 -10 11 0 16 -9 16 -28 0 -15 4 -32 9 -37 8
-9 17 -144 11 -170 -1 -5 -2 -13 -1 -17 0 -5 -5 -8 -13 -8 -8 0 -19 -14 -25
-31 -6 -18 -15 -28 -21 -24 -6 4 -21 4 -34 1 -19 -5 -23 -12 -21 -39 0 -18 4
-37 8 -43 3 -6 -1 -35 -9 -65 -9 -30 -16 -61 -16 -70 1 -20 43 -113 54 -117 4
-2 8 -9 8 -16 0 -15 42 -66 54 -66 8 0 56 -47 56 -54 0 -2 -10 -6 -22 -10 -16
-4 -19 -8 -11 -14 7 -4 -17 -8 -53 -7 -61 0 -67 2 -95 34 -16 19 -29 39 -29
45 0 6 -11 27 -24 46 -15 23 -27 64 -36 120 -19 126 -36 168 -97 230 -29 31
-53 60 -53 66 0 6 -11 21 -24 33 -14 13 -30 36 -36 52 -7 16 -18 29 -24 29 -6
0 -4 4 4 10 12 7 12 10 -4 16 -25 10 -122 101 -124 116 -1 7 -3 32 -5 56 -2
24 -9 48 -16 55 -6 6 -11 17 -11 24 0 14 -59 96 -107 149 -40 45 -55 72 -42
79 6 4 3 12 -8 20 -10 7 -15 17 -10 21 4 4 7 2 7 -4 0 -7 7 -12 15 -12 12 0
13 3 3 19 -7 11 -16 17 -20 15 -10 -6 -10 7 0 22 14 22 82 24 82 2z m-2808
-338 c7 -16 17 -30 22 -30 4 0 3 -7 -4 -15 -13 -15 -3 -21 25 -15 28 5 116
-13 112 -23 -2 -7 3 -17 12 -24 14 -10 13 -11 -7 -6 -21 5 -22 3 -17 -36 5
-44 -1 -57 -40 -79 -11 -6 -14 -12 -7 -12 7 0 10 -5 7 -10 -5 -8 -12 -7 -23 2
-13 11 -15 11 -10 -3 4 -11 -4 -24 -23 -38 -24 -18 -27 -25 -19 -41 7 -12 7
-21 0 -25 -5 -3 -10 -1 -10 5 0 6 -5 8 -12 4 -8 -5 -9 -2 -5 9 3 10 2 17 -3
17 -6 0 -10 -4 -10 -10 0 -5 -9 -10 -20 -10 -17 0 -20 7 -20 46 0 48 15 88 29
79 11 -6 24 25 15 34 -4 3 -9 0 -11 -6 -8 -22 -25 -14 -18 8 6 17 3 20 -17 19
-39 -4 -48 -1 -48 15 0 18 -20 20 -20 3 -1 -9 -5 -8 -13 3 -19 24 -52 39 -75
32 -12 -3 -22 -1 -22 3 1 15 26 44 39 44 6 0 11 5 11 10 0 6 -7 10 -15 10 -8
0 -15 7 -15 15 0 9 6 12 15 9 8 -4 15 -2 15 4 0 18 48 20 56 3 5 -13 8 -11 14
9 l8 25 7 -22 c9 -29 10 -28 43 2 34 32 37 31 54 -5z m2338 -125 c7 -8 18 -15
26 -15 7 0 16 -9 19 -20 3 -11 11 -20 16 -20 6 0 7 -9 4 -20 -5 -14 -2 -20 9
-20 23 0 20 -22 -6 -45 -18 -15 -36 -18 -92 -16 -77 2 -96 12 -96 48 0 13 -5
33 -11 45 -9 17 -6 25 17 49 31 33 92 40 114 14z m1395 -145 c6 -1 13 -2 17
-1 4 0 10 -10 14 -24 4 -15 12 -24 22 -23 8 2 17 -3 19 -9 3 -7 1 -13 -4 -13
-11 0 -8 -59 4 -90 6 -14 7 -30 2 -35 -4 -6 -8 -20 -8 -30 0 -11 -1 -27 -4
-35 -19 -68 -17 -66 -54 -65 -27 2 -37 7 -39 20 -3 18 14 55 30 66 4 4 3 10
-3 13 -16 10 -44 73 -37 84 3 5 -7 12 -23 15 -29 6 -41 27 -41 75 0 39 18 57
58 56 21 0 42 -2 47 -4z m312 -1186 c3 -9 2 -41 -4 -71 -10 -54 -10 -54 17
-60 23 -4 29 -12 34 -42 3 -20 8 -48 12 -63 6 -25 4 -28 -20 -28 -14 0 -26 4
-26 9 0 5 -16 26 -35 47 -33 36 -34 39 -20 61 15 22 14 23 -9 23 -26 0 -56 32
-56 60 0 8 9 30 20 48 15 25 27 32 50 32 19 0 33 -6 37 -16z m326 -136 c8 -18
21 -50 28 -70 7 -22 20 -38 31 -40 21 -3 21 -24 1 -22 -7 1 -13 -4 -13 -12 0
-8 -5 -14 -11 -14 -31 0 -149 111 -149 140 0 10 -5 20 -12 22 -29 10 8 28 56
28 51 0 55 -2 69 -32z m1248 -624 c-12 -30 -21 -61 -21 -69 0 -20 -66 -159
-82 -172 -12 -11 -58 -6 -135 12 -25 6 -30 33 -13 66 8 15 22 19 60 19 48 0
50 1 51 28 1 26 5 58 12 94 2 9 11 26 21 37 10 11 15 25 11 30 -3 6 0 11 7 11
8 0 34 13 58 28 l45 28 3 -28 c2 -16 -6 -53 -17 -84z m-4547 -135 c25 -7 46
-17 46 -22 0 -5 -7 -7 -15 -3 -9 3 -15 0 -15 -10 0 -10 6 -14 15 -10 22 8 18
-10 -7 -39 -21 -25 -84 -52 -95 -41 -4 3 -1 6 5 6 7 0 12 5 12 10 0 6 -5 10
-11 10 -6 0 -18 7 -26 16 -14 13 -14 17 -2 25 13 8 6 13 -13 10 -5 0 -8 6 -8
14 0 8 7 15 15 15 12 0 14 7 9 27 -6 22 -4 25 10 20 11 -4 16 -1 17 11 0 13 2
12 9 -4 5 -14 25 -26 54 -35z m1337 -1220 c52 -27 83 -101 60 -138 -12 -19
-140 -6 -148 15 -3 9 -13 12 -24 9 -40 -13 -49 84 -12 121 13 12 27 14 62 9
25 -4 53 -11 62 -16z"/>
<path d="M10898 14980 c12 -12 22 -25 22 -30 0 -6 18 -28 40 -51 22 -23 37
-45 34 -50 -3 -5 1 -9 9 -9 8 0 22 -15 30 -32 9 -18 28 -46 41 -63 14 -16 30
-35 36 -42 5 -7 10 -14 10 -17 0 -2 16 -28 35 -57 19 -30 35 -59 35 -65 0 -7
7 -14 15 -18 8 -3 15 -12 15 -21 0 -8 4 -15 9 -15 5 0 12 -8 14 -17 3 -10 5
100 6 245 l1 262 -187 0 -187 0 22 -20z"/>
<path d="M2228 14624 c-4 -3 -14 -7 -24 -8 -30 -5 -23 -42 16 -83 20 -22 39
-47 43 -56 3 -8 19 -24 34 -34 15 -10 30 -20 33 -23 3 -3 21 -14 40 -24 19
-11 39 -25 43 -33 4 -7 14 -13 22 -13 8 0 26 -11 41 -25 15 -14 35 -25 45 -25
10 0 21 -4 24 -10 4 -6 12 -6 23 -1 9 5 25 12 35 15 29 9 57 83 57 155 0 51
-3 62 -14 58 -10 -4 -13 -1 -9 9 4 10 -3 14 -25 14 -42 0 -173 28 -187 40 -7
5 -15 7 -18 3 -4 -3 -7 -1 -7 6 0 7 -4 10 -9 6 -5 -3 -27 1 -48 9 -46 18 -107
28 -115 20z"/>
<path d="M7140 14454 c0 -11 -6 -14 -17 -10 -15 5 -14 3 2 -10 20 -16 20 -16
-4 -9 -14 4 -21 3 -18 -2 3 -5 -10 -15 -29 -22 -18 -7 -34 -17 -34 -22 0 -13
-97 -4 -115 11 -18 15 -34 5 -18 -11 11 -11 5 -59 -8 -59 -5 0 -9 14 -9 31 0
20 -4 29 -12 26 -7 -2 -12 -10 -10 -16 1 -6 -5 -11 -13 -11 -8 0 -15 -7 -15
-15 0 -8 9 -15 20 -15 10 0 24 -9 30 -20 12 -22 55 -27 63 -7 3 7 6 5 6 -5 1
-10 6 -18 12 -18 5 0 7 5 4 10 -3 6 1 10 9 10 9 0 15 -5 14 -11 -3 -12 65 -39
100 -39 14 0 22 -6 23 -17 1 -12 4 -9 8 7 l7 25 8 -22 c6 -18 15 -23 44 -24
32 -1 34 -2 12 -8 l-25 -7 25 -7 c19 -5 29 -1 45 20 18 21 26 24 52 19 19 -4
34 -3 38 3 3 6 10 11 16 11 16 0 10 -21 -13 -41 -14 -11 -18 -18 -10 -19 22 0
40 25 45 61 2 19 2 26 0 16 -4 -18 -5 -18 -18 0 -8 10 -15 26 -15 36 0 19 -20
24 -21 5 0 -7 -6 -2 -12 12 -7 14 -21 25 -31 25 -28 0 -32 25 -4 26 l23 1 -24
7 c-14 4 -32 20 -41 36 -11 20 -26 31 -43 33 -15 2 -27 10 -27 18 0 8 -4 14
-10 14 -5 0 -10 -7 -10 -16z"/>
<path d="M375 13754 c-36 -39 -36 -75 -2 -111 41 -45 87 -23 113 52 20 58 5
85 -46 85 -31 0 -47 -6 -65 -26z"/>
<path d="M2175 13491 c-3 -10 -14 -26 -25 -36 -24 -22 -26 -35 -4 -35 8 0 12
-4 9 -10 -3 -5 -2 -10 3 -10 14 0 1 -54 -14 -63 -17 -10 -18 -53 -2 -63 15
-10 50 34 43 55 -3 9 6 28 20 43 14 15 25 30 25 33 0 3 12 16 27 29 31 27 26
56 -11 56 -14 0 -28 5 -31 10 -10 16 -33 11 -40 -9z"/>
<path d="M2505 13238 c-20 -33 -40 -82 -45 -107 -4 -24 -15 -50 -23 -56 -21
-15 -30 -56 -17 -75 9 -13 11 -13 20 0 7 11 12 12 21 3 7 -7 21 -8 42 -2 48
14 81 11 128 -11 24 -11 56 -20 71 -20 14 0 28 -6 31 -12 2 -7 8 -10 12 -5 5
4 1 13 -9 20 -9 7 -18 19 -19 27 -2 8 -5 20 -9 25 -3 6 -9 29 -13 52 -3 23
-13 47 -21 54 -8 6 -14 15 -14 20 0 10 -81 131 -95 141 -18 14 -24 9 -60 -54z"/>
<path d="M523 13205 c-12 -9 -15 -26 -13 -71 1 -32 2 -71 2 -85 -1 -19 13 -42
48 -78 27 -28 54 -51 59 -51 6 0 11 -7 11 -15 0 -8 5 -15 10 -15 6 0 10 -6 10
-14 0 -20 26 -40 35 -26 4 7 11 5 21 -5 17 -17 24 -18 39 -7 14 10 35 92 23
92 -6 0 -7 22 -3 54 5 35 3 62 -5 77 -26 51 -76 119 -87 119 -7 0 -13 5 -13
10 0 6 -11 10 -24 10 -14 0 -27 4 -31 9 -8 13 -62 10 -82 -4z"/>
<path d="M2740 12921 c0 -8 -8 -23 -17 -34 -16 -17 -16 -19 -1 -28 14 -8 14
-15 5 -46 -6 -21 -16 -41 -22 -45 -5 -4 -6 -8 -2 -8 4 0 3 -10 -4 -21 -8 -16
-8 -23 1 -29 9 -5 9 -9 1 -14 -6 -4 -11 -2 -11 5 0 9 -4 9 -15 -1 -8 -6 -18
-9 -23 -6 -6 3 -15 -1 -22 -9 -19 -23 -104 -58 -108 -45 -2 6 -10 4 -18 -7
-13 -17 -13 -17 -14 0 0 22 -20 23 -20 0 0 -15 -2 -14 -15 3 -13 17 -14 17
-15 2 0 -10 -4 -18 -9 -18 -5 0 -7 9 -4 20 5 17 0 20 -28 21 -19 1 -38 2 -44
4 -5 1 -20 3 -33 3 -19 2 -22 6 -17 23 11 34 13 69 4 69 -5 0 -9 -5 -9 -12 0
-6 -3 -8 -6 -5 -4 4 -2 12 4 20 11 13 13 57 2 57 -4 0 -16 -13 -28 -30 -20
-26 -20 -30 -6 -30 16 0 16 -1 1 -18 -29 -32 -50 -103 -49 -165 1 -38 13 -58
45 -70 9 -3 17 -13 17 -22 0 -9 9 -15 21 -15 17 0 20 -4 16 -22 -6 -22 26 -88
44 -88 4 0 6 -7 3 -15 -4 -8 -3 -23 1 -32 6 -17 7 -17 21 1 8 11 14 16 14 10
0 -14 63 -15 72 -1 6 9 8 9 8 -1 0 -10 4 -10 19 0 15 9 25 9 46 0 15 -7 30
-10 34 -7 5 2 22 0 39 -5 26 -7 34 -5 42 8 9 16 9 16 10 0 0 -10 4 -18 10 -18
5 0 14 8 19 18 9 15 12 15 21 2 9 -13 10 -13 10 0 0 8 5 22 10 30 9 13 11 13
19 1 8 -12 16 -13 45 -4 37 12 76 7 76 -8 0 -5 5 -9 10 -9 18 0 11 18 -10 25
-16 5 -17 9 -7 20 6 7 14 11 16 9 2 -2 10 1 18 7 9 8 17 8 26 1 8 -7 29 -7 62
-1 27 5 56 7 64 4 8 -3 11 0 8 9 -4 9 2 17 14 21 18 6 19 8 4 19 -10 7 -18 33
-21 71 -6 65 -21 115 -35 115 -5 0 -9 5 -9 11 0 15 -82 139 -92 139 -4 0 -27
20 -51 44 -25 24 -58 47 -76 51 -17 3 -31 10 -31 14 0 4 -7 16 -15 27 -10 13
-14 15 -15 5z"/>
<path d="M2019 12825 c-1 -5 -1 -13 0 -17 0 -5 -4 -7 -11 -5 -6 1 -16 -7 -22
-19 -6 -11 -27 -36 -46 -55 -19 -19 -48 -50 -65 -69 l-30 -35 23 -24 c12 -13
22 -19 22 -13 0 7 10 12 23 12 29 1 67 33 67 59 0 11 5 23 10 26 6 4 7 11 4
17 -4 6 -2 8 3 5 15 -9 43 37 43 70 0 27 -18 68 -21 48z"/>
<path d="M1770 12215 c-52 -30 -102 -57 -111 -61 -9 -3 -22 -17 -29 -30 -8
-13 -19 -24 -25 -24 -7 0 -20 -9 -30 -20 -10 -11 -25 -20 -34 -20 -9 0 -23 -5
-31 -10 -13 -9 -13 -11 0 -20 12 -8 13 -10 1 -10 -12 0 -11 -3 2 -17 9 -10 30
-32 46 -50 16 -18 46 -41 66 -52 20 -10 36 -23 35 -28 -2 -18 9 -45 17 -40 5
3 10 -4 10 -16 1 -12 18 -37 38 -55 20 -18 33 -37 30 -41 -3 -5 4 -7 16 -4 19
5 20 3 11 -14 -9 -15 -8 -25 3 -39 7 -11 11 -31 8 -45 -4 -20 1 -31 22 -48 23
-18 25 -21 9 -21 -17 -1 -17 -2 -3 -13 16 -12 19 -18 19 -37 0 -5 6 -10 13
-10 13 0 57 -91 57 -119 0 -13 7 -18 28 -17 16 1 26 6 24 14 -4 20 26 26 43 8
19 -18 31 -20 40 -6 3 6 1 10 -4 10 -6 0 -11 5 -11 10 0 6 12 8 28 5 72 -14
102 -17 102 -11 0 10 -39 46 -51 46 -6 0 -9 7 -5 15 3 9 -6 23 -24 37 -17 12
-30 30 -30 40 0 12 -5 15 -17 11 -13 -5 -15 -2 -10 16 4 18 0 24 -24 33 -34
12 -35 14 -12 36 16 16 15 17 -1 20 -29 6 0 72 33 72 13 0 13 2 2 9 -8 6 -11
16 -6 31 6 19 -4 33 -60 86 -38 35 -71 62 -74 61 -9 -3 -131 75 -131 83 0 4 9
18 21 31 25 29 75 33 103 7 25 -23 79 -48 105 -48 12 0 21 -4 21 -9 0 -5 9
-11 21 -14 12 -3 19 -10 16 -14 -3 -5 4 -10 16 -10 12 -1 23 -7 25 -13 2 -5
14 -10 26 -10 19 0 22 4 19 24 -3 13 -14 26 -24 29 -13 3 -19 14 -20 34 0 15
-3 22 -6 16 -2 -7 -14 -13 -24 -13 -11 0 -17 4 -14 10 3 5 -6 12 -20 16 -14 3
-31 14 -38 23 -6 10 -20 20 -30 24 -10 4 -25 24 -34 44 -8 21 -24 50 -35 66
-11 15 -15 27 -9 27 7 0 7 8 2 23 -4 12 -6 28 -4 35 6 17 10 18 -97 -43z"/>
<path d="M3187 11485 c-5 -12 -4 -21 3 -23 21 -7 -12 -32 -42 -32 -28 0 -30 2
-24 28 6 26 6 26 -10 7 -8 -11 -20 -19 -25 -17 -12 3 -49 -35 -49 -51 0 -16
51 -46 68 -40 7 3 19 -11 28 -34 15 -36 35 -55 62 -59 6 -1 10 2 6 7 -3 5 2 9
10 9 26 0 28 20 4 29 -23 10 -23 10 4 10 28 1 45 16 29 25 -10 6 -8 40 4 68 5
12 2 20 -10 24 -13 5 -14 9 -4 15 9 5 5 10 -13 14 -15 4 -28 14 -30 23 -3 14
-5 14 -11 -3z"/>
<path d="M3474 10858 c19 -27 21 -51 4 -45 -7 2 -12 12 -11 22 1 14 -3 13 -22
-8 -12 -15 -30 -27 -40 -27 -14 0 -15 -3 -5 -15 7 -8 17 -12 24 -8 18 12 40 9
53 -7 9 -10 12 -11 13 -2 0 22 18 13 24 -13 5 -21 9 -23 32 -15 14 6 42 9 63
7 36 -3 38 -1 39 25 1 49 -95 97 -125 61 -14 -17 -14 -17 -9 0 3 11 0 17 -9
17 -8 0 -15 7 -15 15 0 8 -7 15 -16 15 -14 0 -14 -2 0 -22z"/>
<path d="M3270 10720 c-1 -8 -2 -21 -1 -27 1 -8 -9 -13 -24 -13 -16 0 -25 -6
-25 -15 0 -9 -7 -18 -15 -21 -8 -4 -15 -12 -15 -19 0 -7 -5 -15 -11 -17 -7 -2
-9 -13 -5 -25 5 -17 18 -23 59 -29 29 -4 60 -7 70 -5 9 1 20 -5 23 -13 3 -9
13 -16 22 -16 12 0 13 3 4 12 -17 17 -15 26 6 31 16 4 16 4 0 10 -55 21 -54
20 -32 24 21 4 34 28 34 66 0 13 -8 17 -39 17 -36 0 -40 3 -44 28 -2 15 -5 20
-7 12z"/>
<path d="M2565 9490 c-3 -11 -13 -20 -20 -20 -19 0 -38 -37 -32 -61 3 -10 1
-21 -3 -24 -5 -3 -4 -21 2 -41 5 -20 7 -45 5 -56 -4 -15 -1 -18 15 -12 14 4
18 2 14 -5 -5 -7 3 -10 24 -7 17 2 33 -1 36 -6 3 -5 13 -6 23 -2 21 9 74 16
129 16 23 0 42 4 42 9 0 5 -8 9 -17 9 -13 0 -14 3 -5 12 17 17 15 73 -3 88 -8
7 -15 23 -15 36 0 13 -4 24 -10 24 -5 0 -10 -6 -10 -12 0 -8 -3 -9 -8 -3 -9
13 -68 46 -79 44 -31 -5 -63 3 -63 16 0 22 -18 18 -25 -5z"/>
<path d="M6658 9163 c-28 -33 -47 -92 -53 -165 0 -3 -3 -10 -7 -14 -5 -4 -8
-18 -8 -32 0 -23 3 -24 37 -19 59 10 124 85 137 160 6 31 3 41 -18 62 -29 29
-66 32 -88 8z"/>
<path d="M195 8642 c-27 -2 -54 -7 -59 -13 -13 -12 -56 -12 -56 1 0 19 -33 10
-56 -16 -23 -24 -24 -30 -24 -199 0 -105 4 -176 10 -180 5 -3 10 -15 10 -25 0
-10 8 -24 17 -29 15 -9 14 -10 -11 -11 -24 0 -26 -2 -16 -14 6 -8 18 -12 26
-9 9 3 14 -1 14 -12 0 -12 6 -16 18 -13 15 4 17 0 14 -23 -2 -16 0 -30 4 -30
63 -10 134 11 134 39 0 8 6 12 13 9 17 -7 44 9 34 20 -5 4 -12 1 -17 -7 -8
-12 -10 -10 -10 8 0 17 6 22 24 22 13 0 26 5 28 12 5 14 118 12 133 -3 5 -6 3
-9 -8 -9 -33 0 -16 -20 22 -26 32 -5 38 -10 34 -25 -4 -13 0 -19 10 -19 9 0
19 -10 22 -22 6 -15 1 -26 -16 -40 -14 -11 -17 -16 -7 -12 9 3 25 1 35 -5 11
-6 13 -11 5 -11 -7 0 -10 -4 -7 -10 9 -14 45 -13 45 2 0 7 6 5 18 -4 9 -9 28
-19 42 -22 19 -6 21 -5 10 3 -12 8 -12 13 -2 23 9 9 12 9 13 -3 0 -7 4 -4 9 9
8 19 12 21 29 10 15 -9 22 -8 35 5 15 15 15 17 -1 26 -16 8 -13 14 23 50 23
22 39 42 36 45 -3 3 3 8 12 12 9 4 16 17 16 34 0 20 6 29 23 33 20 6 21 5 4
-8 -13 -9 -15 -15 -6 -20 11 -8 29 11 29 31 0 6 -7 17 -15 24 -21 18 -19 29
13 56 21 19 23 24 10 24 -21 0 -24 26 -5 33 7 4 3 8 -10 12 -13 4 -23 10 -23
14 1 16 17 29 35 28 28 -3 26 27 -2 31 -14 2 -23 11 -25 25 -2 16 -11 23 -30
25 -23 3 -28 8 -28 30 -1 24 -2 25 -14 10 -14 -19 -26 -14 -26 11 0 9 -14 25
-30 36 -17 11 -28 26 -25 34 4 10 1 11 -12 5 -28 -13 -161 -6 -221 12 -30 8
-60 13 -67 10 -7 -2 -16 -2 -20 2 -7 7 -78 9 -160 4z"/>
<path d="M4208 8078 c-2 -12 -13 -27 -24 -33 -12 -6 -29 -17 -39 -25 -10 -9
-19 -10 -23 -4 -9 14 -42 25 -42 15 0 -4 11 -24 24 -44 14 -20 26 -53 28 -74
2 -31 7 -39 26 -41 12 -2 22 -10 22 -18 0 -8 4 -14 10 -14 5 0 7 7 4 15 -11
28 6 84 27 90 19 6 19 8 3 19 -14 11 -16 23 -10 74 4 34 5 62 2 62 -2 0 -6
-10 -8 -22z"/>
<path d="M1553 6382 c-13 -2 -23 -8 -23 -13 0 -6 -4 -8 -9 -5 -16 10 -40 -5
-34 -21 4 -9 -1 -19 -10 -25 -10 -5 -17 -20 -17 -33 0 -13 -4 -26 -9 -29 -15
-10 -18 -89 -4 -116 10 -19 13 -21 13 -7 0 12 6 17 18 15 9 -1 32 5 51 15 19
9 38 17 42 17 5 0 24 16 44 35 24 25 35 45 35 65 0 34 -19 80 -33 80 -6 0 -18
6 -26 13 -9 7 -26 11 -38 9z"/>
</g>
</svg>
