<?xml version="1.0" standalone="no"?>
<!DOCTYPE svg PUBLIC "-//W3C//DTD SVG 20010904//EN"
 "http://www.w3.org/TR/2001/REC-SVG-20010904/DTD/svg10.dtd">
<svg version="1.0" xmlns="http://www.w3.org/2000/svg"
 width="1000.000000pt" height="1000.000000pt" viewBox="0 0 1000.000000 1000.000000"
 preserveAspectRatio="xMidYMid meet">
<metadata>
Created by potrace 1.15, written by Peter Selinger 2001-2017
</metadata>
<g transform="translate(0.000000,1000.000000) scale(0.100000,-0.100000)"
fill="#000000" stroke="none">
<path d="M0 5000 l0 -5000 695 0 696 1 -3 27 c-2 17 2 26 9 25 16 -3 27 35 14
51 -12 15 -2 51 40 141 15 33 39 92 54 130 14 39 32 84 39 100 55 116 68 149
72 178 10 77 17 108 25 113 5 3 9 16 9 29 0 13 5 27 10 30 6 4 9 18 8 33 -2
35 11 74 22 67 14 -8 4 -86 -12 -97 -10 -7 -9 -11 6 -23 16 -12 17 -18 8 -27
-9 -9 -12 -9 -12 2 0 22 -16 -1 -28 -40 -10 -30 -10 -32 2 -17 7 9 16 17 19
17 8 0 -13 -71 -34 -112 -11 -21 -19 -46 -19 -58 0 -11 -4 -20 -8 -20 -8 0
-18 -31 -57 -175 -9 -33 -23 -73 -30 -90 -13 -31 -26 -62 -31 -80 -24 -76 -30
-86 -46 -81 -10 2 -18 0 -18 -5 0 -5 7 -9 15 -9 20 0 20 -42 0 -80 -13 -25
-13 -30 -1 -30 7 0 17 11 20 25 3 13 11 37 18 52 6 15 13 36 15 46 1 10 10 32
19 49 9 17 18 42 20 57 8 42 27 91 37 91 4 0 5 5 2 10 -3 6 -3 16 2 23 4 6 8
17 8 22 1 6 4 17 7 25 3 8 22 69 43 135 20 66 48 152 62 190 14 39 31 94 38
122 7 29 17 58 22 65 11 14 53 140 53 160 0 6 -6 3 -14 -7 -13 -18 -14 -18
-26 5 -9 17 -14 19 -20 10 -5 -7 -6 -19 -3 -27 3 -7 -2 -16 -10 -19 -10 -3
-19 -24 -23 -50 -6 -45 -19 -58 -27 -26 -5 20 -4 21 -32 -73 -10 -33 -25 -67
-32 -76 -7 -8 -13 -25 -13 -36 0 -12 -16 -40 -36 -64 l-36 -43 7 40 c8 48 32
120 52 158 9 15 17 56 19 90 4 69 8 94 16 116 4 8 9 29 11 45 6 40 65 235 78
258 5 10 21 50 35 90 46 128 92 251 114 302 12 28 34 86 50 131 15 44 33 89
39 100 20 35 98 238 146 379 26 77 51 145 55 150 4 6 11 24 15 40 23 87 50
154 69 172 18 17 18 17 13 -29 l-6 -47 33 6 c34 5 35 4 43 -38 10 -51 23 -58
44 -23 13 21 14 32 5 56 -10 27 -8 32 19 54 33 26 55 31 55 12 0 -7 9 -24 20
-38 33 -42 27 -119 -21 -251 -42 -116 -123 -344 -139 -389 -5 -14 -69 -203
-143 -420 -74 -217 -155 -449 -181 -515 -25 -66 -46 -127 -46 -136 0 -8 -5
-20 -11 -26 -11 -11 -14 -118 -4 -168 3 -16 5 -45 5 -64 -1 -37 59 -168 87
-193 10 -8 40 -23 66 -32 27 -10 60 -29 73 -43 23 -22 31 -25 73 -19 42 5 53
3 87 -21 30 -21 51 -28 94 -28 62 -1 82 -8 124 -42 23 -20 36 -23 63 -18 51 9
70 -1 88 -49 15 -39 15 -47 1 -97 -9 -30 -18 -76 -20 -102 -3 -27 -10 -55 -17
-63 -10 -12 69 -14 575 -14 536 0 586 1 586 16 0 9 -8 22 -17 29 -16 12 -16
19 1 111 10 55 20 119 23 144 8 75 10 284 2 300 -4 9 -19 16 -33 18 -27 2 -36
-12 -13 -22 9 -3 8 -8 -4 -18 -10 -8 -18 -38 -23 -83 -4 -38 -14 -81 -23 -94
-13 -21 -16 -22 -30 -8 -24 24 -21 114 6 159 13 21 20 42 16 48 -4 6 -2 16 3
23 6 7 8 32 5 55 -4 32 -10 42 -24 42 -11 0 -19 -6 -19 -14 0 -8 -7 -16 -15
-20 -8 -3 -15 -12 -15 -20 0 -30 -34 -122 -54 -144 -15 -17 -17 -25 -8 -31 9
-5 5 -11 -13 -19 -15 -7 -25 -8 -25 -2 0 6 6 10 13 11 6 0 2 5 -11 11 -13 6
-21 17 -18 23 2 7 0 17 -6 23 -12 12 -19 102 -8 102 4 0 7 21 7 48 0 78 20
139 56 164 17 12 45 37 63 56 24 26 36 32 56 27 23 -6 24 -9 20 -66 -3 -39 0
-64 8 -74 11 -13 15 -10 31 25 10 22 16 47 12 55 -4 11 -1 13 11 9 12 -4 16 0
16 15 0 12 7 24 15 27 8 4 15 10 15 15 0 16 149 159 165 159 9 0 30 7 48 16
17 9 56 18 86 19 46 1 58 6 78 31 64 77 63 76 120 69 38 -5 53 -3 53 5 0 7 11
26 25 44 59 75 68 79 101 47 19 -18 19 -18 41 1 23 21 50 25 99 14 26 -7 32
-4 41 17 9 19 22 26 57 31 25 4 50 5 55 1 5 -3 12 -1 16 5 3 5 18 10 31 10 26
0 63 34 64 57 0 7 17 19 37 28 94 41 146 69 168 91 13 13 31 24 40 24 8 0 15
4 15 9 0 5 9 12 20 16 11 3 44 42 74 85 48 70 53 81 40 97 -16 21 -18 53 -4
53 15 0 12 60 -2 61 -7 0 1 5 17 11 17 6 38 18 48 26 9 8 36 16 60 16 l42 1 2
-45 c4 -96 12 -149 23 -171 7 -12 14 -63 16 -113 2 -50 11 -116 20 -146 18
-62 19 -75 9 -142 -4 -26 -4 -55 0 -65 4 -10 8 -44 10 -77 1 -36 7 -61 16 -67
11 -6 11 -15 1 -51 -31 -107 -27 -136 24 -192 l37 -40 -8 -70 c-4 -39 -8 -82
-9 -96 -1 -14 -5 -31 -9 -38 -5 -7 -7 -28 -6 -46 2 -19 -2 -41 -10 -49 -8 -11
-9 -21 -3 -34 5 -10 6 -27 2 -38 -4 -11 -3 -33 1 -50 12 -40 11 -45 -4 -45 -7
0 -22 -7 -33 -15 -19 -14 -19 -14 4 -30 22 -16 27 -39 16 -69 -8 -22 -27 -20
-49 4 -22 25 -45 26 -45 2 0 -10 -9 -35 -20 -57 -23 -46 -24 -57 -8 -73 9 -9
18 -6 41 16 28 26 29 27 40 7 19 -32 25 -57 26 -110 1 -43 5 -52 25 -61 46
-21 62 15 55 126 -2 30 -3 103 -3 162 0 60 -4 108 -9 108 -5 0 -6 8 -1 17 6
16 17 87 26 173 1 14 5 27 8 30 12 11 29 127 23 155 -9 39 -7 81 4 130 19 79
45 102 84 72 24 -19 27 -38 13 -87 -8 -25 -14 -68 -14 -96 0 -28 -7 -64 -15
-80 -9 -20 -12 -40 -7 -59 8 -27 -1 -88 -26 -180 -20 -73 -31 -159 -37 -275
-3 -63 -8 -139 -11 -167 l-6 -53 2171 0 2171 0 0 5000 0 5000 -2105 0 -2105 0
3 -37 c1 -21 5 -40 8 -43 8 -6 21 -131 19 -192 0 -27 4 -48 9 -48 6 0 16 -19
22 -42 18 -62 19 -68 22 -124 2 -28 7 -56 10 -62 10 -15 36 -157 42 -227 5
-68 15 -128 44 -265 11 -52 22 -129 25 -171 3 -41 10 -87 15 -101 5 -15 10
-35 10 -45 -2 -74 18 -441 26 -493 2 -14 11 -79 20 -145 8 -66 20 -140 25
-165 9 -41 23 -235 23 -302 0 -29 -43 -86 -84 -111 -14 -9 -40 -15 -58 -15
-18 1 -36 -3 -39 -8 -4 -5 -16 -10 -27 -9 -30 0 -33 -31 -8 -104 23 -68 31
-161 13 -161 -5 0 -10 8 -10 18 0 30 -51 24 -78 -9 -22 -27 -22 -29 -6 -54 15
-22 15 -28 4 -35 -20 -13 -30 -3 -30 31 0 37 -13 37 -29 2 l-13 -28 -15 23
c-17 25 -38 29 -46 9 -9 -24 8 -37 44 -34 26 2 36 -2 44 -18 13 -25 48 -31 65
-10 7 8 23 15 36 15 13 0 24 5 24 10 0 17 20 11 46 -15 l25 -26 30 25 c41 34
78 20 79 -30 0 -30 -26 -48 -66 -47 -23 1 -34 -4 -34 -13 0 -8 7 -14 15 -14 9
0 15 -7 13 -16 -2 -13 6 -17 39 -17 23 0 48 5 55 11 19 15 118 24 118 11 0 -6
-7 -8 -16 -5 -14 5 -16 1 -10 -34 5 -32 3 -40 -9 -40 -8 0 -15 -6 -15 -14 0
-8 -5 -18 -12 -22 -7 -4 -8 -3 -4 4 4 7 2 12 -4 12 -7 0 -10 -6 -7 -12 2 -8
21 -13 43 -13 47 0 62 -9 75 -43 10 -26 11 -26 25 -8 19 26 18 31 -8 45 -14 7
-24 22 -25 39 0 14 -6 28 -12 30 -7 2 -8 9 -1 22 7 12 7 28 0 46 -13 33 -9 38
16 19 11 -8 14 -15 7 -15 -7 0 -13 -5 -13 -11 0 -7 10 -5 26 5 25 17 25 17
108 -56 45 -40 95 -90 111 -110 17 -20 35 -37 40 -38 6 0 16 -12 23 -27 6 -16
34 -55 62 -88 28 -33 53 -71 57 -83 3 -13 16 -35 28 -48 21 -23 40 -75 36
-101 -1 -8 5 -10 14 -7 8 3 15 2 15 -3 0 -4 12 -21 26 -36 19 -21 23 -32 15
-40 -16 -16 -14 -24 8 -30 14 -3 18 -11 14 -26 -3 -13 0 -23 10 -27 9 -3 13
-12 11 -19 -3 -7 0 -33 7 -56 7 -24 14 -51 14 -59 1 -8 6 -26 10 -40 12 -38 9
-108 -5 -125 -10 -13 -9 -15 8 -15 21 0 82 -62 82 -84 0 -7 10 -25 21 -40 16
-20 20 -36 16 -62 -4 -26 -2 -34 9 -34 11 0 12 -4 4 -19 -13 -26 -13 -31 5
-31 10 0 15 -10 15 -32 0 -18 7 -46 16 -63 8 -16 12 -40 9 -53 -3 -13 -1 -30
6 -38 6 -7 9 -31 7 -53 -2 -22 -1 -38 2 -36 3 2 6 -28 7 -66 3 -66 2 -69 -22
-75 -15 -4 -25 -13 -25 -24 0 -30 17 -32 24 -4 8 32 30 26 34 -10 4 -35 -13
-56 -48 -56 -23 0 -27 -4 -23 -19 3 -13 10 -18 21 -13 14 5 15 3 4 -10 -7 -8
-10 -23 -6 -31 3 -9 -1 -24 -10 -32 -9 -9 -16 -24 -16 -33 0 -14 2 -14 9 -3
13 20 61 6 61 -19 0 -10 -4 -21 -10 -25 -5 -3 -7 -12 -3 -20 4 -11 -4 -17 -27
-21 -29 -6 -30 -8 -16 -22 12 -13 19 -14 28 -4 25 25 79 9 63 -18 -5 -8 -12
-7 -22 1 -12 10 -16 10 -24 -2 -5 -8 -9 -20 -9 -28 0 -8 -6 -11 -15 -7 -12 4
-13 2 -6 -12 12 -24 7 -71 -12 -106 -11 -20 -13 -35 -6 -47 6 -12 5 -20 -2
-25 -17 -10 -5 -101 17 -125 18 -20 18 -21 1 -34 -16 -12 -16 -14 -2 -29 9 -9
19 -16 23 -16 7 0 11 -24 13 -78 1 -29 -9 -41 -21 -23 -6 11 -9 8 -12 -10 -2
-19 -10 -25 -34 -27 -19 -2 -36 3 -44 13 -11 14 -14 13 -27 -2 -11 -14 -16
-15 -20 -5 -4 10 -8 10 -20 0 -12 -10 -18 -9 -29 6 -16 23 -8 42 12 25 11 -9
14 -8 14 7 0 11 13 33 30 50 27 30 28 32 10 37 -11 3 -20 1 -20 -4 0 -14 -23
-11 -49 8 -22 15 -23 17 -6 29 9 7 14 17 11 22 -3 6 -1 23 6 39 7 15 13 46 14
68 3 82 14 173 23 198 7 18 6 30 -6 47 -12 17 -13 27 -5 40 8 13 7 21 -1 29
-8 8 -8 11 1 11 6 0 16 -8 21 -18 9 -15 10 -15 11 0 0 9 5 18 11 20 5 2 11 20
12 41 1 20 5 37 10 37 9 0 9 32 1 54 -8 22 -27 20 -41 -3 -9 -14 -9 -21 -1
-23 23 -8 18 -45 -9 -57 -25 -11 -25 -11 -19 16 4 15 6 33 6 38 -10 117 -12
125 -31 125 -22 0 -23 8 -9 44 6 17 17 26 30 26 32 0 15 17 -25 24 -46 9 -37
22 20 29 25 2 49 7 52 11 8 8 -17 36 -33 36 -8 0 -11 6 -8 15 4 8 14 15 24 15
32 0 32 18 0 28 -19 7 -32 7 -35 1 -11 -17 -25 1 -25 32 0 22 5 29 20 29 15 0
20 7 20 25 0 27 -9 32 -28 13 -9 -9 -15 -8 -27 8 -18 24 -19 44 -2 44 25 0 39
17 32 39 -5 16 -12 20 -26 16 -11 -4 -26 -1 -34 5 -31 26 -68 -26 -39 -54 17
-18 18 -33 2 -39 -10 -4 -10 -6 0 -6 22 -2 13 -20 -18 -36 -39 -20 -47 -19
-54 8 -5 22 -6 22 -19 2 -18 -27 -29 -57 -18 -50 5 3 12 1 16 -5 4 -6 23 -7
46 -4 35 6 41 4 46 -14 3 -11 11 -23 19 -26 17 -7 19 -27 2 -25 -28 3 -37 -2
-31 -18 6 -15 -1 -16 -70 -10 -50 4 -77 3 -77 -3 0 -15 46 -30 93 -30 56 0 62
-7 62 -61 0 -26 7 -59 15 -74 12 -23 12 -28 0 -36 -13 -8 -13 -10 -1 -18 20
-13 22 -73 3 -87 -8 -6 -16 -26 -17 -45 -2 -19 -3 -40 -4 -46 -1 -9 -8 -10
-27 -3 -32 13 -44 13 -44 0 0 -5 9 -10 21 -10 12 0 17 -4 14 -11 -4 -6 -13 -8
-20 -5 -8 3 -16 -6 -20 -22 l-6 -26 -13 25 c-7 13 -9 28 -5 33 5 5 4 15 -2 23
-9 10 -8 13 5 13 9 0 16 5 16 11 0 8 6 7 18 -2 9 -7 6 -1 -7 14 -22 24 -21 32
2 28 13 -2 -13 40 -29 46 -21 8 -32 -6 -14 -17 13 -8 12 -10 -3 -10 -9 0 -26
-6 -37 -12 -17 -11 -22 -10 -30 2 -5 8 -8 20 -6 26 5 12 -34 34 -59 34 -11 0
-10 -5 5 -20 22 -22 26 -45 10 -55 -6 -3 -10 -24 -10 -46 0 -21 -4 -39 -10
-39 -5 0 -10 -11 -10 -25 0 -14 -7 -28 -15 -31 -10 -4 -13 -13 -10 -24 5 -14
2 -17 -14 -13 -18 5 -44 -24 -39 -44 1 -4 -2 -23 -6 -42 -8 -31 -10 -33 -21
-18 -12 17 -13 17 -20 0 -5 -10 -7 -21 -7 -25 1 -5 -2 -8 -8 -8 -5 0 -10 -5
-10 -11 0 -6 -7 -17 -16 -26 -11 -12 -18 -13 -27 -4 -6 6 -7 11 -1 11 5 0 10
12 9 27 0 25 -3 28 -28 25 -42 -5 -65 20 -61 68 1 22 -2 42 -7 46 -6 4 -6 11
2 20 9 11 8 14 -5 14 -17 0 -19 13 -8 43 7 16 10 14 30 -12 12 -17 22 -34 22
-38 0 -4 14 -28 31 -53 21 -31 28 -37 24 -20 -4 14 -12 31 -17 38 -7 8 -6 17
2 27 10 12 10 15 0 15 -15 0 -60 46 -60 62 0 6 -10 8 -24 4 -19 -5 -26 -1 -35
22 -6 15 -32 47 -57 72 -106 107 -104 103 -83 116 6 3 14 3 18 -2 11 -16 31
-15 25 1 -4 8 -10 12 -15 9 -5 -3 -12 2 -15 10 -3 9 -12 16 -20 16 -8 0 -14 7
-14 15 0 8 5 15 10 15 6 0 10 5 10 11 0 5 -5 7 -10 4 -6 -3 -10 -2 -10 4 0 5
5 11 12 13 13 5 2 28 -13 28 -6 0 -7 -4 -4 -10 3 -5 1 -10 -4 -10 -17 0 -13
20 5 27 8 3 20 1 27 -6 6 -6 18 -11 27 -11 11 1 9 6 -9 20 -19 16 -20 21 -8
26 9 3 13 12 11 19 -3 7 -1 16 5 19 6 4 8 13 4 21 -3 8 0 15 6 15 6 0 11 -4
11 -10 0 -5 5 -10 11 -10 5 0 7 5 4 10 -3 6 -1 10 4 10 6 0 11 12 11 26 0 17
6 28 20 31 11 3 20 9 20 14 0 5 12 9 28 9 26 1 26 1 7 16 -17 13 -18 16 -5 24
8 5 23 7 33 4 16 -5 17 -3 7 15 -6 12 -15 19 -21 15 -6 -3 -8 5 -5 20 3 14 -2
30 -10 37 -12 10 -13 9 -8 -7 5 -16 3 -16 -14 4 -20 22 -49 32 -37 12 6 -9
-28 -15 -65 -11 -13 2 -13 1 0 -8 13 -9 12 -12 -4 -24 -11 -8 -28 -12 -38 -9
-16 4 -17 1 -8 -22 5 -14 6 -26 2 -27 -4 0 -17 -2 -29 -5 -13 -2 -23 1 -23 6
0 6 -6 5 -14 -2 -10 -10 -11 -17 -3 -26 12 -16 -9 -35 -31 -27 -7 2 -18 -4
-24 -15 -13 -21 -38 -27 -38 -10 0 6 -11 10 -25 10 -26 0 -34 15 -12 23 9 4 8
6 -2 6 -8 1 -19 -7 -26 -16 -11 -15 -15 -15 -29 -4 -9 7 -16 20 -16 27 0 16
-16 19 -24 5 -3 -5 1 -12 10 -15 9 -3 14 -13 11 -21 -4 -10 -1 -12 10 -8 10 4
14 2 10 -4 -5 -7 5 -10 24 -9 18 0 34 -5 36 -12 4 -9 -2 -11 -20 -7 -23 6 -26
3 -32 -29 -6 -28 -10 -33 -20 -23 -9 8 -10 17 -3 30 8 16 5 16 -20 -3 -17 -13
-38 -20 -46 -17 -9 4 -16 2 -16 -2 0 -5 -8 -12 -17 -15 -21 -9 -65 41 -59 67
3 11 2 16 -1 13 -4 -3 -13 0 -22 7 -14 10 -14 10 -3 -5 7 -9 14 -30 14 -46 1
-20 5 -29 14 -25 7 2 15 -5 19 -17 8 -25 -13 -56 -28 -41 -6 6 -19 6 -34 0
-21 -8 -24 -7 -19 7 5 12 2 15 -10 10 -9 -4 -23 -1 -31 5 -11 9 -17 9 -26 -1
-10 -10 -9 -12 6 -7 9 4 17 3 17 -2 0 -4 16 -16 35 -27 29 -15 37 -16 44 -6 7
11 9 11 14 -2 4 -9 11 -16 17 -16 6 0 8 5 5 10 -3 6 -1 10 4 10 14 0 14 -17 1
-25 -6 -3 -10 -11 -10 -17 0 -6 10 -3 22 8 l22 19 -18 -28 c-10 -16 -16 -30
-14 -31 8 -5 59 -26 64 -26 3 0 2 5 -1 10 -5 7 3 8 22 3 15 -4 43 -8 61 -7 17
0 32 -4 32 -9 0 -5 6 -4 14 2 8 7 33 10 56 8 22 -2 43 0 46 4 8 13 24 11 22
-3 -6 -28 -28 -41 -53 -30 -29 13 -57 -10 -37 -30 9 -9 12 -8 12 5 0 9 5 17
10 17 16 0 11 -27 -6 -34 -9 -3 -25 -6 -37 -5 -12 0 -16 3 -10 6 20 8 15 23
-7 23 -24 0 -26 -22 -4 -44 9 -9 11 -16 4 -16 -6 0 -9 -4 -6 -9 3 -5 -3 -11
-14 -14 -22 -6 -28 8 -7 16 6 3 -1 5 -18 6 -16 0 -38 -4 -49 -8 -17 -7 -17 -8
6 -23 30 -20 32 -45 4 -54 -28 -9 -37 -25 -24 -41 8 -10 6 -13 -8 -14 -11 -1
-22 -1 -26 -1 -3 1 -8 -4 -11 -11 -6 -16 41 -14 72 2 19 11 21 9 21 -18 0 -16
-6 -32 -12 -34 -8 -4 -4 -8 9 -12 13 -4 20 -11 18 -16 -3 -4 -20 1 -38 11 -40
25 -46 25 -40 0 7 -27 23 -36 34 -19 4 7 11 10 15 6 11 -10 -16 -37 -37 -37
-11 0 -19 -5 -19 -11 0 -5 -5 -7 -12 -3 -7 4 -8 3 -4 -4 4 -7 -10 -20 -35 -32
-22 -12 -38 -17 -34 -11 3 6 1 11 -4 11 -18 0 -12 16 16 44 14 14 23 29 19 33
-3 4 -15 -2 -25 -13 -10 -10 -38 -35 -61 -54 -23 -19 -51 -43 -62 -52 -11 -10
-29 -20 -39 -23 -11 -4 -19 -13 -19 -20 0 -8 -9 -19 -20 -25 -11 -6 -20 -18
-20 -27 0 -14 -3 -14 -21 3 -17 15 -22 16 -29 4 -7 -12 -13 -11 -32 5 l-23 20
19 -23 c11 -12 26 -20 34 -17 8 3 12 0 9 -7 -2 -7 -12 -12 -22 -10 -13 3 -16
-1 -12 -12 6 -14 3 -15 -14 -5 -17 9 -20 8 -14 -2 6 -9 2 -11 -12 -7 -22 6
-57 -24 -45 -38 4 -4 -1 -4 -10 -1 -10 3 -20 2 -24 -4 -4 -6 -11 -6 -20 2 -11
9 -14 8 -14 -3 0 -8 5 -19 11 -25 9 -9 6 -10 -10 -6 -23 6 -39 23 -21 23 6 0
-1 11 -16 25 -31 29 -45 33 -21 7 25 -27 21 -42 -12 -42 -30 0 -57 22 -47 39
3 5 -1 11 -9 15 -8 3 -17 1 -20 -4 -10 -16 -24 -11 -24 8 0 9 -2 42 -4 72 -3
30 0 61 6 68 7 9 4 18 -8 32 -10 11 -15 23 -12 26 4 4 9 0 13 -9 5 -14 7 -14
23 1 9 9 15 25 13 35 -2 9 1 17 8 17 7 0 9 8 5 20 -6 20 2 25 35 20 12 -1 13
1 2 11 -19 21 -15 42 8 36 23 -6 24 -3 10 24 -9 15 -7 19 5 19 12 0 14 4 5 19
-15 30 -12 36 9 17 12 -11 21 -14 26 -7 3 6 2 11 -4 11 -19 0 -34 40 -20 56 9
11 8 14 -7 15 -11 0 -14 3 -8 5 7 3 10 15 8 27 -2 12 -2 16 2 10 3 -7 10 -13
15 -13 6 0 7 4 4 10 -3 6 -1 10 4 10 6 0 11 -7 11 -15 0 -18 17 -20 23 -2 2 6
-5 19 -15 29 -19 16 -9 36 12 23 6 -3 10 -1 10 4 0 6 -5 11 -11 11 -5 0 -7 5
-4 11 8 13 -25 39 -41 32 -7 -2 -15 1 -20 8 -5 9 -2 10 9 6 11 -4 17 -1 17 8
0 8 3 14 8 14 4 -1 16 -1 26 0 17 1 16 5 -11 29 -31 28 -34 56 -6 45 11 -4 14
-2 9 5 -4 7 -13 12 -21 12 -7 0 -16 6 -18 13 -3 6 -6 2 -6 -10 -1 -28 -6 -28
-38 -3 -30 23 -51 27 -33 5 7 -8 9 -15 4 -15 -18 0 -30 16 -31 38 -2 18 2 22
14 18 13 -6 14 -4 3 9 -9 11 -16 13 -24 5 -14 -14 -31 -13 -19 3 15 18 23 57
12 57 -5 0 -9 5 -9 10 0 6 7 10 16 10 14 0 14 3 4 15 -7 8 -21 15 -31 15 -11
0 -19 5 -19 11 0 6 7 9 14 6 11 -4 13 -1 9 11 -5 14 -3 14 18 -3 17 -14 20
-15 10 -3 -7 9 -10 22 -6 27 3 7 0 8 -10 5 -11 -5 -14 -2 -8 12 4 11 3 15 -4
11 -7 -4 -10 13 -8 51 1 38 -3 61 -12 71 -11 11 -12 16 -2 21 8 5 9 18 4 36
-13 50 -15 85 -5 79 9 -6 15 35 12 78 -1 11 6 21 18 24 11 3 20 12 20 20 0 8
5 11 10 8 6 -3 10 0 10 8 0 8 6 17 14 20 8 3 14 19 13 39 -1 33 28 107 47 120
6 4 7 8 2 8 -6 0 -1 6 9 14 11 7 31 13 46 12 15 -1 26 2 23 6 -3 4 0 8 6 8 7
0 10 7 7 14 -4 10 -1 13 7 10 8 -3 17 -1 21 5 3 6 1 11 -6 11 -7 0 -1 9 11 20
17 15 24 32 24 56 0 19 4 33 11 31 6 -2 9 -27 7 -60 -3 -46 -1 -58 13 -63 9
-4 14 -13 10 -21 -3 -10 -1 -13 9 -10 10 4 13 1 10 -7 -3 -7 10 -29 29 -48 27
-28 35 -32 46 -21 6 7 23 11 37 9 17 -3 24 -1 21 7 -4 12 -18 13 -66 6 -13 -2
-26 2 -28 9 -4 10 2 11 24 6 26 -7 27 -6 13 11 -14 17 -13 18 8 13 27 -7 28
-4 2 22 -11 11 -20 16 -20 10 0 -5 -9 -10 -20 -10 -13 0 -20 7 -20 20 0 20 15
21 69 4 7 -2 20 1 27 7 14 12 74 3 74 -11 0 -17 -17 -19 -44 -5 -14 8 -24 10
-21 5 3 -5 1 -11 -5 -15 -17 -10 -12 -21 16 -33 14 -7 23 -16 20 -21 -3 -5 8
-11 25 -13 39 -6 48 8 10 17 -16 3 -37 15 -47 26 -21 23 -12 25 20 4 13 -9 29
-14 37 -13 7 2 18 -8 26 -22 7 -14 13 -21 13 -17 0 5 7 1 16 -7 8 -9 28 -16
44 -16 16 0 32 -4 35 -10 3 -5 1 -10 -6 -10 -7 0 -9 -3 -6 -6 4 -4 19 1 34 11
18 12 28 14 31 7 2 -7 8 -12 13 -12 4 0 6 7 3 15 -4 8 -1 15 5 15 6 0 16 11
21 25 11 29 32 40 58 30 9 -4 37 -8 62 -10 45 -2 65 -7 108 -28 36 -17 27 -33
-18 -29 -33 3 -40 1 -40 -13 0 -14 6 -16 35 -11 19 4 35 3 35 -2 0 -5 11 -14
24 -22 13 -7 27 -21 29 -32 4 -14 11 -18 25 -13 11 3 23 1 26 -4 4 -6 14 -8
24 -5 16 5 16 5 0 -8 -15 -13 -13 -17 18 -46 18 -18 38 -32 43 -32 13 0 22 28
10 32 -6 2 -8 15 -4 29 5 21 12 25 40 24 39 -1 65 -27 58 -59 -4 -16 -2 -18 5
-7 12 16 32 6 32 -16 0 -12 3 -13 13 -4 9 7 24 8 45 2 27 -8 32 -7 37 10 5 16
10 18 21 8 15 -12 19 -41 7 -52 -3 -4 -13 -1 -21 6 -13 10 -14 8 -8 -11 8 -25
-8 -31 -21 -8 -9 17 -84 24 -121 12 -21 -7 -23 -6 -17 14 5 15 4 20 -4 16 -6
-4 -11 -13 -11 -21 0 -7 -6 -15 -12 -18 -9 -3 -7 -9 6 -19 17 -14 17 -15 2
-21 -12 -5 -16 -13 -11 -29 6 -23 6 -23 -10 -3 -13 17 -17 18 -25 5 -5 -8 -6
-18 -3 -22 2 -5 -1 -15 -7 -23 -10 -12 -9 -15 4 -15 9 0 16 7 16 16 0 8 4 13
9 9 5 -3 16 1 24 9 11 12 17 12 28 3 7 -7 5 -2 -5 11 -26 30 -5 28 24 -3 13
-14 29 -24 35 -21 17 6 15 -26 -3 -46 -17 -20 -42 -24 -42 -7 0 7 -12 9 -32 6
-18 -3 -27 -3 -20 0 18 7 4 23 -14 16 -13 -5 -12 -9 6 -28 18 -19 30 -22 80
-20 l59 2 -6 -27 c-7 -39 9 -44 32 -9 11 16 23 29 27 29 4 0 5 7 2 15 -8 20 5
19 28 -2 19 -17 21 -16 52 21 26 31 36 37 54 32 13 -5 22 -3 22 3 0 6 11 21
25 33 17 15 22 25 15 33 -6 7 -8 20 -4 29 7 18 29 21 39 6 11 -18 23 -11 18
10 -6 24 25 40 37 19 7 -11 10 -10 15 3 4 10 4 21 1 26 -10 16 17 82 33 82 19
-1 66 -38 58 -46 -3 -3 3 -23 15 -45 29 -55 19 -107 -27 -137 -38 -24 -46 -56
-17 -70 19 -11 82 -4 82 8 0 7 28 18 41 16 3 -1 13 5 21 12 14 11 14 19 -7 75
-12 34 -30 79 -38 100 -9 21 -16 41 -16 45 3 17 -2 38 -11 52 -9 13 -11 13
-20 0 -15 -24 -43 0 -60 53 -10 30 -21 47 -31 47 -9 0 -33 13 -54 30 -30 24
-41 28 -56 19 -11 -5 -25 -7 -31 -3 -7 4 -23 9 -37 10 -30 4 -15 -15 19 -21
52 -10 36 -22 -52 -40 -197 -41 -458 -8 -458 56 0 18 -4 20 -30 14 -19 -4 -53
1 -93 13 -34 10 -100 27 -147 37 -47 10 -94 25 -105 32 -11 7 -30 13 -42 13
-12 0 -37 9 -55 20 -18 11 -56 25 -85 31 -41 9 -53 17 -53 31 0 21 15 24 24 6
5 -10 7 -10 12 0 3 6 10 10 15 6 5 -3 9 0 9 5 0 6 -9 11 -19 11 -11 0 -23 5
-26 11 -7 11 31 51 61 64 32 14 -49 24 -121 15 -5 0 5 -7 23 -15 17 -8 32 -20
31 -27 0 -10 -2 -10 -6 0 -7 19 -23 14 -16 -5 6 -16 5 -17 -12 -3 -17 14 -18
13 -12 -2 4 -12 2 -18 -8 -18 -8 0 -15 -4 -15 -10 0 -5 6 -10 14 -10 7 0 16
-9 19 -20 4 -15 0 -19 -17 -17 -11 1 -26 9 -33 17 -11 13 -12 13 -13 1 0 -12
-3 -12 -12 -3 -17 17 0 28 22 14 29 -18 43 -15 23 6 -23 22 -79 27 -86 8 -3
-8 1 -17 9 -20 8 -3 14 -10 14 -15 0 -20 -144 44 -187 82 -12 11 -20 24 -17
29 3 4 -9 11 -26 14 -17 4 -33 11 -36 16 -3 4 0 7 8 6 7 -2 12 4 10 12 -3 11
1 10 17 -4 19 -18 47 -14 35 5 -3 5 -9 7 -14 4 -5 -3 -11 -1 -15 5 -3 5 -1 10
5 10 13 0 8 63 -9 108 -7 17 -19 32 -27 32 -8 0 -17 7 -20 15 -4 8 -10 12 -15
9 -5 -2 -18 0 -29 6 -17 9 -19 14 -10 25 15 18 5 35 -21 35 -39 0 -93 43 -84
68 3 8 0 10 -6 6 -7 -4 -10 -1 -7 7 3 8 15 13 29 11 79 -12 133 -1 96 19 -9 6
-27 20 -40 33 -20 22 -38 32 -139 81 -37 18 -50 46 -28 60 6 4 9 12 8 18 -3
14 33 77 44 77 4 0 17 9 29 21 17 17 35 21 92 23 40 1 80 6 90 11 11 4 23 3
30 -4 11 -11 47 -16 47 -6 0 3 -6 14 -12 25 -11 16 -9 22 7 34 24 18 44 21 27
4 -17 -17 -15 -33 3 -18 13 10 19 8 37 -16 l22 -28 6 25 c4 15 13 24 25 24 11
0 25 3 32 8 7 4 26 -7 48 -27 39 -37 78 -59 55 -31 -10 12 -9 16 5 22 12 4 23
0 31 -11 7 -10 17 -15 23 -12 6 4 26 0 45 -8 32 -13 37 -13 59 4 21 17 26 17
44 5 23 -16 35 -11 26 11 -3 8 -14 14 -24 14 -21 0 -24 11 -8 27 7 7 8 19 4
30 -14 33 -15 70 -1 88 13 18 14 18 25 -3 15 -28 31 -28 31 -1 0 11 -8 23 -17
26 -10 2 -31 23 -47 46 -23 33 -30 55 -33 103 -4 71 13 100 51 88 28 -9 26 -5
34 -55 6 -37 13 -47 40 -59 18 -9 41 -30 52 -48 11 -18 24 -32 30 -32 5 0 10
-6 10 -14 0 -7 7 -19 15 -26 13 -11 15 -8 15 13 0 14 -5 38 -10 53 -7 19 -7
30 1 40 8 10 8 18 1 27 -6 7 -7 19 -3 26 7 11 12 10 30 -1 16 -10 25 -10 39
-2 18 12 20 25 7 63 -5 16 -4 21 4 17 6 -4 11 -1 11 8 0 8 -9 20 -20 26 -27
14 -25 30 3 30 12 0 17 4 12 8 -6 4 -16 27 -22 52 -9 36 -9 46 3 55 14 10 16
54 3 65 -4 3 -9 16 -13 30 -5 17 -4 21 2 11 6 -8 12 -9 16 -3 3 6 2 13 -4 17
-7 4 -7 12 0 25 6 11 9 32 8 47 -1 16 2 34 6 41 7 12 9 100 3 135 -2 10 -9 22
-16 26 -10 6 -9 10 3 14 18 7 22 37 5 37 -8 0 -8 4 0 14 12 14 8 97 -6 120 -4
6 -6 50 -6 98 2 69 -1 91 -14 104 -11 11 -13 18 -5 23 11 7 10 223 -2 251 -23
56 -46 215 -46 324 0 69 -7 156 -16 201 -10 56 -15 134 -14 260 1 99 -5 242
-11 318 l-13 137 -259 0 c-281 0 -269 2 -299 -60 -23 -47 -81 -174 -83 -180
-18 -58 -25 -93 -21 -97 3 -3 1 -13 -4 -23 -5 -10 -7 -20 -3 -23 16 -17 11
-104 -12 -199 -49 -207 -65 -301 -53 -316 9 -10 9 -15 -1 -22 -10 -6 -10 -9
-1 -15 9 -6 9 -10 -1 -16 -10 -6 -7 -9 10 -9 20 0 22 -2 11 -15 -10 -12 -10
-19 -2 -27 7 -7 12 -26 13 -42 0 -27 2 -29 10 -11 7 15 8 11 4 -17 -3 -20 -2
-39 3 -42 5 -3 5 -30 0 -63 -10 -64 -3 -292 11 -362 5 -24 6 -68 2 -97 -5 -33
-4 -51 2 -47 6 3 8 -7 5 -26 -3 -19 0 -31 7 -31 6 0 18 -22 25 -50 7 -27 17
-50 22 -50 4 0 8 -13 8 -29 0 -16 7 -34 15 -41 8 -7 13 -16 10 -20 -3 -5 0
-12 7 -16 8 -5 6 -10 -8 -15 -17 -7 -17 -8 -1 -8 14 -1 17 -6 12 -22 -5 -15
-4 -19 5 -14 12 7 47 -32 42 -47 -2 -7 6 -10 24 -7 13 2 23 -26 13 -37 -6 -8
4 -25 34 -55 23 -24 49 -57 57 -74 23 -49 32 -58 41 -43 6 9 9 7 9 -8 0 -11
-6 -27 -12 -35 -29 -35 -128 -78 -193 -85 -49 -4 -62 -7 -100 -23 -137 -57
-215 -73 -215 -44 0 7 -6 13 -14 13 -8 0 -17 6 -20 13 -5 9 -7 9 -12 0 -7 -16
-34 6 -27 23 2 6 -3 18 -11 27 -9 9 -16 18 -16 21 0 6 -15 24 -63 78 -15 18
-27 35 -27 38 0 4 -11 13 -25 20 -13 7 -27 21 -31 32 -3 10 -12 18 -20 18 -8
0 -12 5 -9 10 3 6 0 10 -7 10 -7 0 -38 25 -68 55 -30 30 -60 55 -66 55 -7 0
-15 7 -18 15 -3 9 -22 23 -41 31 -19 8 -35 21 -35 29 0 8 -16 29 -35 46 -34
31 -34 32 -19 67 8 20 18 39 23 42 4 3 11 22 15 43 4 20 11 37 15 37 5 0 12
16 16 36 3 20 10 44 15 53 17 31 60 132 60 141 0 5 20 34 45 65 25 30 57 81
72 112 14 32 34 74 44 93 9 19 20 52 24 73 4 20 11 40 16 43 22 13 69 148 74
214 2 35 5 44 30 110 8 19 17 46 21 60 4 14 18 50 32 80 49 109 53 121 51 138
-1 9 1 33 5 52 4 19 8 42 10 50 9 44 55 142 73 153 7 4 13 15 13 23 0 8 5 12
10 9 6 -3 10 0 10 8 0 8 7 17 15 21 8 3 15 10 15 16 0 25 63 88 93 94 25 5 29
9 17 16 -12 8 -12 10 -1 10 18 0 63 49 56 61 -4 5 -1004 9 -2586 9 l-2579 0 0
-5000z m2675 3714 c28 -3 58 -10 67 -15 20 -11 105 -30 131 -30 9 0 17 -5 17
-11 0 -5 6 -8 14 -5 7 3 44 -5 82 -18 90 -30 125 -39 147 -36 9 1 17 -2 17 -7
0 -5 22 -20 50 -33 60 -29 68 -54 13 -46 -20 4 -40 11 -43 18 -5 7 -17 8 -30
4 -19 -6 -22 -4 -17 9 5 13 3 14 -12 4 -15 -9 -22 -7 -39 10 -11 11 -18 22
-16 24 2 3 -10 3 -26 0 -17 -2 -36 0 -43 6 -6 6 -27 13 -46 15 -19 3 -59 15
-90 26 -60 21 -187 51 -230 55 -57 5 -111 19 -121 32 -9 10 2 12 57 9 37 -2
91 -7 118 -11z m670 -184 c-3 -5 1 -10 10 -10 10 0 13 -5 9 -12 -5 -8 -2 -9
10 -5 18 7 86 -19 86 -33 0 -4 15 -11 33 -14 18 -3 51 -15 72 -26 22 -11 47
-20 56 -20 9 0 19 -7 23 -15 3 -8 12 -15 21 -15 8 0 15 -4 15 -10 0 -5 8 -10
19 -10 28 0 91 -29 97 -45 3 -7 12 -11 20 -8 13 5 143 -60 154 -77 3 -4 20
-15 38 -24 38 -20 42 -41 7 -50 -29 -7 -54 4 -75 33 -8 12 -25 21 -39 21 -14
0 -38 12 -54 28 -17 15 -27 21 -23 15 11 -20 -9 -15 -29 7 -10 11 -26 20 -37
20 -10 0 -41 16 -70 36 -28 20 -64 38 -79 39 -16 1 -35 7 -42 13 -8 7 -28 15
-45 18 -17 3 -41 17 -53 30 -12 13 -33 24 -45 24 -12 0 -29 7 -38 15 -8 8 -18
15 -22 15 -3 0 -15 10 -25 22 -14 16 -16 24 -8 35 13 15 23 18 14 3z m902
-592 c32 -11 72 -31 89 -42 17 -12 58 -39 91 -62 157 -105 283 -230 283 -280
0 -28 23 -99 58 -177 29 -67 24 -77 -43 -77 -72 0 -141 -62 -137 -122 1 -17
-3 -31 -12 -34 -15 -6 -14 -29 2 -61 13 -25 4 -43 -21 -43 -25 -1 -60 -24 -50
-33 3 -4 1 -7 -5 -7 -6 0 -14 5 -17 10 -3 6 -19 10 -36 10 -18 0 -29 5 -29 14
0 8 -6 17 -12 20 -10 5 -10 7 0 12 6 3 12 12 12 20 0 8 5 14 11 14 6 0 9 -7 5
-15 -6 -17 9 -20 20 -4 5 8 9 8 14 -1 6 -9 11 -7 19 9 10 17 9 21 -3 21 -8 0
-18 4 -21 10 -4 7 2 7 19 1 18 -7 28 -6 36 5 10 11 8 14 -12 14 -13 0 -33 6
-44 14 -17 13 -21 12 -41 -10 -21 -25 -21 -25 -28 -5 -3 12 -11 21 -16 21 -5
0 -4 9 3 20 7 11 18 20 25 20 7 0 13 5 13 11 0 6 -7 8 -16 5 -9 -3 -18 -6 -20
-6 -2 0 -4 -6 -4 -13 0 -7 -9 -18 -21 -25 -14 -9 -18 -19 -14 -32 8 -26 -22
-27 -41 -2 -12 15 -13 15 -14 -10 0 -21 -4 -26 -17 -21 -12 5 -15 2 -10 -10 9
-24 -10 -21 -23 3 -6 11 -18 20 -26 20 -9 0 -18 -9 -21 -20 -3 -11 -11 -20
-18 -20 -11 0 -11 -8 -4 -32 13 -48 11 -53 -10 -27 -14 17 -16 26 -8 31 9 5 9
10 1 18 -12 12 -44 3 -44 -11 0 -5 -8 -9 -19 -9 -10 0 -49 -22 -87 -50 -86
-63 -108 -64 -135 -7 -37 76 -44 87 -57 87 -7 0 -15 7 -19 16 -3 9 -24 33 -47
54 -36 34 -39 41 -29 58 6 11 9 29 6 41 -4 16 -2 20 10 15 8 -3 18 -1 22 5 9
16 23 13 30 -6 3 -10 23 -38 45 -61 22 -24 40 -50 40 -57 0 -13 8 -17 62 -29
23 -5 26 -3 21 11 -4 10 -14 28 -23 40 -15 19 -16 30 -7 68 6 25 14 45 19 45
4 0 8 13 8 29 0 17 4 32 8 35 5 3 8 26 7 51 -1 35 2 45 14 45 14 0 14 1 1 10
-12 8 -10 10 8 10 19 0 22 4 17 21 -6 18 -5 19 13 10 28 -15 35 -14 28 4 -3 9
0 15 10 15 8 0 12 5 9 10 -3 6 1 17 9 26 9 8 16 22 16 30 0 8 8 14 17 14 9 0
14 3 10 6 -3 3 15 27 41 52 44 44 47 51 47 97 0 44 -15 96 -45 155 -8 18 5 60
19 60 6 0 36 -10 68 -22z m1892 -722 c1 -39 4 -85 7 -102 4 -19 1 -35 -6 -39
-6 -4 -45 3 -86 16 -69 21 -74 24 -74 51 0 39 37 109 61 115 10 3 19 10 19 15
0 5 4 7 9 3 5 -3 12 -1 15 4 3 4 16 9 29 9 23 0 24 -4 26 -72z m-2229 -294 c0
-15 -38 -44 -49 -37 -14 8 -14 -8 0 -22 14 -14 1 -60 -21 -76 -9 -6 -20 -25
-24 -40 -4 -16 -11 -25 -17 -21 -6 3 -9 14 -6 24 3 14 -1 18 -14 17 -12 -1
-17 -7 -14 -15 5 -14 -5 -30 -42 -64 -13 -12 -23 -27 -23 -33 0 -12 -37 -18
-43 -7 -21 36 -15 62 19 96 20 20 40 36 44 36 4 0 10 10 13 21 4 14 11 20 21
16 8 -3 18 -2 21 3 4 6 15 10 26 10 11 0 17 5 14 10 -9 15 4 50 19 50 7 0 23
9 36 20 24 21 40 26 40 12z m3254 -423 c22 -17 26 -28 26 -72 0 -47 -3 -53
-27 -64 -33 -16 -53 -17 -53 -3 0 6 -7 10 -16 8 -12 -2 -22 10 -33 41 -15 42
-15 44 3 55 10 6 28 21 39 34 25 27 28 27 61 1z m-3024 -1378 c38 -16 70 -47
70 -68 0 -15 2 -16 10 -3 9 13 14 7 11 -12 0 -5 4 -8 10 -8 11 0 39 -25 39
-35 0 -3 -6 -3 -12 1 -8 4 -10 3 -5 -2 5 -5 14 -9 20 -9 7 0 13 -10 15 -23 2
-12 8 -19 14 -16 7 4 7 0 0 -13 -9 -15 -6 -22 10 -32 19 -12 20 -11 14 6 -3
11 4 6 18 -11 14 -17 23 -33 20 -37 -2 -4 3 -10 12 -13 9 -4 14 -9 11 -12 -11
-11 -46 16 -41 31 4 10 -1 15 -17 17 -64 4 -109 25 -170 79 -24 21 -53 42 -64
45 -11 3 -36 13 -55 22 -39 18 -55 22 -86 24 -40 1 -18 43 28 53 18 4 38 13
45 20 14 15 64 13 103 -4z m1881 -103 c3 -5 9 -9 13 -9 3 1 10 1 14 1 11 0 86
-76 81 -81 -6 -6 63 -99 73 -99 5 0 7 -4 3 -10 -3 -5 1 -26 10 -46 17 -42 13
-54 -14 -37 -14 9 -20 7 -29 -7 -12 -20 -54 -17 -73 6 -9 11 -6 14 16 14 36 0
29 7 -15 15 -19 3 -37 8 -39 11 -12 11 26 24 54 18 24 -6 28 -4 18 7 -11 14
-13 19 -13 39 0 6 -7 10 -15 10 -8 0 -15 -5 -15 -11 0 -5 -5 -7 -10 -4 -6 4
-8 11 -5 16 4 5 -1 9 -9 9 -20 0 -21 24 -2 43 12 11 11 15 -8 27 -19 12 -20
12 -7 -3 17 -21 -2 -23 -23 -2 -13 14 -15 13 -13 -4 1 -12 6 -17 16 -13 9 3
12 1 7 -6 -10 -17 -26 -15 -33 6 -4 9 -15 23 -25 30 -10 7 -18 21 -18 30 -1
16 -1 16 -11 0 -6 -10 -16 -15 -26 -11 -14 5 -14 3 1 -20 10 -14 24 -28 32
-31 8 -3 14 -9 14 -14 0 -5 -18 -1 -40 10 -29 14 -40 26 -40 42 0 12 -5 27
-10 32 -8 8 -6 15 5 24 14 11 17 10 22 -8 7 -27 19 -28 26 -2 3 13 0 20 -9 20
-25 0 -15 19 14 23 34 6 75 -2 83 -15z m-1398 -128 c10 0 15 -4 12 -10 -3 -5
0 -7 8 -4 10 3 17 -4 21 -20 7 -29 17 -32 49 -15 16 9 22 9 25 0 2 -6 8 -11
13 -11 6 0 7 5 4 10 -3 6 -3 10 0 10 12 0 44 -45 44 -60 0 -9 -5 -6 -11 8 -6
12 -17 22 -25 22 -8 0 -11 -5 -7 -12 5 -8 2 -9 -9 -5 -11 4 -17 1 -17 -8 0
-18 17 -28 25 -15 11 18 26 11 23 -12 -2 -11 3 -23 11 -26 9 -3 11 0 7 9 -4 8
2 3 15 -11 l22 -25 -8 25 c-7 22 -6 23 8 11 9 -7 14 -18 10 -24 -3 -5 -1 -7 4
-4 6 4 18 -2 28 -13 20 -22 7 -28 -14 -7 -11 10 -12 8 -7 -10 5 -17 2 -22 -14
-25 -20 -3 -19 -4 8 -20 23 -14 29 -15 29 -3 0 8 -5 11 -10 8 -5 -3 -8 0 -6 6
3 7 7 12 9 11 36 -7 48 -16 58 -43 8 -21 9 -33 2 -35 -15 -5 -12 -22 3 -22 40
0 41 -61 1 -79 -15 -7 -22 -16 -18 -26 3 -8 1 -15 -5 -15 -6 0 -11 8 -12 18 0
10 -3 12 -6 4 -10 -25 -22 -1 -12 25 7 19 6 28 -2 33 -8 6 -8 13 0 28 14 26 4
53 -16 45 -12 -5 -12 -7 -1 -15 10 -7 10 -11 -4 -22 -10 -7 -18 -18 -18 -25 0
-6 -6 -11 -14 -11 -8 0 -16 -6 -19 -12 -3 -9 -7 -7 -12 6 -5 11 -3 21 5 26 7
4 10 13 6 19 -5 7 -1 9 8 5 9 -3 16 -1 16 5 0 6 -6 11 -14 11 -10 0 -12 7 -9
23 l6 22 -20 -20 c-11 -11 -19 -23 -16 -27 2 -5 -1 -8 -6 -8 -6 0 -11 11 -11
25 0 19 -4 23 -17 18 -15 -6 -16 -4 -5 9 7 8 9 23 6 32 -6 15 -8 15 -26 -3
-18 -20 -38 -28 -38 -15 0 4 7 12 15 18 14 10 13 14 -5 34 -11 12 -27 22 -36
22 -17 0 -37 47 -30 67 3 8 -1 16 -8 19 -8 3 -12 14 -9 24 3 12 11 16 21 13
10 -4 8 1 -6 15 -23 23 -33 27 -31 15 3 -21 -2 -34 -11 -28 -6 4 -8 11 -4 16
3 5 0 17 -8 26 -12 15 -10 16 12 10 14 -4 33 -7 43 -7z m1388 -110 c44 -29 79
-76 74 -101 -2 -10 1 -18 7 -16 6 1 19 -27 30 -63 42 -141 94 -293 116 -334
13 -25 17 -47 21 -111 1 -17 3 -18 12 -5 8 11 9 7 5 -18 -3 -19 -2 -31 3 -27
5 3 12 1 16 -5 3 -5 2 -10 -3 -10 -5 0 -12 -9 -15 -20 -5 -20 11 -40 36 -44 8
-1 25 -11 38 -23 78 -69 92 -84 86 -90 -11 -10 -91 20 -109 42 -14 17 -20 18
-37 8 -11 -7 -22 -9 -26 -3 -3 5 -1 11 5 15 5 3 10 11 10 16 0 6 -4 7 -10 4
-5 -3 -10 -2 -10 2 0 16 -62 34 -76 22 -10 -8 -22 -2 -49 25 -22 23 -35 30
-35 20 0 -8 -5 -12 -10 -9 -6 4 -8 11 -4 16 8 13 -25 38 -49 39 -10 0 -20 7
-23 15 -4 8 -10 13 -14 10 -4 -3 -12 1 -17 8 -12 18 -9 52 5 49 7 -1 12 5 12
13 0 8 -8 16 -17 17 -35 3 -56 11 -112 43 -15 8 -31 10 -40 6 -8 -5 -27 -5
-42 -1 -15 5 -31 5 -35 2 -4 -4 -4 -1 0 6 4 6 2 12 -3 12 -6 0 -11 5 -11 10 0
6 23 10 51 10 35 0 48 -3 43 -12 -4 -7 -3 -8 4 -4 21 13 13 26 -15 26 -18 0
-24 3 -17 10 5 5 60 10 122 11 62 1 112 5 112 10 0 5 7 9 15 9 20 0 75 56 75
76 0 9 -10 25 -22 36 -23 20 -23 20 -26 0 -4 -27 -49 -17 -84 20 -14 15 -31
28 -37 28 -6 0 -11 5 -11 10 0 6 6 10 14 10 8 0 16 6 19 14 4 10 -9 16 -51 21
-86 10 -106 16 -90 26 20 13 -17 11 -64 -3 -31 -9 -38 -16 -35 -30 4 -12 0
-18 -13 -18 -23 0 -15 45 11 64 16 11 13 12 -26 11 -33 -2 -45 2 -45 12 0 24
-40 -5 -41 -30 l-1 -22 -6 22 c-6 19 -9 20 -24 9 -10 -7 -15 -16 -11 -19 3 -4
1 -7 -6 -7 -7 0 -9 -4 -6 -10 3 -6 -1 -7 -10 -4 -11 5 -18 0 -22 -15 -3 -11
-12 -21 -20 -21 -8 0 -12 -4 -9 -8 3 -5 -4 -16 -15 -25 -21 -19 -33 -22 -24
-8 3 5 0 13 -6 17 -8 5 -9 3 -4 -6 6 -10 4 -12 -8 -7 -10 4 -21 -3 -32 -19 -9
-14 -22 -23 -30 -20 -7 2 -21 -2 -32 -9 -20 -16 -63 -21 -47 -6 5 5 16 11 24
13 8 2 23 11 34 21 11 9 25 17 32 17 7 0 25 12 39 26 14 14 32 23 40 20 8 -3
17 3 20 15 4 10 11 19 16 19 6 0 17 7 26 16 16 15 139 101 203 141 33 21 64
36 120 62 36 16 101 7 141 -19z m373 -289 c9 -13 55 -20 59 -8 5 17 27 -2 27
-24 0 -10 5 -19 10 -19 6 0 10 7 10 15 0 18 59 10 76 -11 12 -15 34 0 34 23 0
11 4 11 20 1 11 -7 20 -21 20 -30 0 -10 -9 -22 -20 -28 -11 -6 -20 -15 -20
-21 0 -6 7 -6 19 1 28 14 33 -2 7 -21 -17 -12 -25 -13 -44 -3 -20 10 -21 12
-6 18 16 6 15 8 -1 26 -30 33 -48 26 -41 -15 6 -29 4 -35 -11 -35 -15 0 -15
-2 -3 -9 8 -6 14 -25 14 -45 0 -40 25 -57 51 -36 8 7 15 9 15 4 1 -5 6 1 13
13 12 23 13 23 29 3 16 -18 16 -19 -3 -25 -14 -5 -17 -11 -10 -23 5 -9 5 -26
0 -37 -4 -11 -8 -31 -8 -46 -1 -41 -24 -80 -43 -75 -11 2 -18 -2 -18 -10 0 -8
10 -14 25 -14 40 0 29 -15 -25 -32 -51 -16 -69 -10 -27 10 19 9 17 11 -23 11
-25 1 -51 5 -58 9 -16 11 -6 38 16 47 14 5 14 7 2 15 -10 6 -23 4 -37 -5 -19
-13 -24 -13 -39 3 -16 16 -16 17 -1 20 21 4 22 18 3 25 -8 3 -14 15 -13 27 1
11 6 18 12 16 5 -2 9 -8 8 -13 -1 -5 11 -7 26 -5 27 4 60 47 46 60 -3 3 -5 0
-5 -7 0 -14 -40 -30 -57 -24 -20 8 -15 21 10 26 13 3 6 5 -17 6 -34 1 -37 3
-26 17 24 28 52 38 64 22 14 -19 50 -28 67 -17 12 7 12 9 0 9 -7 0 -11 6 -7
15 3 8 -2 21 -10 30 -14 13 -17 13 -31 0 -11 -11 -19 -13 -27 -5 -7 5 -16 7
-19 3 -4 -3 -9 2 -13 11 -3 9 -15 16 -25 16 -10 0 -19 5 -19 11 0 7 9 9 21 6
14 -4 28 2 44 18 12 14 24 24 26 22 2 -1 -1 3 -8 9 -7 6 -13 16 -13 23 0 6 -4
11 -9 11 -6 0 -22 11 -37 25 -15 14 -22 25 -16 25 6 0 13 -4 16 -9z m-899 -59
c-4 -12 -1 -11 16 4 11 10 22 19 24 19 11 0 35 -31 35 -46 0 -12 5 -16 16 -12
13 5 12 9 -6 28 -18 19 -19 23 -6 28 11 5 16 0 16 -13 0 -10 7 -23 16 -28 20
-11 10 -34 -11 -25 -8 3 -15 0 -15 -6 0 -6 5 -11 12 -11 6 0 8 -3 5 -7 -4 -3
-16 2 -27 12 -11 10 -21 15 -21 12 -1 -4 -2 -13 -3 -19 0 -7 -8 -13 -16 -14
-28 -1 -60 -15 -55 -25 4 -5 2 -9 -3 -9 -12 0 -68 54 -75 71 -4 11 -6 10 -6
-1 -1 -9 9 -24 21 -34 19 -17 20 -19 4 -28 -9 -5 -23 -7 -30 -5 -7 3 -19 1
-26 -3 -8 -5 -22 -3 -34 6 -24 16 -40 19 -31 4 3 -5 1 -10 -4 -10 -6 0 -11 5
-11 10 0 6 -4 10 -10 10 -5 0 -9 -5 -7 -11 1 -6 -10 -13 -25 -14 -16 -2 -28 1
-28 6 0 5 -5 9 -11 9 -5 0 -7 -5 -3 -12 5 -8 0 -9 -17 -5 -13 4 -30 7 -36 7
-7 0 -13 5 -13 11 0 5 4 8 9 4 6 -3 14 2 19 11 6 11 11 13 16 5 4 -6 2 -11 -5
-11 -7 0 -9 -3 -6 -6 4 -4 13 -1 21 5 8 7 20 10 26 6 7 -4 14 2 17 14 6 24 23
28 23 6 0 -8 5 -15 12 -15 6 0 8 3 5 7 -11 10 13 33 35 33 10 0 31 9 46 20 18
13 38 19 60 16 18 -2 32 1 32 7 0 6 3 7 8 3 4 -4 7 -13 7 -18 0 -6 6 -13 13
-16 7 -2 10 2 6 11 -3 8 0 18 5 22 6 3 8 11 5 17 -5 7 -2 8 5 4 7 -5 10 -15 6
-24z m-1275 -37 c0 -9 -6 -12 -17 -9 -14 5 -15 4 -4 -4 8 -6 30 -8 50 -5 24 3
32 2 23 -5 -11 -7 -7 -11 13 -14 16 -3 32 0 41 10 14 13 17 13 25 1 5 -8 9
-17 9 -21 0 -4 22 -5 49 -3 32 2 51 -1 54 -8 3 -7 34 -23 71 -36 36 -13 66
-28 66 -33 0 -6 6 -8 13 -5 10 4 13 -2 9 -20 -3 -18 -1 -24 7 -19 6 4 9 12 6
17 -4 5 -1 9 4 9 14 0 14 -47 1 -55 -5 -3 -10 -2 -10 3 0 6 -12 13 -26 16 -21
6 -24 9 -14 21 9 11 9 18 -4 30 -17 17 -20 11 -17 -27 2 -12 -5 -18 -18 -18
-18 0 -19 3 -11 26 14 37 12 39 -9 13 -11 -13 -23 -20 -27 -16 -5 4 -2 12 6
17 12 8 11 10 -5 10 l-20 1 20 15 c19 15 19 15 -8 10 -20 -3 -30 0 -38 16 -6
11 -13 17 -16 14 -3 -3 0 -12 6 -20 7 -8 10 -20 6 -26 -3 -5 -1 -10 4 -10 6 0
11 -4 11 -10 0 -5 -7 -7 -15 -3 -10 3 -15 1 -13 -7 5 -22 -20 -22 -41 -1 -24
24 -47 27 -54 9 -4 -8 -6 -7 -6 3 -1 9 -9 20 -18 23 -11 5 -13 10 -6 17 8 8
17 7 33 -1 31 -17 36 -5 10 22 -15 15 -24 19 -27 11 -2 -7 -11 -9 -20 -6 -11
4 -14 2 -9 -5 4 -7 1 -12 -8 -12 -8 0 -17 -6 -19 -12 -3 -7 -6 -3 -6 9 -1 12
5 23 11 25 7 3 2 7 -10 10 -19 5 -23 3 -22 -15 3 -37 1 -39 -29 -18 -16 12
-34 21 -40 21 -6 0 -11 5 -11 10 0 13 27 13 35 0 4 -6 11 -8 16 -4 6 3 2 12
-10 21 -12 8 -25 11 -31 8 -11 -7 -2 23 13 42 11 15 27 8 27 -12z m2819 -166
c22 -29 23 -31 5 -50 -13 -15 -15 -22 -6 -31 7 -7 12 -24 12 -39 0 -15 5 -31
11 -34 6 -4 8 -14 4 -23 -3 -9 -8 -44 -11 -77 -6 -75 -10 -88 -26 -79 -10 6
-9 3 0 -9 8 -9 10 -22 6 -29 -5 -7 -10 -33 -12 -58 -2 -25 -7 -47 -11 -50 -5
-3 -12 -18 -18 -34 -5 -17 -15 -32 -21 -34 -7 -2 -10 2 -6 12 3 9 2 16 -4 16
-11 0 -9 -33 3 -62 5 -13 -1 -21 -28 -34 -33 -16 -38 -16 -69 -1 -18 8 -51 19
-73 23 -29 5 -54 21 -89 55 -48 46 -50 49 -51 109 -1 41 3 64 11 67 6 2 10 13
7 23 -3 12 5 29 21 45 14 14 26 29 26 33 0 4 9 15 20 24 11 10 36 49 55 89 20
39 42 78 48 86 35 43 78 86 83 81 3 -3 17 -2 32 2 44 13 56 10 81 -21z m-1348
-29 c10 0 19 -7 19 -15 0 -17 25 -20 35 -5 3 6 18 9 33 9 21 -1 22 -2 7 -6
-41 -10 -34 -19 15 -19 27 1 58 -5 67 -12 16 -11 12 -12 -24 -8 -24 3 -43 1
-43 -5 0 -5 7 -9 15 -9 8 0 19 -9 25 -20 6 -11 16 -20 23 -19 9 0 9 2 0 6 -7
2 -13 11 -13 19 0 12 4 12 20 4 12 -7 17 -16 13 -27 -4 -10 -2 -14 4 -10 14 9
88 -74 84 -93 -2 -8 -8 -18 -14 -22 -8 -5 -6 -8 6 -8 9 0 17 -7 17 -15 0 -7
-8 -19 -17 -24 -17 -10 -17 -10 0 -11 10 0 25 -7 33 -15 19 -19 15 -19 -30 0
-20 9 -34 20 -31 25 3 5 1 11 -5 15 -5 3 -10 15 -10 25 0 10 -6 20 -12 23 -10
3 -10 8 1 21 13 16 12 16 -13 4 -16 -7 -23 -14 -17 -16 6 -2 15 -12 21 -21 8
-16 5 -18 -23 -17 -18 1 -31 6 -30 12 1 6 -10 9 -28 6 -27 -4 -28 -5 -12 -18
13 -10 14 -13 4 -14 -8 0 -20 -8 -27 -17 -13 -17 -13 -17 -14 0 0 9 -4 17 -10
17 -5 0 -10 7 -10 15 0 9 -6 12 -15 9 -8 -4 -22 -1 -30 6 -8 6 -23 9 -35 5
-12 -4 -26 -2 -33 3 -7 5 -33 9 -59 8 -33 -1 -48 2 -48 11 0 7 -7 13 -15 13
-8 0 -15 -4 -15 -9 0 -13 -43 0 -58 18 -12 14 -13 14 -8 -1 3 -10 1 -18 -4
-18 -6 0 -10 4 -10 10 0 5 -14 8 -31 6 -24 -3 -29 0 -24 12 4 12 3 12 -9 3
-11 -9 -15 -9 -20 1 -4 9 -8 9 -11 2 -6 -13 -55 -6 -55 7 0 5 5 9 10 9 6 0 10
5 10 10 0 18 -18 11 -25 -9 -4 -13 -12 -18 -21 -14 -11 4 -12 8 -4 13 7 5 0 9
-18 12 -20 3 -28 0 -25 -8 3 -9 -7 -9 -41 -1 -25 6 -44 13 -41 15 8 8 -28 31
-49 32 -12 0 -16 5 -12 16 3 9 1 14 -5 12 -6 -2 -10 -7 -10 -11 1 -4 1 -13 1
-21 0 -8 8 -17 18 -19 11 -3 7 -5 -10 -6 -22 -1 -28 4 -33 29 -5 25 -11 30
-26 25 -21 -7 -26 8 -6 22 6 5 69 9 139 8 71 0 129 3 130 7 2 4 36 9 76 10 40
1 75 5 78 9 3 5 29 8 59 8 30 -1 52 -5 49 -10 -3 -5 -1 -9 5 -9 5 0 11 5 13
11 2 6 26 13 53 15 27 3 51 7 54 10 3 2 11 2 19 -1 7 -3 22 -5 33 -5z m-511
-346 c0 -8 4 -14 10 -14 5 0 6 7 3 17 -4 11 -3 14 5 9 7 -4 12 -18 12 -32 0
-16 6 -24 18 -24 13 0 14 2 4 9 -17 10 -15 23 4 34 21 12 35 -1 32 -31 -3 -22
2 -27 32 -35 19 -5 49 -10 67 -11 27 -1 31 -5 30 -25 -2 -24 -27 -44 -27 -22
0 6 5 11 12 11 9 0 9 3 1 11 -8 8 -17 8 -31 0 -25 -13 -43 -15 -23 -2 11 7 9
11 -8 20 -24 14 -52 4 -30 -10 11 -7 11 -9 1 -9 -7 0 -20 7 -28 15 -23 22 -51
18 -58 -7 l-6 -23 -17 25 c-10 14 -18 29 -18 34 0 5 -6 11 -12 13 -8 3 -3 -16
11 -49 19 -42 29 -54 50 -56 29 -4 29 -4 20 -26 -5 -14 -8 -14 -21 -1 -8 8
-22 15 -30 15 -13 0 -12 -5 7 -25 19 -21 21 -25 7 -25 -9 0 -17 4 -17 8 0 4
-9 8 -20 8 -19 0 -19 -1 1 -22 16 -17 17 -22 6 -27 -8 -3 -25 4 -37 15 -34 32
-33 15 1 -20 17 -18 38 -32 46 -32 8 0 26 -9 40 -20 18 -14 21 -20 10 -20 -9
0 -19 -9 -22 -20 -9 -27 -25 -25 -25 3 0 32 -27 67 -53 67 -15 0 -18 -3 -9 -8
19 -12 11 -62 -10 -62 -9 0 -19 -4 -22 -9 -3 -5 -16 -7 -28 -3 -14 3 -19 2
-14 -6 10 -16 -12 -15 -27 1 -7 6 -13 22 -14 35 -3 26 20 30 43 7 9 -8 21 -15
27 -15 8 0 8 3 -1 9 -8 4 -13 10 -12 12 4 12 -14 38 -31 42 -10 3 -17 1 -13
-4 10 -17 -23 -9 -50 12 -17 14 -24 16 -20 6 4 -12 -2 -14 -30 -12 -19 2 -40
6 -46 10 -5 3 -10 1 -10 -4 0 -14 -37 -14 -45 -2 -3 6 -26 13 -50 17 -25 3
-45 11 -45 16 0 6 9 7 23 3 32 -11 117 -13 123 -3 3 4 -15 7 -40 5 -60 -5 -79
14 -35 36 31 14 31 15 9 22 -40 13 3 28 46 16 30 -8 34 -8 23 5 -6 8 -19 14
-28 14 -9 0 -22 9 -29 20 -16 26 -15 26 56 -10 69 -34 73 -35 66 -16 -3 7 -13
13 -22 12 -9 0 -17 6 -17 14 0 8 7 13 15 11 8 -2 29 -5 45 -6 17 -1 39 -6 49
-10 14 -6 17 -5 12 3 -4 7 -1 12 8 12 9 0 16 5 16 11 0 6 -6 9 -13 6 -7 -3
-24 3 -38 14 l-24 18 40 -10 c21 -6 66 -29 100 -51 37 -25 52 -32 40 -18 -11
12 -31 27 -45 32 -18 7 -21 11 -11 17 10 6 5 13 -18 24 -17 8 -31 11 -31 6 0
-6 -5 -7 -11 -3 -15 9 9 24 27 17 8 -3 11 4 10 21 -4 30 9 44 18 21 3 -8 1
-17 -5 -21 -12 -7 17 -44 34 -44 6 0 3 6 -6 13 -11 8 -15 20 -11 35 7 23 19
29 29 12 11 -18 36 1 29 24 -6 18 -5 19 10 7 9 -7 16 -20 16 -27z m595 26 c-3
-5 -1 -10 5 -10 6 0 8 -4 5 -10 -3 -5 1 -10 10 -10 9 0 15 -6 14 -12 -5 -38
18 -50 51 -28 11 8 8 9 -12 4 -22 -5 -28 -3 -28 10 0 18 45 23 55 6 3 -5 23
-10 44 -10 31 0 40 -5 49 -25 9 -19 9 -25 -1 -26 -9 0 -9 -2 1 -6 18 -7 15
-23 -5 -23 -14 0 -15 -2 -4 -9 16 -10 6 -31 -14 -31 -7 0 -16 -7 -19 -16 -3
-9 -15 -14 -28 -13 -13 2 -28 0 -33 -3 -16 -10 -130 16 -128 29 1 6 -6 9 -17
6 -12 -3 -22 1 -26 11 -4 9 -18 16 -33 16 -37 0 -64 21 -55 43 3 9 11 17 16
17 6 0 8 -7 4 -15 -4 -10 1 -15 15 -15 11 0 17 5 14 10 -10 16 11 12 25 -5 7
-8 16 -13 20 -10 5 3 11 1 15 -5 3 -5 12 -10 18 -10 7 0 5 5 -5 10 -18 11 -18
42 0 48 6 2 8 -5 5 -18 -4 -15 -2 -19 9 -15 9 4 15 20 16 38 1 24 -2 28 -9 17
-8 -11 -9 -9 -4 7 5 18 1 25 -19 33 -32 12 -34 20 -5 15 12 -3 29 0 38 5 21
12 24 12 16 0z m946 -289 c-14 -9 -7 -51 10 -51 16 0 10 -28 -10 -47 -37 -37
-34 -111 5 -96 15 5 48 -13 79 -43 10 -10 19 -13 23 -7 4 5 15 12 25 16 24 9
23 -27 -3 -63 -11 -15 -25 -50 -31 -78 -10 -43 -16 -51 -40 -56 -26 -5 -28 -8
-23 -46 4 -31 1 -40 -10 -40 -8 0 -17 -14 -21 -31 -6 -26 -10 -30 -31 -25 -17
5 -24 2 -24 -8 0 -8 5 -16 12 -18 7 -3 5 -13 -7 -31 -19 -30 -37 -34 -55 -12
-7 8 -16 12 -21 9 -13 -7 -11 10 2 23 8 8 8 13 -1 18 -7 4 -14 -2 -17 -15 -5
-18 -10 -20 -36 -14 -75 16 -127 73 -142 157 -7 38 1 46 24 25 12 -11 13 -9 7
7 -5 14 0 24 16 37 13 10 18 18 11 18 -7 0 -10 7 -7 15 4 8 11 12 18 8 6 -3 6
-1 -1 8 -20 20 -16 32 17 54 20 13 30 29 30 45 0 14 7 34 15 44 8 11 13 27 10
36 -3 11 4 21 20 30 18 10 25 22 25 43 0 17 3 28 6 24 3 -3 15 3 26 13 11 10
26 16 34 13 8 -3 18 6 25 21 8 16 20 26 33 26 16 0 18 -3 7 -9z m284 -72 c3
-13 9 -25 15 -27 12 -4 13 -27 1 -50 -17 -32 -41 -90 -41 -99 0 -6 -9 -20 -20
-33 l-20 -23 -20 23 c-20 23 -28 80 -12 80 5 0 18 8 29 18 20 17 27 37 24 75
-1 21 -21 23 -21 2 0 -16 -18 -20 -36 -7 -19 13 19 66 52 73 34 7 43 1 49 -32z
m-5107 -35 c-10 -38 -3 -58 12 -34 6 8 10 11 10 7 0 -4 6 -2 14 5 9 9 11 17 4
25 -6 8 -4 10 11 6 17 -4 18 -8 8 -24 -7 -11 -19 -21 -28 -24 -18 -6 -25 -70
-9 -80 6 -3 10 3 10 13 0 23 50 37 63 19 5 -9 12 -6 22 7 8 11 12 22 9 25 -3
3 -9 -1 -14 -9 -8 -12 -10 -12 -10 -1 0 9 -9 12 -30 9 -37 -6 -31 2 15 18 26
8 35 9 36 0 0 -6 5 0 10 13 5 13 12 21 15 18 4 -3 3 -14 -1 -24 -5 -10 -7 -24
-6 -32 3 -14 -32 -51 -48 -51 -5 0 -11 5 -13 12 -2 6 -11 9 -20 5 -12 -4 -15
-13 -10 -29 5 -18 7 -20 10 -5 4 20 7 20 33 7 13 -7 19 -7 19 0 0 5 5 10 11
10 19 0 39 28 39 55 0 15 4 24 10 20 20 -12 11 -60 -12 -70 -25 -11 -23 -32 2
-27 11 2 11 -1 -2 -11 -23 -19 -23 -27 2 -27 11 0 20 6 20 13 0 7 9 20 20 30
17 14 20 14 20 2 0 -8 -7 -15 -15 -15 -8 0 -15 -4 -15 -10 0 -5 9 -10 20 -10
11 0 20 -4 20 -9 0 -10 -57 -25 -84 -23 -11 2 -16 -1 -13 -5 4 -4 20 -8 35 -9
50 -3 54 -4 49 -16 -2 -8 -16 -12 -35 -10 -18 2 -32 -1 -32 -7 0 -6 -7 -11
-15 -11 -19 0 -19 -11 -1 -36 9 -12 11 -23 5 -30 -14 -18 -4 -59 14 -56 8 1
18 -5 20 -15 4 -14 5 -13 6 5 1 25 19 30 27 7 6 -16 -19 -48 -30 -38 -3 4 -6
-1 -6 -10 0 -8 8 -17 18 -20 14 -3 13 -6 -8 -16 -23 -11 -23 -11 -2 -7 29 6
49 -26 26 -45 -12 -10 -12 -14 -2 -20 9 -6 7 -9 -7 -9 l-20 -1 20 -11 c11 -6
21 -12 23 -13 7 -5 10 -45 4 -45 -4 0 -16 11 -26 25 -10 14 -22 25 -26 25 -4
0 -5 -11 -2 -25 2 -14 11 -25 18 -25 9 0 14 -11 14 -30 0 -26 -4 -30 -27 -30
-22 0 -25 -2 -13 -10 12 -8 11 -10 -7 -10 -16 0 -21 -4 -17 -15 4 -9 0 -15
-10 -15 -9 0 -16 -4 -16 -10 0 -5 12 -10 26 -10 14 0 32 -6 39 -14 16 -16 10
-27 -11 -19 -8 3 -14 0 -14 -6 0 -6 -7 -11 -15 -11 -9 0 -15 -9 -15 -23 0 -29
-7 -37 -26 -30 -19 7 -18 40 2 51 11 6 13 11 5 16 -6 4 -14 0 -17 -8 -3 -9
-17 -16 -30 -16 -13 0 -24 -4 -24 -10 0 -5 7 -7 15 -4 8 4 15 1 15 -5 0 -6 -8
-11 -17 -12 -11 0 -13 -3 -5 -6 6 -2 10 -9 7 -14 -8 -11 -45 12 -45 28 0 7 -7
10 -16 6 -12 -4 -14 0 -8 21 4 16 2 26 -5 26 -6 0 -11 -12 -12 -27 0 -16 -3
-22 -6 -14 -4 11 -7 11 -14 0 -4 -7 -11 -10 -15 -6 -4 4 0 15 9 25 10 10 17
24 17 30 0 7 9 12 20 12 15 0 20 -7 21 -27 l0 -28 10 25 c8 20 12 22 19 10 9
-13 10 -13 11 0 0 10 2 11 6 3 2 -7 12 -13 21 -13 15 1 15 2 0 14 -10 7 -18
19 -19 27 0 8 -4 5 -9 -6 -7 -18 -8 -19 -15 -2 -5 11 -18 17 -37 17 -28 0 -30
2 -24 26 6 23 5 24 -7 12 -9 -8 -12 -26 -9 -46 3 -25 -1 -37 -17 -51 -28 -24
-27 -39 5 -47 17 -5 22 -10 15 -17 -7 -7 -15 -6 -26 3 -8 7 -24 10 -35 7 -20
-5 -20 -5 1 24 17 24 18 33 9 44 -7 8 -15 14 -18 13 -20 -2 -32 3 -27 12 4 6
11 7 17 4 6 -4 8 1 5 12 -14 52 -17 79 -7 64 8 -12 10 -11 10 8 0 13 -4 20
-10 17 -6 -3 -15 6 -20 20 -9 23 -15 26 -38 22 l-27 -6 28 12 c26 10 28 16 25
49 -3 34 -1 37 17 32 16 -5 18 -4 8 7 -17 18 -16 44 2 59 17 14 21 45 5 35 -5
-3 -10 3 -10 15 0 12 -4 18 -11 15 -7 -5 -5 -15 6 -31 8 -13 13 -24 11 -24 -2
0 -12 -3 -20 -6 -13 -5 -15 -2 -9 12 6 18 6 18 -14 2 -11 -10 -33 -18 -49 -18
l-29 0 29 19 c17 11 33 18 37 15 11 -6 21 14 14 26 -5 8 -11 7 -21 -1 -11 -9
-14 -7 -14 12 0 19 2 21 10 9 9 -13 10 -13 10 0 0 13 2 13 9 1 8 -12 12 -12
26 2 9 10 12 17 6 17 -6 0 -11 8 -12 18 0 14 -2 14 -8 -3 -8 -19 -8 -19 -19 2
-9 17 -20 21 -47 19 -23 -2 -34 1 -32 8 3 6 10 10 16 8 6 -1 11 5 11 13 0 20
9 19 33 -2 19 -17 20 -17 14 0 -4 9 -2 17 3 17 19 0 10 21 -12 30 -13 5 -16 9
-8 9 8 1 27 -6 42 -13 17 -9 30 -11 34 -5 3 5 10 7 15 4 5 -4 9 1 9 9 0 10 -7
13 -21 11 -21 -4 -21 -4 -4 15 10 11 15 23 12 27 -4 3 -7 1 -7 -5 0 -20 -16
-13 -17 7 -1 11 6 21 17 24 14 4 20 -1 23 -22 l3 -26 11 25 c7 15 12 19 12 9
1 -8 8 -24 17 -35 14 -18 15 -18 8 6 -4 14 -8 34 -9 45 -1 16 -9 20 -33 20
-39 -1 -43 14 -4 16 21 2 18 3 -13 9 -22 4 -33 8 -24 9 9 0 19 10 22 22 4 13
10 18 17 14 9 -6 9 -9 0 -15 -9 -5 -9 -9 -1 -14 13 -8 44 7 41 20 -1 5 3 10 9
12 6 2 11 -1 11 -7 0 -6 10 -11 21 -11 17 0 20 4 15 23 -3 12 -6 28 -6 36 0 7
-6 11 -15 8 -17 -7 -29 8 -20 23 5 8 11 7 21 -1 12 -10 16 -8 21 9 3 12 9 22
13 22 5 0 4 -16 -2 -36z m4251 -737 c6 -8 23 -12 41 -9 26 4 30 1 30 -18 0
-18 -3 -20 -14 -11 -11 9 -18 3 -35 -31 -12 -24 -17 -44 -11 -46 6 -2 10 -10
10 -17 0 -9 11 -12 33 -10 17 1 37 -2 44 -7 7 -5 18 -6 25 -2 7 4 28 11 48 14
19 3 34 12 33 18 -2 7 2 12 7 12 6 0 10 -6 10 -12 0 -10 3 -9 9 1 10 15 31 7
31 -13 0 -8 -8 -16 -19 -19 -10 -2 -25 -17 -33 -33 -8 -16 -20 -28 -26 -27 -7
2 -12 -4 -12 -12 0 -9 -8 -19 -17 -22 -26 -10 -50 -35 -57 -60 -4 -14 -15 -23
-27 -23 -10 0 -19 -5 -19 -10 0 -16 -43 -29 -62 -18 -22 11 -23 37 -3 44 29
11 15 24 -26 24 -52 0 -69 10 -103 59 -36 51 -30 72 17 64 27 -4 43 1 72 20
22 15 32 28 25 32 -6 4 -8 15 -5 26 4 11 -2 31 -14 48 -26 36 -26 39 2 44 12
2 25 5 28 6 4 0 12 -5 18 -12z m-649 -17 c-11 -8 -8 -9 12 -4 20 4 49 -5 112
-35 47 -23 91 -41 98 -41 7 0 24 -9 38 -20 19 -15 21 -20 8 -20 -9 0 -24 -7
-33 -16 -9 -9 -18 -14 -21 -11 -3 3 -23 0 -43 -8 -21 -7 -44 -9 -52 -5 -16 8
-112 22 -147 21 -22 -1 -22 0 -6 31 13 26 14 35 4 51 -9 16 -9 21 2 28 7 5 8
9 2 9 -6 0 -11 7 -11 15 0 10 10 15 26 15 21 0 23 -2 11 -10z m424 -659 c4 -5
-3 -80 -14 -168 -10 -87 -21 -178 -24 -203 -2 -25 -10 -84 -17 -132 -10 -75
-16 -90 -37 -104 -19 -13 -22 -18 -11 -25 11 -7 11 -9 -2 -9 -12 0 -15 -7 -11
-27 3 -16 11 -32 18 -36 17 -10 18 -39 3 -54 -9 -9 -8 -16 5 -28 9 -9 14 -21
11 -26 -10 -15 -25 -10 -25 7 0 9 -6 14 -13 11 -8 -3 -14 0 -14 6 -1 31 -14
92 -23 102 -12 14 -1 57 13 48 6 -3 7 -1 3 5 -4 7 -14 12 -22 12 -18 0 -18 17
1 36 16 16 21 39 7 30 -4 -2 -14 -1 -22 5 -13 7 -12 9 3 9 22 0 21 8 -3 48
-13 21 -21 52 -21 87 -1 49 -3 53 -20 42 -15 -9 -23 -7 -43 12 -14 14 -29 39
-32 58 -3 18 -11 33 -18 33 -6 0 -4 6 5 13 8 7 18 20 22 31 4 10 13 16 22 13
8 -4 16 2 20 14 4 10 11 20 16 20 38 5 54 20 82 74 29 59 62 91 97 98 14 2 28
5 32 6 4 0 9 -3 12 -8z m-239 -575 c15 -22 15 -31 1 -100 -9 -41 -16 -87 -16
-101 0 -15 -5 -35 -10 -46 -16 -29 -37 -3 -45 57 -4 27 -14 66 -22 86 -34 86
46 175 92 104z"/>
<path d="M5974 6834 c3 -9 6 -20 6 -25 0 -5 8 -9 18 -9 16 -1 16 -1 0 -10 -13
-8 -15 -19 -11 -45 3 -19 2 -35 -3 -36 -5 0 -48 -1 -96 -3 -95 -2 -130 -17
-81 -33 15 -6 37 -7 48 -2 34 13 45 10 46 -13 1 -16 3 -18 6 -6 6 23 36 33 47
15 8 -12 15 -10 39 14 33 34 39 35 72 13 27 -18 35 -5 10 16 -8 7 -15 17 -15
22 0 6 -9 23 -20 38 -11 16 -20 32 -19 37 5 19 -15 43 -33 43 -14 0 -18 -5
-14 -16z"/>
<path d="M6210 6670 c0 -10 -9 -24 -21 -30 -15 -9 -19 -19 -17 -43 3 -29 0
-32 -25 -32 -17 1 -40 -10 -60 -28 -18 -15 -26 -26 -19 -22 6 3 12 1 12 -5 0
-8 9 -10 25 -6 14 4 34 2 44 -4 17 -9 20 -5 26 28 11 63 85 97 85 39 0 -13 5
-28 12 -35 14 -14 48 -16 48 -3 0 30 -37 91 -56 91 -11 0 -33 34 -34 53 0 24
-20 22 -20 -3z"/>
<path d="M6385 6649 c-7 -21 -9 -21 -20 -6 -13 19 -35 23 -35 7 0 -5 3 -10 8
-10 4 0 18 -18 32 -40 15 -25 31 -40 45 -40 15 0 17 -2 6 -9 -10 -6 -10 -10
-1 -16 6 -4 9 -13 6 -20 -3 -8 2 -19 10 -26 9 -7 13 -21 11 -31 -3 -10 -1 -20
4 -23 4 -3 4 -17 -2 -32 -7 -20 -6 -28 8 -39 16 -12 16 -13 -9 -14 -16 0 -28
-5 -28 -10 0 -10 47 -6 57 4 3 3 6 17 6 31 0 15 6 29 13 32 15 5 48 -16 39
-25 -3 -3 5 -10 17 -16 38 -20 33 -36 -11 -36 -23 0 -41 -3 -41 -7 1 -15 50
-44 61 -37 7 4 10 1 7 -7 -3 -8 1 -20 9 -27 18 -18 17 -43 -2 -36 -8 4 -15 2
-15 -4 0 -5 6 -12 14 -15 9 -4 12 -14 9 -27 -5 -18 -2 -20 20 -15 14 4 28 2
32 -4 3 -6 10 -9 15 -6 5 3 27 -4 49 -16 37 -19 45 -30 44 -66 0 -6 6 -9 13
-6 8 3 12 9 9 13 -3 4 6 11 20 14 30 8 32 22 5 31 -15 5 -19 12 -15 27 7 20
-22 51 -37 42 -4 -3 -5 2 -2 10 4 10 1 16 -9 16 -8 0 -17 7 -21 15 -7 18 5 20
23 3 10 -11 11 -10 6 5 -4 9 -11 17 -16 17 -5 0 -9 7 -9 15 0 8 -5 15 -11 15
-6 0 -9 -6 -6 -13 9 -23 -36 -8 -56 19 -19 25 -14 49 7 41 19 -8 19 60 0 75
-43 36 -55 51 -50 64 5 12 1 14 -16 9 -17 -6 -20 -4 -16 13 8 30 -4 41 -45 44
-30 3 -36 6 -31 21 3 10 0 24 -6 32 -7 8 -10 21 -6 30 6 17 -22 35 -43 27 -8
-2 -20 3 -27 12 -11 16 -13 16 -19 -5z"/>
<path d="M5947 6292 c-10 -10 -17 -23 -17 -28 0 -16 58 -74 73 -74 8 0 17 -10
20 -22 5 -18 8 -19 22 -8 13 11 19 9 40 -10 14 -13 28 -21 31 -17 4 4 -1 9
-10 13 -9 3 -16 14 -16 23 0 13 7 17 28 15 53 -7 92 -16 98 -25 3 -5 14 -9 26
-9 13 0 18 -5 15 -14 -6 -16 25 -30 63 -27 14 1 40 2 58 3 19 0 32 6 32 13 0
9 -8 11 -22 7 -17 -4 -20 -2 -15 13 7 17 6 17 -20 0 -21 -14 -28 -15 -31 -5
-3 8 -18 26 -35 41 -25 23 -37 27 -86 26 -64 -2 -161 37 -161 63 0 9 -15 21
-33 28 -42 15 -41 15 -60 -6z"/>
<path d="M6500 5445 c-7 -8 -16 -12 -21 -9 -5 3 -9 1 -9 -5 0 -5 5 -13 10 -16
25 -16 7 -27 -35 -23 -26 3 -45 1 -45 -4 0 -6 -11 -7 -26 -4 -16 4 -23 3 -20
-3 4 -5 2 -12 -3 -15 -5 -4 -13 -1 -16 5 -9 13 -32 -18 -32 -42 0 -11 6 -15
20 -11 14 3 18 1 13 -6 -4 -7 -14 -12 -21 -12 -9 0 -12 -6 -9 -15 4 -8 1 -15
-5 -15 -6 0 -11 -4 -11 -8 0 -5 15 -6 33 -4 21 3 45 19 72 48 22 24 60 51 83
60 40 15 43 19 38 45 -3 17 -1 29 6 31 9 3 9 6 1 11 -6 4 -16 0 -23 -8z"/>
<path d="M4111 785 c-6 -24 -19 -52 -30 -62 -10 -10 -23 -28 -30 -40 -13 -25
-15 -123 -2 -123 4 0 5 -17 1 -38 -4 -26 -2 -42 6 -50 19 -17 24 -15 24 11 0
13 3 27 7 31 4 4 9 26 10 49 2 23 8 57 14 75 6 18 11 55 11 82 -1 27 3 52 9
55 11 8 12 42 0 49 -5 3 -14 -14 -20 -39z"/>
<path d="M4226 533 c-10 -27 -21 -55 -26 -65 -5 -9 -5 -29 0 -48 9 -30 4 -60
-9 -60 -3 0 -13 -15 -20 -32 -8 -18 -24 -40 -34 -49 -15 -12 -17 -20 -10 -35
14 -28 9 -115 -8 -128 -8 -6 -15 -34 -17 -64 l-4 -52 45 0 46 0 10 53 c6 28
13 86 16 127 3 41 12 104 19 140 39 180 43 231 22 249 -11 9 -17 2 -30 -36z"/>
<path d="M3997 384 c-3 -4 -3 -19 0 -35 5 -25 3 -27 -18 -22 -16 3 -20 2 -11
-4 9 -7 10 -16 3 -36 -6 -15 -8 -34 -4 -42 3 -9 -6 -44 -19 -78 -14 -34 -30
-86 -35 -114 l-10 -53 66 0 c38 1 77 7 91 15 19 11 21 14 8 15 -10 0 -20 11
-24 25 -6 26 15 87 28 79 13 -9 9 15 -8 40 -14 22 -13 27 5 62 26 49 26 51 -4
58 -25 6 -35 26 -13 26 9 0 9 3 0 12 -7 7 -12 20 -12 29 0 9 -7 20 -16 23 -19
7 -19 7 -27 0z"/>
<path d="M4648 353 c-16 -4 -22 -43 -7 -43 4 0 6 -19 4 -42 -2 -23 1 -48 7
-56 9 -10 9 -15 -1 -22 -9 -5 -10 -10 -3 -14 11 -6 6 -35 -8 -46 -3 -3 -14
-18 -24 -34 -19 -29 -19 -30 4 -48 13 -10 30 -16 38 -13 8 3 16 -3 19 -15 3
-11 12 -20 19 -20 19 0 18 49 -1 56 -19 8 -19 28 1 70 13 27 14 37 4 49 -7 8
-8 20 -3 27 16 26 9 73 -12 79 -16 4 -19 12 -17 42 2 20 2 36 0 36 -2 -1 -11
-3 -20 -6z"/>
<path d="M5440 140 c0 -6 -4 -9 -9 -5 -15 9 -62 -48 -55 -65 3 -8 8 -22 11
-30 7 -24 53 -40 115 -40 58 0 59 0 47 23 -7 12 -15 24 -19 27 -4 3 -26 27
-49 53 -22 27 -41 43 -41 37z"/>
</g>
</svg>
